/* XPM */
static char *result[] = {
/* columns rows colors chars-per-pixel */
"64 64 14 1 ",
"  c #5F002A",
". c #772A2A",
"X c #5B3356",
"o c #545778",
"O c #9D0701",
"+ c #A0592A",
"@ c #D04A01",
"# c #EC8300",
"$ c #B38449",
"% c #6A8580",
"& c #9FB3A1",
"* c #FFD980",
"= c #DCD5C5",
"- c None",
/* pixels */
"----------------------------------------------------------------",
"----------------------------------------------------------------",
"----------------------------------------------------------------",
"----------------------------------------------------------------",
"----------------------------------------------------------------",
"----------------------------------------------------------------",
"---------XXX----------------------------------------------------",
"--------XXX-----------------------------------------------------",
"-------XXXX-----------------------------------------------------",
"------XX OX-----------------------------------------------------",
"-----XX OXX-------------------XXXXX-----------------------------",
"----XX *OXX-----------------XXXXXXXXX---------------------------",
"----XX *OXX----------------XXX%%%%%XXX--------------------------",
"---XX **OXX---------------XXX%&====%XXX-------------------------",
"---XX *#OXX---------------XX%=======%XX-------------------------",
"---XX *#OXX--------------XX%========&XX-------------------------",
"---XX *@#OXX-------------XX&========&XX-------------------------",
"---XX *@#OXX-------------XX&========%XX-------------------------",
"----XX @#OXX-------------XX%======oo%XX-------------------------",
"----XX #@#OXX------------XX%oo===ooo%XX-------------------------",
"-----XX O# XX------------XX%ooo==oo=oXX-------------------------",
"-----XX #O XX-----------XXXo=oo=%==&XX--------------------------",
"------XX O@ XX---------XXXXX&==oo=&oXX--------------------------",
"------XX  O XX--------XX===Xo&=%%&oXX---------------------------",
"------XX O*@ XX------XX%====Xo&=oo%XX---------------------------",
"------XX *** XXX-----XXo&===X%oo=&oXXXX-------------------------",
"------XX **#O=%XXX--XXXoo%=&%X&=ooXXXXXX------------------------",
"------XX O*#O==%XXXXXX=%oXo%=XooXXX&===XX-----------------------",
"-------XX ##O=o%=%XX%=%oXX%&X=o&&oo%====XX----------------------",
"--------XXOOXXXoo=%==%oXXXXo=XXooXXo%===%XX---------------------",
"---------XXXXXXXXoo=&oXX-XX&X=o&&o=XX%=&oXX---------------------",
"----------XX---XXXXoXXX---XX=XX&&XX=Xo%ooXX---------------------",
"-----------------XXXXX-----XX=XooX=X&%Xo=%XX--------------------",
"-------------------X--------XXX&&......o=%XX--------------------",
"----------------------------XXX..+$$$$$.o=%XX-------------------",
"---------------------------XXX.$$$.+++.$ ==XX-------------------",
"--------------------------XX=.$+++.+++.+$ =XX-------------------",
"-------------------------XX=.$++++.+++.+++ XX-------------------",
"------------------------XX&o.$.+++.+++.+++ XX-------------------",
"------------------------XX=.$+.+++++++.++. XX-------------------",
"-----------------------XX&o.$+.++++++++++. XX-------------------",
"-----------------------XX&o.$+.+++++++.++. XX-------------------",
"----------------------XX=%X.$+.+++++++.++. XX-------------------",
"----------------------XX==X.$+.+++.+++.++ XX--------------------",
"----------------------XX&oXX $.+++.+++.+. XX--------------------",
"---------------------XX&ooXXX .+++.+++.. XX---------------------",
"--------------------XX&=&XX-XX .++.++.  XX----------------------",
"--------------------X=&=XX---XX       &XX-----------------------",
"------------------------------XXXXXX&&=XX-----------------------",
"---------------------------------XXXXXXX------------------------",
"----------------------------------------------------------------",
"----------------------------------------------------------------",
"----------------------------------------------------------------",
"----------------------------------------------------------------",
"----------------------------------------------------------------",
"----------------------------------------------------------------",
"----------------------------------------------------------------",
"----------------------------------------------------------------",
"----------------------------------------------------------------",
"----------------------------------------------------------------",
"----------------------------------------------------------------",
"----------------------------------------------------------------",
"----------------------------------------------------------------",
"----------------------------------------------------------------"
};
