/* XPM */
static char *result[] = {
/* columns rows colors chars-per-pixel */
"64 64 15 1 ",
"  c #5F002A",
". c #772A2A",
"X c #5B3356",
"o c #545778",
"O c #9D0701",
"+ c #A0592A",
"@ c #D04A01",
"# c #EC8300",
"$ c #B38449",
"% c #6A8580",
"& c #9FB3A1",
"* c #FFD980",
"= c #DCD5C5",
"- c white",
"; c None",
/* pixels */
";;;;;;;;;;;;;;;;;;;;;;;;;;;;;;;;;;;;;;;;;;;;;;;;;;;;;;;;;;;;;;;;",
";;;;;;;;;;;;;;;;;;;;;;;;;;;;;;;;;;;;;;;;;;;;;;;;;;;;;;;;;;;;;;;;",
";;;;;;;;;;;;;;;;;;;;;;;;;;;;;;;;;;;;;;;;;;;;;;;;;;;;;;;;;;;;;;;;",
";;;;;;;;;;;;;;;;;;;;;;;;;;;;;;;;;;;;;;;;;;;;;;;;;;;;;;;;;;;;;;;;",
";;;;;;;;;;;;;;;;;;;;;;;;;;;;;;;;;;;;;;;;;;;;;;;;;;;;;;;;;;;;;;;;",
";;;;;;;;;;;;;;;;;;;;;;;;;;;;;;;;;;;;;;;;;;;;;;;;;;;;;;;;;;;;;;;;",
";;;;;;;;;;;;;;;;;;;;;;;;;;;;;;;;;;;;;;;;;;;;;;;;;;;;;;;;;;;;;;;;",
";;;;;;;;;;;;;;;;;;;;;;;;;;;;;;;;;;;;;;;;;;;;;;;;;;;;;;;;;;;;;;;;",
";;;;;;;;;;;;;;;;;;;;;;;;;;;;;;;;;;;;;;;;;;;;;;;;;;;;;;;;;;;;;;;;",
";;;;;;;X;;;;;;;;;;;;;;;;;;;;;;;;;;;;;;;;;;;;;;;;;;;;;;;;;;;;;;;;",
";;;;;;;X;;;;;;;;;;;;;;;;;;;;;;;;;;;;;;;;;;;;;;;;;;;;;;;;;;;;;;;;",
";;;;;;;X;;;;;;;;;;;;;;;;;;;;;;;;;;;;;;;;;;;;;;;;;;;;;;;;;;;;;;;;",
";;;;;;XX;;;;;;;;;;;;;;;;;;;;;;XXXXX;;;;;;;;;;;;;;;;;;;;;;;;;;;;;",
";;;;;;XX;;;;;;;;;;;;;;;;;;;;XXXXXXXXX;;;;;;;;;;;;;;;;;;;;;;;;;;;",
";;;;;;XXX;;;;;;;;;;;;;;;;;;XXX%%%%%XXX;;;;;;;;;;;;;;;;;;;;;;;;;;",
";;;;;;XXX;;;;;;;;;;;;;;;;;XXX%&====%XX;;;;;;;;;;;;;;;;;;;;;;;;;;",
";;;;;XXOX;;;;;;;;;;;;;;;;;XX%=======%XX;;;;;;;;;;;;;;;;;;;;;;;;;",
";;;;;XXOX;;;;;;;;;;;;;;;;XX%========&XX;;;;;;;;;;;;;;;;;;;;;;;;;",
";;;;;XXOXX;;;;;;;;;;;;;;;XX&========&XX;;;;;;;;;;;;;;;;;;;;;;;;;",
";;;;;XXOXX;;;;;;;;;;;;;;;XX&========%XX;;;;;;;;;;;;;;;;;;;;;;;;;",
";;;;;XXO X;;;;;;;;;;;;;;;XX%======oo%XX;;;;;;;;;;;;;;;;;;;;;;;;;",
";;;;;XXO X;;;;;;;;;;;;;;;XX%oo===ooo%XX;;;;;;;;;;;;;;;;;;;;;;;;;",
";;;;;XXO XX;;;;;;;;;;;;;;XX%ooo==oo=oXXX;;;;XXX;;;;;;;;;;;;;;;;;",
";;;;;XXOOXX;;;;;;;;;;;;;;XXo=oo=%==&X==XX;;XXXXX;;;;;;;;;;;;;;;;",
";;;;;XXO@ X;;;;;;;;;;;;;;;XX&==oo=&oX==%XXXX..XXX;;;;;;;;;;;;;;;",
";;;;;XXO@ X;;;;;;;;;;;;;;;XXo&=%%&oX&&&o%XX.+$.XXX;;;;;;;;;;;;;;",
";;;;;XXO@ XX;;;;;;;;;;;;;;XXXo&=ooX%%%o=o%.+$.. XX;;;;;;;;;;;;;;",
";;;;;XXO@OXX;;;;;;;;;;;;;XX==Xoo=&X%ooXX&.+$+.+. XX;;;;;;;;;;;;;",
";;;;;XXO@@ X;;;;;;;;;;;;XX===&X=ooXXXoXXX.$.+.+. XX;;;;;;;;;;;;;",
";;;;;XXXO@ XX;;;;;;;;;;XX===&%oXoX&=&%XX.+$+.+.. XX;;;;;;;;;;;;;",
";;;;;;XXO@ XX;;;;;;;;;XX%===%oXX&o=%oXXX.$.+.+.. XX;;;;;;;;;;;;;",
";;;;;;XXO#O X;;;;;;;;;XXo&=o=&oXXXX&%XXX.$.++++. XX;;;;;;;;;;;;;",
";;;;;;XXO#@ XX;;;;;;;;;XXooXX=&oXX&=XXX.+$.+++.. XX;;;;;;;;;;;;;",
";;;;;;XXO@@ XX;;;;;;;;;;XXXXXX=&oX=XXXX.$+.+++. XX;;;;;;;;;;;;;;",
";;;;;;XXXO#@ XX;;;;;;;;;;XXXXXooooXXXX%.$+.+.+. XX;;;;;;;;;;;;;;",
";;;;;;;XXO#@ XX;;;;;;;;;;;;XXXXo==oXX=&.$+.+.+. XX;;;;;;;;;;;;;;",
";;;;;;;XXO#@@ XX;;;;;;;;;;;;XXXo==&oXX=.$+.+.. XX;;;;;;;;;;;;;;;",
";;;;;;;XXO@#@ XX;;;;;;;;;;;XX=XXoo==oXXX $.+.. XX;;;;;;;;;;;;;;;",
";;;;;;;XXO@#@@ XX;;;;;;;;;XX=&o%XXo==O@ X .+. XX;;;;;;;;;;;;;;;;",
";;;;;;;;XXO#@@ XX;;;;;;;;;XX=XX=&XXoO*#@ X   XX;;;;;;;;;;;;;;;;;",
";;;;;;;;XXO##@@ XX;;;;;;;;XXo===XXXXO**@OXXXXX;;;;;;;;;;;;;;;;;;",
";;;;;;;;XXO@#@@@ XXX;;;;;XX=oXooooXXXO*@OXXXX;;;;;;;;;;;;;;;;;;;",
";;;;;;;;;XXO##@@@ XXXXX;;XX=oXXXXXXXoO#@OOXX;;;;;;;;;;;;;;;;;;;;",
";;;;;;;;;XX #*@#@@  XXXXXX==XXXXXXXXX #@@*OXX;;;;;;;;;;;;;;;;;;;",
";;;;;;;;;XX #*#@#@@O   XX=&&XXXXXXXo  @##**OXX;;;;;;;;;;;;;;;;;;",
";;;;;;;;;;XX #*@@#@@@OO             ##***##* XX;;;;;;;;;;;;;;;;;",
";;;;;;;;;;XX #*#@@#@@@@@@OOOOO@@@#****###@@@* XX;;;;;;;;;;;;;;;;",
";;;;;;;;;;;XX #*#@@##@@@@@@@#########@@@@@@@#* XX;;;;;;;;;;;;;;;",
";;;;;;;;;;;XX ##*#@@##@@@@@@@@@@@@@@@@@@@@###*- XX;;;;;;;;;;;;;;",
";;;;;;;;;;;;XX #**#@###@###@@@@@@@@@#####******- XX;;;;;;;;;;;;;",
";;;;;;;;;;;;XX @#**#@*##@@@#####**************#*- XX;;;;;;;;;;;;",
";;;;;;;;;;;;;XX @#**##**###@@@@@@@@@@@@@@@@@@###*- XX;;;;;;;;;;;",
";;;;;;;;;;;;;;XX @#**###****###@@@@@@@@@@#####****- XX;;;;;;;;;;",
";;;;;;;;;;;;;;;XX @#*-*####*****##########**--**##*- XX;;;;;;;;;",
";;;;;;;;;;;;;;;;XX @##*-*##@@#*********----*#@@##***- XX;;;;;;;;",
";;;;;;;;;;;;;;;;;XX @###*--*#@@@@@@@@@####@@#*****---* XX;;;;;;;",
";;;;;;;;;;;;;;;;;;XX O@###**---**************-----***## XX;;;;;;",
";;;;;;;;;;;;;;;;;;;XXXOO@####**********----------*##@  XX;;;;;;;",
";;;;;;;;;;;;;;;;;;;;XXXXOOO@@@#####************##@   XXX;;;;;;;;",
";;;;;;;;;;;;;;;;;;;;;;XXXXXOOOO@@#############@   XXXXX;;;;;;;;;",
";;;;;;;;;;;;;;;;;;;;;;;;XXXXXXXOOOOOOO         XXXXXX;;;;;;;;;;;",
";;;;;;;;;;;;;;;;;;;;;;;;;;;XXXXXXXXXXXXXXXXXXXXXXX;;;;;;;;;;;;;;",
";;;;;;;;;;;;;;;;;;;;;;;;;;;;;;;XXXXXXXXXXXXXXXX;;;;;;;;;;;;;;;;;",
";;;;;;;;;;;;;;;;;;;;;;;;;;;;;;;;;;;;;;;;;;;;;;;;;;;;;;;;;;;;;;;;"
};
