/* XPM */
static char *result[] = {
/* columns rows colors chars-per-pixel */
"64 64 15 1 ",
"  c #5F002A",
". c #772A2A",
"X c #5B3356",
"o c #545778",
"O c #9D0701",
"+ c #A0592A",
"@ c #D04A01",
"# c #EC8300",
"$ c #B38449",
"% c #6A8580",
"& c #9FB3A1",
"* c #FFD980",
"= c #DCD5C5",
"- c white",
"; c None",
/* pixels */
";;;;;;;;;;;;;;;;;;;;;;;;;;;;;;;;;;;;;;;;;;;;;;;;;;;;;;;;;;;;;;;;",
";;;;;;;;;;;;;;;;;;;;;;;;;;;;;;;;;;;;;;;;;;;;;;;;;;;;;;;;;;;;;;;;",
";;;;;;;;;;;;;;;;;;;;;;;;;;;;;;;;;;;;;;;;;;;;;;;;;;;;;;;;;;;;;;;;",
";;;;;;;;;;;;;;;;;;;;;;;;;;;;;;;;;;;;;;;;;;;;;;;;;;;;;;;;;;;;;;;;",
";;;;;;;;;;;;;;;;;;;;;;;;;;;;;;;;;;;;;;;;;;;;;;;;;;;;;;;;;;;;;;;;",
";;;;;;;;;;;;;;;;;;;;;;;;;;;;;;;;;;;;;;;;;;;;;;;;;;;;;;;;;;;;;;;;",
";;;;;;;;;;;;;;;;;;;;;;;;;;;;;;;;;;;;;;;;;;;;;;;;;;;;;;;;;;;;;;;;",
";;;;;;;;;;;;;;;;;;;;;;;;;;;;;;;;;;;;;;;;;;;;;;;;;;;;;;;;;;;;;;;;",
";;;;;;;;;;;;;;;;;;;;;;;;;;;;;;;;;;;;;;;;;;;;;;;;;;;;;;;;;;;;;;;;",
";;;;;;;;;;;;;;;;;;;;;;;;;;;;;;;;;;;;;;;;;;;;;;;;;;;;;;;;;;;;;;;;",
";;;;;;;;;;;;;;;;;;;;;;;;;;;;;;;;;;;;;;;;;;;;;;;;;;;;;;;;;;;;;;;;",
";;;;;;;;;;;;;;;;;;;;;;;;;;;;;;;;;;;;;;;;;;;;;;;;;;;;;;;;;;;;;;;;",
";;;;;;;;;;;;;;;;;;;;;;;;;;;;;;;;XXXXX;;;;;;;;;;;;;;;;;;;;;;;;;;;",
";;;;;;;;;;;;;;;;;;;;;;;;;;;;;;XXXXXXXXX;;;;;;;;;;;;;;;;;;;;;;;;;",
";;;;;;;;;;;;;;;;;;;;;;;;;;;;;XXX%%%%%XXX;;;;;;;;;;;;;;;;;;;;;;;;",
";;;;;;;;;;;;;;;;;;;;;;;;;;;;XXX%&====%XXX;;;;;;;;;;;;;;;;;;;;;;;",
";;;;;;;;;;;;;;;;;;;;;;;;;;;;XX%=======%XX;;;;;;;;;;;;;;;;;;;;;;;",
";;;;;;;;;;;;;;;;;;;;;;;;;;;XX%========&XX;;;;;;;;;;;;;;;;;;;;;;;",
";;;;;;;;;;;;;;;;;;;;;;;;;;;XX&========&XX;;;;;;;;;;;;;;;;;;;;;;;",
";;;;;;;;;;;;;;;;;;;;;;;;;;;XX&========%XX;;;;;;;;;;;;;;;;;;;;;;;",
";;;;;;;;;;;;;;;;;;;;;;;;;;;XX%======oo%XX;;;;;;;;;;;;;;;;;;;;;;;",
";;;;;;;;;;;;;;;;;;;;;;;;;;;XX%oo===ooo%XX;;;;;;;;;;;;;;;;;;;;;;;",
";;;;;;;;;;;;;;;;;;;;;;;;;;;XX%ooo==oo=oXX;;;;;;;;;;;;;;;;;;;;;;;",
";;;;;;;;;;;;;;;;;;;;;;;;;;;XXo=oo=%==&X=XX;;;;;;;;;;;;;;;;;;;;;;",
";;;;;;;;;;;;;;;;;;;;;;;;;;;;XX&==oo=&oX=%XX;XXX;;;;;;;;;;;;;;;;;",
";;;;;;;;;;;;;;;;;;;;;;;;;;;;XXo&=%%&oX&&o%XXXXXX;;;;;;;;;;;;;;;;",
";;;;;;;;;;;;;;;;;;;;;;;;;;XXXXXo&=ooX%%o=o%X..XXX;;;;;;;;;;;;;;;",
";;;;;;;;;;;;;;;;;;;;;;;;;XXX==X%oo=&XooX&==.+$.XXX;;;;;;;;;;;;;;",
";;;;;;;;;;;;;;;;;;;;;;;;XXX===&X&=ooXXoXXX.+$.. XX;;;;;;;;;;;;;;",
";;;;;;;;;;;;;;;;;;;;;;;XXX===&%oXXXX=&%XX.+$+.+. XX;;;;;;;;;;;;;",
";;;;;;;;;;;;;;;;;;;;;;;XX%===%oX&&o=&oXXX.$.+.+. XX;;;;;;;;;;;;;",
";;;;;;;;;;;;;;;;;;;;;;;XXo&=o&=oX&XX&&XX.+$+.+.. XX;;;;;;;;;;;;;",
";;;;;;;;;;;;;;;;;;;;;;;;XXooXo&=oXX&=XXX.$.+.+.. XX;;;;;;;;;;;;;",
";;;;;;;;;;;;;;;;;;;;;;;;;XXXXXo&=XX=XXXX.$.++++. XX;;;;;;;;;;;;;",
";;;;;;;;;;;;;;;;;;;;;;;;;;XX=XooooXXXX%.+$.+++.. XX;;;;;;;;;;;;;",
";;;;;;;;;;;;;;;;;;;;;;;;;;;XX&Xo==oXX=&.$+.+++. XX;;;;;;;;;;;;;;",
";;;;;;;;;;;;;;;;;;;;;;;;;;;;XXXo=&%oXX=.$+.+.+. XX;;;;;;;;;;;;;;",
";;;;;;;;;;;;;;;;;;;;;;;;;;;XX==Xooo=oXX.$+.+.+. XX;;;;;;;;;;;;;;",
";;;;;;;;;;;;;;;;;;;;;;;;;;XX=&o&XXX%=O .$+.+.. XX;;;;;;;;;;;;;;;",
";;;;;;;;;;;;;;;;;;;;;;;;;;XX=XX=&XXoO##  $.+.. XX;;;;;;;;;;;;;;;",
";;;;;;;;;;;;;;;;;;;;;;;;;;XXo%==XXXXO**@  .+. XX;;;;;;;;;;;;;;;;",
";;;;;;;;;;;;;;;;;;;;;;;;;XX=oX&&XXX%O@*@OX   XX;;;;;;;;;;;;;;;;;",
";;;;;;;;;;;;;;;;;;;;;;;;XXX=oXXXX;XX O@OOXXXXX;;;;;;;;;;;;;;;;;;",
";;;;;;;;;;;;;;;;;;;;;;;XX==%XXXX;;XX O@@*OXXX;;;;;;;;;;;;;;;;;;;",
";;;;;;;;;;;;;;;;;;;;;;XX&oXXX;;;;XXoo  @#*OXX;;;;;;;;;;;;;;;;;;;",
";;;;;;;;;;;;;;;;;;;;;XX&ooXX;;;;;XX&==& @#* XX;;;;;;;;;;;;;;;;;;",
";;;;;;;;;;;;;;;;;;;;XX&=&XX;;;;;;XX&&=XX @@* XX;;;;;;;;;;;;;;;;;",
";;;;;;;;;;;;;;;;;;;;X=&=XX;;;;;;;;;;;;;XX @#* XX;;;;;;;;;;;;;;;;",
";;;;;;;;;;;;;;;;;;;;;;;;;;;;;;;;;;;;;;;;XX #*- XX;;;;;;;;;;;;;;;",
";;;;;;;;;;;;;;;;;;;;;;;;;;;;;;;;;;;;;;;;;XX #*- XX;;;;;;;;;;;;;;",
";;;;;;;;;;;;;;;;;;;;;;;;;;;;;;;;;;;;;;;;;;XX #*- XX;;;;;;;;;;;;;",
";;;;;;;;;;;;;;;;;;;;;;;;;;;;;;;;;;;;;;;;;;;XX #*- XX;;;;;;;;;;;;",
";;;;;;;;;;;;;;;;;;;;;;;;;;;;;;;;;;;;;;;;;;;;XX #* XX;;;;;;;;;;;;",
";;;;;;;;;;;;;;;;;;;;;;;;;;;;;;;;;;;;;;;;;;;;;XX #- XX;;;;;;;;;;;",
";;;;;;;;;;;;;;;;;;;;;;;;;;;;;;;;;;;;;;;;;;;;;;XX # XX;;;;;;;;;;;",
";;;;;;;;;;;;;;;;;;;;;;;;;;;;;;;;;;;;;;;;;;;;;;XX # XX;;;;;;;;;;;",
";;;;;;;;;;;;;;;;;;;;;;;;;;;;;;;;;;;;;;;;;;;;;;;XX XX;;;;;;;;;;;;",
";;;;;;;;;;;;;;;;;;;;;;;;;;;;;;;;;;;;;;;;;;;;;;;XX XX;;;;;;;;;;;;",
";;;;;;;;;;;;;;;;;;;;;;;;;;;;;;;;;;;;;;;;;;;;;;;;XXX;;;;;;;;;;;;;",
";;;;;;;;;;;;;;;;;;;;;;;;;;;;;;;;;;;;;;;;;;;;;;;;;X;;;;;;;;;;;;;;",
";;;;;;;;;;;;;;;;;;;;;;;;;;;;;;;;;;;;;;;;;;;;;;;;;;;;;;;;;;;;;;;;",
";;;;;;;;;;;;;;;;;;;;;;;;;;;;;;;;;;;;;;;;;;;;;;;;;;;;;;;;;;;;;;;;",
";;;;;;;;;;;;;;;;;;;;;;;;;;;;;;;;;;;;;;;;;;;;;;;;;;;;;;;;;;;;;;;;",
";;;;;;;;;;;;;;;;;;;;;;;;;;;;;;;;;;;;;;;;;;;;;;;;;;;;;;;;;;;;;;;;"
};
