/* XPM */
static char *Squelette_SpriteSheet_191636046420[] = {
/* columns rows colors chars-per-pixel */
"64 64 128 2 ",
"   c #5F002A",
".  c #4C3E3C",
"X  c #772A2A",
"o  c #4F413F",
"O  c #5B3356",
"+  c #4F4240",
"@  c #524543",
"#  c #564C45",
"$  c #594D46",
"%  c #554C4B",
"&  c #5A4E4B",
"*  c #5C5047",
"=  c #5D514D",
"-  c #5F5452",
";  c #604F4D",
":  c #625247",
">  c #64534C",
",  c #68554D",
"<  c #69594E",
"1  c #615653",
"2  c #695751",
"3  c #655A55",
"4  c #6B5B54",
"5  c #615758",
"6  c #645B5B",
"7  c #6B5E5B",
"8  c #725D54",
"9  c #725E5D",
"0  c #6A6156",
"q  c #6D615C",
"w  c #716056",
"e  c #73625B",
"r  c #79655D",
"t  c #79685E",
"y  c #545778",
"u  c #6C6361",
"i  c #746462",
"p  c #796662",
"a  c #756A66",
"s  c #7C6A64",
"d  c #776C6A",
"f  c #7A6D6B",
"g  c #7F7065",
"h  c #7E716D",
"j  c #7E7372",
"k  c #9D0701",
"l  c #A0592A",
"z  c #D04A01",
"x  c #816E66",
"c  c #816E6A",
"v  c #827067",
"b  c #84726C",
"n  c #89756D",
"m  c #8B796F",
"M  c #817573",
"N  c #8A7674",
"B  c #847974",
"V  c #8C7B74",
"C  c #867B79",
"Z  c #8C7D7A",
"A  c #917D75",
"S  c #927E7B",
"D  c #EC8300",
"F  c #B38449",
"G  c #8E8077",
"H  c #8E817C",
"J  c #938177",
"K  c #93827C",
"L  c #99857E",
"P  c #99887E",
"I  c #6A8580",
"U  c #8E8381",
"Y  c #948582",
"T  c #998683",
"R  c #968982",
"E  c #9B8A83",
"W  c #958989",
"Q  c #9E8C8B",
"!  c #9F908E",
"~  c #9E9392",
"^  c #A18E86",
"/  c #A28F8A",
"(  c #A88F8E",
")  c #A29087",
"_  c #A4918B",
"`  c #A9948E",
"'  c #A9988E",
"]  c #A38F91",
"[  c #A49392",
"{  c #AA9593",
"}  c #A79994",
"|  c #AC9A94",
" . c #AA9798",
".. c #AD9C9A",
"X. c #B19C96",
"o. c #B39E9A",
"O. c #B89E9B",
"+. c #AEA09C",
"@. c #B1A096",
"#. c #B4A29C",
"$. c #B9A49E",
"%. c #BAA99F",
"&. c #AE9FA0",
"*. c #B39FA2",
"=. c #9FB3A1",
"-. c #B5A5A2",
";. c #BAA5A2",
":. c #B7A9A1",
">. c #BDACA5",
",. c #B7ABAD",
"<. c #BDACAA",
"1. c #BFB1A7",
"2. c #BFB1AA",
"3. c #C2A6A4",
"4. c #C3ACA6",
"5. c #C5ADA9",
"6. c #C8AFAB",
"7. c #C2B1A6",
"8. c #C4B2AC",
"9. c #CBB4AE",
"0. c #C7B8AF",
"q. c #C4AFB0",
"w. c #C5B5B1",
"e. c #C9B6B1",
"r. c #C7B8B2",
"t. c #CABAB3",
"y. c #FFD980",
"u. c #DCD5C5",
/* pixels */
"% % * % @ # # # # % % % # % % % % % # # # # # # % % % % # % % % % % & % % % % % % % % % + % % % % % % % % % % % % % % % % % % % ",
"# @ . . o O o o . o o o o o o o o o o # # % % # @ + + + o O o o # % * % & % & & = = % & & % % = = % & & & & & = - & & % % % % % ",
"% % d H C C C C j C C U j G j j C C C C C C C C U U C C M 3 @ # 3 j j j C j j M j j j j j j j j j j j M M M M M C C C C j d 6 # ",
"# % H [ ~ ~ Q ] ~ ~ ~ ~ ~ ~ } ~ [ [ [ } [ [ ! [ } ..-.-.Q p $ @ 3 j W ~ ! ~ [ [ } ~ } } } [ } [ } } [ [ [ ] [ }  . . .,.~ j 5 $ ",
"# = j ~ ! ~ Q ]  . .&.} } ~ ~ [ [ [ ~ [ [ _ } [ } [ o.-.T i @ . > j W ~ ~ ! ! ! ! _ ~ ! ! ~ ! ! ~ ~ ~ ~ Q / / [ } ..&.,.~ j - % ",
"# % H [ ! [ ]  .&.-.,.<.&.} ....} } } } } [ ~ } ..&.t.<._ b ; & 7 C ! } } [ _ _ _ [ _ [ _ _ [ [ [ [ [ [ [ [ [  .&.,.2.2.&.j - # ",
"# % U [ Q / ]  ...-.<.-...} [ } _ [ _ [ _ ! ! _ ..<.0.>._ b 4 2 a S [ [ _ ! ! ! ) Q _ ) _ ! Q _ Q _ Q Q / ! ] [ ..-.,.2.+.j - % ",
"# = H } [  . . . .....-... .} ~ ! ! _ _ ) ! ) _ } 2.0.>.Q b 4 4 a S _ } _ ) ^ ! Q / Q Q ) ! / / ) ! / / / / Q [  .&.2.2.+.j - # ",
"% & Z  . .*. . . .[ ] ]  . .{ { _ ) _ [ ! ) _ [ ..>.r.>.E b 4 , s K /  ._ _ ) / Q _ / Q ) / / ! _ ! _ ] / / ( ( ..-.<.w...M 1 # ",
"% & Z  . .*.;.*.{ W Z N ]  .o...| ' _ _ _ _ ) [ ..>.0.>.E b 7 2 p S / ' [ / / _ ) / / _ / / / _ / / _ / / / / ` ..#.,.q.&.M - # ",
"% & Z  . .q.q.,.] N 9 p A [ o.#.o.' ` _ Q _ _ [ o.>.r.O O O O O O O O O _ _ / / ) _ / / / ) / _ ) _ / _ / / / { { O.<.q.+.B 1 # ",
"% & S  .*.3.3.*.W c 2 9 N / ..o.o.X.` _ ) / / _ | 3.O O O O O O O O O O O _ ) _ / ) ) / / / _ / / / / / / / / ( X.O.<.w.+.B = # ",
"# & Z  . . .( T S c s c A T ^ ` ' _ _ ^ ) / ) ' o.O O O I I I I I I I O O O ) ) / ) / / / / / / / Q _ / / ( / ` X.#.<.w.#.C - # ",
"# & Y ..Q S c c c N N A Z N N A K P ^ ^ / / ) _ O O O I =.=.u.u.u.u.u.I O O O / / _ _ ) ) ) _ / / _ _ ) _ / ^ ` { o.>.8.&.B - # ",
"% & U  .S f 9 9 p c S L V c s x b V E ^ ) ^ ) _ O O I =.u.u.u.u.u.u.u.u.I O O ) ) _ / ) _ _ / ) / ( / _ ) ) ) ` X.#.>.8.+.M 3 # ",
"% & U ! N c 9 9 f S T T N c p p x V T ^ ^ / ) _ O O I u.u.u.u.u.u.u.u.u.I O O / _ / _ / / ) _ / ) _ ) / ) ^ ( _ X.$.>.8.#.C - # ",
"# & M S M c c c N T ^ Q Z b c b n S T ^ ^ ^ ) ` O O y u.u.u.u.u.u.u.u.u.I O O ) _ _ _ _ ) _ _ _ _ _ _ ) ` ` ) ` X.O.7.9.#.C - # ",
"# & j j M N N N K Q ( / T S V N S L ^ ^ ^ ^ / ` O O y u.u.y y u.u.u.u.u.I O O _ _ _ _ _ ` _ ) ) ) _ _ _ P ( ` ` X.$.7.7.#.C - # ",
"# & d a c S S T Q ( { _ ( Q L L ^ ^ ( ^ / / ^ _ O O I =.y y y u.u.u.u.=.y O O _ _ ) ) ^ ) ) ) _ ) _ _ / ) ) ) ` X.$.4.6.#.B - # ",
"# = d d c S T ] ( [ _ [ ` / ^ ^ / _ _ ) / ) O ' O O y =.y y u.u.=.=.=.I y O O _ _ _ _ ( ) ( _ _ _ _ _ ) ( ) ( ` ' $.7.6.+.C - # ",
"% & f M M T ] ] ] ( ( _ ( / / ( _ _ _ _ / O O O O O y y u.u.u.=.I I y y O O ) ) ) ) ( ) _ _ _ ( _ ) _ ( ) ^ ) ` | $.5.w.-.j - # ",
"% & j C Z W ] ( / / / / ^ ^ ^ ^ ^ ^ / ^ O O   O O O O =.u.u.=.I I y y O O ^ ^ ^ ) ) ) ) ) / ) ) / / / ) ^ ^ ) ` o.$.<.8.#.C - # ",
"% & M W T T ] ] ^ / / ^ ^ ^ ^ ^ ^ ( ^ O O   k O o.O O y y y u.I y I y O _ ^ ^ ^ ^ ^ ^ ^ ^ ^ ^ ) / ^ ^ ^ ^ P ) ` | $.5.r.+.C - # ",
"& & C ] ] ] ( ( ] ] ( ] / ^ ) _ _ ^ / O O   k O @.O O y u.u.=.I y y O O O ( ) ) ^ ( ^ ) / ^ ) ) / ^ / ^ ^ ^ ) ` @.$.2.r.-.C - # ",
"% & C *. . . ..... . .{ { ` ` ` ` ` O O   y.k O O O O y y y y y y y y y O O { ' ' ' ` _ ` ` ` ` ` ` ` ` ` ` ( X.@.;.5.r.-.C - % ",
"% & U ,.*.*.;.;.*.3.3.O.O.O.O.O.$.O.O O   y.k O O X X y =.I I y u.u.u.=.y O O #.@.@.X.$.X.O.X.O.@.O.O.O.O.O.O.*.$.4.e.e...B 3 # ",
"& & Y q.,.<.5.q.5.5.5.5.4.5.4.4.4.4.O O   y.y.k X F F =.y y y =.u.u.u.u.I O O 7.1.7.1.1.4.4.4.4.4.4.3.3.4.4.3.6.4.8.t.e...j 3 # ",
"% & U ,.-.;.5.5.5.5.6.5.6.6.8.7.7.4.O O k y.y.k F F l y y I y I =.u.u.=.y O O 4.1.1.1.1.4.4.4.5.6.4.6.6.3.6.5.3.4.8.e.w.} f 5 # ",
"% & C [ Q [ | o.O.X.X.X.X.X.o.o.X.X.O O   y.z y.k X X X y X u.y I I I y y O O } @.' @.' | o.X.X.X.X.X.X.X. .X.X. .o.O.*.Q d 7 # ",
"# & j Z b M Z Z S N Z S S S H H J J O O   y.z y.k X X X I =.y =.y y y u.y O O J G J G G V V V G A A A A Z S S S S A Y Y B u 5 # ",
"# & 1 7 6 4 4 3 2 2 2 2 4 3 3 4 3 < < O O   D z y.  X y I y =.=.u.I y u.y O O 4 0 0 0 0 4 3 0 0 4 3 2 2 2 2 2 2 4 2 2 = & # # # ",
"# & & = & ; & & & & & & * * * * * * * O O X   D z D   y y =.X y y y u.y   O O * * o o o o # o o # # @ $ # @ # $ # # $ & $ # # # ",
"# % & - 2 7 u q 0 q q q q 0 0 r 0 0 q O O X F   D k D   y X =.=.u.y u.I   O O 0 0 0 0 0 0 0 0 0 3 0 0 0 4 2 6 9 9 8 9 p i - - & ",
"# & j j d c C Z C C C B G V Z V Z V V O O X F y   D k z   X X =.y u.y y O O V V G G G j B B G j j h h h c c M N V A S Y C 7 5 & ",
"# & j S Z S W T E T R E R E P P E P R O O X l X y   D k   k   y u.u.y   O O R E P R R E P P R R R R P P T T S ^ ( ] o...W u 7 & ",
"% & M Q Q ] / ( / / _ _ _ ) _ _ _ ) ) ) O O   l X X     k z z u.u.y   O O ' ! ' ~ ' ' ' ' ' @.} { | } } { { X.X.X.o.;.;.Q d u & ",
"# & B [ ( ] ( ( { ( ( ` ` ( _ _ _ ` _ _ _ O O   X X X k D y.z u.y =.u.O O } ' } ' ' { | X.X.X.X.o.X.O.O.O.O.*.3.o.o.o.*.Y a 7 & ",
"# & B [ ] { { ] ] ( ( ( ( _ ` ( ' _ _ ) _ ) O O   l X D y.y.D y I y =.u.O O ' ! ' ' ' o.X.O.$.$.$.3.3.3.3.3.3.3.o.( T S M 6 5 & ",
"& = j [ ] [ ] ( ( ( ( / ( / ( / _ _ ` ( ) ) _ O O     k D y.D u.I y u.' O O ) ' ` ' ` { X.$.3.3.4.4.6.6.6.9.9.6.{ S c p 3 & % @ ",
"% & j [ ( [ [ _ ( ( ` ( ( / ` ` ( ( / / ) ) _ _ O O O O k D y.z u.y u.O O O ! ' ` ` ` ) X.$.4.4.6.6.9.9.9.9.9.3.( A p 2 ; @ % # ",
"% & M [ ] { ] ( ( ( / _ / _ _ _ _ ) ) ( ) ( ^ ` X.O O O =.k z k y y ' O O _ ' _ ' ' | ' { X.O.$.X.X.X.X.X.X.' ` ^ A n s 9 - & % ",
"# = j [ [ [ ] ( [ ( _ ( ( _ _ ( _ _ ` ) ) ^ _ _ X.$.O O I I y O O =.I O O ' _ ' } | X.X.` ^ P L A A A m m A m n A L T K b 7 3 & ",
"# & j [ ] [ ( ] ] _ / _ ( _ _ _ ( _ _ _ ^ _ _ _ X.%.7.O O I y O O u.I O O _ ' _ ' X.@.o._ L c r x 8 8 8 x 8 8 r n L X.{ R a 5 = ",
"# = C [ ( { ] _ / ( [ ( _ _ _ _ _ _ ) ( _ ) _ ` X.%.O O I y y O O u.u.y O O ' ' | o.#.o.^ A 9 , : : , , , : : 8 x ^ O.$.[ h 6 = ",
"% & M [ ] ] ] { [ ( ( _ _ _ _ ( _ _ _ _ ^ ^ _ ` X.O O I =.=.y O O O =.=.O O | | | | { ' L m r 8 , 8 8 8 8 8 < r n / >.>.} j 6 = ",
"% & M [ ] { ( ( ] _ ( ) _ _ _ _ _ ) ( ) _ _ _ _ { O O =.I y O O O =.y y O O @.@.{ ) L A N m x x x x x x x x x n L | >.8...f 6 = ",
"% & M [ ] { ] ( ( / ) ( ` ( _ _ _ _ ( ) ( ) ) _ X.%.8.>._ n O O =.u.=.=.O O %.#.' L b x x n N A S A S A J J A L ^ @.0.0...d 5 = ",
"% = M  .] [ [ / _ ( ` _ ( ) _ ( ` _ _ ) ) ) _ ` X.;.7.>._ b < O u.=.u.O O %.1.@.) m p t x m A L T ^ ^ ^ ) ^ P ^ ' $.8.r...j - = ",
"# & M  .[ { ( [ ] _ _ ( _ _ _ { ` ) _ ) ) ) _ ' | $.8.4._ n < , r L ' X.$.$.@.' L b p s v m P P ^ ( _ _ P X.P X.X.O.9.9.@.a - = ",
"# & M [ ] { ( / [ _ _ _ _ _ ` ) _ ` ) ` ) _ ) _ X.;.7.>._ n 4 , s L { #.@.' ) P V n v n m J P E ^ ) _ _ X.P X.P P O.7.9.@.g - = ",
"% & M [ [ [ ( [ ( ( _ [ _ [ ( ) _ _ ) ) ) / ) ' | %.8.3.) n < < x P @.%.| K v v x n m J K P E E ^ ) ) ) P X.P ` @.$.9.9.+.d - - ",
"% = M [ [ { [ _ _ [ _ _ _ _ _ _ _ ) _ ! ) _ ) { | %.7.>.' v 8 < v ) >.7.' m w 0 r n J E ) ) ) ) ) ) ) _ ` P ` ' X.O.9.9.+.j - = ",
"$ & C [ _ [ [ ( [ _ _ _ _ _ _ _ ) ' ) ' ! ) E ' | %.7.>.) n < < v ) 7.7.' v < : e n J ) ' ) ) ) ) ) ) ) ) ) ` P ' $.r.r.+.d - = ",
"% & j } _ } [ _ _ _ _ _ _ _ _ _ ) ' ) ) ) ) ) _ @.%.7.7.' v < < s ) 1.1.' v < < t m P ! ) ) ' ) ) ) ) ) ) ) P ) ` #.8.r.+.a - = ",
"$ & M [ [ [ _ / _ ! ) _ _ ) _ _ ) ) ) ) E ) ) ' | %.7.%.' n < : t ) %.%.) v < , t G P P ) ) ) ) ) ) ) ) ) ) ) ) ` $.8.r.+.d - - ",
"# = j [ _ [ _ ( / ! ) ! ) ! ) _ ) ! ) ) E E E ' @.%.7.1.) v < : t P %.%.) v < , g J P ) ) ! ) ) ) ) ) ) ) ) P ` ) $.8.r.+.j - - ",
"% & B .. . .{ [ [ _ [ _ _ _ _ ' _ ' ) ! ) ) _ ' @.%.7.1._ b < : t J { @.E v e q b R ! ! _ ) _ _ _ ) ) ) ) ) ) ) | $.8.w.} f 5 - ",
"% = M ,.-.;.*.*.*.#.#.&.+.+.@.+.+.#.@.+.+.@.+.%.%.1.0.1._ b 4 > 4 b K T K m m V E } | @.@.@.| | @.@.} | @.| X.X.@.4.w.r. .f - = ",
"& & C w.w.w.w.q.w.5.2.2.8.<.8.2.2.2.2.2.1.2.2.2.8.0.t.1._ b 4 > 4 r s b G R ! +.:.1.2.2.2.2.2.2.<.2.<.1.1.>.1.>.7.8.t.r...j - - ",
"# & C 2.w.e.e.w.w.w.w.w.w.0.r.r.w.w.0.2.2.2.0.r.r.t.r.:.E g 2 ; > 4 e a B _ #.:.2.2.2.w.w.r.r.r.r.r.0.0.0.8.8.8.7.8.0.r.&.j 6 - ",
"# & j ..#.-.-.-.-.-.-.-.-.:.-.:.-.-.+.:.#.+.:.:.1.1.%.! N i > $ & 2 4 7 g R _ } } @.....+.+.+.#.+.+.+.+.+.@.#.%.:.:.#.-.~ d 6 - ",
"# = d H U Y W Y Y Y Y Y Y Y R U Y Y K H U H W E ! ! P B p 2 & & # = > 3 u M H H H C G H G H Y U H H H J H K K E ! R H H j u 5 % ",
"# & u 7 7 7 q 7 q u 7 q q q q q q q 7 q q q q i a a t % & # # & @ % 1 & - u a a d h h h h h b h h h h h h v g B B g a d u - 6 - ",
"% & 3 5 5 2 5 1 1 5 1 1 5 5 - - > 1 - - - - = 3 = - - % & % # % @ # # # = - = = = = * = - = = - = = 1 = = 1 - 3 - = - - - = = % "
};
