/* XPM */
static char *Squelette_SpriteSheet_201636046421[] = {
/* columns rows colors chars-per-pixel */
"64 64 125 2 ",
"   c #5F002A",
".  c #4C3E3C",
"X  c #772A2A",
"o  c #4F413F",
"O  c #5B3356",
"+  c #4F4240",
"@  c #524543",
"#  c #564C45",
"$  c #584C46",
"%  c #554C4B",
"&  c #5A4E4B",
"*  c #5D514E",
"=  c #5F5452",
"-  c #604F4D",
";  c #625247",
":  c #64534C",
">  c #69554D",
",  c #69594E",
"<  c #615653",
"1  c #695751",
"2  c #655A55",
"3  c #6B5A54",
"4  c #615758",
"5  c #645B5B",
"6  c #6B5E5B",
"7  c #725D54",
"8  c #725E5D",
"9  c #6D615C",
"0  c #716056",
"q  c #74625B",
"w  c #79655E",
"e  c #79685E",
"r  c #545778",
"t  c #6C6361",
"y  c #746462",
"u  c #7A6661",
"i  c #756A66",
"p  c #7C6A63",
"a  c #776C6A",
"s  c #7A6D6B",
"d  c #7F7065",
"f  c #7E716D",
"g  c #7E7372",
"h  c #9D0701",
"j  c #A0592A",
"k  c #D04A01",
"l  c #816E66",
"z  c #816E6A",
"x  c #827067",
"c  c #84726C",
"v  c #89756D",
"b  c #8B796F",
"n  c #817573",
"m  c #8A7674",
"M  c #847975",
"N  c #8C7B74",
"B  c #867B79",
"V  c #8C7D7A",
"C  c #917D75",
"Z  c #927E7B",
"A  c #EC8300",
"S  c #B38449",
"D  c #8E817C",
"F  c #938177",
"G  c #93827C",
"H  c #99857E",
"J  c #99887E",
"K  c #6A8580",
"L  c #8E8381",
"P  c #948582",
"I  c #998683",
"U  c #968882",
"Y  c #9C8A83",
"T  c #958989",
"R  c #9E8C8B",
"E  c #9F908E",
"W  c #9E9392",
"Q  c #A18E86",
"!  c #A28F8A",
"~  c #A88F8E",
"^  c #A29087",
"/  c #A4918B",
"(  c #A9948E",
")  c #A9988E",
"_  c #A38F91",
"`  c #A49392",
"'  c #AA9593",
"]  c #A69995",
"[  c #AC9A95",
"{  c #AA9798",
"}  c #AD9C9A",
"|  c #B19B96",
" . c #B39E9A",
".. c #B89E9B",
"X. c #AEA09C",
"o. c #B1A096",
"O. c #B3A29C",
"+. c #B9A39E",
"@. c #BAA99F",
"#. c #AE9FA0",
"$. c #B39FA2",
"%. c #9FB3A1",
"&. c #B5A5A2",
"*. c #BAA4A3",
"=. c #B7A9A1",
"-. c #BDACA4",
";. c #B7ABAD",
":. c #BDACAA",
">. c #BFB1A7",
",. c #BFB1AA",
"<. c #C2A6A4",
"1. c #C3ABA6",
"2. c #C5ADAA",
"3. c #C8AFAB",
"4. c #C2B1A6",
"5. c #C4B3AD",
"6. c #CBB4AE",
"7. c #C7B8AF",
"8. c #C4AFB0",
"9. c #C5B5B1",
"0. c #C9B6B1",
"q. c #C7B8B2",
"w. c #CABAB3",
"e. c #FFD980",
"r. c #DCD5C5",
/* pixels */
"% % $ % @ # # # # % % % % % % % # % # # @ # # % % % % % # % % % % % % % % # % % % % % # + @ @ % % % % % % % % % % % % % % % % % ",
"# @ o o . O o o . o . o o . o o o o + # % % % # @ + + + o O o o @ * * % * & & % * * & & * % * % * * & % & & & * * & & & % % % % ",
"% % i D B B B B g B B L g D g g B B B M M B M M L L B B n 5 @ @ 2 f g g n g g n g g g g g g M g g g g g n n g n B B B B g a 2 % ",
"# % D ` W W W R W W W ] W ] W W ` W ] ] ` ` ` ] ] } &.=.Y u - @ 2 g T W W W ` ` ] W ] ] ] W ` ] ] ] ] ` ` ` ` ] { { { ;.W s 4 # ",
"# * g E E W _ _ ` } } ] ] W W ` ` / ] ` / E ] ` ] ` O.=.I y @ . = g U W ` E E E E E E E / E E W W _ E E _ R _ ` ] #.#.;.W g = % ",
"# % D ` E ` _ { #.*.:.;.X.] } ] ] ] ] ` ] ] / ` } } w.:./ c < $ 6 B E ] ] ` ` / ` / / ` ` / ` ` ` W ` ` ` ` ` ' X.=.;.,.#.g = % ",
"# % D ` R ` _ { #.&.;.&.} ] ] ` / ` ] / / / E / } ,.q.-./ n 3 1 u P E ] ) / E E / E ^ ^ E E ! E E E ! / E / E ` } &.,.,.X.M = & ",
"# * L ] ` ' ' ' { } O.O.} [ ` ` ^ E E / E E E / } -.7.*.Y c 3 1 u Z / ` / ^ Y E R ! R R ! ^ ^ R ! ! ! R ! R ! ` ] #.;.,.X.g = # ",
"% & V { { $.$.{ { ` _ _ {  .{ ` ^ / / / E ^ / ` o.-.0.-.I c 7 > i Z / ` ( ^ R R / / R ^ / ! ! ! ! / ! ! ! ! ~ ( } &.:.9.} M = # ",
"% % V { { $.$.$.' T m Z R {  .} [ ) ` / / / ^ ` } -.0.-.I m 3 1 u G ^ ' ` ^ ^ / ! ! / ! ! ! ! / / E / ! ! ! ! ' { &.;.8.#.M = # ",
"% & V { ..<.8.$._ m 8 8 C `  . .} [ ( / E ^ / ( | -.0.-.Y c 7 > u G ^ ' / / ! ^ ! / ! R ! ^ ^ / ! ^ ! ! ! ! ! ~ | O.2.9.X.M = # ",
"% & V { $.<.8.$.T z 3 8 m ! } O.| [ ( / ^ ^ ! ` | -.O O O O O O O O O ( ( ! / ^ ^ / ^ ^ ! ! / ! ! ! ! ~ ! ! ~ ( { ..:.2.O.n * # ",
"$ & V } { { ~ I Z z p z C I ! ~ ( ( / ^ ^ ^ E ( | O O O O O O O O O O O / ^ ^ ! ! ^ ! ! ! ! ! ! ! R ^ ! ! ! ! ( |  .:.5.X.M = # ",
"% & L } R Z z z z c m C C m N N G J Q Q ! Q ^ ( O O O K K K K K K K O O O ^ E ^ ! / / ^ ^ ^ ! / / / ! / / ! Q ( |  .-.5.&.M = @ ",
"% & P ] Z s 8 8 u m Z I N z p p x C I Q Q R ^ O O O K %.%.r.r.r.r.r.K O O O ^ ! ^ / ! ! ^ / ! ! ! ~ / / ! ^ ! ( [  .-.7.X.M 2 # ",
"# % L _ m s 8 8 z m I I m z u l x N I Q ^ ^ ^ O O K %.r.r.r.r.r.r.r.r.K O O / / / ! ^ / / ! ^ / ^ / ^ ! / ^ / ( | O.:.5.O.M = # ",
"# & M D m z s z m I ! R C c z c v Z Q Q Q Q ! O O K r.r.r.r.r.r.r.r.r.K O O / ^ ^ / / / / / ^ / / / / ^ ^ ~ ^ ( | ..>.4.O.M 2 # ",
"% & f g z m m V P Y ! ! I Z N m Z H Q Q Q Q Q O O r r.r.r.r.r.r.r.r.r.K O O / ( ( / ^ / ^ Q ( / ^ / / / ^ ~ ^ ( | +.1.6.O.M = # ",
"# & a i z Z Z I R ~ ` / ! Q I H Q ! ! Q Q Q ! O O r r.r.r r r.r.r.r.r.K O O / ^ ^ / Q Q / ! ^ / / / / ^ ^ ^ ^ ( | +.4.6.&.M = # ",
"# * a a z Z I _ ~ ` ( ` ` ~ Q Q Q ! ( Q ! ! / O O K %.r r r r.r.r.r.%.r O O / / ( / ( / Q ( / / / / / / ( ^ ^ ( | +.1.4.#.M = # ",
"% & s n n I _ _ ~ ~ ! ~ ! ! ! ! / ( / / / / / O O r %.r r r.r.%.%.%.K r O O / ^ Q / ~ ^ / / / / / / / Q / Q ( ( } +.1.9.&.M = # ",
"% % g V V T _ ~ ! ! ! ! ! ! Q Q Q Q ! Q Q Q O O O r r r.r.r.%.K K r r O O Q ^ Q Q Q ^ Q ! Q Q ^ Q Q Q / Q Q J ( | +.:.9.O.M = # ",
"% - n T I I _ _ ! ! ! Q ! Q Q Q Q Q Q Q O O O O X X %.r.r.%.K K r O O O O O O O Q Q Q Q Q Q Q Q Q Q Q Q Q Q Q ( | @.5.9.&.g = # ",
"% & B _ _ _ _ ~ _ ~ ! ~ ! ! ! ! ! ! ! O O O X X S S r r r r.K r K O O O O O O O O Q ~ Q / Q Q Q ! ! Q ! Q Q ^ ( | +.,.9.&.M = # ",
"% & V #.{ ' {  .{ { { ' ' ( ( ( ( ( O O O X S S X X r r.r.%.K r K O O O r r r r O O ) ( ( ( ( ( ( ( ( ( ( ( ( | o.*.5.9.&.M = % ",
"@ & L ;.$.$.*.*.*.*.<.........+.+.O O O X S j X X X r r r r r r r O O r r.r.r.%.r O O o. . .+.o.o.....+.........+.1.0.0. .M 2 # ",
"% & T 8.;.:.2.2.2.2.2.2.2.2.2.4.O O O X S j X X X r K K K r   K K %.r %.r.r.r.r.K O O 4.1.1.1.1.1.1.<.<.3.<.2.<.1.5.w.w.} g 2 # ",
"% & P ;.$.;.2.2.2.3.2.2.3.2.5.O O O X S j X X X X r K K K r K K K r r K %.r.r.%.r O O >.1.1.1.1.<.1.3.3.<.3.<.2.1.5.0.5.] a 2 # ",
"# & B ` R `  . .| | | | |  .o.O O X S X r r X X X X r r r X %.r r %.O r K K K r O O o.) [ ) [ o...| | |  .{ | | {  .&. .R a 6 # ",
"% & g B z M V V Z Z Z C V Z O O X S j X K %.K X X r K r X %.O O K K %.%.r r r r.%.O O D F D F D C C N C V C Z Z Z Z G I M t 4 # ",
"# & * q 5 5 3 3 1 1 1 2 3 3 O O X S X X r %.%.%.r r K r X   %.K K K O O r.O r K r.%.O O < , 0 0 2 3 3 2 2 1 1 1 3 1 3 * $ # % # ",
"# * & * & - & $ & & $ & $ O O X S j X X X X r K %.K r X X %.O O r r %.r.O O O O K r.%.O O o o o # o # # # @ @ $ $ $ $ $ * @ # # ",
"% % & - 1 5 6 y 9 9 9 9 q O O X S X X X X X X X r r X X   O %.K K K O O r.O O O O K r %.O O 0 9 9 0 2 9 1 1 5 8 q 8 8 u y 4 = $ ",
"@ & g g s c B B M M D B N O O   S X X X X X X X X X X   O %.O O K K %.r.O O N N O O K r.O O M M f f f d z z c m C m Z P m 6 4 & ",
"% & n Z V P T I U U I I I O O   S X X X X X X X X X   O O O O O r r O O O Y J O O O K r.O O I U Y U D U I I I Q ! _  .{ P t 6 & ",
"$ & n ! T ! ! ~ / ^ ^ ^ ( O O   j X X X X X X X X   O O O r r r K r %.O O O O O O O K %.O O ' ' [ ` ) o.| ' ' |  . .:.&.R i t = ",
"# * M ` ~ _ ' ~ ` ~ ( ~ ~ ( O O   j X X X X X     O O O O r K r K K K %.O O O h k %.r.K O O .... . ...........+...| $. .T i 6 & ",
"% & g ` ~ ' _ ~ ~ ~ ~ ~ ( ~ Q O O             O       O r K K O K r h h h h h k e.A %.%.k O O +.+.*.<.<.<.<.<.<. .! I G n 2 = & ",
"% & M ` ` ` _ ~ ~ / ~ / ~ / ~ ! O O O O O O O     e.h h h h h h h h A k k h   A e.e.A k h O O 1.1.1.3.3.3.6.6.3.' Z z u 5 % % % ",
"# * g ` _ ` ~ ~ ` ~ / ~ ~ ! ( ! / O O O O O O O O   e.e.e.e.e.e.k k k A A A   h e.e.A e.O O 1.1.3.6.6.6.6.6.6.<.~ Z u 3 - @ @ % ",
"# * g ` _ ~ _ ` _ / ~ / ~ / ` ( / / ~ Q Q Q ^ O O O   e.k k k k A A         O O h h h h O O  .....| | | | | | J Q C v u 8 & & & ",
"# * M ` ` ` _ ~ / ~ / ~ ! / / / / / ( ! ! ~ / ( | O O   e.e.A       r r K r r O O O O O O Q J H C C b v C C b v C H H H n 6 2 * ",
"# & g ` ~ ` _ ` ~ ! ~ ~ / / / / / / / / / ^ ^ ( O O r.r.      O O O O O r K r r O O O O ( H l w l 7 l > l > 7 l v H | ' U i 4 * ",
"# * M ` _ ` ~ ~ ` ! / ` ~ / / / / / / ! ^ / ^ ( O O r.r.r O O O O O O O O r K r O O O.o.! v w > ; ; > > > ; ; 7 l Q ..+.` f 5 * ",
"% & n _ _ ' ~ _ ~ / ~ ! ! ( ! ( / / / ! / / ^ ( O O %.r O O O ; e G ( O O K r K O O [ / J v w 3 > > 7 7 7 7 , w v / =.>.[ g 5 * ",
"% * n _ _ ` _ ~ / ! ~ / ! ! ( ! ( ! ( / Q / / O O r.%.r O O > > w G O O K r K O O / H Z C v z l l l l l l l l v H ' 4.5.] s 5 * ",
"% & n { ~ ` ` ~ ~ ~ ( ! ( ! ( Q Q ( / ! / Q O O O r.r O O c > > e G / O O O O O ( G v l l v N C Z Z Z Z F C C H ^ o.5.q.} s 5 * ",
"% & n ` ' ` _ ~ ` / ~ ~ ! ( / ! ( ! / / Q O O %.r.%.K O O c > > u H ( | O O O O.Q b u w l v C H J J ^ ^ ^ ^ J ^ ) +.9.q.} a = * ",
"$ & M ` ` ` ~ / ` ~ / / / ` ~ / ( ^ ( ^ / O O r.K K K O O c , > e G ( | O.+.@.) H x p p x b G J ^ ~ ^ ( | J J | ..+.4.6.o.d = * ",
"# * M ` ~ ' ` ~ ` / ` / / / ( / ^ ) ^ ^ / ^ O O O O O O ( c 3 > l H [ o.o.( ^ G N v x c b F J Y ^ ( ( ^ J | | J J +.6.6.o.d = * ",
"% & n ` ` ` ~ ` ~ ~ / / / / / / / / / / ^ / ^ O O O O -.^ c , , p Y o.@.[ F v d x v b F H J J Y ^ Q ^ ^ | J J | o...6.6.X.a = = ",
"% & M ` ` ` ` ` / ` / / / / ( / / ) ^ / ^ ^ / ( } =.4.-.) x 0 , l ^ >.4.[ b 0 , e c F Y ^ ^ ^ ^ ^ ^ ^ ^ J | J J | +.3.6.X.g = * ",
"# & g ] ` ' / / / ` / / / / ( ( ) ^ ^ ^ ^ ^ ^ ) [ @.4.4.( x , , x ) 4.4.) b , ; q v F ^ ^ ) ^ ) ^ ^ ^ ^ ^ ^ J ( ( O.7.q.X.a = = ",
"# * g ] ( ` ` / / / / / / / / ^ ^ ) ^ ^ ^ Y ^ ^ [ @.4.@.) x , , e ^ -.@.^ c , , e b J ^ ) ^ ^ ^ ( ^ ^ ^ ^ ^ ( J ( O.7.q.] a = = ",
"# & n / / ` / ~ ` / ^ ^ / / ^ / ) Y Y ) E J ^ ) o.@.4.4.) x , ; e ^ @.@.^ x , ; e F J ^ ^ Y E ^ ^ ^ ^ ^ ^ ^ ^ ( ( +.5.q.X.a = = ",
"% * n ` ` ` / ! ! R ^ E E ^ ^ E ^ Y ) Y Y ^ E / ) @.4.4.^ v , ; e ^ @.@.^ x , > e F J E ^ ^ ^ ^ ^ ^ Q Q ^ J J ( ) +.5.9.X.g = = ",
"% & g #.' ' ' ` ` / ` / / / ( / ( / / E E ^ / ) o.@.4.>.( x > ; q G [ [ Y c 0 q n G ^ E / ^ ^ / ^ E ^ ^ ^ ^ ^ ^ ) +.7.9.[ a 4 = ",
"% & B ;.&.*.$.$.&.X.O.#.X.X.o.X.X.X.o.o.o.o.X.@.@.>.7.>.( v 3 : 0 x G I F m n N U ] o.o.o.o.o.} o.o.[ } ) o.| [ o.@.9.9.] s = = ",
"$ & B q.9.9.9.8.2.9.,.,.5.,.5.4.,.,.,.,.>.,.,.,.7.7.w.>./ f 2 : , q s c F J / o.=.>.,.,.,.,.,.,.>.-.,.-.4.>.-.>.4.5.w.q.#.s = = ",
"% & B ,.9.w.q.9.9.9.9.9.9.9.q.9.7.7.7.,.,.,.9.q.7.w.q.=.U d 1 - : 3 q i n E X.>.,.,.5.9.9.9.q.q.q.q.9.7.q.4.7.5.6.4.7.9.#.g 5 = ",
"$ * g } &.&.&.&.&.&.&.=.&.=.=.&.&.O.O.&.=.O.&.>.>.>.O./ N q < $ $ < 3 9 f J W o.] [ o.] X.X.X.X.X.X.O.X.o.X.O.@.=.=.O.#.W s 5 * ",
"# * f B V I I P P P P P P L U U P P U D D D L U E E J N i 3 - $ # * : 2 9 g D D D D D D D D G P D D D D G D G Y E U L D g 6 = * ",
"% & 9 6 5 8 6 6 6 t 9 9 9 t 9 9 9 9 9 9 9 9 9 q i i t * & $ % & # % = * = 9 9 i d a f f f f f f f f f f c d f b n d a a t = 5 = ",
"# % 2 4 4 2 2 < 4 4 < < 4 = = = = = * = = = < < * = = % % $ $ @ # @ # # * * = = * * * * * * = * = * : * * = = < = = = = = * = % "
};
