/* XPM */
static char *result[] = {
/* columns rows colors chars-per-pixel */
"64 64 15 1 ",
"  c #5F002A",
". c #772A2A",
"X c #5B3356",
"o c #545778",
"O c #9D0701",
"+ c #A0592A",
"@ c #D04A01",
"# c #EC8300",
"$ c #B38449",
"% c #6A8580",
"& c #9FB3A1",
"* c #FFD980",
"= c #DCD5C5",
"- c white",
"; c None",
/* pixels */
";;;;;;;;;;;;;;;;;;;;;;;;;;;;;;;;;;;;;;;;;;;;;;;;;;;;;;;;;;;;;;;;",
";;;;;;;;;;;;;;;;;;;;;;;;;;;;;;;;;;;;;;;;;;;;;;;;;;;;;;;;;;;;;;;;",
";;;;;;;;;;;;;;;;;;;;;;;;;;;;;;;;;;;;;;;;;;;;;;;;;;;;;;;;;;;;;;;;",
";;;;;;;;;;;;;;;;;;;;;;;;;;;;;;;;;;;;;;;;;;;;;;;;;;;;;;;;;;;;;;;;",
";;;;;;;;;;;;;;;;;;;;;;;;;;;;;;;;;;;;;;;;;;;;;;;;;;;;;;;;;;;;;;;;",
";;;;;;;;;;;;;;;;;;;;;;;;;;;;;;;;;;;;;;;;;;;;;;;;;;;;;;;;;;;;;;;;",
";;;;;;;;;;;;;;;;;;;;;;;;;;;;;;;;;;;;;;;;;;;;;;;;;;;;;;;;;;;;;;;;",
";;;;XXXX;;;;;;;;;;;;;;;;;;;;;;;;;;;;;;;;;;;;;;;;;;;;;;;;;;;;;;;;",
";;XXXXXXXX;;;;;;;;;;;;;;;;;;;;;;;;;;;;;;;;;;;;;;;;;;;;;;;;;;;;;;",
";XXXX    XX;;;;;;;;;;;;;;;;;;;;;;;;;;;;;;;;;;;;;;;;;;;;;;;;;;;;;",
"XXX   #-- XX;;;;;;;;;;;;;;;;;;;;;;;;;;;;;;;;;;;;;;;;;;;;;;;;;;;;",
";;XXXX #*- XX;;;;;;;;;;;;;;;;;;;;;;;;;;;;;;;;;;;;;;;;;;;;;;;;;;;",
";;;;XXX #*- XX;;;;;;;;;;;XXXXXXXX;;;;;;;;;;;;;;;;;;;;;;;;;;;;;;;",
";;;;;;XX #*- XX;;;;;;;;;XXXXXXXXXX;;;;;;;;;;;;;;;;;;;;;;;;;;;;;;",
";;;;;;;XX ##- XX;;;;;;;XX%%%%%%%XXX;;;;;;;;;;;;;;;;;;;;;;;;;;;;;",
";;;;;;;;XX ##- XX;;;;;XX%%&=====%XXX;;;;;;;;;;;;;;;;;;;;;;;;;;;;",
";;;;;;;;;XX #@- XXX;;;XX%========%XX;XXXX;;;;;;;;;;;;;;;;;;;;;;;",
";;;;;;;;;;XX #@- XXX;;XX%========%XXXXXXXXXX;;;;;;;;;;;;;;;;;;;;",
";;;;;;;;;;;XXO#@@  XX;XX%========%XXX....XXXX;;;;;;;;;;;;;;;;;;;",
";;;;;;;;;;;;XXO#O#**XXXX&oo======%XX.+$$$..XXX;;;;;;;;;;;;;;;;;;",
";;;;;;;;;;;;;XX OO##XXXXXooo=====&o +...+$$.XXX;;;;;;;;;;;;;;;;;",
";;;;;;;;;;;;;;XX OOOooXXXoo===&&&%o+......+$.XXX;;;;;;;;;;;;;;;;",
";;;;;;;;;;;;;;;XX   &oXXXo===&%%o ..........$.XXX;;;;;;;;;;;;;;;",
";;;;;;;;;;;;;;;;XXXX&ooXX&=&=%%oXooo....o....$.XX;;;;;;;;;;;;;;;",
";;;;;;;;;;;;;;;;;;XXo&o&Xoo==%o&o&&&o..ooo...+$.XX;;;;;;;;;;;;;;",
";;;;;;;;;;;;;;;;;;;XXo%&&o==&%o&%%&&o..ooo....$.XX;;;;;;;;;;;;;;",
";;;;;;;;;;;;;;;;;;;;XXo%%oooooooo%%%oo..oo....$.XX;;;;;;;;;;;;;;",
";;;;;;;;;;;;;;;;;;;;;XX%o==%%o=&o%%oo&&.ooo...+.XX;;;;;;;;;;;;;;",
";;;;;;;;;;;;;;;;;;;;;XXo=====o=&oooX o%oooo...+.XX;;;;;;;;;;;;;;",
";;;;;;;;;;;;;;;;;;;;;XXo=====ooo&%XXX oo%%...+ XX;;;;;;;;;;;;;;;",
";;;;;;;;;;;;;;;;;;;;;XXo%===oo==XX&XXX  ....  XX;;;;;;;;;;;;;;;;",
";;;;;;;;;;;;;;;;;;;;;;XXoooXX&==&&%XXXXX    XXX;;;;;;;;;;;;;;;;;",
";;;;;;;;;;;;;;;;;;;;;;;XXXX&=X&ooXX&XXXXXXXXXX;;;;;;;;;;;;;;;;;;",
";;;;;;;;;;;;;;;;;;;;;;;;XXXX&&X==&&XX;;;XXXX;;;;;;;;;;;;;;;;;;;;",
";;;;;;;;;;;;;;;;;;;;;;;;;XX&XX&==XXX;;;;;;;;;;;;;;;;;;;;;;;;;;;;",
";;;;;;;;;;;;;;;;;;;;;;;;;;XX&&XXooXX;;;;;;;;;;;;;;;;;;;;;;;;;;;;",
";;;;;;;;;;;;;;;;;;;;;;;;;;;XXX%%==XX;;;;;;;;;;;;;;;;;;;;;;;;;;;;",
";;;;;;;;;;;;;;;;;;;;;;;;;;;XX&Xo==&XX;;;;;;;;;;;;;;;;;;;;;;;;;;;",
";;;;;;;;;;;;;;;;;;;;;;;;;;;XX&X%X&&=XX;;;;;;;;;;;;;;;;;;;;;;;;;;",
";;;;;;;;;;;;;;;;;;;;;;;;;;;XXo&%X&&=XX;;;;;;;;;;;;;;;;;;;;;;;;;;",
";;;;;;;;;;;;;;;;;;;;;;;;;;;XXoo&&==oXX;;;;;;;;;;;;;;;;;;;;;;;;;;",
";;;;;;;;;;;;;;;;;;;;;;;;;;;XXooXXXo=&XX;;;;;;;;;;;;;;;;;;;;;;;;;",
";;;;;;;;;;;;;;;;;;;;;;;;;;;XX%oXXXXo=oXXX;;;;;;;;;;;;;;;;;;;;;;;",
";;;;;;;;;;;;;;;;;;;;;;;;;;XX%ooXX;XXo=&XXX;;;;;;;;;;;;;;;;;;;;;;",
";;;;;;;;;;;;;;;;;;;;;;;;;XX%o%oXX;;XXXoo%XX;;;;;;;;;;;;;;;;;;;;;",
";;;;;;;;;;;;;;;;;;;;;;;;;XXo%oXX;;;;XXo%&XX;;;;;;;;;;;;;;;;;;;;;",
";;;;;;;;;;;;;;;;;;;;;;;;;;;;;;;;;;;;XX%&=&XX;;;;;;;;;;;;;;;;;;;;",
";;;;;;;;;;;;;;;;;;;;;;;;;;;;;;;;;;;;;XX=&=XX;;;;;;;;;;;;;;;;;;;;",
";;;;;;;;;;;;;;;;;;;;;;;;;;;;;;;;;;;;;;;;;;;;;;;;;;;;;;;;;;;;;;;;",
";;;;;;;;;;;;;;;;;;;;;;;;;;;;;;;;;;;;;;;;;;;;;;;;;;;;;;;;;;;;;;;;",
";;;;;;;;;;;;;;;;;;;;;;;;;;;;;;;;;;;;;;;;;;;;;;;;;;;;;;;;;;;;;;;;",
";;;;;;;;;;;;;;;;;;;;;;;;;;;;;;;;;;;;;;;;;;;;;;;;;;;;;;;;;;;;;;;;",
";;;;;;;;;;;;;;;;;;;;;;;;;;;;;;;;;;;;;;;;;;;;;;;;;;;;;;;;;;;;;;;;",
";;;;;;;;;;;;;;;;;;;;;;;;;;;;;;;;;;;;;;;;;;;;;;;;;;;;;;;;;;;;;;;;",
";;;;;;;;;;;;;;;;;;;;;;;;;;;;;;;;;;;;;;;;;;;;;;;;;;;;;;;;;;;;;;;;",
";;;;;;;;;;;;;;;;;;;;;;;;;;;;;;;;;;;;;;;;;;;;;;;;;;;;;;;;;;;;;;;;",
";;;;;;;;;;;;;;;;;;;;;;;;;;;;;;;;;;;;;;;;;;;;;;;;;;;;;;;;;;;;;;;;",
";;;;;;;;;;;;;;;;;;;;;;;;;;;;;;;;;;;;;;;;;;;;;;;;;;;;;;;;;;;;;;;;",
";;;;;;;;;;;;;;;;;;;;;;;;;;;;;;;;;;;;;;;;;;;;;;;;;;;;;;;;;;;;;;;;",
";;;;;;;;;;;;;;;;;;;;;;;;;;;;;;;;;;;;;;;;;;;;;;;;;;;;;;;;;;;;;;;;",
";;;;;;;;;;;;;;;;;;;;;;;;;;;;;;;;;;;;;;;;;;;;;;;;;;;;;;;;;;;;;;;;",
";;;;;;;;;;;;;;;;;;;;;;;;;;;;;;;;;;;;;;;;;;;;;;;;;;;;;;;;;;;;;;;;",
";;;;;;;;;;;;;;;;;;;;;;;;;;;;;;;;;;;;;;;;;;;;;;;;;;;;;;;;;;;;;;;;",
";;;;;;;;;;;;;;;;;;;;;;;;;;;;;;;;;;;;;;;;;;;;;;;;;;;;;;;;;;;;;;;;"
};
