/* XPM */
static char *Squelette_SpriteSheet_181636046420[] = {
/* columns rows colors chars-per-pixel */
"64 64 126 2 ",
"   c #5F002A",
".  c #4C3E3C",
"X  c #772A2A",
"o  c #4F413F",
"O  c #5B3356",
"+  c #4F4240",
"@  c #524543",
"#  c #564C46",
"$  c #584C46",
"%  c #554C4B",
"&  c #5A4E4B",
"*  c #5C5047",
"=  c #5D514D",
"-  c #5F5452",
";  c #604F4D",
":  c #625247",
">  c #64534C",
",  c #68564D",
"<  c #69594E",
"1  c #615653",
"2  c #695751",
"3  c #655A55",
"4  c #6B5B54",
"5  c #615758",
"6  c #645B5B",
"7  c #6B5E5B",
"8  c #725D54",
"9  c #725E5D",
"0  c #6D615D",
"q  c #716056",
"w  c #74625B",
"e  c #79655E",
"r  c #79685E",
"t  c #545778",
"y  c #6C6361",
"u  c #746462",
"i  c #7A6661",
"p  c #756A66",
"a  c #7C6A63",
"s  c #776C6A",
"d  c #7A6D6B",
"f  c #7F7065",
"g  c #7E716D",
"h  c #7E7372",
"j  c #9D0701",
"k  c #A0592A",
"l  c #D04A01",
"z  c #816E66",
"x  c #816E6A",
"c  c #827067",
"v  c #84726C",
"b  c #89756D",
"n  c #8B796F",
"m  c #817573",
"M  c #8A7674",
"N  c #847975",
"B  c #8C7A74",
"V  c #867B79",
"C  c #8C7D7A",
"Z  c #917D75",
"A  c #927E7B",
"S  c #EC8300",
"D  c #B38449",
"F  c #8E817C",
"G  c #938177",
"H  c #93827C",
"J  c #99857D",
"K  c #99887E",
"L  c #6A8580",
"P  c #8E8381",
"I  c #948582",
"U  c #998683",
"Y  c #968882",
"T  c #9C8A83",
"R  c #958989",
"E  c #9E8C8B",
"W  c #9F908E",
"Q  c #9E9392",
"!  c #A18E86",
"~  c #A28F8A",
"^  c #A88F8E",
"/  c #A29087",
"(  c #A4918B",
")  c #A9948E",
"_  c #A9988E",
"`  c #A38F91",
"'  c #A49392",
"]  c #AA9593",
"[  c #A69995",
"{  c #AC9A94",
"}  c #AA9798",
"|  c #AD9C9A",
" . c #B19B96",
".. c #B39E9A",
"X. c #B89E9B",
"o. c #AEA09C",
"O. c #B1A096",
"+. c #B3A29C",
"@. c #B9A39E",
"#. c #BAA99F",
"$. c #AE9FA0",
"%. c #B39FA2",
"&. c #9FB3A1",
"*. c #B5A5A2",
"=. c #BAA5A3",
"-. c #B7A9A1",
";. c #BDACA4",
":. c #B7ABAD",
">. c #BDACAA",
",. c #BFB1A7",
"<. c #BFB1AA",
"1. c #C2A6A4",
"2. c #C3ABA6",
"3. c #C5ADAA",
"4. c #C8AFAB",
"5. c #C2B1A6",
"6. c #C4B2AC",
"7. c #CBB4AE",
"8. c #C7B8AF",
"9. c #C4AFB0",
"0. c #C5B5B1",
"q. c #C9B6B1",
"w. c #C7B8B2",
"e. c #CABAB3",
"r. c #FFD980",
"t. c #DCD5C5",
/* pixels */
"% # * % @ # # # # % % % % # # % % % # # # # % % # % % % # # % % % % % % % % % % % % % % + @ # % % % % % % % % % % % % % % % % % ",
"# @ . . o O o o . o o o o o . o . o o # & # # # @ + @ + O @ o o # % % & * & = % = * % & = = = % % & & & & & & ; - & & % % & # % ",
"% % s F V V V V h V V P h F h h V V V N N V V N P P V V m 3 @ @ - h h h m h h h h h N h h h h h m h h N N h m N V V V V h s 5 # ",
"% & V [ Q Q E ` Q Q Q Q Q Q [ Q ' Q [ [ ' ' Q ' [ | *.*.E a & @ 3 N R W Q Q ' [ [ Q [ Q Q [ [ [ [ Q ' ' ' ` ' ' } [ } :.Q h 5 # ",
"# * V W W W ` ` [ } $.} [ Q [ Q ' Q ( ' ( ( ' [ [ ' o.*.Y i @ . - g R W ' W W W W W ( W W W W Q Q Q W Q E ` ( ' [ o.$.:.Q h - % ",
"% & V Q ( ' ` } $.*.:.>.$.[ [ } | [ [ [ [ [ W ' | | e.>.) x > & 7 C W [ [ ' ( ( ( ' ' ' ' ( ' ' ' ' ' ' ' ' ' } o.:.:.<.$.h - % ",
"# & F Q E ~ ` ' | *.>.*.| [ [ [ ( ( [ ( ( W W ( | >.q.;.( m 4 2 p A W [ ( ( W W / W E ( W / / ( E W ~ ~ ~ ( W ' | *.<.<.o.h - % ",
"# = P [ ' } } } } | | +.| | ' ' W W / W ( W W ( | ;.8.;.U v 4 2 p A ( [ ( / E W E E ( / E / E E ~ ~ ~ E ~ E E ' | $.<.<.o.h - # ",
"& % C } } %.%.} } } ` ` } | } ] ( / ( ( W / W ) | ;.8.;.U b 4 2 p A ( ] ) / E ( E ( ~ E ~ ~ ~ ( ( ( ~ ~ ~ ^ ~ ] | %.:.0.$.m - # ",
"% % C } } %.%.%.} I M C ~ } ..| { _ ' ( ( ( ( ( ..;.8.;.U b 4 2 a A / ) ' ( / ~ / ~ ~ ( ~ ~ ~ ( E ~ ( ( ~ ~ ~ ^ | ..>.<.%.m 1 # ",
"% ; C } X.1.9.%.~ m 9 9 B ' ..+.| { ) ( W / ( ' | 2.q.;.T v 4 < i G ( ] ' / ~ / / ( ~ ~ ~ / ~ ( ( ( ~ ~ ~ ~ ~ ] } X.3.9.o.N = # ",
"% & C } %.1.9.%.U x 9 9 M ~ | .. .{ ) ( / ~ ( )  .;.q.O O O O O O O O ) ( ( / ~ ( / / ~ ~ ( / ~ ~ ~ ~ ~ ~ ~ ~ ^  ...>.0.+.m - # ",
"# & C } } } ^ U C v a z A U ! ^ ) ) ( / / ~ / ) { ;.O O O O O O O O O O ( / / ( ~ ~ ( ~ ~ ~ ~ ~ ~ E ( ~ ! ~ ~ ) { ..>.6.o.N - # ",
"# & P | E A x x x v M A Z B B B H J ! ! ~ / O O O O O L L L L L L L O O O / ( / / / / ~ / / ( ~ / ( ( / ) ~ ! )  .+.2.0.+.N - # ",
"% & R } C d 9 9 i M A U M x a a v Z Y ! O O O O O O L &.&.t.t.t.t.t.L O O O ( / ~ ~ / / ~ ~ ( / ( / ~ ) ~ / ! )  ...;.6.+.N 1 # ",
"% & P E M x 9 9 x M U U M z a z c B J O O O j j j   &.t.t.t.t.t.t.t.t.L O O E ( ( ( ~ ( / ( ~ ( ~ ~ ~ ~ ( / ( )  .+.>.6.o.N - # ",
"# & N A N x d x M U ! E A x x v b A O O O j r.r.  L t.t.t.t.t.t.t.t.t.L O O / ( ( ( ) / ( / ) / / / ( ( / ^ / )  .X.2.6.+.N 1 # ",
"# & h g x M M C I E ~ ~ U A B B A O O O j r.S   O t t.t.t.t.t.t.t.t.t.L O O ) ( / ( ! ( ( ( ! ( ) ~ ( / / ^ ) )  .@.5.8.+.m 1 # ",
"# % s s x A A U E ^ ' ) ^ T I J ! O O j r.S   O O t t.t.t t t.t.t.t.t.L O O ) / ( ( / ( / ^ ~ ( ( ( ( ~ / / / )  .@.2.4.+.N 1 # ",
"# = s s x A U ` ~ ^ ) ' ) ^ ! ! O O   S r.S   O O L &.t t t t.t.t.t.&.t O O / ( ! ) ( ( ( / ! ) ( ( ( ( / ) / )  .O.5.4.*.N - # ",
"% & d m m U ^ ^ ` ^ ^ ( ^ ^ ~ ~ O O   r.S j O O O t &.t t t.t.&.&.&.L t O O / ( / ) ! / ( ( ) ( ( / ( ( ( ! ) ) | @.2.0.o.N - # ",
"% % h C C R ` ` ~ ~ ~ ~ ~ ! ! ! O O   r.j j O O O t t t.t.t.&.L L t t O O O O O ! ~ ^ ! ! ( ! ! ~ ! ! ~ ! ! K )  .*.2.0.+.N - # ",
"& & m R U R ` E ! ~ ! ! ! T ! ! O O   r.j j O O O O &.t.t.&.L L t O O O O O O O O O O ! ! ! ! ! ! ! ! ! ! ! K )  .#.<.0.-.h - # ",
"% & V ` ` ` ^ ^ ' ` ` ~ ~ ^ / ~ O O   S j   O O O O t t t t.L t L O X X X X X X O O O O ! ~ / ~ ! ( ~ ! ! ! ) )  .#.<.0.*.V - # ",
"% & C $.} } } } | ..} ] ) ) ) ) O O   S j   O O O O t t.t.&.L t L t L D D D D D X X O O O ) ) ) ) ) ) ) ) ) )  . .#.9.0.*.V 1 # ",
"% & P :.%.%.*.=.=.%.1.X.X.X.@.X.O O   S j   O O ;.O O t t t t t t t L L X X k D D D X O O O ....O.X.X.X.X.X.X.%.@.2.q.q.| N 1 # ",
"% ; P 9.:.3.9.3.3.4.3.3.3.3.3.3.O O   S j   O O 6.O O t t.t.t.L L t L L X X X X k D D X O O 2.2.2.2.4.1.4.1.3.1.2.6.e.q.| h 1 % ",
"# ; P :.*.=.3.9.3.3.3.3.4.3.6.5.O O   S j   O O O O t t.t.t.t.L L t t t t L X X X X k D X O O 2.2.4.1.1.4.4.3.1.2.2.e.0.[ g 3 # ",
"# & V [ E ~  . .X. . . . ..... .O O         O O O O t t.t.t.t.t t t X X t t L X X X X D X O O {  . . . . . . . . . .*...R s 7 # ",
"% & h C x N C C A M Z C C A F F O O   l r.r.  O O O t t.t.t.L L L X L X X t t L X X X k D X O O Z Z Z Z Z A C A A A A U V 0 6 # ",
"% & 1 0 6 6 4 4 2 2 2 2 4 3 4 O O j S r.r.r.  O O O O t t t t L t.L L X X X t t t X X X D X O O 4 2 2 3 4 1 2 2 3 2 4 = $ # # # ",
"# & & & & ; & $ & & & & * * * O O j l r.S   O O O O &.t.&.O t.t.t t X X X t t t X X X X D X O O # # @ # @ $ @ $ $ $ $ & $ # # # ",
"# % & - 1 7 0 0 0 0 0 0 0 0 w O O j l S   t.t.O O t t.&.O t.t   t.L L t t t t X X X X X D X O O 4 q 3 0 4 2 6 w u 8 9 u u 5 - & ",
"# & h x s v V C N N F V F B B O O   l l &.t.t t.t.t.t O O O t.t.L L X X t t X X X X X X k X O O b m g f x x x M C B A I M 7 5 & ",
"# & m P B I U R K Y Y Y K K K T O O     O O O t L &.O O O t t t t t X X X X X X X X X k   O O U Y Y F Y U U A ! ! ^ | | R y 7 & ",
"# & m E U ` ^ ` ( / ( ( / W ( / ) O O O O O O O O O O O t &.&.t L &.X X X X X X X X X   O O _  .{ { { [ ] ]  . . .%.1.=.E p 7 - ",
"# & V ' ~ } ` ^ ' ^ ^ ) ^ ) ) ( ) ) O O ( ( ( O O O O O t &.L O L &.t.    X X X X k   O O .. . . .X.X.X.X.X.1.X.X.X.%...R u 7 & ",
"% & N ' ` ^ ^ ^ ] ^ ^ ^ ~ ) ^ ^ ( ( ( ( / ( / ) +.2.O O t t &.O L O &.t.O           O O  .X.X.@.X.1.1.1.1.1.1.1. .! U H m 6 - & ",
"% & h ' ` ] ] ` ^ ^ ~ ~ ( ^ ~ ) ^ ) ~ ) ~ ~ / ) O.O O t L t t t.L O &.t.O O O O O O O )  .@.1.1.2.2.4.4.4.7.7.4.} A x u 6 & % # ",
"% & h ' ` ' ^ ~ ^ ) ^ ^ ^ ~ ^ ~ ! ! ^ ! / / / ) O O t L t O O t t.t.t.&.O O O O O )  .) ) @.2.4.4.6.7.7.7.7.7.1.^ Z a 2 ; @ @ % ",
"# = m ` ` ^ ` ' ) ~ ~ ^ ~ ^ ~ ) ) ^ ! ) ! ~ ( ) O O t t O O O O t t t O O ) ( ) _ _ { )  . . .X. . . . . . . ./ ! Z b a 9 = & # ",
"# = N ' ' ' ` ^ ^ ~ ` ) ~ ( ) ~ ( ! ^ ! ~ ! ( O O &.L t O O , O O t t.&.O O O ) _ {  .{ ) / K K Z Z Z b Z n n b Z J U J b 6 5 = ",
"# = h ' ^ ' ^ ' ' ^ ~ ( ) ( ( ~ ) ~ ( ) ~ ! O O O &.t O O c < ; O O L t.&.O O O { O.O.+.) G c e z 8 z , z , 8 z b J  .] I p 6 = ",
"# = N ' ` ' ^ ^ ~ ^ ' ^ ~ ^ ( ) ! ) ( ~ / O O L &.L t O O b < : e O O L L &.&.O O  .O...^ n 9 , : : , , , : : 8 z ! X.@.' g 6 = ",
"% & m ' ` ' ^ ^ ` ^ ) ~ ) ~ ~ ) ( ( ! ) ( ( O &.t t t O ) x < > e G O O O t t t O O { ) J n e 4 , , 8 8 8 < 8 q b / ;.,.{ h 6 = ",
"# ; m ' ` ] ` ` ' ~ ~ ^ ~ ) ~ ( ) ( ^ ~ / ~ / ) { #.3.2.) b , > e H ) O O t.&.&.O O J A n b x z z z z z z z z b J { 2.6.[ d 6 = ",
"# & m ` ` ' ` ^ ^ ( ^ ~ ( ) ) ~ ! ( ~ ( ! ( ! ) | #.2.;.) v < > r H ) O O &.&.t.O O v z z b M Z A Z A Z G G Z J / O.6.q.[ s 6 = ",
"% & m ' } ' ` ) ~ ^ ) ) ~ ~ ~ ) ! ) ( ( ( / ~ ) | =.5.;.) v < > i H ) O t.&.t.O O n i r z n Z J ! ! ! / ! ! K ! ) #.0.w.| h - = ",
"% & N ' ] ' ` ^ ) ~ ~ ( ' ( ) ( ) ( ( / ( / / ) | #.6.;.) v < > e H )  .+.#.#._ J c r a c n J T ! ^ ( (  .K  .X.O.@.7.8.O.f - = ",
"& & m ' ` ' ^ ' ` ) ) ( ^ / ~ ) ( / ( ( ( / / ) { #.2.2._ v < < a J { +. ._ T J B b v b n G J K ! ! ) ( K  .K K K @.7.7._ f - = ",
"# & m ' ' ] ` ' ^ ~ ) ~ ( ) ) ~ ( ) _ / / / ( ) { #.5.;./ b < < z K O.#.{ J b f c b B G J K K T ! / ! /  .K ) K O.X.7.7.o.h - - ",
"% - h } ' ' ) ~ ( ' ( ' ( ( ( ( / ) / T ~ / / ) { #.5.;._ c q < c / ;.5._ n q < w b G T T / / / / ( ! / K ) K  . .X.4.7.o.s - - ",
"# & m ' ) ' ' ^ ( ( ( ( ( ( ' ( / / / _ T _ T _  .#.5.2./ b < < c / 5.5._ n < : w b G / _ _ / _ / / / / / / ) K ) +.6.w.[ s - = ",
"% & h [ ) [ ) ' ( ( W ( ( ( ( / _ / / _ / T / _ { #.5.5._ b < < a / ,.,./ c < < r n K / / / / / / / / / / / K ) ) #.6.w.o.s - - ",
"# = h ' ( ' ( ~ ' ( / ( ( / ( ( / / _ / T / T _ O.#.5.#./ c < : r / #.#./ c < < r G K T / T W / / / / / / / K K _ @.6.w.o.s - - ",
"# = m ' ( ' ) E / W W ( / E / W _ K W K W T W ( { #.5.5./ b < : r K #.#.W f < < r G K / / / / / / / / / / / / ) ) @.6.w.o.h - - ",
"% & V } ] ] ] ' ' ( ' ) ( ) ( ( ) ( ( W / ( _ _ O.#.,.,.) v 2 : r G | | T c q w m K E W / / ( ( ( / / / / / / / _ @.6.0.| s - - ",
"% & V :.*.=.%.%.*.+.| o.o.o.O.o.O.o.o.O.O.o.+.+.-.,.8.,.( b 4 > q v G I G B m C T [ O.O.O.O.| | O.{ | | O.{ { O.O.2.0.0.| s - = ",
"# = V 0.0.0.0.9.>.0.0.>.<.,.6.6.<.<.<.,.,.,.<.<.8.8.e.,.W g 2 > < w d v F Y ( O.-.,.,.<.,.<.<.,.,.,.,.,.;.,.,.;.2.6.e.w.| h - - ",
"% & V <.0.e.q.0.0.0.0.0.0.w.6.8.6.w.0.<.<.<.w.w.8.e.8.#.T f 2 ; > 4 w i n W +.-.<.<.<.<.w.0.w.w.w.0.w.6.8.6.6.6.5.6.w.w.$.h 6 - ",
"# & h | o.*.=.*.*.*.*.*.*.-.*.*.-.*.o.-.*.o.+.,.,.,.#.W B i > $ & < 4 0 g K Q O.[ | | O.o.o.+.o.o.o.o.o.o.O.#.#.-.o.o.*.Q s 6 - ",
"# = s F P U R I R I I I Y I Y R Y H Y F F F Y R W E H F p 2 & & # = 1 1 0 h F F F F F F F F F P F F F G F G G T W Y Y P h y - & ",
"% & 0 7 7 0 0 0 0 0 y 0 0 0 0 0 0 0 0 0 0 0 0 u p p 0 * & @ % & @ # = = = p 0 p g s g g g g g v g g g g g c g n N f p p y - y & ",
"# & 1 5 5 5 1 1 - - 1 1 - - - - - - - = - - - - = - - * $ & % # # @ # # = - = = = = * = - = - = - = = - - - - - - - - - - & - % "
};
