/* XPM */
static char *result[] = {
/* columns rows colors chars-per-pixel */
"64 64 14 1 ",
"  c #5F002A",
". c #772A2A",
"X c #5B3356",
"o c #545778",
"O c #9D0701",
"+ c #A0592A",
"@ c #D04A01",
"# c #EC8300",
"$ c #B38449",
"% c #6A8580",
"& c #9FB3A1",
"* c #FFD980",
"= c #DCD5C5",
"- c None",
/* pixels */
"----------------------------------------------------------------",
"----------------------------------------------------------------",
"----------------------------------------------------------------",
"----------------------------------------------------------------",
"----------------------------------------------------------------",
"----------------------------------------------------------------",
"----------------------------------------------------------------",
"----------------------------------------------------------------",
"----------------------------------------------------------------",
"----------------------------------------------------------------",
"----------------------------------------------------------------",
"----------------------------------------------------------------",
"----------------------------XXXXXXXX----------------------------",
"---------------------------XXXXXXXXXX---------------------------",
"--------------------------XXX%%%%%%%XX--------------------------",
"-------------------------XXX%=====&%%XX-------------------------",
"-------------------------XX%========%XX-------------------------",
"-------------------------XX%========%XX-------------------------",
"-------------------------XX%========%XX-------------------------",
"-------------------------XX%=====oo=&XX-------------------------",
"-------------------------XXo&====ooo&XX-------------------------",
"-------------------------XXo%&&&==oo&XX-------------------------",
"--------------------------XXXo%%&===oXX---XXX-------------------",
"---------------------------XXXo%%&==&XX--XXXXX------------------",
"--------------------------XXXX%o%=oooXX-XX..XXX-----------------",
"------------------------XXXXXXoo%&==oXXXX.+$.XXX----------------",
"-----------------------XXXoooo%&oooooXXX.+$.. XX----------------",
"-----------------------XXo===o%&oo&&%oX.+$+.+. XX---------------",
"----------------------XXo====ooooo&%%oX.$.+.+. XX---------------",
"----------------------XX%===%o%&Xo%%oX.+$+.+.. XX---------------",
"----------------------XXo&=%oo%&%&oo&o.$.+.+.. XX---------------",
"----------------------XXoo%o=oooXX&Xo&.$.++++. XX---------------",
"----------------------XXo=o=X%&%%XXXX.+$.+++.. XX---------------",
"----------------------XXo=oX=%&XX&XXX.$+.+++. XX----------------",
"---------------------XXo=oX=Xoo%%XXXX.$+.+.+. XX----------------",
"---------------------XXo=%XX=%&XX&XXX.$+.+.+. XX----------------",
"--------------------XXo=ooXX&%o%%XXXX.$+.+.. XX-----------------",
"-------------------XXX==oXX=&ooX&%XXXX $.+.. XX-----------------",
"------------------XXX==oXX==X%%X&oXX-XX .+. XX------------------",
"-----------------XXOO XXXX=&X%&&o%XX--XX   XXX------------------",
"----------------XXOO#@ XXXo=&&ooo%XX---XXXXXX-------------------",
"---------------XXO**## XX&=oXXXXo%XX----XXX---------------------",
"--------------XXO@**# XXo=oXXXXXXo%XX---------------------------",
"--------------XX O## XX&=oXX---XXoo%XX--------------------------",
"-------------XX O O XX%ooXX----XXo%o%XX-------------------------",
"------------XX #@  XXX&%oXX-----XXo%oXX-------------------------",
"-----------XX #@ XXXXX&=&%XX------------------------------------",
"----------XX #@O XX-XX=&=XX-------------------------------------",
"--------XXXO*@O XX----------------------------------------------",
"------XXXXO*@#O XX----------------------------------------------",
"----XXXXOO*@*O XX-----------------------------------------------",
"-XXXXXOO**#*# XX------------------------------------------------",
"--XX O*****  XX-------------------------------------------------",
"---XX     OXXX--------------------------------------------------",
"----XXXXXXXXX---------------------------------------------------",
"-----XXXXXX-----------------------------------------------------",
"----------------------------------------------------------------",
"----------------------------------------------------------------",
"----------------------------------------------------------------",
"----------------------------------------------------------------",
"----------------------------------------------------------------",
"----------------------------------------------------------------",
"----------------------------------------------------------------",
"----------------------------------------------------------------"
};
