/* XPM */
static char *result[] = {
/* columns rows colors chars-per-pixel */
"64 64 15 1 ",
"  c #5F002A",
". c #772A2A",
"X c #5B3356",
"o c #545778",
"O c #9D0701",
"+ c #A0592A",
"@ c #D04A01",
"# c #EC8300",
"$ c #B38449",
"% c #6A8580",
"& c #9FB3A1",
"* c #FFD980",
"= c #DCD5C5",
"- c white",
"; c None",
/* pixels */
";;;;;;;;;;;;;;;;;;;;;;;;;;;;;;;;;;;;;;;;;;;;;;;;;;;;;;;;;;;;;;;;",
";;;;;;;;;;;;;;;;;;;;;;;;;;;;;;;;;;;;;;;;;;;;;;;;;;;;;;;;;;;;;;;;",
";;;;;;;;;;;;;;;;;;;;;;;;;;;;;;;;;;;;;;;;;;;;;;;;;;;;;;;;;;;;;;;;",
";;;;;;;;;;;;;;;;;;;;;;;;;;;;;;;;;;;;;;;;;;;;;;;;;;;;;;;;;;;;;;;;",
";;;;;;;;;;;;;;;;;;;;;;;;;;;;;;;;;;;;;;;;;;;;;;;;;;;;;;;;;;;;;;;;",
";;;;;;;;;;;;;;;;;;;;;;;;;;;;;;;;;;;;;;;;;;;;;;;;;;;;;;;;;;;;;;;;",
";;;;;;;;;;;;;;;;;;;;;;;;;;;;;;;;;;;;;;;;;;;;;;;;;;;;;;;;;;;;;;;;",
";;;;;;;;;;;;;;;;;;;;;;;;;;;;;;;;;;;;;;;;;;;;;;;;;;;;;;;;XXXX;;;;",
";;;;;;;;;;;;;;;;;;;;;;;;;;;;;;;;;;;;;;;;;;;;;;;;;;;;;;XXXXXXXX;;",
";;;;;;;;;;;;;;;;;;;;;;;;;;;;;;;;;;;;;;;;;;;;;;;;;;;;;XX    XXXX;",
";;;;;;;;;;;;;;;;;;;;;;;;;;;;;;;;;;;;;;;;;;;;;;;;;;;;XX --#   XXX",
";;;;;;;;;;;;;;;;;;;;;;;;;;;;;;;;;;;;;;;;;;;;;;;;;;;XX -*# XXXX;;",
";;;;;;;;;;;;;;;;;;;;;;;;;;;;;;;XXXXXXXX;;;;;;;;;;;XX -*# XXX;;;;",
";;;;;;;;;;;;;;;;;;;;;;;;;;;;;;XXXXXXXXXX;;;;;;;;;XX -*# XX;;;;;;",
";;;;;;;;;;;;;;;;;;;;;;;;;;;;;XXX%%%%%%%XX;;;;;;;XX -## XX;;;;;;;",
";;;;;;;;;;;;;;;;;;;;;;;;;;;;XXX%=====&%%XX;;;;;XX -## XX;;;;;;;;",
";;;;;;;;;;;;;;;;;;;;;;;XXXX;XX%========%XX;;;XXX -@# XX;;;;;;;;;",
";;;;;;;;;;;;;;;;;;;;XXXXXXXXXX%========%XX;;XXX -@# XX;;;;;;;;;;",
";;;;;;;;;;;;;;;;;;;XXXX....XXX%========%XX;XX  @@#OXX;;;;;;;;;;;",
";;;;;;;;;;;;;;;;;;XXX..$$$+.XX%======oo&XXXX**#O#OXX;;;;;;;;;;;;",
";;;;;;;;;;;;;;;;;XXX.$$+...+ o&=====oooXXXXX##OO XX;;;;;;;;;;;;;",
";;;;;;;;;;;;;;;;XXX.$+......+o%&&&===ooXXXooOOO XX;;;;;;;;;;;;;;",
";;;;;;;;;;;;;;;XXX.$.......... o%%&===oXXXo&   XX;;;;;;;;;;;;;;;",
";;;;;;;;;;;;;;;XX.$....o....oooXo%%=&=&XXoo&XXXX;;;;;;;;;;;;;;;;",
";;;;;;;;;;;;;;XX.$+...ooo..o&&&o&o%==ooX&o&oXX;;;;;;;;;;;;;;;;;;",
";;;;;;;;;;;;;;XX.$....ooo..o&&%%&o%&==o&&%oXX;;;;;;;;;;;;;;;;;;;",
";;;;;;;;;;;;;;XX.$....oo..oo%%%oooooooo%%oXX;;;;;;;;;;;;;;;;;;;;",
";;;;;;;;;;;;;;XX.+...ooo.&&oo%%o&=o%%==o%XX;;;;;;;;;;;;;;;;;;;;;",
";;;;;;;;;;;;;;XX.+...oooo%o Xooo&=o=====oXX;;;;;;;;;;;;;;;;;;;;;",
";;;;;;;;;;;;;;;XX +...%%oo XXX%&ooo=====oXX;;;;;;;;;;;;;;;;;;;;;",
";;;;;;;;;;;;;;;;XX  ....  XXX&XX==oo===%oXX;;;;;;;;;;;;;;;;;;;;;",
";;;;;;;;;;;;;;;;;XXX    XXXXX%&&==&XXoooXX;;;;;;;;;;;;;;;;;;;;;;",
";;;;;;;;;;;;;;;;;;XXXXXXXXXX&XXoo&X=&XXXX;;;;;;;;;;;;;;;;;;;;;;;",
";;;;;;;;;;;;;;;;;;;;XXXX;;;XX&&==X&&XXXX;;;;;;;;;;;;;;;;;;;;;;;;",
";;;;;;;;;;;;;;;;;;;;;;;;;;;;XXX==&XX&XX;;;;;;;;;;;;;;;;;;;;;;;;;",
";;;;;;;;;;;;;;;;;;;;;;;;;;;;XXooXX&&XX;;;;;;;;;;;;;;;;;;;;;;;;;;",
";;;;;;;;;;;;;;;;;;;;;;;;;;;;XX==%%XXX;;;;;;;;;;;;;;;;;;;;;;;;;;;",
";;;;;;;;;;;;;;;;;;;;;;;;;;;XX&==oX&XX;;;;;;;;;;;;;;;;;;;;;;;;;;;",
";;;;;;;;;;;;;;;;;;;;;;;;;;XX=&&X%X&XX;;;;;;;;;;;;;;;;;;;;;;;;;;;",
";;;;;;;;;;;;;;;;;;;;;;;;;;XX=&&X%&oXX;;;;;;;;;;;;;;;;;;;;;;;;;;;",
";;;;;;;;;;;;;;;;;;;;;;;;;;XXo==&&ooXX;;;;;;;;;;;;;;;;;;;;;;;;;;;",
";;;;;;;;;;;;;;;;;;;;;;;;;XX&=oXXXooXX;;;;;;;;;;;;;;;;;;;;;;;;;;;",
";;;;;;;;;;;;;;;;;;;;;;;XXXo=oXXXXo%XX;;;;;;;;;;;;;;;;;;;;;;;;;;;",
";;;;;;;;;;;;;;;;;;;;;;XXX&=oXX;XXoo%XX;;;;;;;;;;;;;;;;;;;;;;;;;;",
";;;;;;;;;;;;;;;;;;;;;XX%ooXXX;;XXo%o%XX;;;;;;;;;;;;;;;;;;;;;;;;;",
";;;;;;;;;;;;;;;;;;;;;XX&%oXX;;;;XXo%oXX;;;;;;;;;;;;;;;;;;;;;;;;;",
";;;;;;;;;;;;;;;;;;;;XX&=&%XX;;;;;;;;;;;;;;;;;;;;;;;;;;;;;;;;;;;;",
";;;;;;;;;;;;;;;;;;;;XX=&=XX;;;;;;;;;;;;;;;;;;;;;;;;;;;;;;;;;;;;;",
";;;;;;;;;;;;;;;;;;;;;;;;;;;;;;;;;;;;;;;;;;;;;;;;;;;;;;;;;;;;;;;;",
";;;;;;;;;;;;;;;;;;;;;;;;;;;;;;;;;;;;;;;;;;;;;;;;;;;;;;;;;;;;;;;;",
";;;;;;;;;;;;;;;;;;;;;;;;;;;;;;;;;;;;;;;;;;;;;;;;;;;;;;;;;;;;;;;;",
";;;;;;;;;;;;;;;;;;;;;;;;;;;;;;;;;;;;;;;;;;;;;;;;;;;;;;;;;;;;;;;;",
";;;;;;;;;;;;;;;;;;;;;;;;;;;;;;;;;;;;;;;;;;;;;;;;;;;;;;;;;;;;;;;;",
";;;;;;;;;;;;;;;;;;;;;;;;;;;;;;;;;;;;;;;;;;;;;;;;;;;;;;;;;;;;;;;;",
";;;;;;;;;;;;;;;;;;;;;;;;;;;;;;;;;;;;;;;;;;;;;;;;;;;;;;;;;;;;;;;;",
";;;;;;;;;;;;;;;;;;;;;;;;;;;;;;;;;;;;;;;;;;;;;;;;;;;;;;;;;;;;;;;;",
";;;;;;;;;;;;;;;;;;;;;;;;;;;;;;;;;;;;;;;;;;;;;;;;;;;;;;;;;;;;;;;;",
";;;;;;;;;;;;;;;;;;;;;;;;;;;;;;;;;;;;;;;;;;;;;;;;;;;;;;;;;;;;;;;;",
";;;;;;;;;;;;;;;;;;;;;;;;;;;;;;;;;;;;;;;;;;;;;;;;;;;;;;;;;;;;;;;;",
";;;;;;;;;;;;;;;;;;;;;;;;;;;;;;;;;;;;;;;;;;;;;;;;;;;;;;;;;;;;;;;;",
";;;;;;;;;;;;;;;;;;;;;;;;;;;;;;;;;;;;;;;;;;;;;;;;;;;;;;;;;;;;;;;;",
";;;;;;;;;;;;;;;;;;;;;;;;;;;;;;;;;;;;;;;;;;;;;;;;;;;;;;;;;;;;;;;;",
";;;;;;;;;;;;;;;;;;;;;;;;;;;;;;;;;;;;;;;;;;;;;;;;;;;;;;;;;;;;;;;;",
";;;;;;;;;;;;;;;;;;;;;;;;;;;;;;;;;;;;;;;;;;;;;;;;;;;;;;;;;;;;;;;;"
};
