/* XPM */
static char *Squelette_SpriteSheet_261636046421[] = {
/* columns rows colors chars-per-pixel */
"64 64 126 2 ",
"   c #5F002A",
".  c #4C3E3C",
"X  c #772A2A",
"o  c #4F413F",
"O  c #5B3356",
"+  c #4F4240",
"@  c #524543",
"#  c #564C46",
"$  c #594C46",
"%  c #554C4B",
"&  c #5A4E4B",
"*  c #5C5047",
"=  c #5D514D",
"-  c #5F5452",
";  c #604F4D",
":  c #625247",
">  c #64534C",
",  c #68554D",
"<  c #69594E",
"1  c #615653",
"2  c #695751",
"3  c #655A55",
"4  c #6B5A54",
"5  c #615758",
"6  c #645B5B",
"7  c #6B5E5B",
"8  c #725D54",
"9  c #725E5D",
"0  c #6D615D",
"q  c #716056",
"w  c #74635B",
"e  c #79655E",
"r  c #79685E",
"t  c #545778",
"y  c #6C6361",
"u  c #746462",
"i  c #7A6661",
"p  c #756A66",
"a  c #7C6A63",
"s  c #776C6A",
"d  c #7A6D6B",
"f  c #7F7065",
"g  c #7E716D",
"h  c #7E7372",
"j  c #9D0701",
"k  c #A0592A",
"l  c #D04A01",
"z  c #816E66",
"x  c #816E6A",
"c  c #827067",
"v  c #84726C",
"b  c #89756D",
"n  c #8B796F",
"m  c #817573",
"M  c #8A7674",
"N  c #847976",
"B  c #8C7A74",
"V  c #867B79",
"C  c #8C7D7A",
"Z  c #917D75",
"A  c #927E7B",
"S  c #EC8300",
"D  c #B38449",
"F  c #8E817C",
"G  c #938177",
"H  c #93827B",
"J  c #99857E",
"K  c #99887E",
"L  c #6A8580",
"P  c #8E8381",
"I  c #948582",
"U  c #998683",
"Y  c #968882",
"T  c #9C8A83",
"R  c #958989",
"E  c #9E8C8B",
"W  c #9F908E",
"Q  c #9E9392",
"!  c #A18E86",
"~  c #A28F8A",
"^  c #A88F8E",
"/  c #A29087",
"(  c #A4918B",
")  c #A9948E",
"_  c #A9988E",
"`  c #A38F91",
"'  c #A49392",
"]  c #AA9593",
"[  c #A69995",
"{  c #AC9A94",
"}  c #AA9798",
"|  c #AD9C9A",
" . c #B19C96",
".. c #B39E9A",
"X. c #B89E9B",
"o. c #AEA09C",
"O. c #B1A096",
"+. c #B4A29C",
"@. c #B9A39E",
"#. c #BAA99F",
"$. c #AE9FA0",
"%. c #B39FA2",
"&. c #9FB3A1",
"*. c #B5A5A2",
"=. c #BAA5A3",
"-. c #B7A9A1",
";. c #BDABA4",
":. c #B7ABAD",
">. c #BDACAA",
",. c #BFB1A7",
"<. c #BFB1AA",
"1. c #C2A6A4",
"2. c #C3ACA6",
"3. c #C5ADAA",
"4. c #C8AFAB",
"5. c #C2B1A6",
"6. c #C4B3AC",
"7. c #CAB5AE",
"8. c #C7B8AF",
"9. c #C4AFB0",
"0. c #C5B5B1",
"q. c #C9B6B1",
"w. c #C7B8B2",
"e. c #CABAB3",
"r. c #FFD980",
"t. c #DCD5C5",
/* pixels */
"% # * % @ # # @ % # % % # @ % % % % # # # # # % % % % % # % % % % % % % % # % % # % % % + % % % % % % % % % % % % % % % % % % % ",
"# @ . . o O o o . o o o o o o o . . + % $ % & @ @ + @ + o O o o # % = % * & & & = * % & & % & & & & & & & & & = - & & % % % % % ",
"% % s F V V V V N V V P h F h V V V N N N V N N F P V V m 3 @ @ 3 g h h h h h h h h h h h h h h h h h h m m m h V V V V h s 3 % ",
"% & V [ Q ` Q E Q Q Q Q Q Q Q Q [ Q [ [ ' ' Q [ [ | *.*.E a $ @ 3 h R Q Q Q [ [ [ Q [ [ [ [ [ Q [ [ ' [ ' ' ' [ } } } :.Q d 5 $ ",
"# * V W W W E ` [ [ | } [ Q Q [ ( ' Q ( ' ( Q [ [ [ +.*.U u @ . - h Y Q ' W W W W Q ( Q ( W Q W Q W Q W W ~ ~ ' [ [ $.:.Q h - % ",
"% & V Q ( ' } } | :.>.:.o.[ [ [ [ [ [ { [ ' ' [ | | e.>.( c > & 7 V W [ [ ' ' ( ( ' ' ( ' ' ( ' ' ' ' ' ' ' ' } $.:.<.<.$.h - % ",
"# & F Q E ~ ` ` | *.:.=.| [ [ [ ( [ ( ( ( W ( ( | ;.w.=.( v 7 , i P ' ' ( W W E ( E / / W W / W E ( E E ~ ` ( ' | *.:.<.o.N - % ",
"# = P [ ' } } } } $...o...} ' ' W W ( ( W W / ( | >.8.;.E v 7 < a A ( [ ( / / E E / E E ~ ! ~ E ~ E ( ~ E ~ E ' } *.<.<.o.h - # ",
"% & C $.} %.} %.} } ` ` } | } ] ( ( ( ( ( W ( ' | ;.8.;.T v 4 2 i A ( ] ( / ( E ( ~ / E ~ ~ ( ( ( ( ( ~ ~ ~ ^ ] } *.>.9.$.N - # ",
"% % C } } %.1.%.^ I M C ~ } ..} { ] ( W ( ( / ' | ;.q.;.T v 8 2 i H ( ' ' ( / ( ~ ~ ~ ( ~ ~ E ( W E ( ~ ~ ~ ~ ' { +.>.9.o.N - @ ",
"% & C } } 1.9.%.` M 9 9 A ' +.+.{ { ) ( W / ( ' O.2.q.;.T v 4 , i H / ] ( ( ~ ( / ~ ~ / ~ / ( ( / ~ ~ ~ ~ ~ ~ ^ } +.>.0.+.m - # ",
"% & A } %.1.:.%.U x 7 9 M ~ { +...{ ) ( / / / ( { ;.7.;.U O O O O O O O O / E / ( ( / ~ ~ / ~ ~ ~ ~ ~ ~ ~ ^ ! )  .X.>.9.o.m - # ",
"$ & C } } } ^ U A v z x Z U ! ( ) ) / / / ~ ~ )  .2.7.;.O O O O O O O O O O / / ~ ~ ( ~ ~ ~ ~ ~ / ~ ~ ~ ~ ~ ^ ) { ..>.6.o.N - # ",
"$ & I | E A x x x x M Z C M M Z H U ! ! ~ ~ ~ ( { ;.8.O O O L L L L L L L O O O O O / / ~ / / ~ ( ~ ( / / ^ ! )  .+.2.6.+.N - # ",
"% & P } A d 9 9 i x A U M x z a c Z U ! ! ! / )  .#.O O O L t.t.t.t.t.&.&.L O O O O O O / ~ / ( ~ ( ( ^ ( / ( )  ...>.6.o.N 3 # ",
"% & P E M x 9 9 x C U U M z a a c B K ! ~ / / / { ;.O O L t.t.t.t.t.t.t.t.&.  j j j O O O ( ( ~ ( / ~ / ! ( / (  .+.;.8.o.N - # ",
"# & N C M x a d M U ~ ~ A x x c b A J ! ! ~ / (  .#.O O L t.t.t.t.t.t.t.t.t.L   r.r.j O O O ( / / ( / ( / / ^ ) X.X.;.6.+.N 3 # ",
"# & h h m M M C H E ~ ~ U A B B A J ! ! ~ ! / )  .;.O O L t.t.t.t.t.t.t.t.t.t O   S r.j O O O ( ( ( ( ( ^ / / )  .@.5.7.+.N 3 @ ",
"# & s p x A A U ~ ~ ' ) ^ U U U ! ! ( ! ~ ~ / )  .#.O O L t.t.t.t.t.t t t.t.t O O   S r.j O O / ( ( ~ / / / ! )  .@.2.6.*.N - # ",
"# = s s x A U ` ^ ` ) ' ) ^ ! ! ~ ( ( ( ~ / / )  .;.O O t &.t.t.t.t.t t t &.L O O   S r.S   O O ( / ( ( ) / / )  .O.5.4.o.N - # ",
"% & d m M U ` ` ^ ~ ` ( ^ ! ! ! ( ( ( ( / / / ]  .2.O O t L &.&.&.t.t.t t &.t O O O j S r.  O O / ) / / ) ! ! )  .+.2.0.*.h - % ",
"% & h V V R ` ^ ~ ~ ~ ~ ~ ~ ~ ! / ! ~ ! ~ ~ / ) O O O O O t t L L &.t.t.t.t t O O O j j r.  O O ~ ~ ! ~ ! ! ! )  .@.>.6.+.N - # ",
"% & m R U U ` ` ~ ~ ~ ~ ~ ! ! ! ! ! ! ! ! O O O O O O O O O O t L L &.t.t.&.O O O O j j r.  O O ! ! ! ! ! ! ! )  .=.<.q.*.N - # ",
"% & V ` ` ` ^ ^ ` ^ ~ ~ ~ ~ ^ / / ^ ! ^ O O O O X X X X X X O L t L t.t t t O O O O   j S   O O ! ~ ~ ! ! ! ! )  .#.<.8.*.N - # ",
"% & C $.} } } $.} ..} ] ] ) ) ) ) ) ) O O O X X D D D D D L t L t L &.t.t.t O O O O   j S   O O ) ) ) ) ) ) )  .O.=.9.0.*.N - % ",
"$ & P :.%.%.=.=.=.%.%.X.X.X.X.@.X.@.O O O X D D D k X X L L t t t t t t t O O +.O O   j S   O O @.O.X.X.X.X.X.X.@.2.q.q...N 3 # ",
"% & P 9.:.1.9.3.4.1.4.4.3.3.3.3.3.3.O O X D D k X X X X L L t L L t.t.t.t O O <.O O   j S   O O 2.2.4.1.2.2.3.1.2.6.e.q.| h - % ",
"% = I :.*.=.3.9.3.4.4.4.3.3.6.5.5.O O X D k X X X X L t t t t L L t.t.t.t.t O O O O   j S   O O 2.2.1.4.1.4.3.1.2.5.e.0.[ g 3 # ",
"% & V ' E '  . .X.}  . . . . .O. .O O X D X X X X L t t X X t t t t.t.t.t.t O O O O         O O  . . . . . .] .. .} X.%.R s 7 # ",
"& & m V h M C C A Z A Z Z A G F O O X D k X X X L t t X X L X L L L t.t.t.t O O O   r.r.l   O O Z Z A Z C C A A A A I I N y 3 # ",
"# & = w 3 4 4 3 2 2 2 3 6 4 3 4 O O X D X X X t t t X X X L L t.L t t t t O O O O   r.r.r.S j O O 3 2 2 2 2 2 2 3 2 2 > $ # % # ",
"# & & & & & & & & & & $ & * * * O O X D X X X X t t t X X X t t t.t.O &.t.&.O O O O   S r.l j O O # @ # # $ @ $ $ $ $ & $ # # # ",
"@ % & - 3 4 0 y 0 0 0 0 0 0 w w O O X D X X X X X t t t t L L t.  t t.O &.t.t O O t.t.  S l j O O q 3 0 4 2 7 9 9 9 9 i u - - % ",
"& & h x d m V V F h F B F B B B O O X k X X X X X X t t X X L L t.t.O O O t t.t.t.t t.&.l l   O O m g f x x x M Z B A I M 7 5 = ",
"# & m P M I U U K I Y Y K K K T U O O   k X X X X X X X X X t t t t t O O O &.L t O O O     O O Y Y F Y U U A ! ~ `  .} R y 7 & ",
"% & m E U ` ^ ~ / W ( / W W ( ( ( / O O   X X X X X X X X X &.L t &.&.t O O O O O O O O O O O ] { { ] [ ] ]  . .....>.=.E p y - ",
"# & V ' ^ ^ ^ } ' ^ ) ^ ( ) ( ( ) ) / O O   k X X X X     t.&.L O L &.t O O O O O ] { O.O O  . .X. .X.X.X.X.X.1.......%.I p 7 & ",
"# & N ' ` ] ` ^ ) ^ ^ ^ ^ ^ ^ ) ) ( ) / O O           O t.&.O L O &.t t O O _ ( _ _ _ {  .X.X.@.@.1.1.1.1.1.1.1...~ U H m 6 - & ",
"% & h ' ^ ' ` ^ ^ ( ^ / ) ~ ^ ) ^ ~ ^ ~ / O O O O O O O t.&.O L t.t t L t O O ( ) ) ) )  .@.1.1.2.2.4.4.4.7.7.4.] A x i 3 & % % ",
"# = h ' ' ' ` ^ ' ^ ( ^ ~ ^ ~ ( / ^ ) / ~ ~ / O O O O O &.t.t.t.t O O t L t O O ) ) ) )  .@.2.2.2.7.7.7.7.7.7.1.^ A i 2 ; @ % @ ",
"# = m ' ` ' ` ^ ^ ( ~ ^ ~ ( / ( ^ ( ) / / ! ^ (  .;.5.O O t t t O O O O t t O O _ _ { )  . . .@. . . . . . .X.K ! Z v a 9 ; & & ",
"# = N ' ` ' ` ^ ~ ^ ' ^ ^ ( ^ ^ ( ( / ^ ^ ! / )  .O O O &.t.t O O H O O t L &.O O {  . .) ! K J Z Z Z b n Z n b Z A ! A x 7 3 & ",
"# & h ' ^ ' ' ^ ) ^ ( ~ / ( ( ) ( ( ( / ( / / ) O O O &.t.L O O r H ( O O t &.O O O +. .) H z e z 8 z , z 8 8 z b K  . .R p 6 = ",
"# = N ' ` ' ^ ^ ` ( ` ( ( ( ( ( ( ( / ^ / / / O O &.&.L L O O > r H ( O O t L &.L O O @.! Z 9 , : : , , : : : 8 c ! X.@.' g 6 * ",
"% & m ' ` ' ^ ` ` ) ^ ^ ^ ) ( ( ) / ) / ( ( O O t t t O O O , > r F ) { O t t t &.O ] ) J b e 8 , , 8 8 8 8 8 q b / ;.;.[ h 6 = ",
"& & m ' ` ' ' ^ ( ^ ^ ~ ~ ( ( ( ^ ~ ^ / ~ / O O &.&.t.O O v , > r H ( {  .O.O. ._ ! J Z B b x z z z z z c z z c K ] ;.6.[ d 6 = ",
"% & m ' ^ ' ` ^ ^ ( ( ^ ( ( ^ / / ( ^ ~ / / O O t.&.&.O O v , > r H )  .+.@.#.+.) H b x c b B Z Z Z A A G Z Z J / +.8.8.| s 6 = ",
"% & m } ` ' ' ^ ` ' ( ( ( ( ( ) ( ( ( ( / ~ ^ O O t.&.t.O v < > r H )  .+.;.;.+./ B r e z b Z J ! ! ! ! ! ! K ! ) #.w.w.| d - = ",
"# & N ' ' ] ^ ' ^ ( ' ^ / ( ) ( ) / / ( / / ( ) { ;.2.;.( b 4 , a H )  .+.@.+._ K c a a c b K T ! ^ ( /  .K  .K X.1.7.8.O.s 3 = ",
"# & m } ' ' ^ ^ ' ( ( ( ( ( ) ( ( / ) / / ( / ) { ;.6.;._ c < , a K _ +.O._ / K B b c b n G K K ! / / ) K ) K  .K @.7.7._ f - = ",
"% & m ' ' ' ^ ' ^ ( ( ( ( ( ( ( ( ( W _ ~ ( / ( { @.5.2./ b < < z K O.#.{ J c f c b n G J K K / ! / / / K _ K ) O.1.7.7.o.s - - ",
"% & m ' ' ' ' ( ( ` ( ' ( ( ( ( _ / / / / / ( ) { #.5.;._ b < < z / ;.,._ n q q e b G K E / / / / / ! ^ ) K ) ) K 2.4.7.o.h - = ",
"# = N ' ' ' ' ^ ( ( ( W ' ( ( ( _ / / _ / W / _ O.#.5.5.) c < < c / 5.5._ c < : w b G W _ / / / ( / / / / / ) K ) @.6.q.[ s - - ",
"# = h ' ' _ ' ( ( ( ( ( ( ( ( ( / / / / T / / / { #.5.#._ c < , a / #.5._ c < < r n K / / / / _ / / / / / / K ) ) +.8.w.o.s - = ",
"# & N ' ( ' ( ( ( ( ( ( ( ( ( ( _ W / / / T T _ O.#.5.,._ c < , r / #.#./ c < , r G K T / W T / / / / / / / / / ) @.<.w.o.d - - ",
"# = h ' ' ( ( ^ W W / / E / ( / / / / T T / W / _ #.5.5./ b < : r / #.#./ f < < r G K / / / / W / / / / / / K / ) @.8.w.o.h - - ",
"% & N | { ] ' ' ' ( ' ( ( ( ( _ _ ( ( W / _ _ _ O.#.5.,.( v , : e G ] O.Y c w 0 b K W W ( / ( ( / W / E / / / / _ @.8.8.[ d - - ",
"% & V :.*.*.*.%.*.+.| $.+.o.O.o.O.o.o.O.O.O.o.#.#.,.8.,._ c 4 > q c H U H B b B Y [ { O.O.O.O.{ O.O.{ { O. . .{ @.#.0.0.[ s - - ",
"# & C 0.q.q.0.9.3.<.<.0.<.<.6.<.<.<.<.<.:.<.<.<.6.8.e.,.( g 4 > 3 w a v F K ( o.-.,.<.<.<.<.<.,.,.,.>.,.;.,.;.,.2.6.e.w.$.h - - ",
"# & V :.0.q.0.0.0.0.0.0.q.w.0.q.6.w.8.<.<.<.6.e.e.e.e.-.Y f 2 ; > 7 w i n Q +.-.<.<.6.<.w.w.0.w.w.0.8.8.8.6.8.6.5.6.8.w.$.h - - ",
"$ & h | $.*.:.=.*.*.*.*.*.*.*.-.*.+.-.-.*.o.+.>.,.,.+._ M w 1 $ & 1 4 0 f Y Q o.[ O.[ o.o.o.+.o.o.o.o.o.O.O.+.-.#.*.+.$.Q s 6 - ",
"# = s F C U I I I I P R P I Y I I H F F F F I T W W K N a 4 * & # * 3 3 0 h F F F F F F F F P H F F F H F H K Y W Y I P h y - & ",
"# & y 7 7 7 0 7 0 0 0 0 0 0 0 0 0 0 0 0 0 0 0 0 p p 0 = & @ & & @ % = * = p 0 p f s g g g g g h g g g g g f f n h g p p y - 6 - ",
"# % 5 6 5 6 - 3 3 - 3 - 3 - - - 3 - - = - - 3 = - - - % & & # @ # @ # # = = - = = = = = = - = > = = - = - - - 3 - = - - - - - % "
};
