/* XPM */
static char *result[] = {
/* columns rows colors chars-per-pixel */
"64 64 15 1 ",
"  c #5F002A",
". c #772A2A",
"X c #5B3356",
"o c #545778",
"O c #9D0701",
"+ c #A0592A",
"@ c #D04A01",
"# c #EC8300",
"$ c #B38449",
"% c #6A8580",
"& c #9FB3A1",
"* c #FFD980",
"= c #DCD5C5",
"- c white",
"; c None",
/* pixels */
";;;;;;;;;;;;;;;;XXXXXXXXXXXXXXX;;;;;;;;;;;;;;;;;;;;;;;;;;;;;;;;;",
";;;;;;;;;;;;;XXXXXXXXXXXXXXXXXXXXXX;;;;;;;;;;;;;;;;;;;;;;;;;;;;;",
";;;;;;;;;;XXXXXX         OOOOOOXXXXXXX;;;;;;;;;;;;;;;;;;;;;;;;;;",
";;;;;;;;XXXXX   @#############@OOOOXXXXX;;;;;;;;;;;;;;;;;;;;;;;;",
";;;;;;;XXX   @##************####@@@OOOXXXX;;;;;;;;;;;;;;;;;;;;;;",
";;;;;;XX  @##*----------*********####@OOXXX;;;;;;;;;;;;;;;;;;;;;",
";;;;;XX ##***-----*************---**###@O XX;;;;;;;;;;;;;;;;;;;;",
";;;;;;XX *---*****#@@####@@@@@@@@#*--*###@ XX;;;;;;;;;;;;;;;;;;;",
";;;;;;;XX -***##@@#*----********#@@##*-*##@ XX;;;;;;;;;;;;;;;;;;",
";;;;;;;;XX -*##**--**########******####*-*#@ XX;;;;;;;;;;;;;;;;;",
";;;;;;;;;XX -****#####@@@@@XXXXXX#****###**#@ XX;;;;;;;;;;;;;;;;",
";;;;;;;;;;XX -*###@@@@@@@XXXXXXXXX@###**##**#@ XX;;;;;;;;;;;;;;;",
";;;;;;;;;;;XX -*#*******XXXX%%%%XXX@@@##*@#**#@ XX;;;;;;;;;;;;;;",
";;;;;;;;;;;;XX -******#XXX%%====%XX###@###@#**# XX;;;;;;;;;;;;;;",
";;;;;;;;;;;;;XX -*###@@XX%=======%XX@@@@##@@#*## XX;;;;;;;;;;;;;",
";;;;;;;;;;;;;;XX *#@@@XX%========&XX@@@@@##@@#*# XX;;;;;;;;;;;;;",
";;;;;;;;;;;;;;;XX *@@@XX&========&XXO@@@@@@#@@#*# XX;;;;;;;;;;;;",
";;;;;;;;;;;;;;;;XX *##XX&========%XX   OO@@@#@@*# XX;;;;;;;;;;;;",
";;;;;;;;;;;;;;;;;XXO**XX%========%XXXXX   O@@#@#*# XX;;;;;;;;;;;",
";;;;;;;;;;;;;;;;;;XXO*XXX%=======&%XXXXXXX  @@#@*# XX;;;;;;;;;;;",
";;;;;;;;;;;;;;;;;;;XXOOXX%&=====&%oXX;;XXXXX @@@##OXX;;;;;;;;;;;",
";;;;;;;;;;;;;;;;;;;;XXOXXo%&===&%oXXX;;;;;XXX @@@#@OXX;;;;;;;;;;",
";;;;;;;;;;;;;;;;;;;;XXO@XXo%&&%%ooXXXX;;;;;;XX @@##OXX;;;;;;;;;;",
";;;;;;;;;;;;;;;;;;;;XX @XXoo%%oooXX&&XX;;;;;;XX @@#OXX;;;;;;;;;;",
";;;;;;;;;;;;;;;;;;;;;XX @XXooooo%X&=&%XX;;;;;XX @@#@OXX;;;;;;;;;",
";;;;;;;;;;;;;;;;;;;;;;XXXXX%oo%%X&==&oXX;;;;;;XX @#@OXX;;;;;;;;;",
";;;;;;;;;;;;;;;;;;;;;;;XXXXX%%oXX&=%ooXX;;;;;;XX @@#OXX;;;;;;;;;",
";;;;;;;;;;;;;;;;;;;;;;XXXXXXo==oo%%oXXX;;;;;;;;XX @#OXX;;;;;;;;;",
";;;;;;;;;;;;;;;;;XXXXXX&==&oo==oXoXoXX;;;;;;;;;XX @#OXX;;;;;;;;;",
";;;;;;;;;;;;;;;;XXXXXX&===%XXooX==&%XX;;;;;;;;;;XX @@OXX;;;;;;;;",
";;;;;;;;;;;;;;;XXX   %===&o=o==oXX=oXX;;;;;;;;;;XX @#OXX;;;;;;;;",
";;;;;;;;;;;;;;;XX .$. &=%%=X=&==&=X&XX;;;;;;;;;;XX O#OXX;;;;;;;;",
";;;;;;;;;;;;;;XX ..$.. %oXo=XXooXX=XX;;;;;;;;;;;;XX @OXX;;;;;;;;",
";;;;;;;;;;;;;;XX +.$.+..=ooX=X==X=XX;;;;;;;;;;;;;XX @OXX;;;;;;;;",
";;;;;;;;;;;;;XX .$.$++..=o&=XX==XXX;;;;;;;;;;;;;;XX @@OXX;;;;;;;",
";;;;;;;;;;;;;XX +$+$++. &%XX=Xooo%XX;;;;;;;;;;;;;;XXO@OXX;;;;;;;",
";;;;;;;;;;;;;XX +$$$++. %oXXXX==%&=XX;;;;;;;;;;;;;XX @OXX;;;;;;;",
";;;;;;;;;;;;XX .+$$$++. oXX%%&%%&&=XX;;;;;;;;;;;;;XX @OXX;;;;;;;",
";;;;;;;;;;;;XX +$$$$++.oXX%&=o==o=&XX;;;;;;;;;;;;;XX @OXX;;;;;;;",
";;;;;;;;;;;;XX +$$+$+..XXXoo=X==X&oXXX;;;;;;;;;;;;;XXOOXX;;;;;;;",
";;;;;;;;;;;;XX +$$+$+. XX=%o&=ooooX&XXX;;;;;;;;;;;;XX OXX;;;;;;;",
";;;;;;;;;;;;XX +$+.+..XXX&=oXoXXXXXoo&XX;;;;;;;;;;;XX OXX;;;;;;;",
";;;;;;;;;;;;XX +$+... XX&ooXXXXXXXXX%=XXX;;;;;;;;;;XX OXX;;;;;;;",
";;;;;;;;;;;;;XX +... XX&=&&XXX;;;;;XXo==XX;;;;;;;;;;XXOXX;;;;;;;",
";;;;;;;;;;;;;XXX... XXX=&=XX;;;;;;;;XX&&XX;;;;;;;;;;XXOXX;;;;;;;",
";;;;;;;;;;;;;;XXXXXXX;;;;;;;;;;;;;;;XXoo&XX;;;;;;;;;XXOXX;;;;;;;",
";;;;;;;;;;;;;;;XXXXX;;;;;;;;;;;;;;;;XX&==&XX;;;;;;;;XXOXX;;;;;;;",
";;;;;;;;;;;;;;;;;;;;;;;;;;;;;;;;;;;;;XX&&=XX;;;;;;;;;XXX;;;;;;;;",
";;;;;;;;;;;;;;;;;;;;;;;;;;;;;;;;;;;;;;;;;;;;;;;;;;;;;;X;;;;;;;;;",
";;;;;;;;;;;;;;;;;;;;;;;;;;;;;;;;;;;;;;;;;;;;;;;;;;;;;;;;;;;;;;;;",
";;;;;;;;;;;;;;;;;;;;;;;;;;;;;;;;;;;;;;;;;;;;;;;;;;;;;;;;;;;;;;;;",
";;;;;;;;;;;;;;;;;;;;;;;;;;;;;;;;;;;;;;;;;;;;;;;;;;;;;;;;;;;;;;;;",
";;;;;;;;;;;;;;;;;;;;;;;;;;;;;;;;;;;;;;;;;;;;;;;;;;;;;;;;;;;;;;;;",
";;;;;;;;;;;;;;;;;;;;;;;;;;;;;;;;;;;;;;;;;;;;;;;;;;;;;;;;;;;;;;;;",
";;;;;;;;;;;;;;;;;;;;;;;;;;;;;;;;;;;;;;;;;;;;;;;;;;;;;;;;;;;;;;;;",
";;;;;;;;;;;;;;;;;;;;;;;;;;;;;;;;;;;;;;;;;;;;;;;;;;;;;;;;;;;;;;;;",
";;;;;;;;;;;;;;;;;;;;;;;;;;;;;;;;;;;;;;;;;;;;;;;;;;;;;;;;;;;;;;;;",
";;;;;;;;;;;;;;;;;;;;;;;;;;;;;;;;;;;;;;;;;;;;;;;;;;;;;;;;;;;;;;;;",
";;;;;;;;;;;;;;;;;;;;;;;;;;;;;;;;;;;;;;;;;;;;;;;;;;;;;;;;;;;;;;;;",
";;;;;;;;;;;;;;;;;;;;;;;;;;;;;;;;;;;;;;;;;;;;;;;;;;;;;;;;;;;;;;;;",
";;;;;;;;;;;;;;;;;;;;;;;;;;;;;;;;;;;;;;;;;;;;;;;;;;;;;;;;;;;;;;;;",
";;;;;;;;;;;;;;;;;;;;;;;;;;;;;;;;;;;;;;;;;;;;;;;;;;;;;;;;;;;;;;;;",
";;;;;;;;;;;;;;;;;;;;;;;;;;;;;;;;;;;;;;;;;;;;;;;;;;;;;;;;;;;;;;;;",
";;;;;;;;;;;;;;;;;;;;;;;;;;;;;;;;;;;;;;;;;;;;;;;;;;;;;;;;;;;;;;;;"
};
