/* XPM */
static char *Squelette_SpriteSheet_101636046420[] = {
/* columns rows colors chars-per-pixel */
"64 64 127 2 ",
"   c #5F002A",
".  c #4C3E3C",
"X  c #772A2A",
"o  c #4F413F",
"O  c #5B3356",
"+  c #4F4240",
"@  c #524543",
"#  c #564C45",
"$  c #584C46",
"%  c #554C4B",
"&  c #5A4E4B",
"*  c #5C5047",
"=  c #5D514D",
"-  c #5F5452",
";  c #604F4D",
":  c #625247",
">  c #64534C",
",  c #68554D",
"<  c #69594E",
"1  c #615653",
"2  c #695751",
"3  c #655A55",
"4  c #6B5B54",
"5  c #615758",
"6  c #645B5B",
"7  c #6B5E5B",
"8  c #725D54",
"9  c #725E5D",
"0  c #6A6156",
"q  c #6D615C",
"w  c #716056",
"e  c #74625B",
"r  c #79655D",
"t  c #79685E",
"y  c #545778",
"u  c #6C6361",
"i  c #746462",
"p  c #796662",
"a  c #756A66",
"s  c #7C6A63",
"d  c #776C6A",
"f  c #7A6D6B",
"g  c #7F7065",
"h  c #7E716D",
"j  c #7E7372",
"k  c #9D0701",
"l  c #A0592A",
"z  c #D04A01",
"x  c #816E66",
"c  c #816E6A",
"v  c #827067",
"b  c #84726C",
"n  c #89756D",
"m  c #8B796F",
"M  c #817573",
"N  c #8A7674",
"B  c #847975",
"V  c #8C7A74",
"C  c #867B79",
"Z  c #8C7D7A",
"A  c #917D75",
"S  c #927E7B",
"D  c #EC8300",
"F  c #B38449",
"G  c #8E817C",
"H  c #938177",
"J  c #93827C",
"K  c #99857E",
"L  c #99887E",
"P  c #6A8580",
"I  c #8E8381",
"U  c #948582",
"Y  c #998683",
"T  c #968882",
"R  c #9C8A83",
"E  c #958989",
"W  c #9E8C8B",
"Q  c #9F908E",
"!  c #9E9392",
"~  c #A28E86",
"^  c #A28F8A",
"/  c #A88F8E",
"(  c #A29087",
")  c #A4918B",
"_  c #A9948E",
"`  c #A9988E",
"'  c #A38F91",
"]  c #A49392",
"[  c #AA9593",
"{  c #A69995",
"}  c #AC9A94",
"|  c #AA9798",
" . c #AD9C9A",
".. c #B19B96",
"X. c #B39E9A",
"o. c #B89E9B",
"O. c #AEA09C",
"+. c #B1A096",
"@. c #B4A29C",
"#. c #B9A39E",
"$. c #BAA99F",
"%. c #AE9FA0",
"&. c #B39FA2",
"*. c #9FB3A1",
"=. c #B5A5A2",
"-. c #BAA5A2",
";. c #B7A9A1",
":. c #BDACA4",
">. c #B7ABAD",
",. c #BDACAA",
"<. c #BFB1A7",
"1. c #BFB1AA",
"2. c #C2A6A4",
"3. c #C3ACA6",
"4. c #C5ADA9",
"5. c #C8AFAB",
"6. c #C2B1A6",
"7. c #C4B2AC",
"8. c #CAB5AE",
"9. c #C7B8AF",
"0. c #C4AFB0",
"q. c #C5B5B1",
"w. c #C9B6B1",
"e. c #C7B8B2",
"r. c #CABAB3",
"t. c #FFD980",
"y. c #DCD5C5",
/* pixels */
"% % * % + # # # # % % % % # % % % % # # # # # % % % % % # % % % # % % % % % # % % % % % + @ @ % % % % % % % % % % % % % % % % % ",
"# @ . . o O o o . . . o o o . o o o o # % % % # @ o + + o O o o # & = % % = & = = = % & % = = = = % & & & & & ; ; & = & % % % % ",
"% % d G C C C C j C P C C C B B C C C C B C B C G I C C M 7 @ @ - j j j M j j j j j j j M j j j j j j j M M M M C C C C j d 5 # ",
"# % G ] ' ! ! W ! ! | [ ] ! ! ] ] ! ] { ] ] ] ] {  .=.;.W p $ @ 3 j E ! ! ! ] ] { ! { { ] { { ! { ] { ] ] ' ] { | { | >.! f 3 % ",
"# = j ! Q ! ' ' {  . .| ] ! ] ] ] ] ] ) ) ) ] { ] { @.;.Y i @ . - j U ! ] Q Q Q Q ! Q Q Q Q Q ! ! ! ! W Q ' ^ ] ! O.%.>.! j - % ",
"# % G ! Q ] ' | %.=.,.>. .{  .{ { { { { { { ! ]  .%.r.,.) b > & 7 C Q { { ] ) ) ) ] ) ] ] ) ] ] ] ] ] ] ] ] ] | O.>.1.1.%.j - % ",
"# = G ] W ' ] |  .=.>.-. .{ { { ] ) ) ] ) ! ( )  .,.e.:./ M 4 2 p J Q { ` ( Q Q ( ) W ) ( Q W ) Q Q ^ ) W ^ ! ]  .=.1.1.O.B - % ",
"# = I ] ] [ [ [ |  .O.@. .| ] ] ( Q Q ) ( Q Q )  .:.9.;.R b 4 2 a S ) { ) ( W Q W W ) W ( ( ^ W ( ^ ^ W ^ ^ W ] | %.>.1.O.j - # ",
"% & Z | | &.&.| | | ' ' |  .| [ ( ( ) ) Q ( ( ]  .:.9.:.R M 4 2 s J ^ [ ] ( W ^ W ^ ^ ^ ( ^ ^ ) ^ ) ^ ^ ^ ^ / ]  .=.,.q. .M 1 # ",
"% & Z | | &.&.&.] U N S W | X.| } { ] ) ) ) Q _ X.:.w.:.R b 4 2 p S ) [ _ ) ( ) ( ) ( W ^ ^ ^ ) ) ^ ) ) ^ ^ ^ _ | @.,.0.%.M - # ",
"% & Z | | 2.0.>.' N 9 9 S ] @.@...} _ ) Q ( ) _  .3.8.:.R b 8 , p J ( ] ] ( ^ ^ ( ^ ) ^ ^ ( ^ ) ^ ) ^ ^ / ^ ^ ] ..=.,.0.O.B 1 # ",
"% & S | &.4.2.&.Y c 7 9 N ^ } @...} _ ) ( ^ ^ ] ..:.8.$.R O O O O O O _ ) ) ( ( ) ) ( ^ ^ ^ ) ^ ( W ^ ^ ^ ^ ~ / } o.,.0.@.M = # ",
"$ & Z | | | / Y S c p x S Y ~ ) _ _ ) ( ( ( ~ _ } :.8.$.O O O O O O O O _ W ( ) ^ ^ ) ^ ^ ^ ^ ^ ^ ^ ^ ^ ~ ^ ^ _ } X.:.q.O.M - # ",
"# & U  .W S c c c n N S V N N A J L ~ ~ ^ ~ ( ) ..:.9.O O P P P P P P O O ( ) ( ( ( ( ^ ( ( ( ) ) ) ^ ) ) ^ / _ ..o.,.7.=.B - # ",
"% & I | S f 9 9 p N S Y N c x s b V R ^ ^ W ( _ } 3.O O P y.y.y.y.y.y.P O O ( ( ) ^ ( ( ^ ^ ) ^ ^ ) ( ) ) ( ~ _ } o.,.7.O.B 3 # ",
"# & I Q N f 9 9 c N R Y N x s s x V K ~ ~ ( ( ) ..O O P y.y.y.y.y.y.y.y.P O O ( ^ ) ) ^ ) ( ^ ) ) ^ ) ^ ^ ( ) _ ..@.:.9.O.B - # ",
"% & B Z N c p c N Y ~ Y S n c b n S L ~ ~ ~ ^ ) } O O *.y.y.y.y.y.y.y.y.*.O O ~ ) ) _ ( _ ( ) ) ( ( ) ) ( / ( _ ..o.3.6.@.C - # ",
"# & j j M N N Z U ~ / ^ Y S V V S K ~ ~ ^ ~ ( _ ..O O *.y.y.y.y.y.y.y.y.*.O O _ ( ) ~ ) ~ ) ( ~ ) ) ) ( ~ _ ( _ ..o.6.9.@.B 3 # ",
"# & d a c S S Y ~ ' ] ) ' R Y K ~ ~ ~ ~ ^ ~ ( ) } O O P y.y.y.y.y.y.y.y.P O O ~ ) ) ) ^ ^ ) ^ _ ) ^ ) ^ ( ( ( _ ..#.3.5.%.B - # ",
"# & d d c S Y ' / ] ) ] ) / ^ ~ ^ / _ ^ ( ( ) [ O O   P y.y.y.y.y.y.y.y.P O O _ ~ _ ~ _ ( ) ) ~ _ ) ) ) _ ( ( _ ..#.6.5.=.B - # ",
"% % j M M Y ' ' ' ) ) ) / ^ ^ ~ ) _ ) / ) ) ) _ O O   P *.y.y.y.y.y.y.*.P O O ) ~ _ ~ ~ ( ) _ _ ~ ) ) ~ ) ~ _ _ +.@.4.7.@.j - # ",
"% % j C Z E / ' ^ ^ / ^ ~ ~ ~ ~ ~ ~ ~ ~ ^ ~ ( _ O O   y P *.y.y.y.y.*.P y O O ~ ~ ) _ ~ ) ~ ~ ~ ~ ~ ) ~ ~ ~ L _ ..@.4.q.=.B - # ",
"& & M E Y Y ' ' ^ W ~ W ~ ~ ~ ~ ~ ~ ~ ~ ~ ~ ~ ) O O k t.y P *.*.*.*.P y O O O O ~ ~ ~ ~ ~ ~ ~ ~ ~ ~ ~ ~ ~ ~ L _ ..#.1.q.%.B - # ",
"% & C ' ' ' / / / ' / / ^ ^ / ( ^ ^ ~ / ~ ( _ _ O O   t.y y P P P P y y O O O O O ^ ~ ~ ~ ( ~ ~ ) ~ ^ ^ ~ ~ _ _ X.;.7.q.;.C - # ",
"$ & C &.| | | |  . .| [ [ _ _ _ _ _ _ _ ` ` ....#.O   t.z y y y y y y O O y.y.*.O O _ _ _ _ _ _ _ _ _ _ _ _ _ ..X.#.7.q.=.C - % ",
"$ & I >.&.&.=.-.&.2.2.o.o.o.o.#.#.#.#.o.@.#.#.O O O O y.D P y y y y P *.y.y.y.y.P O O +.X.X.X.#.o...o.o.o.o.o.o.#.3.w.w.X.M 3 # ",
"% ; I 0.>.4.0.4.4.5.4.4.3.4.3.3.3.3.3.3.O O O O *.y.y.O   D P P P P y P *.y.y.*.y O O 3.3.3.3.3.2.3.2.5.3.4.4.2.3.7.r.w. .j - % ",
"% - I >.=.-.4.4.4.4.4.4.5.5.7.6.6.3.O O O O O P y.y.y.y.*.y y y.y.y O y P P P y y O O 6.3.3.3.3.3.5.5.2.4.4.4.2.3.7.w.q.{ h 3 # ",
"# & C ] W ] } X.o.........X...+...O O O X X X y *.y.y.*.P O y y y z y.y.O y O y P O O +.` } } } ..........| ........=.X.E a 7 # ",
"% & M C b M Z S S N Z S Z S G G O O O X F F l y y P P P y y.O y.y.y   k *.P O O y.P O O G H G G A A A A Z Z S S S S U U B i 5 # ",
"# & 1 9 3 7 3 3 2 2 2 2 3 4 4 4 O O X F F l P y.y X y   y.O y y.y.  y.y.y O O y P y.y.O O < 4 4 4 3 2 2 2 2 2 2 2 2 3 > $ # # # ",
"# & & & & ; & $ & & & & & * * O O X F F l X P y.y X P *.O y.O y y k D t.*.O O P y *.y.O O o # o # @ # # # @ # $ $ % $ $ = # # # ",
"$ % & - 2 7 i u q q q q q e e O O X F l X P y.y X X X y y.O O y.y.D y.y.D O y P y y y O O 0 0 0 0 0 0 3 4 2 7 9 9 8 7 p i - - & ",
"% % j c a M B C C C C C G B V O O X F l X *.*.P X X X *.  y.O y.y.k D t.*.P y y O O O O G B G j h h h h c c c N Z S S U N u 5 & ",
"# & M I Z U Y Y R L T T L L L O O X F l X *.*.y X X X X y.P P y y O k D t.*.y O O O O T J L T T T L L T Y Y S ~ ~ ' |  .E u 7 & ",
"% & M W Y ^ ' ' ) ) ) ( ( Q / O O X F l X y y P X X X X P *.P y.y.O O k *.P y O O ` ) ` ` ` +.{ [ } } { [ [ ......o.3.-.W d u & ",
"$ & B ] / [ / / ) / ] / _ / _ O O X F l X X X y X X X X P y *.P P *.y.O O O O O ` ` }  .X.......X.X.o.o.o.o.2.o.o.X.&.X.U i 7 & ",
"# & M ] ' ] / / / / / / ^ / ( O O X F l X X X P P y X X y P O y.P y.O O O O O _ ` ` ` } ..o.o.#.#.-.2.2.2.2.2.2.X.^ Y S M 7 - % ",
"% & M ] ' ] / / / ^ ) / ^ _ / _ O O l F X X X y P X X *.y y *.y.y.y y.y.O O ) ) _ _ _ _ ..#.2.2.2.4.5.5.5.8.8.5.[ S c p 7 & % % ",
"% & j ] ' [ ] / ) / / _ / / / ) O O   F l X X X P P X *.y y y y y.O O y.*.O O ` _ _ _ _ ..#.3.5.5.7.8.8.8.8.8.2./ A p 4 & @ @ % ",
"% = M ] ] ] / / / / / / ) / ) ) O O O   F X X X X X X P P y O O y y.y.y y.O O _ ` ` } _ ......o...............L ~ A n s 9 & & & ",
"# = M ] ' ] ] ' ] / ( ) ^ ) ) ) ) O O O   F X X X     O P y O O O y y y *.O O _ ` } ..} _ ( L L A A m n A A m n A K R J b 7 - = ",
"# = M ] / ] / / ' ) ' ) ) ) ) ) ) ( O O O         O O y P y O O O O O P *.O O _ } ..@.+._ H c r x 8 x , x , 8 x n K ..[ T a 6 = ",
"# = j ] ' ] ) ' ) / ) / / ) ) ) ) _ ) O O O O O O O y P y y O O t O O y.*.O O _ } X.@.+./ m 9 , : : , , , : : 8 x ~ o.#.] h 6 = ",
"% & M ] / / ' ] / ) ^ ) ^ _ ) / ) ) ~ _ ( O O O O O P y P O , > t O O y y O O } } ` [ _ L m r 8 , 8 8 8 8 8 < r m ( ;.,.{ j 6 = ",
"% & M ] ' [ / ' ) / ) ' ) ) ) ) _ ) / ^ ) ~ ) ) } #.6.3._ b < > O O y *.O O @...} ) L A m n v x x x x x v v x n K } 6.7. .f 6 = ",
"& & M ] ' / ' / / / / ^ ^ _ _ ^ ~ _ ^ ) ) ( ) _ ..$.7.:._ b , > O O *.*.O O ;.@._ J n c x n N V A S A A H H A K ~ X.7.e. .f - - ",
"% & M | ] [ ' ] ] ) ) ^ _ ^ ^ ) _ ~ ) ) ~ ) ~ _  .-.6.:.) b < > O O y *.O O ;.@.( m t r c m A K ~ ~ ~ ~ ( L L ~ ` #.q.e.O.f - = ",
"% & M [ [ / ' / ' ) ) ) ) ] / _ ) ) ) ) ( ( ) _ { $.6.3._ b < , O O *.y *.O O ` K b p s v n L L ~ / ( _ _ L ` L o.2.6.9.+.d - = ",
"# & j | ] / ] ] ] ) ] ) ) ) ^ _ _ ( ) ) ) ( ( _  .$.7.3._ v < , s O O y.y.*.O O V n v b m H L L ~ ~ _ ( _ _ L ..L #.8.8.+.g - = ",
"% & M ] ] [ ] ) / / ) ) ) ) _ ^ ) _ ( ` ( ^ ) _ } #.3.:.( n < < v L O *.*.y.O g v n V H K L R Q ~ ~ ~ ~ _ L L _ +.#.5.8.O.j - - ",
"% & M { ] ] ] ' ) ] ) ) ) ) ) _ ( _ ( ( ( ( ( _ +.$.6.:.` n 4 < v ( $.<.` H w < t b H L ( ( ( ( ( ) ( ~ _ L _ L ..#.5.8.{ f - = ",
"# = j { ] [ ] ) ] ) ] ) ) ) ) ) ( ( ( ( ( ( ( ` } $.6.6.( n < < g ( 6.6.` v < : e n L R ` _ ( ( _ ( ( ( ( ( ( _ _ #.7.r.O.d - - ",
"# & j { ) _ ] ) ) ) ) ) ) ) _ ) ` ( ` Q ( W ( ( +.$.6.6.( n < < g ( <.$.` v < < t n L ( ( ( ( ( ( ( ( ( ( ( ( ( _ @.9.e.O.d - = ",
"# & M ] ] ] ) / ^ ) ( ( ) ) ( ( ( ( ( ( R R Q ` } $.6.$.` v < < g ( $.$.( v < < t H L ( ( ( ( ( ( ( ( ( ( ( L ( _ #.7.e.O.d - - ",
"# = M ] ) ] ) ^ ^ W ( Q Q ( ( ( ( ( ( Q R ( ( ( } $.6.6.( v < : t R $.$.( v < < t H L R ( Q ( ( ( ( ( ( ( ~ ( ( _ #.7.e.O.j - - ",
"% & M %.| [ [ ' ] ] ] ) _ ( _ ) _ ( ) Q ( ( ) ` +.$.6.<._ b , > w J } } R v w e M L W Q ( ( _ ( ( ( ( ( ( ( ( ( ` #.9.q.{ d - - ",
"% & C >.=.-.=.=.=.X.O. .O.O.@.O.O.@.O.+.O.O.O.$.$.<.9.<.( b 4 > 0 v J T J B B V R ] +.+.+.+.{  .O.+.{ } +.} ..} +.:.q.q.| h - = ",
"# & C q.q.q.0.0.1.0.1.q.7.<.<.7.<.1.1.1.<.1.<.1.9.9.r.<.( M 2 > < r f b G L ( O.;.<.<.1.<.1.1.<.<.<.,.<.<.:.:.<.3.7.r.e.%.j - - ",
"& & C 1.q.w.q.w.q.q.q.q.q.e.q.q.e.e.1.1.7.<.q.e.9.r.e.;.T g 2 ; , 4 e p B Q @.:.1.7.7.e.e.e.q.e.e.q.9.7.9.9.7.7.6.7.e.e.%.j 6 - ",
"# & j  .@.=.=.=.=.=.=.=.=.;.;.=.;.=.@.$.$.O.;.>.<.<.$.Q N i > $ & 1 4 q g T ) O.{ { +.{ O.O.O.@.O.O.@.O.O.+.@.$.;.;.;.%.! f 6 - ",
"# = h C I U E U E U U U I U U U U U I J G G U R Q W L B s 3 ; & # = > 1 q M B G G G G G G G I G G G G G G J L R Q T G G j 6 - = ",
"# & q 7 7 7 7 q q q q 7 q q q q q q 7 q q 0 q e a a i * & @ # & # # - = - i a a a f h h g h b j h h h g b g b B M g d d u - u = ",
"# & 5 5 3 5 5 - 3 - 5 3 - 3 - - - - - - - - 1 - = - - % & $ # % @ # # # * = - = = = = = - - = - = - - - = - - - - = = - - = = % "
};
