/* XPM */
static char *Squelette_SpriteSheet_121636046420[] = {
/* columns rows colors chars-per-pixel */
"64 64 128 2 ",
"   c #5F002A",
".  c #4C3E3C",
"X  c #772A2A",
"o  c #4F413F",
"O  c #5B3356",
"+  c #4F4240",
"@  c #524543",
"#  c #564C45",
"$  c #594C46",
"%  c #554C4B",
"&  c #5A4E4B",
"*  c #5C5047",
"=  c #5D514D",
"-  c #5F5452",
";  c #604F4D",
":  c #625247",
">  c #64534C",
",  c #68554D",
"<  c #69594E",
"1  c #615653",
"2  c #695751",
"3  c #655A55",
"4  c #6B5B54",
"5  c #615758",
"6  c #645B5B",
"7  c #6B5E5B",
"8  c #725D54",
"9  c #725E5D",
"0  c #6A6156",
"q  c #6D615C",
"w  c #716056",
"e  c #74625B",
"r  c #79655E",
"t  c #79685E",
"y  c #545778",
"u  c #6C6361",
"i  c #746462",
"p  c #7A6661",
"a  c #756A66",
"s  c #7C6A63",
"d  c #776C6A",
"f  c #7A6D6B",
"g  c #7F7065",
"h  c #7E716D",
"j  c #7E7372",
"k  c #9D0701",
"l  c #A0592A",
"z  c #D04A01",
"x  c #816E66",
"c  c #816E6A",
"v  c #827067",
"b  c #84726C",
"n  c #89756D",
"m  c #8B796F",
"M  c #817573",
"N  c #8A7674",
"B  c #847975",
"V  c #8C7B74",
"C  c #867B79",
"Z  c #8C7D7A",
"A  c #917D75",
"S  c #927E7B",
"D  c #EC8300",
"F  c #B38449",
"G  c #8F8077",
"H  c #8E817C",
"J  c #938177",
"K  c #93827C",
"L  c #99857E",
"P  c #99887E",
"I  c #6A8580",
"U  c #8E8381",
"Y  c #948582",
"T  c #998683",
"R  c #968882",
"E  c #9C8A83",
"W  c #958989",
"Q  c #9E8C8B",
"!  c #9F908E",
"~  c #9E9392",
"^  c #A18E86",
"/  c #A28F8A",
"(  c #A88F8E",
")  c #A29087",
"_  c #A4918B",
"`  c #A9948E",
"'  c #A9988E",
"]  c #A38F91",
"[  c #A49392",
"{  c #AA9593",
"}  c #A69995",
"|  c #AD9B94",
" . c #AA9798",
".. c #AD9C9A",
"X. c #B19C96",
"o. c #B39E9A",
"O. c #B89E9B",
"+. c #AEA09C",
"@. c #B1A096",
"#. c #B4A29C",
"$. c #B9A39E",
"%. c #BAA99F",
"&. c #AE9FA0",
"*. c #B39FA2",
"=. c #9FB3A1",
"-. c #B5A5A2",
";. c #BAA5A3",
":. c #B7A9A1",
">. c #BDACA4",
",. c #B7ABAD",
"<. c #BDACAA",
"1. c #BFB1A7",
"2. c #BFB1AA",
"3. c #C2A6A4",
"4. c #C3ACA6",
"5. c #C5ADA9",
"6. c #C8AFAB",
"7. c #C2B1A6",
"8. c #C4B3AD",
"9. c #CBB5AE",
"0. c #C7B8AF",
"q. c #C4AFB0",
"w. c #C5B5B1",
"e. c #C9B6B1",
"r. c #C7B8B2",
"t. c #CABAB3",
"y. c #FFD980",
"u. c #DCD5C5",
/* pixels */
"% % * % @ # # # # % % % % # # % % % # # # # # % % % % % # % % % % % % % % % % % % % % % @ @ @ % % % % % % % % % % % % % % % % % ",
"# @ . . o O o o . o o + o o . o . o + # % % % # @ o + + O @ o o @ * * % * & = % = * $ & - % = = % = & & & $ & - = & - % % % % @ ",
"% % d H C C C C j C C U j H j j C C B C B C B C H U C C M 3 @ @ 3 j j j j j j M j j j j j j B j j j j j M M M M C C C C j d 6 # ",
"# % H [ ~ ~ ] Q ~ ~ ~ ~ ~ ~ } ~ [ } ~ } [ [ [ [ } ..-.:.T s ; @ 6 j W ~ [ ~ [ [ } ~ } } [ ~ ~ } } [ } [ [ [ [ [  . . .,.~ f 3 % ",
"# = j ~ ! ~ Q ] [ .... .} ~ [ ~ ~ _ } _ } _ ! } } [ &.:.T i @ . = j W ~ ~ ! ! ! ! ! ! ~ ! ! ! ~ ~ ~ ! ~ Q / ] [ ~ +.&.,.~ j - % ",
"# % H ~ _ [ ]  .&.;.<.,.&.} } ....} } } } } _ } ..&.t.>.` b > % q C ! } } } _ _ _ _ [ _ } _ [ _ [ [ [ [ [ [ [  .+.,.2.2.&.j - % ",
"# = H [ Q ] ]  .&.-.,.-...} } } _ _ } _ ! ! ! _ ..<.r.>./ M 4 2 p Y _ [ _ _ ! ! _ ! ! _ ! _ Q _ ! Q _ ! / [ Q [ ..-.,.2.+.B - % ",
"# = U [ [ } {  . ...#.o... .} [ Q ! _ _ ) Q ! _ ..>.0.>.E b 4 2 p S ! } ` _ E ! Q ^ ^ Q _ E / Q / _ Q / / Q / [  .-.2.2.+.j - # ",
"& % Z  . .*.*. . .[ ] ]  .o. .[ _ _ _ _ _ ! _ _ ..>.0.>.E b 4 2 a S _ [ ` ! E _ Q / / Q ^ / / _ _ / / / / / / [  .-.<.5.&.B - # ",
"% % Z  . .*.*.*.[ W N S Q  .o...| { _ ~ _ ) ! ` ..>.r.>.E n 4 , p K _ { _ _ _ _ _ / ) _ _ / / _ Q _ / / / / / ( ..#.,.w.&.M - # ",
"% & Z  .O.3.q.*.] N 9 9 Z ` o.#.X.| ` _ _ _ _ ` X.4.e.>.E b 4 < p J _ ` ` _ _ ) _ ) / / ^ _ ^ _ _ _ / ` / / / { | *.4.q.+.B - # ",
"% & Z  .*.3.q.*.T c 7 9 N / ..o.X.| _ _ Q ) _ _ X.>.9.>.O O O O O O O O _ _ ) ) ^ _ _ ^ ^ ! _ / / / / ( / / / ` | O.<.q.#.B = # ",
"% % S .. . .( T S c s c A T ^ ` ' ` / _ _ ^ ) ' | >.9.O O O O O O O O O O ! _ Q / _ _ ^ / / Q _ / Q _ / / ( ^ ` ..O.>.w.+.B - # ",
"$ & U ..Q S c c c b N A Z N N A J P ^ ^ ^ _ ) _ X.>.O O O I I I I I I O O O ^ _ E _ ) / ) _ _ ^ _ _ / _ / / ^ ` | o.<.8.#.B - # ",
"% & Y  .S f 9 9 p N S T N c s s b A T ^ / E _ _ | O O O I u.u.u.u.u.u.I O O O ) _ _ ) ) / / _ _ / _ _ / ` ^ ^ ` X.o.>.0.#.B - % ",
"% & U Q N f 9 9 c N T T V x p x c V P ^ ) _ ) _ X.O O I u.u.u.u.u.u.u.u.I O O _ _ _ / _ _ ) / _ _ / _ _ / ) ) ` X.#.>.w.+.B - # ",
"# = B S B c f c N Y / ^ S c c b n S T ^ ^ / ^ ` X.O O =.u.u.u.u.u.u.u.u.=.O O _ ) _ ) _ _ ) ` ) ) _ ) _ ) ) ` ` X.O.4.8.#.B 1 # ",
"# % j j c N N Z Y / / / T S N N S L ^ ^ ^ ^ / ` | O O =.u.u.u.u.u.u.u.u.=.O O _ ` _ _ _ _ _ ^ _ _ _ _ _ ` ) ^ ` X.O.>.9.#.B 1 # ",
"# = d a c S S T / / [ ` ( / T L ^ ^ / ^ _ E ) _ X.O O I u.u.u.u.u.u.u.u.I O O ) ^ _ ` ^ ) _ ^ / _ ) ) / ` ) ) ` X.$.4.9.#.B 1 # ",
"# = d a c S T ] / ] ` ` ( / / ^ ^ ` ` ^ _ _ _ ` X.O O I u.u.u.u.u.u.u.u.I O O ` ` _ ) _ _ _ ` _ _ _ _ _ ` P ` ` X.$.7.7.+.B - # ",
"% & f M M T ] ( ] / [ ( ( / / / _ ` / ( _ _ _ ' X.O O I =.u.u.u.u.u.u.=.I O O _ ^ / ` ^ ) _ _ ` _ ) _ _ ^ ) ` ` ..$.4.8.-.j - # ",
"% % j Z Z W ] ] / / / / / / ^ ^ ^ ^ ^ ^ ^ ^ ) _ X.O O y I =.u.u.u.u.=.I y   O O ^ ^ ^ ^ _ ^ ^ ^ / ^ / ^ ^ ^ P ` X.:.4.w.-.B - # ",
"% ; M W T T ] ] / / / / ^ ^ ^ ^ ^ ^ ^ ^ ^ ^ ^ ' O O O O y I =.=.=.=.I y O   k O O ^ ^ ^ ^ ^ ^ ^ ^ ^ ^ ^ ^ ^ P ` X.$.2.r.-.B - # ",
"% % C ] ] ] ] ( ( ] / / / / ^ _ ( / ( ) ^ O O O O O O O y y I I I I y y O   k O O ^ ^ ( ) ^ ) ) ) / ^ _ ) ^ ( ` X.$.8.r.+.C - # ",
"$ & C *. . . . ... . .X.{ ` ` ` ` ` ` ` O O O O =.u.u.X X y y y y y y O O   y.k O O ` ` ` ` ` ` ` ` ` ` ` ` ` X.#.$.5.w.-.C 3 # ",
"$ & U ,.*.*.;.;.*.3.*.O.$.O.O.O.O.#.$.O O O X I u.u.u.u.=.I y y y y I O u.  y.k O O @.@.O.o.O.O.@.O.O.O.O.O.O.O.$.4.e.e.&.j - # ",
"% & W q.,.<.q.6.6.6.6.6.5.5.5.5.4.4.O O O X F y =.u.u.=.I y I I I I O O   u.u.=.O O 1.4.>.4.4.4.4.4.3.4.4.3.3.5.4.0.t.e...j 5 # ",
"% & U ,.-.;.5.5.5.3.6.6.6.5.5.7.7.4.O O X F F y y I I I y X y u.u.y y =.u.u.u.u.I O O 1.4.4.4.4.4.4.6.3.6.6.5.3.4.5.e.w.} h 3 # ",
"$ & C } Q ] ..o.X.O. .O.X.O.@.o.o.O O X F l X I y X y X u.u.X y y y O I =.u.u.=.y O O @.' X.X.X.X.X.X.X.X.X.X.X. .o.*.o.W a 7 # ",
"% & j C c B Z Z S N A A Z Z G G J O O X F X I u.X X I =.X X y u.u.  u.y I I I y y O O G A Z Z J A S A A Z S S S S A T T C u 6 # ",
"# & 1 e 6 4 4 3 2 2 3 4 4 3 4 3 O O X F l u.u.I y X X y u.u.X u.u.y O u.D y y.y u.I O O 3 < 0 0 3 3 4 2 3 2 2 4 4 2 4 = $ # # # ",
"# & & & & ; $ & & $ & % * * * * O O X F X u.=.y I X X =.X X X y y   u.O =.I z y u.I O O o # o o # # # @ @ # @ $ $ @ $ & $ # # # ",
"% % & - 4 6 q u q q q q q q q w O O X F X y y y I y X X u.u.X u.u.  O u.y D k D y u.I O O w 0 0 0 0 3 0 4 4 3 9 9 9 9 p i 5 - % ",
"% & f j d h Z Z G B B C G G V V O O X F X X X X y y I =.X X X u.u.O u.O =.D k z I =.=.O O m B B h B h h c c c N V A S Y N 7 5 = ",
"$ & M S V Y T T R R R R P R E P O O X l X X X X X y =.X X X X y y I I u.O   D k y =.=.O O E R E E T P K T T S ^ / [ o...W u 7 & ",
"# & M Q T ] ] ] _ _ _ _ _ ! _ ^ ) O O   l X X X X y I =.X X X u.u.I =.I O     k u.y y O O ' | { { | { } { { X.X. .O.;.;.Q a u & ",
"# & B [ ] { ( ( [ ( ( ` ` ( ` ` ` O O O   X X X X X X X X u.=.=.I =.u.I O O k D u.I O O X.X.O.X.o.o.O.O.O.O.O.3.O.O.*.o.W i 7 & ",
"% & M [ ] { ( ( ( ( ( ( ( ( ) ` ` _ O O O   l X X X X   u.u.I I u.O =.y O D =.u.=.O O X.X.O.O.#.$.3.3.3.3.3.3.3.o./ T K M 6 3 & ",
"% % M [ ] [ ( ( ( / / ( ` / ( ( ` ^ _ O O O           O u.y O u.u.=.y y =.k D u.y O O ` X.$.3.3.4.4.4.9.6.9.9.6.{ S c i 6 & % @ ",
"# = M [ ] { ] [ ( / ` ( / ( _ ` ( ( ` ^ O O O O O O O =.u.O O u.y y y y =.k =.=.z O O ` ` $.4.6.4.9.9.9.9.9.9.3.( A p 4 ; @ @ % ",
"# = M [ ] ( ] [ / ( / / ` / ` / ^ ( / ) ( / O O O O O u.y u.u.y O O y =.I O k z k O O | X.X.o.#.X.X.X.X.X.X.' ` ^ A n s 9 = & % ",
"# = M [ [ [ ] ( ` ] [ ( / ( / / ` ) ` _ ^ ^ / ' X.O O =.y y y O O O I I O O O O O O X...` ^ P L J A A A A A m n A L T L b 7 3 = ",
"# = M [ ( [ ( ` / ( / ` ` ` / ` _ ` ^ / ^ _ ) ` X.O O =.I O O O O O y y y O O O O X.@.o.` J c r r w 8 8 8 8 8 r v L X.{ R a 5 = ",
"% = M [ ] [ / ] [ ( / ] / / ` / _ / ` ^ _ ^ _ ` X.O O =.u.O O : O O I y I y O O X.@.@.o.( m 9 , : , , , , , , 8 v ^ O.$.[ h 6 = ",
"% & M ] ] [ ] ( ] ( ` ( ` / _ ^ / / ` _ ^ ^ _ ` | O O y y O O : r J O I y I O | | | | _ L n r 8 , 8 8 2 8 8 8 w n ) >.<.} h 6 = ",
"% & M  .( { ( ] / ` / / / / ` ` ` ` / ^ _ _ ) ` | %.O O =.y O O p K ` | X.@.@.| | ) P A V n c x x x x x x x x v L | >.8...f 6 = ",
"$ % M ] [ [ ] ( / ] ` ( ` / ` / ^ ` / _ ^ _ / _ X.$.O O =.=.O O p L ' X.#.$.$.$.' K n x v n V A A A S J J J A L ) @.8.r...d 6 = ",
"% & M  .[ { ] [ ] ` / / ` / / _ ` / _ _ _ ) _ ` | %.O O =.y O O r J ` | $.>.>.@.^ n p p x n A L ^ ^ ^ ) ) ^ P ^ ' $.r.r...f - = ",
"$ & M  .[ { ] ( ` / [ / ` / ` ` _ _ _ _ ) _ _ ` | O O =.y =.O O r L ` o.#.$.#.' L b t s v m J E ^ / ` ` ` P ` ' X.3.7.0.@.d - = ",
"$ & M [ ( { ] [ [ ] / / / ` ` / _ _ ` ) _ ) _ _ O O =.u.u.O O < p P ' #.@.' ^ P V n b n V J P P ^ ^ _ ) ` ' ` P P O.9.9.@.g - = ",
"% & M [ [ [ / [ ( ` / ` _ _ / ` ' ) ) ) ) _ ) ` O O u.=.=.O < < x E @.%.X.K v v x n V J K P E ) ^ _ ^ ) ` P P ` @.$.6.9.+.d - - ",
"# - M [ [ { [ ] ` / [ _ _ _ _ _ _ ' ) ! ) ) _ _ | %.7.1.' b < < x ) >.7.' m w 0 t b J P ) ) ) ) ) ) ^ _ ` P ` P X.$.6.9.+.j - = ",
"# & M [ [ { ` / [ _ _ _ _ _ [ _ ) ) ) ' ) ! ) ) | %.7.4.) n < < v ' 7.7.' n < : e m J ) ) ) ) ) ) ) ) ) ) ) ) ` ` #.8.t.} h - - ",
"% = j } [ ' [ [ _ _ _ _ _ _ _ _ ' ) ) ) ) ) ) ' @.%.7.7.' v < < t ) >.%.) v < < t m P ) ' ) ' ) _ ) ) ) ) ) ) ) ` #.0.r.+.d - = ",
"# & M [ _ [ ` / _ _ ) _ ) ) _ _ E ' E ' E E E ' ' %.7.%.) v < < t ) %.%.) v < , t G P E ) ) ! ) ) ) ) ) ) ) P ) ' $.w.r.&.f - - ",
"# = j [ [ _ _ / ! ! ! _ ) Q ) ! ' ) ) E E ) ! _ @.%.7.7.' v < : t ) %.%.) v < < t J P ) ) E ) ) ) ) ) ) ) ) ) ) ` $.2.r.+.f - - ",
"% & M .. . .{ [ ` _ [ _ _ _ ` _ _ _ _ _ ! _ _ ' @.%.7.1._ b < : e J } | E b w w b P ! ! ) ) _ _ ) Q ) _ ) ) ) ) ' $.0.w.} d - - ",
"% & C ,.-.;.-.*.-.+.#.+.+.+.@.+.+.#.@.@.@.@.+.%.%.1.0.1.' b 4 > 0 b J T K V B Z E } ..@.@.@.....@.@.| | X.| X.@.@.4.r.w. .f - - ",
"$ & C w.w.w.q.q.q.2.w.<.2.8.8.2.2.2.2.2.2.2.2.2.8.0.r.1._ h 2 > < r s b G R _ @.:.1.1.2.2.1.1.2.1.1.<.>.1.1.1.>.4.8.t.r...j - - ",
"# & C 2.w.e.w.w.w.w.w.w.r.8.0.r.r.r.2.2.2.2.0.r.r.t.r.%.E g 2 ; > 4 i p B ! #.:.2.2.8.2.r.r.w.r.r.r.0.0.0.8.8.8.7.8.0.r.&.j 6 - ",
"% = j ..&.,.:.-.,.-.-.-.-.-.:.:.-.-.#.%.%.+.%.>.1.1.%.! N e 1 $ $ 2 4 q h P ~ } } +.} +.+.+.#.+.+.+.+.+.+.@.#.%.%.:.:.+.~ d - - ",
"$ = d Z S Y Y Y Y Y Y Y Y Y R U Y Y K U H H U W ! ! P B p 4 ; $ % = 1 3 q B G G H H H H H H U H H H H H H J K E Q R U U j u - - ",
"# = q q 7 7 7 7 7 q q 7 u q q q q q 7 0 q q q e a a t % & $ $ % @ % = * = i a a d g h b h h b h h h h h h v b B B g a a u - 6 - ",
"% % 5 - 3 5 3 3 1 1 1 1 1 1 - - 1 - - - - - 1 1 = - 1 % & % % # # @ % # = = - = = = = = = = 1 = = = 1 = 1 = = - - - = - - - - % "
};
