/* XPM */
static char *Squelette_SpriteSheet_041636046419[] = {
/* columns rows colors chars-per-pixel */
"64 64 128 2 ",
"   c #5F002A",
".  c #4C3E3C",
"X  c #772A2A",
"o  c #4F413F",
"O  c #5B3356",
"+  c #4F4240",
"@  c #524543",
"#  c #564C46",
"$  c #594D46",
"%  c #554C4B",
"&  c #5A4E4B",
"*  c #5C5047",
"=  c #5D514D",
"-  c #5F5452",
";  c #604F4D",
":  c #625247",
">  c #64534C",
",  c #68554D",
"<  c #69594E",
"1  c #615653",
"2  c #695751",
"3  c #655955",
"4  c #6B5B54",
"5  c #615758",
"6  c #645B5B",
"7  c #6B5E5B",
"8  c #725D54",
"9  c #725E5D",
"0  c #6D615C",
"q  c #74625B",
"w  c #79655E",
"e  c #79685E",
"r  c #545778",
"t  c #6C6361",
"y  c #746462",
"u  c #796662",
"i  c #756A66",
"p  c #7B6A63",
"a  c #776C6A",
"s  c #7A6D6B",
"d  c #7F7065",
"f  c #7E716D",
"g  c #7E7372",
"h  c #9D0701",
"j  c #A0592A",
"k  c #D04A01",
"l  c #816E66",
"z  c #816E6A",
"x  c #827067",
"c  c #84726C",
"v  c #89756D",
"b  c #86796F",
"n  c #8C796F",
"m  c #817573",
"M  c #8A7674",
"N  c #847976",
"B  c #8C7B74",
"V  c #867B79",
"C  c #8C7D7A",
"Z  c #917D75",
"A  c #927E7B",
"S  c #EC8300",
"D  c #B38449",
"F  c #8F8077",
"G  c #8E817C",
"H  c #938177",
"J  c #93827C",
"K  c #99857E",
"L  c #96887F",
"P  c #99887E",
"I  c #6A8580",
"U  c #8E8381",
"Y  c #948582",
"T  c #998683",
"R  c #968881",
"E  c #9C8B83",
"W  c #958989",
"Q  c #9E8C8B",
"!  c #9F908E",
"~  c #9E9392",
"^  c #A18E86",
"/  c #A28F8A",
"(  c #A88F8E",
")  c #A29087",
"_  c #A4918B",
"`  c #A9948E",
"'  c #A9988E",
"]  c #A38F91",
"[  c #A49392",
"{  c #AA9593",
"}  c #A69995",
"|  c #AD9B94",
" . c #AA9798",
".. c #AD9C9A",
"X. c #B19C96",
"o. c #B39E9A",
"O. c #B89E9B",
"+. c #AEA09C",
"@. c #B1A096",
"#. c #B4A29C",
"$. c #B9A49E",
"%. c #BAA99F",
"&. c #AE9FA0",
"*. c #B39FA2",
"=. c #9FB3A1",
"-. c #B5A5A2",
";. c #BAA5A3",
":. c #B7A9A1",
">. c #BDABA4",
",. c #B7ABAD",
"<. c #BDACAA",
"1. c #BFB1A7",
"2. c #BFB1AA",
"3. c #C2A6A4",
"4. c #C2ACA6",
"5. c #C5ADA9",
"6. c #C8AFAB",
"7. c #C2B1A6",
"8. c #C4B3AC",
"9. c #CAB5AE",
"0. c #C7B8AF",
"q. c #C4AFB0",
"w. c #C5B5B1",
"e. c #C9B6B1",
"r. c #C7B8B2",
"t. c #CABAB3",
"y. c #FFD980",
"u. c #DCD5C5",
/* pixels */
"% # * % @ # # @ % # % % % @ % # # # # # # # % # % % % % % % % % % % % % % % % % % % % % + @ @ % % % % % % % % % % % % % % % % % ",
"# @ . . o O o o . o o o o o o o O . o # # # # # @ + + + o O o o @ * % % * = * % * = % = & & = = % = = % & & ; = = & = % % % % % ",
"% % a G V V V V N V V U g G g V N V N N g G g V U U V V N 4 @ @ - g g g m g g g g g g g g g g g g g g g m m m m V V V V g a 5 # ",
"% & V } ~ ] ~ Q ~ ~ ~ ~ ~ ~ ~ ~ ~ } } } } ~ ~ } } ..-.:.T p % @ 0 g W ~ ~ ~ [ } } ~ } } } ~ } } } [ } } [ [ [ [  . . .,.~ s 1 & ",
"# * V ! ! ! Q ] } } .. .} ~ ~ } } ~ [ _ [ _ ~ } } } #.-.E y @ . - g Y ~ [ ! ! ! ! ~ ! ! ! ~ ! ! ~ ~ ~ Q [ Q / [ ~ +.&.,.~ g - % ",
"% & V ~ _ [  . ...,.<.,.+.} } } } } } } } } _ ' ....t.<._ z > & 7 C ! } } [ [ _ _ _ _ [ [ _ [ _ [ [ [ [ [ [ [  .+.,.2.2.&.g - % ",
"# & G ~ Q / ] ] ..-.,.;...} } } ` _ _ _ _ ! ! ! ..<.r.>._ c 4 2 i C ! } ' ) ! ! ) _ Q _ _ ! _ ! Q _ Q Q / _ ~ [ ..-.2.2.+.N - % ",
"# = U } [  . . . .&.o.+.o. .[ [ ! ! _ ! _ ! ! _ ..>.0.:.Q c 4 4 p A _ } _ Q ) Q Q Q _ ) Q ) ^ Q / Q _ / Q / Q [  .-.,.2.+.g - # ",
"% & U  . .*. . . . .] ]  ... .{ _ _ _ ! _ ! _ ` o.>.r.>.E c 4 , p J / { ` _ Q Q ) _ ) Q / _ / _ _ Q _ / / / / {  .-.<.q.&.m - # ",
"% & V  . .*.3.*.( Y M C /  .o. .| ' _ _ _ _ _ [ ..>.e.:.E c 7 , u A _ [ _ ! ) _ _ Q / _ / / Q _ _ [ / / / / / (  .#.<.q.&.m - # ",
"% & C  . .3.q.,.] M 9 9 Z [ #.#.o.| { ) ! _ _ ` @.>.9.>.E c 8 , u J _ ` ` _ ^ _ _ / _ ^ ^ _ _ _ / _ / / / / / { | -.<.w.+.N 1 # ",
"% & A ( *.q.3.*.T z 7 9 M / | #.X.| ` ) ) / / ) ..4.9.>.E O O O O O O ` _ / _ ) ) ) _ / _ ) Q / _ Q / / / ( / ` | O.<.5.+.N = # ",
"$ & C  . . .( T C z p z Z T ^ ` ` _ ` ) ) ) ) ` X.4.9.%.O O O O O O O O _ _ _ / / ) ) / Q ) / / / / / / / / / ` | O.<.8.#.V - # ",
"% & U o.Q A z z z M M Z C M M Z J P ^ ^ ( ) ) _ | %.e.O O I I I I I I O O ) ) _ _ / _ ^ _ _ ^ _ _ / _ _ / ( / ` | #.4.8.+.m - # ",
"% = Y  .A s 9 9 u M A T M l p l c B P Q / ^ ) _ X.>.O O I u.u.u.u.u.u.I O O ! ) ) / _ _ ) _ / _ _ _ / _ ) ) ) ` | O.<.8.#.N 3 # ",
"# % U Q M s 9 9 z M T T M l p p l B E ^ ^ / ) _ | O O I u.u.u.u.u.u.u.u.I O O ) / _ _ ^ / ) _ / / ^ _ / ) ^ ` _ X.#.>.0.+.m - # ",
"# & V A N z s z M T ^ T A M z z v A T ^ ^ / ) ` | O O =.u.u.u.u.u.u.u.  =.O O _ _ ) ` ) ` ) / ` _ ) _ _ ` ^ ) ` X.O.4.8.#.V 1 # ",
"% & s m z M M C Y E ( / T Z B B A K ^ ^ ^ ^ ) _ X.O O =.u.u.u.u.u.u.u.    O O ) _ _ ) ) / _ ) ) ) ) _ _ ) ) ` ` X.$.7.7.#.N - # ",
"# % a i z M A T Q ( { [ ( Q T K ^ ^ / / / / ) ` X.O O I u.u.u.u.u.u.u.  y.  O O _ ) / / / ) _ _ ) _ _ _ ( ) ) ` X.$.4.9.-.m 3 # ",
"# = a a z A ^ ] ( [ _ _ _ _ ^ ^ ) ` ) / ) ) ) [ X.O O I r r u.u.u.u.r   S   O O / ` ` _ _ _ ) ) _ ) ) _ ) ( ) ` X.@.7.6.#.m - # ",
"% & s g m T ] ] ] ] _ _ ( / / / ` ) ` ( _ ) ` ` @.O O I r r r u.u.r r   k y.  O / ` ^ ) ) ) _ ` ` / ) ) ` ^ ^ ` ..$.4.w.-.V - # ",
"% & g C C W ( ] / ^ ( / / ^ ^ ^ ^ ^ ^ ^ / ^ ) ` X.O O r u.r r u.u.r r   k y.  O / / ( ^ / ^ ) / / / ^ / ^ ^ ^ ` X.-.4.8.+.m - # ",
"% & m W T T ] ] ( / / ^ ^ ^ ^ ^ ^ ^ ^ ^ ^ ^ / ) X.5.O O =.u.u.I I u.u.  k y.  O ^ ^ ^ ^ ^ / ^ ^ ^ ^ ^ ^ ^ ^ ^ ` X.$.8.w.:.g - # ",
"% & V ] ] ] ( ( ] ] / ( / ^ ^ ( / / ^ ( ) ^ ` { @.5.O O r =.u.r r u.=.h k y.  O O ^ ^ ^ ^ _ ^ ) ^ / / ) ^ ^ ^ ` X.$.2.w.-.V - # ",
"% & C &. . . . ...O. .{ ` ` ` ` ` ` ` { ' ' X.X.$.4.9.O O r =.u.u.=.  h k y.  O O ` ` ` ` ` ` ` ' ) ` ` ` ` ` X.@.>.8.w.-.N 1 # ",
"% & U ,.*.*.;.;.;.*.*.O.O.O.O.$.O.$.O.$.$.#.$.%.%.8.O O O I r r r r   S k y.  u.O @.O O O O.@.O.@.O.O.O.O.O.O.O.$.>.e.e.*.m 1 # ",
"% & Y q.,.<.q.5.6.3.6.6.5.5.5.5.7.4.4.4.4.>.7.0.O O O O O O =.u.u.  h k y.  u.u.I O O O O O O 4.3.5.3.6.5.3.3.5.4.8.t.e...g 3 % ",
"% = U ,.-.;.5.5.5.6.6.6.5.6.8.7.7.4.4.4.>.4.7.O O O u.u.=.O O r r   S h y.  u.=.r O O X X O O O 6.5.6.3.5.5.5.3.4.5.e.w.} s 3 # ",
"& & V [ Q [ | o.O. .X.X.X.O.X.@.X.X.| | ' | O O u.u.u.u.I r r =.  k h y.  u.I r r X X D D X O O X.X.X.X.X.X. .O.X.o.*.*.Q a 7 # ",
"# & m V z m C A A Z B A A C G G F F F B B F O I u.u.u.=.r O r     h S   I I O r X j D j X X   O O Z Z Z Z C A A A A J Y N 0 5 # ",
"# & > t 4 4 6 3 2 2 2 3 4 3 3 4 4 3 < < < O O r =.u.I I u.u.  h       u.O r O X j D j j X D   O O 4 2 3 2 2 1 2 2 2 4 = $ # # # ",
"% & & & ; & & & & & & $ * * * * * * $ $ o O O =.r I r O O O h k k S h O =.I X j D X j j X j X   O O # @ @ # $ # $ $ $ $ & # # # ",
"% % ; = 6 4 y t 0 0 0 0 0 q 0 0 q 0 q 0 8 O O u.r O I =.u.u.O h y.S S u.r X j D j X j j X j X   O O 4 3 4 4 4 q y 4 9 u y - - % ",
"# & g z s f V C F N N V F N B B F b b b N O O u.r O O r O O u.h y.y.h O X j D X j X j j X j X   O O f c z z z M M C A Y M 7 5 - ",
"# & g U C A T T R R R R L L E E L L L L L O O I r O O =.r u.u.h y.y.h u.X D j X j j j j j j X   O O L R T T A ^ / ] o...W t 7 & ",
"% & m Q Q / ] ] _ _ _ _ _ _ ) ) _ ) ) ) Q O O u.u.r u.u.I u.h k y.h O X j D j X j j j j X j X   O O | | { { X.O.o.O.;.;.W i t = ",
"# & N [ / [ ( ( [ ( ( ` ` ( ` ` _ _ _ _ _ O O u.u.r r r r O I h h O O X D j j X j j j j X j   O O X.O.O.O.O.O.O.O.o.*.o.W y 7 - ",
"# & g [ ( { ( ] ( ( ( ( ( ( ^ ` _ ' _ _ ) ) O O O O O O O u.=.I I =.u.X D j j X j j j j X X   O O 3.3.3.3.3.3.3.o./ T A m 4 - % ",
"% = N [ ] { ( ( ] _ ( ( / ( ( ` ) ( _ _ / ) ^ O O O O O u.=.r I I r =.X D j j X j X j j X   O O 3.5.5.6.9.9.9.6. .A z y 4 & % % ",
"# = g [ ] { ] ] ` ( _ / ` / ( ) ` ` ) ` ^ / _ ` | >.O O u.O O u.u.O O X D j j X j X j X X   O O 5.8.9.9.9.9.9.3.( Z u 4 ; @ % @ ",
"# & N [ ] ] ( ( _ _ ( ( / ) ( _ ) ( ( ^ ^ ( ) _ X.O O I r u.u.u.u.u.u.r   D j X j X j     O O $.X.X.X.X.X.X.X.P ^ Z v p 9 & & & ",
"% & m [ ]  .] _ ] _ [ ( ( _ ` _ ( ) ` / / ^ _ ` X.O O =.I O r r r r O r u.  j X j X   O O O P K H Z Z n n Z n v Z K T K c 7 3 = ",
"# = g [ ] { [ ] _ ( _ ( _ _ _ _ ` / ) / / ) ) _ X.O O =.=.r O O O O O r =.O         O O O K z w l 8 8 8 l 8 8 l x P X.{ R i 5 = ",
"# = m [ ] [ _ ( ] _ ] _ ( _ _ _ ^ ` ` / ) ) ` ' X.%.O O I I O O O O O r =.O O O O O O X./ n 9 , : : , , , : : 8 x ^ O.$.[ f 6 = ",
"% & m ] ] ( ] { [ ( ( ( _ _ ( ` ` _ _ _ ) / ) { X.%.O I r r O O u O O r =.O O | | | { _ P v w 8 , , 8 8 8 < 8 q v _ :.2.} f 6 = ",
"% = m  .] { ] ( _ ] / _ ` ) / _ ( ) ( ) ) _ _ ` ' O O =.=.=.O O e O O I u.O O X.| ) K Z Z v z l l l z l l l l v K | 7.8. .f 6 = ",
"# & m ] ( ] ] ( / _ ( ( ( _ _ _ ) _ _ / _ ) ^ ) X.O O =.I =.O O u O O u.u.O O #.` J c l x v B Z A Z A A H H Z K ) @.8.w...s - - ",
"% & m  .[ [ [ ( ( [ _ _ _ _ _ ` _ _ _ ( ) ) _ ` ..%.7.4._ c < , O O r =.O O >.#.) n p e l v Z K P ^ ^ ^ ^ ^ P ^ ' $.w.r...s - - ",
"# & m } [ { ] [ ( _ _ _ _ ) _ ` ) _ _ ) _ ) ) ` X.%.8.3._ v < , O O =.=.O O $.' J c e p x n L P ^ ` ) ` X.P X.` X.$.7.9.@.a - = ",
"# = m [ [ ( ] _ [ _ _ _ [ ( ` _ ' _ _ _ ) _ ) ' | %.7.4._ v 4 , O O r r =.O O P Z v x v n H P E ^ ) ` ) P ` P ' P $.9.9.@.d - = ",
"% = m [ [ { ( [ ] ( _ [ _ _ _ _ _ _ ) ) ) ) _ _ | %.8.>.) v q < O O u.u.=.O O x l v B H K P E E ^ ) ^ ) P ` ` P O.3.6.9.+.a - - ",
"# = g  .[ { [ _ ` ( _ _ [ _ _ _ _ _ _ ' _ ) _ ' | %.7.>.' x < < O O u.=.u.O O < w v H P ) ) ) ) ` ) ) ) ` ' P ` P 4.9.9.+.g - = ",
"# & m [ [ | _ [ [ _ _ _ _ _ _ ` ' ) ) ) ) ) ! ' X.%.7.7._ v < < d ' 1.7.' b < : q b H ) ) ' ) ) ) ) ) _ ) ) ` P _ $.8.r.+.s - - ",
"% & g } _ ` [ _ _ _ _ _ _ _ ` ) ) ) ) ) E ' P ) | %.7.%.' x < : d E 1.%._ x < , e n L ) ' ) ) ) ) ) ) ) ) ) P ` ' #.0.t.} s - = ",
"# & m [ [ [ _ / _ ! ) _ _ ) _ _ ' ! ) ) ) E ! ' @.%.7.7.) v < : d ) %.%.) x < < e F P ) ) ) ) ) ) ) ) ) ) P ) ) ' $.8.r.+.a - - ",
"# = g [ ! [ _ ( Q _ ! ) ) Q ) ! ) ) ) P ! ) E ' ' %.7.7.' x < : e P %.%.) x < < e H P E ) ) E ! ) ) ) ) ) ^ ) ) ' $.8.w.+.g - - ",
"% & g &.{ { [ [ [ [ _ [ _ _ _ ` _ _ _ _ ! ) _ ' @.%.7.1._ v 2 : q H | | E x q q c L Q Q ) ) ) _ ) ! ) ) ) ) ) ) ' $.0.w.} a - - ",
"% = V ,.;.;.-.*.#.#.+.#.+.+.+.#.#.+.+.@.@.@.+.%.%.1.0.1._ c 4 > 0 x J R J N b B Q } @.@.@.@.+.@.@.| | | | X.X...@.3.w.w. .f - = ",
"# & V t.w.w.w.q.w.<.w.<.7.2.7.2.2.7.2.2.2.2.2.8.8.0.t.1._ c 2 > < w p c B L _ +.:.2.2.1.2.2.2.2.2.1.2.1.7.1.>.>.4.8.t.r.&.g 6 - ",
"% & V 2.w.w.w.w.w.w.w.w.w.0.0.r.r.w.2.2.2.2.8.r.t.t.r.:.R d 2 ; , 4 q u N ! #.:.2.2.7.8.w.r.w.r.r.w.8.0.0.8.0.7.7.8.r.r.&.g - = ",
"$ = g ..#.;.;.-.,.-.-.-.-.-.-.-.-.#.:.-.-.#.:.:.1.1.%.! M y > $ $ 1 4 0 f L ~ } } +.} +.+.+.#.+.+.+.+.#.+.@.#.%.:.:.+.-.~ a 6 - ",
"# & a C C W W Y Y Y Y U Y Y W Y Y Y G L G G U Q ! ! L F p 2 & & # = > 3 q N F F V G G G G G L Y G G G G G J L E Q R L G g t - & ",
"# & t 7 7 7 0 7 0 0 0 0 0 0 0 0 0 0 0 0 0 0 0 0 i i 0 * & $ @ & # % 1 & - t i i f d f f f f f f f c f f c d c N b s i a t - 6 - ",
"# % 3 5 6 5 - 3 - - 3 3 - - - - - - = - - - 3 - = - - % % & % # @ # # # = = - = = = % = = = - = = = = - = - - - - = = - - - - % "
};
