/* XPM */
static char *Squelette_SpriteSheet_021636046419[] = {
/* columns rows colors chars-per-pixel */
"64 64 128 2 ",
"   c #5F002A",
".  c #4C3E3C",
"X  c #772A2A",
"o  c #4F413F",
"O  c #5B3356",
"+  c #4F4240",
"@  c #524543",
"#  c #564C45",
"$  c #594D46",
"%  c #554C4B",
"&  c #5A4E4B",
"*  c #5C5047",
"=  c #5D514D",
"-  c #5F5452",
";  c #604F4D",
":  c #625247",
">  c #64534C",
",  c #68554D",
"<  c #69594E",
"1  c #615653",
"2  c #695751",
"3  c #655A55",
"4  c #6B5B54",
"5  c #615758",
"6  c #645B5B",
"7  c #6B5E5B",
"8  c #725D54",
"9  c #725E5D",
"0  c #6A6156",
"q  c #6D615C",
"w  c #716056",
"e  c #74625B",
"r  c #79655D",
"t  c #79685E",
"y  c #545778",
"u  c #6C6361",
"i  c #746462",
"p  c #796662",
"a  c #756A66",
"s  c #7C6A64",
"d  c #776C6A",
"f  c #7A6D6B",
"g  c #7F7065",
"h  c #7E716D",
"j  c #7E7372",
"k  c #9D0701",
"l  c #A0592A",
"z  c #D04A01",
"x  c #816E66",
"c  c #816E6A",
"v  c #827067",
"b  c #84726C",
"n  c #89756D",
"m  c #8B796F",
"M  c #817573",
"N  c #8A7674",
"B  c #847975",
"V  c #8C7B74",
"C  c #867B79",
"Z  c #8C7D7A",
"A  c #917D75",
"S  c #927E7B",
"D  c #EC8300",
"F  c #B38449",
"G  c #8E8077",
"H  c #8E817C",
"J  c #938177",
"K  c #93827C",
"L  c #99857E",
"P  c #99887E",
"I  c #6A8580",
"U  c #8E8381",
"Y  c #948582",
"T  c #998683",
"R  c #968882",
"E  c #9C8A83",
"W  c #958989",
"Q  c #9E8C8B",
"!  c #9F908E",
"~  c #9E9392",
"^  c #A18E86",
"/  c #A28F8A",
"(  c #A88F8E",
")  c #A29087",
"_  c #A4918B",
"`  c #A9948E",
"'  c #A9988E",
"]  c #A38F91",
"[  c #A49392",
"{  c #AA9593",
"}  c #A69995",
"|  c #AD9B94",
" . c #AA9798",
".. c #AD9C9A",
"X. c #B19B96",
"o. c #B39E9A",
"O. c #B89E9B",
"+. c #AEA09C",
"@. c #B1A096",
"#. c #B4A29C",
"$. c #B9A39E",
"%. c #BAA99F",
"&. c #AE9FA0",
"*. c #B39FA2",
"=. c #9FB3A1",
"-. c #B5A5A2",
";. c #BAA5A3",
":. c #B7A9A1",
">. c #BDACA4",
",. c #B7ABAD",
"<. c #BDACAA",
"1. c #BFB1A7",
"2. c #BFB1AA",
"3. c #C2A6A4",
"4. c #C2ACA6",
"5. c #C5ADA9",
"6. c #C8AFAB",
"7. c #C2B1A6",
"8. c #C4B3AD",
"9. c #CBB5AE",
"0. c #C7B8AF",
"q. c #C4AFB0",
"w. c #C5B5B1",
"e. c #C9B6B1",
"r. c #C7B8B2",
"t. c #CABAB3",
"y. c #FFD980",
"u. c #DCD5C5",
/* pixels */
"% % * % + # # # # % % % % % # % % % # # # # # % % % % % # % % % % % % % % % % % % % % % @ @ % % % % % % % % % % % % % % % % % % ",
"# @ . . o O o o . . . . o . . o o o + # % % # # @ o @ @ o O o o # % % % * = & & = = * % = % = % % = & & & & & = = & & & & % % % ",
"% % d H C C C C j C I Z C B C C C C j G C C B C H U C C M 4 @ @ - j j j j M j j j j j j j j j j j j j j M M M M C C C C j d 5 # ",
"# % H [ ] ~ ~ Q ~ ~  .} ~ [ ~ [ ~ } } [ [ [ ~ [ } ..;.#.Q s $ @ 3 B W ~ [ ~ [ [ ~ } } [ } [ } } } } [ [ [ ] [ }  . . .,.~ j 5 # ",
"# = j ~ ! ~ ] ] [ } .. .[ [ ~ [ [ [ ~ _ [ _ ~ } [ } #.-.T i @ . - j R ~ ~ ! ! ! ! ~ ! ! ! ! ~ ! ~ ~ ~ ! ! ] ] [ ~ +.&.,.~ j - % ",
"# % H ~ ! [ ]  .&.,.<.,...} } ..} } } } } [ [ } ..&.t.<.` b 1 % 7 Z ! } } [ [ _ _ [ _ [ [ [ _ [ _ [ [ [ [ [ ]  .+.,.,.2.&.j - # ",
"# = H [ Q ] [  ...-.,.;...{ } } [ _ _ [ _ ! ) _ ..<.r.>.) b 4 2 i S ! } _ _ ! ! ) / _ ) ! ) ) _ ! _ _ ! Q / ! [ ..-.2.2.+.j - % ",
"# = U [ [ { { { ....o.+.+. .[ [ _ ! ! _ ) ! ! _ ..>.0.:.Q b 4 2 p Y ) } [ _ ) E Q / Q Q ^ ! / Q ) Q Q / / / / [  .-.2.2.+.j - # ",
"& % Z  . .*.*. . .[ ] ] .... .[ ) ) _ [ ! ) ) [ ..>.0.:.E b 4 2 p K / [ ` ! / Q ) / / _ / ) / ! / _ / / / / / (  .-.<.q...B - # ",
"% % Z  . .*.*.*. .T N N Q ..o.X.| } _ _ _ _ Q [ X.4.e.>.E b 8 2 p K ) { [ / ) / ) / _ Q / / / _ _ _ / / / / / `  .#.,.w.&.B - # ",
"% & Z  .O.3.q.*.] M 9 p S [ o.*.X.| ` _ ! _ / ` X.>.e.>.E b 4 2 p J _ [ _ _ _ ) ) _ / / / / / ) / _ / ` ] / / { X.-.<.q.+.M - # ",
"% & Z  .*.3.q.*.T c 4 9 N /  .o.X.| ` _ ) ) _ ` X.>.e.>.O O O O O O O O ` _ ) ) / ) ) / / _ _ / _ Q / / / / / ( | O.<.6.#.M - # ",
"$ & Z .. . .( T S c s c A T ^ ` ` ` _ ^ ) ^ ) ` | >.0.O O O O O O O O O O ) _ Q / ) / / / / / / / / / / / / / ` | @.<.8.+.B - # ",
"# & U ..Q S c c c n N S A N N V K P ^ ^ / ! / ) X.>.O O O I I I I I I O O O ) _ / _ _ ) ) ) _ / _ / ) _ _ / ) ` X.O.4.8.-.B - # ",
"% & W  .S f 9 9 p c S L N c x s b A P ^ / ^ ) ` | 3.O O I u.u.u.u.u.u.I O O ) ) ) _ _ / _ _ ) _ _ / _ / _ ^ / ` | O.<.8.-.B - # ",
"# % U Q N f 9 9 c S T T N c s s x V P Q / ) ) ` X.O O I u.u.u.u.u.u.u.u.I O O _ _ / / ) ) / / _ ) _ / _ _ ^ _ ` X.#.>.8.+.B - # ",
"# = C Z N c f c N T ^ Q S c c b n A T ^ ^ / ^ ` | O O =.u.u.u.u.u.u.u.u.=.O O _ _ _ _ / _ _ _ _ _ ) _ ) ) ( ) ` X.O.>.7.#.N - # ",
"# & h M c N M Z S Q ] ( T S V N S L ^ ^ ^ ^ ) _ X.O O =.u.u.u.u.u.u.u.u.=.O O ) ) _ ) ` ) ) _ ) ` / _ _ ) ( ) ` @.O.7.0.-.C - # ",
"# % d a c N S T / ( [ [ / ^ T T ^ ^ / ^ / / _ ` | O O I u.u.u.u.u.u.u.u.I O O _ ` ^ ) ) / ` ^ _ ) / / _ ) ) ) ` @.$.3.6.#.B 5 # ",
"# = d d c S / ] / ` ` [ ` / ^ ^ / ` ` ^ / ) ) ` X.O O I y y u.u.u.u.y y I O O _ ^ ` _ _ _ ^ ` ^ ` / ` ) ` ) ) ` @.$.7.6.&.B - # ",
"% % j j N T ] ] ] ( ` / / ( ( / ` ` ` / ) _ _ ` @.O O I y y y u.u.y y y I O O ` / ` ^ ` _ _ ` ` ) ` _ / _ ^ ` ` X.#.4.w.-.B - # ",
"% % j Z C W ( ] / / / ^ ^ ^ ^ ^ ^ ^ ^ / / ^ ) ` X.O O y u.y y u.u.y y u.y O O ^ ^ ^ ^ ^ ^ / ^ ^ ^ / ) ^ ^ ^ P ` X.-.4.8.#.B - # ",
"% ; M W T T ] ] / / / ^ ^ Q ^ ^ ^ ^ ^ ^ ^ ^ ^ ` @.4.O O =.u.u.I I u.u.=.O O ^ ^ / ^ ^ ^ ^ ^ ^ ^ ^ Q ^ ^ ^ ^ ^ ` X.%.8.w.-.j - # ",
"@ ; C ] ] ] ( ( ( ] ] / / ^ / / / ^ / ^ ^ _ _ ` X.4.O O y =.u.y y u.=.y O O ^ / ) ^ / ^ ) ^ ^ ^ / / ^ ^ ^ ^ ^ ` X.;.2.w.-.C - # ",
"% & Z &. . ...o... . .{ [ ` ` ` ` ` ` ` ' ' X.@.$.4.9.O O y =.u.u.=.y O O ` ` ' ` ` ` ` ` ` ` ` ` ` ` ` ` ` ` { @.;.5.w.-.C - # ",
"% & U ,.*.*.*.;.*.3.3.*.O.O.O.$.O.$.O.$.#.#.$.O O O O O O I y y y y I O O #.#.#.#.@.#.@.O.o.$.o.$.@.O.O.O.O.O.3.$.4.e.e.&.B - # ",
"% = Y q.,.<.5.q.6.6.5.5.5.5.6.7.7.4.4.4.4.4.O O I u.u.u.  O =.u.u.=.O O O O O 7.>.7.1.7.3.3.4.4.3.4.6.3.6.3.3.3.4.9.t.e...j 6 # ",
"% = U ,.-.;.5.5.5.3.6.5.6.6.6.7.6.4.4.4.>.>.O O I u.u.u.  O O y y O O O u.u.O O 1.7.>.1.7.4.4.6.6.4.3.6.3.6.5.3.4.7.e.w.} h 5 # ",
"% & C } Q ] X.X.O.X.X.X.X.X.X.X.| X.| | O O O y I =.u.  D   y =.=.y y =.u.u.u.O O @.@.' | X.X.X.X.X.X.X.{ X.X.X.X.X.*.*.Q a q % ",
"# & j C f N Z Z S N S A Z S H J J H G O O O I I y I =.  D   y =.=.y O y u.u.u.u.O O G G H V V G A A A A S S S S S S K Y N q - # ",
"# & 1 e 7 4 7 3 2 2 4 4 4 3 4 3 3 < O O =.=.I y O O I   y.  O y y O u.u.I u.u.u.I O O 0 3 < 0 0 3 4 2 3 4 1 2 2 4 2 4 = % # % # ",
"# & & & & & & $ & $ % & & * * * * * O O =.=.y O O I   k y.  y =.=.y O O y O =.=.y O O o o # o o # # @ # # @ $ # # # # * * # # # ",
"% % = - 3 4 q q 0 q q q q q e 0 0 0 O O y I O O O   k y.  u.O =.=.O u.u.I O y y O O 0 0 0 0 0 0 0 0 0 3 4 4 4 9 9 4 9 p i 1 - % ",
"# & j c p M C C C B C C G V V V G G O O I u.O O   k z y.  O O y X X X X X X y u.O O V m B B B B M h h h c c c N Z S S Y C 7 5 & ",
"# & j Z Z Y T Q E R R E R R P T T P O O I u.y   k z y.  u.u.X X l F F F F F X y I O O E P R R R T R P P T T T ^ / (  ...W u 7 = ",
"% & C Q T ] ] ] / ` ) _ _ _ ` ^ _ _ O O I =.k   z D   O O   F F F X l l l X F   I O O ` ' ' @.} | { | } { ( X.X.X.*.3.;.Q a u = ",
"# & C [ ] { ( ( [ ( ( ` ` ( ` ` ' ` O O I k z k z   O O X F l l l X l l l X l F   u.O O X.X.o.X.o.X.O.X.O.O.O.O.O.o.*.o.W i u & ",
"# & B ] ( ( ( ( ( ( ( ( / / ( ` ` _ O O k y.y.D   O O X F l l l l X l l l X l l l   O O X.O.O.$.$.3.3.3.3.3.6.3.o.^ T S M 2 - % ",
"% % j [ [ [ ( ( ( ( / ( ` ( ( ` / ` _ O z y.y.z   O O X F X l l l X l l l X l l l   O O X.$.3.3.3.3.6.9.6.9.9.6.{ S c p 7 & % % ",
"# - j [ ] [ ] ] ` ] ` / / ( / / / / _ O k D z   O O X F l X l l l l l l l X l l X   O O ' $.4.4.6.9.9.9.9.9.9.3.( S p 4 & @ @ # ",
"# = C ] ] [ ( ] / ] ( / / ( / ` / ` ( O O     O O O X F l X l l l l l l l l l l X   O O X.X.O.$.X.X.X.X.X.X.O.P ^ A n s 9 ; & % ",
"# = M [ ] [ ] ( ` ( / ` / ` ` / ` / ` / O O O O O O X F l X l l l l l l l X l l X   O O ` / L L A A m n m A m v A L P K M 7 5 * ",
"# = B [ ] [ ` ] / ] / ` / / ` / ) / / / ) O O ` O O X F l X l l l l l l l X l l X   O O ` J c r x 8 x 8 x 8 8 x n L X.{ R a 6 * ",
"# = j [ ] { ( / ` ] ( / ( ` / ` / ` ` ) ` ^ ) ` O O X F l X l l l X l l l X l l   O O @.^ V 9 , : : , , : : : 8 x ^ O.$.} h 6 = ",
"% = M ] ] ] ( [ ( / ( ( ` _ / ` ` / ^ ` ^ ^ _ ` ' O O   F X l l l X l l l X l X   O O ` P n r 8 , , 8 8 8 8 < r n _ :.4.} j 6 = ",
"% & M  .( { ( ] [ / [ / / / ` / ^ ` / / ^ _ ) ` X.O O u.  X l l l X l l l X X   O O P A V n c x x x x x v v x n L { 7.8.} f 6 = ",
"% & M ] ] ( ] ] / ( ( / / ` ` ^ ` / / _ ^ _ / _ ' O O u.u.  X l l X l l X     O O K n x x n V A A A S A J J A L ) $.0.0. .d 6 = ",
"% & M  .[ { ( [ [ / ` / ` / / ` / ` _ _ _ ) _ ` @.%.O O y y               O O O ^ N t p x n A L ^ ^ ^ ( ) P P ^ ` $.8.r...d 6 = ",
"# & B [ [ [ ( ` ] ( ` / / [ ` / ` _ _ _ ) _ ) ` | O O =.y =.O O O O O O O O O ' L b t s v m P E ^ ^ ` ` P ` ` P O.3.9.9.@.d - = ",
"# = B [ ( { ] [ / ` / ` ` / / ` _ ) _ ) _ ) ) ` | O O =.=.u.O O O O O O O ' Q P A b b b m G P P ^ ^ _ ) ` ` P X.P $.9.9.' g - = ",
"% & M [ [ [ ] [ [ / ` ] / ` ` _ _ ` ) ' ) ) _ ` | %.O u.=.u.O < x E @.%.' L n g x b A J K P P ) ^ ) ^ ) P ' P ` @.$.9.9.+.d - - ",
"% & M [ [ { [ / / [ ` / _ ) ` _ ' ) _ ) ^ ) _ ` | %.7.>.' b < < v ) >.7.' m w < r n J P ) ) ) E ) _ ) ) ` P ` ' P 6.9.9.+.j - = ",
"% = M } ` [ / [ [ _ _ _ _ _ _ _ ' ) ) ) E ) ) ' | %.7.4.) b < < g ' 7.7.' v < : r n J ) ) ' ) ' _ ) ) ) ) ) ` P ` #.w.r.+.h - - ",
"# = j [ ` [ [ ` _ _ _ _ _ _ _ _ ) ' ) ) ) ! ) ) @.%.7.7.' b < < t ) 1.%.' v < < t m P ) ' ) ) ) ) ) ) ) ) ) P ) ` $.8.r.} d - = ",
"# & B [ _ [ ` / _ ! _ _ _ _ _ _ ' ) ) ) ) E ) ' | %.7.%.' b < : t ) %.%.) v < < t G P E ) ) ) ) ) ) ) ) ) ) ^ ) ' $.2.r.+.d - - ",
"# = j [ [ [ / / ) ! ! _ E ) ) ! P ! ) ! E ) ! ) @.%.7.1.) v < : t E %.%.) v < < t J P ) ) ) E ! ) ) ) ) ) ) P ` ` $.0.w.+.j - - ",
"% & C  .{ { { [ [ _ [ ` _ ) ` _ ' _ _ ! ) ) ) ' @.%.1.1.` b 4 : t K | | E v e e M P E _ _ ) ! _ ' E ) ) ) ) ) ) ' $.w.w.} d 6 = ",
"# & C ,.;.;.*.*.-.#.+...+.+.@.+.@.+.@.+.@.+.+.%.%.1.0.1.` b 4 > 4 v K T K B B V E [ @.+.@.@.@.@.| @.| | X.| @.| @.4.w.w. .h - = ",
"# = U w.w.w.w.q.2.w.2.q.8.7.0.2.2.2.2.2.1.2.2.8.8.0.t.1.! g 4 : 4 e s b G R _ @.:.>.2.2.2.2.2.2.2.2.2.2.1.>.1.>.4.7.r.r.&.h 6 = ",
"# & C ,.w.r.w.w.w.w.w.w.w.w.w.w.w.w.0.2.2.2.w.r.t.t.w.%.E g 2 ; > 4 e s B ! #.:.2.2.0.2.w.w.w.r.r.w.8.0.0.8.8.8.7.0.r.r.&.j 6 = ",
"# = j ..-.;.-.-.-.-.-.-.-.:.:.-.-.-.#.:.#.&.:.1.1.1.%.! V e 1 $ & 2 4 q g R [ } } @.} +.+.+.+.#.+.+.+.@.@.@.#.:.%.:.#.-.~ d 6 - ",
"# = d Z Z W Y Y Y Y Y Y U Y Y Y Y K H K U H U E ! Q K G p 2 : % # = > 5 u M G G H H H H H H H U H H H K H K P E ! R U H j 6 6 = ",
"# & u 6 4 u 7 q q q q q q q q q q q q q q q q u a a q = & $ % & @ % = = = a a a g d h h h h b h h h h h v h v B M g d a u - 6 - ",
"# & 5 6 3 5 1 5 6 - 1 1 5 5 - - 1 1 1 = - - - - = - - * & % % @ # @ # # = = - = = = = = = - - = - = = - = - 1 1 - = = - - = & % "
};
