/* XPM */
static char *Squelette_SpriteSheet_011636046419[] = {
/* columns rows colors chars-per-pixel */
"64 64 127 2 ",
"   c #5F002A",
".  c #4C3E3C",
"X  c #772A2A",
"o  c #4F413F",
"O  c #5B3356",
"+  c #4F4240",
"@  c #524543",
"#  c #564C46",
"$  c #594D46",
"%  c #554C4B",
"&  c #5A4E4B",
"*  c #5C5047",
"=  c #5D514D",
"-  c #5F5452",
";  c #604F4D",
":  c #625247",
">  c #64534C",
",  c #68554D",
"<  c #69594E",
"1  c #615653",
"2  c #695751",
"3  c #655A55",
"4  c #6B5B54",
"5  c #615758",
"6  c #645B5B",
"7  c #6B5E5B",
"8  c #725D54",
"9  c #725E5D",
"0  c #6D615C",
"q  c #716056",
"w  c #74625B",
"e  c #79655D",
"r  c #79685E",
"t  c #545778",
"y  c #6C6361",
"u  c #746462",
"i  c #7A6661",
"p  c #756A66",
"a  c #7C6A64",
"s  c #776C6A",
"d  c #7A6D6B",
"f  c #7F7065",
"g  c #7E716D",
"h  c #7E7372",
"j  c #9D0701",
"k  c #A0592A",
"l  c #D04A01",
"z  c #816E66",
"x  c #816E6A",
"c  c #827067",
"v  c #84726C",
"b  c #89756D",
"n  c #8B796F",
"m  c #817573",
"M  c #8A7674",
"N  c #847975",
"B  c #8C7B74",
"V  c #867B79",
"C  c #8C7D7A",
"Z  c #917D75",
"A  c #927E7B",
"S  c #EC8300",
"D  c #B38449",
"F  c #8F8077",
"G  c #8E817C",
"H  c #938177",
"J  c #93827C",
"K  c #99857E",
"L  c #99887E",
"P  c #6A8580",
"I  c #8E8381",
"U  c #948582",
"Y  c #998683",
"T  c #968881",
"R  c #9C8A83",
"E  c #958989",
"W  c #9E8C8B",
"Q  c #9F908E",
"!  c #9E9392",
"~  c #A18E86",
"^  c #A28F8A",
"/  c #A88F8E",
"(  c #A29087",
")  c #A4918B",
"_  c #A9948E",
"`  c #A9988E",
"'  c #A38F91",
"]  c #A49392",
"[  c #AA9593",
"{  c #A69995",
"}  c #AD9B95",
"|  c #AA9798",
" . c #AD9C9A",
".. c #B19B96",
"X. c #B39E9A",
"o. c #B89E9B",
"O. c #AEA09C",
"+. c #B1A096",
"@. c #B4A29C",
"#. c #B9A49E",
"$. c #BAA99F",
"%. c #AE9FA0",
"&. c #B39FA2",
"*. c #9FB3A1",
"=. c #B5A5A2",
"-. c #BAA5A3",
";. c #B7A9A1",
":. c #BDACA4",
">. c #B7ABAD",
",. c #BDACAA",
"<. c #BFB1A7",
"1. c #BFB1AA",
"2. c #C2A6A4",
"3. c #C2ACA6",
"4. c #C5ADA9",
"5. c #C8AFAB",
"6. c #C2B1A6",
"7. c #C4B3AC",
"8. c #CBB5AE",
"9. c #C7B8AF",
"0. c #C4AFB0",
"q. c #C5B5B1",
"w. c #C9B6B1",
"e. c #C7B8B2",
"r. c #CABAB3",
"t. c #FFD980",
"y. c #DCD5C5",
/* pixels */
"% % * % + # # # # % % % % # % % % % # # # # # % % % % % # % % % % % % % % % % % % % % % + @ @ % % % % % % % % % % % % % % % % % ",
"# @ . . o O o o . . o + o o o o o o + # % % % @ @ o @ @ O @ o o # % % % * = & & * = % = & = = = = % & & & & & = = & & & % % % % ",
"% % s G V V V V h V V I V G h N V V V V N N N V G I V V m 4 @ @ - g h h N h h h h h N h h h N h h h h h m m m h V V V V h s 6 # ",
"# % G ] ' ! ! W ! ! ! ! ! ! ! ! ! ] ] ] { ] ] ] {  .=.#.Y a ; @ 3 N E ! ! ! ] ] { ! ] ! ] ! { ! { ] { { ] ] ] ] { | | >.! h 1 % ",
"# = h ! Q ! ' ' ]  . . .! ! ] ! ] ! ] ) Q ) ] ] ] { =.#.T u @ . - h U Q ! W Q Q Q Q ` Q Q Q ] ! ! ! ! W ! ^ ] ] { O.%.>.! h - % ",
"# % G ! Q ] ' |  .>.>.-.O.{ {  .{ { { { { { ] {  .%.r.,.) v > % 7 C Q { { { ` _ ] ) Q ] ] ] ) ) ] ] ] ] ] ] ] |  .>.>.1.%.h - # ",
"# = G ] W ' ] |  .=.>.=. .] { { ` ) ` ] ` Q Q (  .,.9.:.) b 4 1 p A Q { ` ( W W Q ( ) ( Q Q ^ Q W Q ^ ) W ' W ]  .=.1.1.O.h - % ",
"# = I ] ] [ [ [ | %.=. .@. .] ) Q Q W ) ( W W ) } 1.7.;.W v 4 3 a A Q ] ` W W Q W ^ W W ~ ( ^ W ^ ^ ^ W ^ ^ ^ ] | =.1.1.O.h - # ",
"& % C | | &.&.| | [ ' ' |  .| [ ( ( ) ) Q ( ( {  .:.9.:.R v 4 , a A ) ] _ ^ W ^ ^ ) ^ W ( ^ ^ ) ^ ) ] ^ ^ ^ ^ _  .&.,.q. .m - # ",
"% % C | | &.&.&.| U M A ' | X.} } { ` Q ^ ) Q _  .:.9.:.R b 4 < i A ( { ] ) ( ( ) W ) ( ^ ^ ^ ) Q ) W ^ ^ ^ ^ [  .X.,.0.%.m - # ",
"% & C | o.2.0.>.' m 9 9 C ] X.@...} _ ) ) ) ) _ ..3.w.:.O O O O O O O O ) ) ^ ( ^ ) ^ ^ ^ ( ) ( ( ) ^ ^ ^ ^ ^ /  .@.3.q.O.m 1 # ",
"% & C | &.2.2.&.Y x 4 9 M ^  .X...} _ ) W ( ^ ] ..:.e.O O O O O O O O O O ) ( ^ ( ( ( ^ ^ Q ^ ^ ^ ^ ^ / ^ ^ ^ _ | o.,.0.@.m - # ",
"$ & C | | | / Y A x a x Z Y ~ _ _ _ ) ~ ( ( ( _ } 3.O O O P P P P P P O O O ( ) ^ ) ( ^ ^ ^ ^ ^ ^ ^ ^ ^ ^ ^ ^ _ ..X.,.7.O.N - # ",
"# & U  .W A x x x b M A Z M M B J R ~ ~ ( W ~ ) } :.O O P y.y.y.y.y.y.P O O ^ ) ( ^ ^ ) ) ( ) ^ ) ^ ) ( ^ ~ / _ } @.3.7.=.N - # ",
"% & E { C d 9 9 u M A K M x z a c Z L W ^ ^ ( _ } O O P y.y.y.y.y.y.y.y.P O O ( ) ^ ( ( ( ) ^ ) / ) ^ ) _ ~ ~ _ ..X.,.7.@.N - # ",
"% % I W M x 9 9 x M Y Y M x a a z B L ^ ( ~ ( _ } O O *.y.y.y.y.y.y.y.y.*.O O ^ ^ ) ) ^ ^ ( ) ^ ^ ( ^ ) ^ ( ) _ ..@.<.7.O.N - # ",
"# & N A N x d x M Y ~ W C b x c b A Y ~ ~ ~ ( ) ..O O *.y.y.y.y.y.y.y.y.*.O O ) ) ) ) ) ) ( ~ _ ( ) ) ) ( / ( _ ..o.3.9.@.N 1 # ",
"# & h h x M M C J W / ^ Y A B B A K ~ ~ ~ ~ ( _ } O O P y.y.y.y.y.y.y.y.P O O ) ) ( ) ) ) ) ) ^ ) ( ) ( ( / _ _ ..#.6.6.@.N 1 # ",
"# & s p x C A Y W / [ ) ^ Y Y Y ~ ~ ~ ~ ^ ^ ( ) ..O O P t t y.y.y.y.t t P O O ) ( _ ~ ( ( ^ ~ ) ( ) ) ) ( ( ( _ ..#.6.5.=.N - # ",
"# = s s x A Y ' / ] ) ] _ / ~ ~ ^ _ _ ^ ( ( ) [ ..O O P t t t y.y.t t t P O O ) _ ~ _ ) ~ _ _ ~ ) ) ) ( / ( ( _ ` #.6.5.O.N - # ",
"% & d h M Y ' ' / ) ] / ^ / ^ ^ ) _ ( / ( ) ) _ ..O O t y.t t y.y.t t y.t O O ( ~ ) _ ~ _ ~ ) _ ) ) ) ) ~ ~ ( _ } #.:.q.=.N - # ",
"% & h C C E / ' ^ ^ ^ ~ ^ ~ ~ ~ ~ ( ~ ~ ^ ^ ( _ +.3.O O *.y.y.P P y.y.*.O O ~ ( ~ ~ ~ ~ ~ ~ ~ ^ ^ ^ ~ ^ ~ ~ ~ _ } #.4.q.@.N - # ",
"% & m E Y Y ' ' ^ ^ ~ ~ ^ W ~ ~ ~ ~ ~ ~ ~ ~ ~ ) ..3.O O t *.y.t t y.  t O O ~ ~ ~ ~ ~ ~ ~ ~ ~ ~ ~ ~ ~ ~ ~ ~ ~ _ +.-.4.q.=.h - # ",
"% & V ' ' ' ' / ' ' / ^ ^ ^ ~ ) ^ ^ / ~ ~ ) _ _ ..3.8.O O t *.y.y.*.j   O ) ( ) ~ ~ / ^ _ ~ ~ ~ ~ ^ ^ ( ~ ( ( _ ..#.1.q.=.V - # ",
"% & C %.| | | | | ..[ [ [ [ _ _ _ _ _ _ ` ` ..O O O O O O P t t t t j   O O O O O _ _ _ _ _ ` ` _ _ _ _ _ / / ..+.:.0.q.=.V 1 # ",
"# & I >.&.&.-.>.-.-.o.o.o.o.o.o.#.o.#.#.@.@.O O y.y.y.y.O O *.y.y.*.j t.  y.y.y.O O +.@.o.....o.o.o.o.o.#.o.o.o.#.:.w.w. .m 5 # ",
"% & U 0.,.2.4.0.5.4.5.5.3.4.5.6.6.3.3.3.3.<.O P y.y.y.y.*.O O t t O j t.  y.y.y.P O <.3.3.3.3.3.2.3.3.5.3.3.2.5.3.7.r.w. .h 5 # ",
"% & U >.&.>.4.4.4.4.5.5.5.5.5.6.4.3.3.3.:.O O t *.y.y.*.P t t *.*.j t.t.  y.y.*.t O O 6.3.3.3.3.3.3.2.5.2.5.4.2.3.5.w.q.{ g 3 # ",
"% & V ] W ]  ...o.| ......X.....} ..} } O O O t t P P P t O t *.*.j t.t.j P P t t O O O } } } } ..........[ ......X.=.&.W s 7 # ",
"% & m V x N C C A A Z C C Z G G F F F O O O P y.t O t O y.y.O t j t.l t.  t O t y.P O O O F F F Z Z Z Z A A A A A A A U N 0 5 # ",
"# & > 0 6 4 4 3 2 2 2 4 4 3 4 4 4 3 < O O P y.t O O P *.O O t O j t.l t.  X X X X y.P O O 3 q q 3 4 4 3 1 2 2 4 2 2 2 = $ # # # ",
"# & & = & ; & & % $ & & & * * * * * O O y.y.P O O O O t y.y.O   t.l S   k D D D D X y.y.O O o o # o # # # # @ # # $ $ & $ # # # ",
"@ % & = 6 4 w 0 0 0 0 0 0 0 0 w w 0 O O y.*.t O O a O *.O O   S l S   D D k k k X D   y.O O q q 0 0 0 - 2 4 4 9 u 4 9 i 9 1 - % ",
"% & h h s v V V V N V V F F B B F N O O t t P O O R O O y.  S j S   D k X k k k X k D   O O O N g g g g x x x M C A A U M y 5 & ",
"$ & m A C A Y W R T T R L L R L L L L O O P y.t O O +.O   l j S   X k k X k k k X k k X   O O R T T L L Y Y K ~ ~ [ |  .U y 7 = ",
"# & N W E ' ' ' ) ( ( ( Q Q ) ( ( Q ^ O O O P y.t O   j   j S   k X k k X k k k X k k X   O O _ } } ` { | [ [ ..| o.,.-.W p y = ",
"$ = N ] / ] / / [ / / ) _ / _ _ _ _ ) ( O O O P t y.l l j     D k X k k k k k k X k k X   O O o.X.X.o.o.o.o.2.o.o...&. .E p 6 & ",
"# & h ] ' ] / ' / / / / / / / ( _ ) _ ( ) O O O y.y.l t.S j D k k X k k k k k k k k k X   O O #.o.2.2.2.2.2.2.2.o.^ Y U m 4 - & ",
"% & V ! ' [ / / / ) / ) _ ^ / _ / ^ ) ) ^ ( O O P y.S t.t.S D k k X k k k k k k X k k X   O O 2.3.3.5.5.5.8.8.5.[ A x u 4 & % % ",
"# & m ] ' [ / ' ] / ) / ^ / ^ ) ^ _ ^ ) ) ( ( O O O S t.S j D k k X k k k k k k X k k   O O 3.3.3.8.8.8.8.8.8.2./ Z i 4 = @ @ % ",
"# = m ] ] ' / ] [ / / ^ ) ) _ / _ ~ ^ ( / ^ _ _ O l t.S j X D k k X k k X k k k X k X   O O o.@.............o.L ~ Z x a 9 & & & ",
"# & m ] ' [ ' / ' ) ^ / / ) ) ) ^ _ _ ^ ~ ~ ( ) ..j l j t O   D k X k k X k k k X X   O O ~ L K Z Z n n Z Z n c Z A ~ K v 7 5 = ",
"# = h ] / ' / ) ' ) / ) / ) ) ) / ^ ) ^ ^ ( ) _ ..O O y.P O O   k X k k X k k X X   O O O K x e z 8 z , z , 8 z b ~ _ [ T p 6 * ",
"% = m ] ' [ ] ' ) ' ) / ( ) ) ) ( _ _ ~ ) ( ( _ } O O y.y.t O O   X k k X X     O O O O ~ M e , , : , , , : : 8 c ~ o.#.] g 6 = ",
"% & m ' ' [ / / / ) ^ ^ ^ _ _ ^ ) ^ ) ) ) ( ) ) ..#.O O *.*.O O O           O O O O O ) L b e 4 , , 8 8 8 8 < e b ) :.,. .h 6 = ",
"% & m ' ' [ ' ^ ) ^ ] / _ ^ ^ _ _ _ ^ ^ ~ ) ( _ } O O *.t t O O O O t t *.O O O O ) L Z Z b x z z z z z c c z b K ` 3.7.{ d 6 = ",
"% = h | ' ' ' ' / / / / ^ ) _ ~ ^ ) / ) ( ( ) ) O O *.y.*.*.O > i O *.y.y.*.O O _ K c z z b B Z Z Z Z A H H Z K ~ @.7.e.{ h 6 = ",
"# & m | [ [ / ] ] ) ) ^ _ ) ^ ) _ ) ) ) ^ ( ) _ O O y.*.y.O < > r J O *.*.y.O O ~ M i a z b Z K ~ ~ ~ ( ( L L ~ ` #.9.e. .s - = ",
"# = m ] ] [ ' / / ) ] / ) ) _ ) ) ) ) ) ^ ) ( _ } #.6.:._ c 4 , r J _ ..@.#.@.` L b r a c n H R ~ / ) ) ..L ..L o.2.8.8.+.f - = ",
"# = m { ] ' ' [ ] ) ) ) ) ) _ ) ) ) ) ) ) ~ ( _ } :.6.:.` c 4 , a K } @.+.` ( L B c c b B H L R ~ ( ) ) L ..L ..L #.6.8.+.f - = ",
"% & m ] ] [ ] / / ^ ) ) ) ) / ) ( ` ` ( ( ) ) _ } #.6.3.` c < < z L +.$.} K c f x b B H K L L R ~ ( ( ) ..L L _ +.#.5.8.O.s - = ",
"% & m ] ) [ ] ] ) ] ) ] ) ) ) ) _ ( Q ` ( ~ ( _ } :.6.:.` b < < z ( :.6.` n q < r c H L ~ ( ( ( ) ( ( ( L L ..L ..o.8.8.O.h - = ",
"& & h { ) [ ] ) ] ) Q ` _ ) ) ` ` ( ( ( ( R W ` } $.6.3.( v < < c ( 6.6.` c < , e b K R ` ( ( ( ( ) ( ( ( ( ` _ _ @.9.e.O.d - - ",
"# = h { ) { ) ) ^ ) ) ) ) ) ) ( ( ( ( ( ( ( ( ` +.$.6.6.` c < < a ( <.<.` c < < r n L ( ( ` ( ` ( ( ( ( ( ( L L _ @.9.e.{ s - = ",
"# & m ] ) ] / / ^ ) ( ) ` ( Q ( ( ` ( ( ( R ( ( } $.6.$.` c < : r ( $.$.` f < , r F L R ( R W ( ( ( ( ( ( ( ( _ ` #.7.e.O.s - - ",
"# = h { ] ] ^ ^ ^ ^ W ( W Q ( ( ( Q ( R ( R W ( +.$.6.<.( c < , r L $.$.R c < < r H R ( ( ( ( Q ( ( ( ( L ( L _ ` #.7.e.O.h - - ",
"% & V | | [ [ ] ] ] { ) ) ) _ ` _ ( ( ( ( ( ` ` +.$.6.<._ b < : r K } } R c q w v L Q Q ( ( ( ` ( W Q ( ( ( ( ( ` #.7.q. .s - - ",
"% & V >.=.=.=.&.=. . .@.O.+.O. .O.@.O.O.O.O.O.$.$.<.9.<._ c 4 > 4 c J T J N b C R { } +.+.+.} } +.+.} } +.} ..} @.2.q.q. .s - = ",
"$ & V q.q.q.0.0.q.0.,.,.7.,.6.1.1.1.1.1.<.<.<.1.9.9.e.<.Q f 4 > < e d v F T ` } ;.<.1.1.1.1.1.1.<.<.:.<.<.:.:.<.:.6.r.e. .h 5 - ",
"% & V 1.q.r.w.w.q.q.e.e.e.e.e.e.e.e.1.1.7.1.e.e.e.e.e.;.R f 2 ; > 4 w i N Q O.;.1.1.7.9.e.e.q.e.e.q.9.7.9.9.9.7.6.9.9.e.%.h 6 = ",
"# = h  .X.=.=.=.=.=.=.=.=.=.;.=.=.=.@.;.=.@.=.,.<.<.@.` M e > % & 1 4 0 g T ! { { { O.{ O.O.O.O.O.O.O.@.O.+.@.$.;.@.@.%.! h 6 - ",
"# = s C I U E U U U U U I U U T U J T G G G I R Q Q L N i 4 = # $ = > 1 w m F F G G G G G G T J G G G G J G J R Q T T G h 6 - = ",
"# & 0 y 7 7 7 0 y 0 y 7 0 0 0 0 0 0 0 0 0 0 0 0 p p 0 = & $ % & @ % - & = p p p s f g g g g g h g g g g v f v N N f p s y - 6 - ",
"# & 5 5 3 6 1 5 1 1 1 1 1 1 - - 1 - = - - - - - - - - * % & % @ # @ # # = = - = = = = = = = > = = = 1 = = - 1 - - = - - - & - % "
};
