/* XPM */
static char *result[] = {
/* columns rows colors chars-per-pixel */
"64 64 14 1 ",
"  c #5F002A",
". c #772A2A",
"X c #5B3356",
"o c #545778",
"O c #9D0701",
"+ c #A0592A",
"@ c #D04A01",
"# c #EC8300",
"$ c #B38449",
"% c #6A8580",
"& c #9FB3A1",
"* c #FFD980",
"= c #DCD5C5",
"- c None",
/* pixels */
"----------------------------------------------------------------",
"----------------------------------------------------------------",
"----------------------------------------------------------------",
"----------------------------------------------------------------",
"----------------------------------------------------------------",
"----------------------------------------------------------------",
"----------------------------------------------------------------",
"----------------------------------------------------------------",
"----------------------------------------------------------------",
"----------------------------------------------------------------",
"----------------------------------------------------------------",
"----------------------------------------------------------------",
"----------------------------XXXXXXXX----------------------------",
"---------------------------XXXXXXXXXX---------------------------",
"--------------------------XX%%%%%%%XXX--------------------------",
"-------------------------XX%%&=====%XXX-------------------------",
"-------------------------XX%========%XX-------------------------",
"-------------------------XX%========%XX-------------------------",
"-------------------------XX%========%XX-------------------------",
"-------------------------XX&=oo=====%XX-------------------------",
"-------------------------XX&ooo====&oXX-------------------------",
"-------------------------XX&oo==&&&%oXX-------------------------",
"-------------------XXX---XXo===&%%oXXX--------------------------",
"------------------XXXXX--XX&==&%%oXXX---------------------------",
"-----------------XXX..XX-XXooo=%o%XXXX--------------------------",
"----------------XXX.$+.XXXXo==&%ooXXXXXX------------------------",
"----------------XX ..$+.XXXooooo&%ooooXXX-----------------------",
"---------------XX .+.+$+.Xo%&&oo&%o===oXX-----------------------",
"---------------XX .+.+.$.Xo%%&ooooo====oXX----------------------",
"---------------XX ..+.+$+.Xo%%oX&%o%===%XX----------------------",
"---------------XX ..+.+.$.o&oo&%&%oo%=&oXX----------------------",
"---------------XX .++++.$.&oX&XXooo=o%ooXX----------------------",
"---------------XX ..+++.$+.XXXX%%&%X=o=oXX----------------------",
"----------------XX .+++.+$.XXX&XX&%=Xo=oXX----------------------",
"----------------XX .+.+.+$.XXXX%%ooX=Xo=oXX---------------------",
"----------------XX .+.+.+$.XXX&XX&%=XX%=oXX---------------------",
"-----------------XX ..+.+$.XXXX%%o%&XXoo=oXX--------------------",
"-----------------XX ..+.$ XXXX%&Xoo&=XXo==XXX-------------------",
"------------------XX .+. XX-XXo&X%%X==XXo==XXX------------------",
"------------------XXX   XX--XX%o&&%X&=XXXX OOXX-----------------",
"-------------------XXXXXX---XX%ooo&&=oXXX @#OOXX----------------",
"---------------------XXX----XX%oXXXXo=&XX ##**OXX---------------",
"---------------------------XX%oXXXXXXo=oXX #**@OXX--------------",
"--------------------------XX%ooXX---XXo=&XX ##O XX--------------",
"-------------------------XX%o%oXX----XXoo%XX O O XX-------------",
"-------------------------XXo%oXX-----XXo%&XXX  @# XX------------",
"------------------------------------XX%&=&XXXXX @# XX-----------",
"-------------------------------------XX=&=XX-XX O@# XX----------",
"----------------------------------------------XX O@*OXXX--------",
"----------------------------------------------XX O#@*OXXXX------",
"-----------------------------------------------XX O*@*OOXXXX----",
"------------------------------------------------XX #*#**OOXXXXX-",
"-------------------------------------------------XX  *****O XX--",
"--------------------------------------------------XXXO     XX---",
"---------------------------------------------------XXXXXXXXX----",
"-----------------------------------------------------XXXXXX-----",
"----------------------------------------------------------------",
"----------------------------------------------------------------",
"----------------------------------------------------------------",
"----------------------------------------------------------------",
"----------------------------------------------------------------",
"----------------------------------------------------------------",
"----------------------------------------------------------------",
"----------------------------------------------------------------"
};
