/* XPM */
static char *result[] = {
/* columns rows colors chars-per-pixel */
"64 64 15 1 ",
"  c #5F002A",
". c #772A2A",
"X c #5B3356",
"o c #545778",
"O c #9D0701",
"+ c #A0592A",
"@ c #D04A01",
"# c #EC8300",
"$ c #B38449",
"% c #6A8580",
"& c #9FB3A1",
"* c #FFD980",
"= c #DCD5C5",
"- c white",
"; c None",
/* pixels */
";;;;;;;;;;;;;;;;;;;;;;;;;;;;;;;;;;;;;;;;;;;;;;;;;;;;;;;;;;;;;;;;",
";;;;;;;;;;;;;;;;;;;;;;;;;;;;;;;;;;;;;;;;;;;;;;;;;;;;;;;;;;;;;;;;",
";;;;;;;;;;;;;;;;;;;;;;;;;;;;;;;;;;;;;;;;;;;;;;;;;;;;;;;;;;;;;;;;",
";;;;;;;;;;;;;;;;;;;;;;;;;;;;;;;;;;;;;;;;;;;;;;;;;;;;;;;;;;;;;;;;",
";;;;;;X;;;;;;;;;;;;;;;;;;;;;;;;;;;;;;;;;;;;;;;;;;;;;;;;;;;;;;;;;",
";;;;;XXX;;;;;;;;;;;;;;;;;;;;;;;;;;;;;;;;;;;;;;;;;;;;;;;;;;;;;;;;",
";;;;XX XX;;;;;;;;;;;;;;;;;;;;;;;;;;;;;;;;;;;;;;;;;;;;;;;;;;;;;;;",
";;;XX # XX;;;;;;;;;;;;;;;;;;;;;;;;;;;;;;;;;;;;;;;;;;;;;;;;;;;;;;",
";;;XX #* XX;;;;;;;;;;;;;;;;;;;;;;;;;;;;;;;;;;;;;;;;;;;;;;;;;;;;;",
";;XX @*-- XX;;;;;;;;;;;;;;;;;;;;;;;;;;;;;;;;;;;;;;;;;;;;;;;;;;;;",
";;XX #*-*- XX;;;;;;;;;;;;;;;;;;;;;;;;;;;;;;;;;;;;;;;;;;;;;;;;;;;",
";;XX #*-**- XX;;;;;;;;;;;;;;;;;;;;;;;;;;;;;;;;;;;;;;;;;;;;;;;;;;",
";XX @*-**#*- XX;;;;;;;;;XXXXXXXXX;;;;;;;;;;;;;;;;;;;;;;;;;;;;;;;",
";XX #--*##**- XX;;;;;;;XXXXXXXXXXX;;;;;;;;;;;;;;;;;;;;;;;;;;;;;;",
";XX #--*#**#*- XX;;;;;XXX%%%%%%%XXX;;;;;;;;;;;;;;;;;;;;;;;;;;;;;",
"XX @*--*@**##*- XX;;;;XX%%&=====%XXX;;;;;;;;;;;;;;;;;;;;;;;;;;;;",
"XX #*--*@-##**** XX;;;XX%========%XX;;XXXXX;;;;;;;;;;;;;;;;;;;;;",
"XX #*-*##-#@**##* XX;;XX%========%XX;XXXXXXXX;;;;;;;;;;;;;;;;;;;",
"XX #*-*@**#@**#@@*OXX;XX%========%XXXX....XXXX;;;;;;;;;;;;;;;;;;",
"XX #*-*@-*#@**#@@#*OXXXX&oo======%XXX.+$$$..XXX;;;;;;;;;;;;;;;;;",
"XX #*-*#-##@**@@@#**OXXXooo=====&oXX +...+$$.XXX;;;;;;;;;;;;;;;;",
"XX #*-*#-#@@*#@@#*#@O  Xoo===&&&%oX +......+$.XXX;;;;;;;;;;;;;;;",
"XX #*-*#-#@@*#@@#*#@@@O o===&%%oXX ..........$.XXX;;;;;;;;;;;;;;",
"XX #***#*#@@*#@@#*@##ooO&=&=%%oXXooo.....o....$.XX;;;;;;;;;;;;;;",
"XXO#***@*#@@*#@@*#  O&&ooo==%o&Xo&&&o...ooo...+$.XX;;;;;;;;;;;;;",
"XXO#***@*#@@*#@#*# XXo&%o==&%o&o%%&&o...ooo....$.XX;;;;;;;;;;;;;",
"XXO#***@*#@@*@@#* XXXXo%%oooooooo%%%oo...oo....$.XX;;;;;;;;;;;;;",
"XXO##**@*#@@*@@#* XX;XXo%o==%o=&o%%oo&&o.ooo...+.XX;;;;;;;;;;;;;",
"XXO##**@*#@@*@@## XX;;XXo====o=&oooXXoo%oooo...+.XX;;;;;;;;;;;;;",
"XXO@#**@*#@@*@@#@ XX;;XXo====ooo&%XXXX oo%%...+ XX;;;;;;;;;;;;;;",
";XXO#*-@**#@#@@#@ XX;;XXo%==oo==XX&XXXX  ....  XXX;;;;;;;;;;;;;;",
";XXO@*-@#*#@#@@#O XX;;;XXoooX&==&&%XXXXXX    XXXX;;;;;;;;;;;;;;;",
";XXO@#-#@*#@#@@#O XX;;;;XXX&=X&ooXX&XX;XXXXXXXXX;;;;;;;;;;;;;;;;",
";XXO@#**@**@#@@@O XX;;;;;XXX&&X==&&XX;;;;XXXXX;;;;;;;;;;;;;;;;;;",
";;XXO#*-##*#@#@@O XX;;;;;XX&XX&==XXX;;;;;;;;;;;;;;;;;;;;;;;;;;;;",
";;XXO##-##*#@#@@O XX;;;;;;XX&&XXooXX;;;;;;;;;;;;;;;;;;;;;;;;;;;;",
";;XXO@#**#*#@#@@@ XX;;;;;;;XXX%%==XX;;;;;;;;;;;;;;;;;;;;;;;;;;;;",
";;;XXO##-##*#@@@@ XX;;;;;;;XX&Xo==&XX;;;;;;;;;;;;;;;;;;;;;;;;;;;",
";;;XXO@#**#*##@@@O XX;;;;;;XX&X%X&&=XX;;;;;;;;;;;;;;;;;;;;;;;;;;",
";;;;XXO##-##*##@@O XX;;;;;;XXo&%X&&=XX;;;;;;;;;;;;;;;;;;;;;;;;;;",
";;;;XX @#**#@###@@ XX;;;;;;XXoo&&==oXX;;;;;;;;;;;;;;;;;;;;;;;;;;",
";;;;;XX @#**#@@#@@O XX;;;;;XXooXXXo=&XX;;;;;;;;;;;;;;;;;;;;;;;;;",
";;;;;;XX @#**#@@#@@ XX;;;;;XX%oXXXXo=oXXX;;;;;;;;;;;;;;;;;;;;;;;",
";;;;;;;XX @#**#@@#@@ XX;;;XX%ooXX;XXo=&XXX;;;;;;;;;;;;;;;;;;;;;;",
";;;;;;;;XX @#**#@@#@@ XXXXX%o%oXX;;XXXoo%XX;;;;;;;;;;;;;;;;;;;;;",
";;;;;;;;;XX @##*#@@#@@ XXXXo%oXX;;;;XXo%&XX;;;;;;;;;;;;;;;;;;;;;",
";;;;;;;;;;XX  ##**#@@@@  XXX;;;;;;;;XX%&=&XX;;;;;;;;;;;;;;;;;;;;",
";;;;;;;;;;;XXX  ##**#@@@@  XXXXX;;;;;XX=&=XX;;;;;;;;;;;;;;;;;;;;",
";;;;;;;;;;;;XXXX  #####@@@@  XXXXXX;;;;;;;;;;;;;;;;;;;;;;;;;;;;;",
";;;;;;;;;;;;;;XXXX  O@####@@@   XXXXXXXX;;;;;;;;;;;;;;;;;;;;;;;;",
";;;;;;;;;;;;;;;;XXXXXOOO@@###@@O   XXXXXXXX;;;;;;;;;;;;;;;;;;;;;",
";;;;;;;;;;;;;;;;;;XXXXXXOOOOO@##@@@O   XXXXXXXX;;;;;;;;;;;;;;;;;",
";;;;;;;;;;;;;;;;;;;;;XXXXXXXXOOOOO@@@@@O   XXXXXXXX;;;;;;;;;;;;;",
";;;;;;;;;;;;;;;;;;;;;;;;XXXXXXXXXXOOOOOOOOOOOOOXXXXXXXX;;;;;;;;;",
";;;;;;;;;;;;;;;;;;;;;;;;;;;;;XXXXXXXXXXXXXXXXXXXXX;;;;;;;;;;;;;;",
";;;;;;;;;;;;;;;;;;;;;;;;;;;;;;;;;;XXXXXXXXXXXXX;;;;;;;;;;;;;;;;;",
";;;;;;;;;;;;;;;;;;;;;;;;;;;;;;;;;;;;;;;;;;;;;;;;;;;;;;;;;;;;;;;;",
";;;;;;;;;;;;;;;;;;;;;;;;;;;;;;;;;;;;;;;;;;;;;;;;;;;;;;;;;;;;;;;;",
";;;;;;;;;;;;;;;;;;;;;;;;;;;;;;;;;;;;;;;;;;;;;;;;;;;;;;;;;;;;;;;;",
";;;;;;;;;;;;;;;;;;;;;;;;;;;;;;;;;;;;;;;;;;;;;;;;;;;;;;;;;;;;;;;;",
";;;;;;;;;;;;;;;;;;;;;;;;;;;;;;;;;;;;;;;;;;;;;;;;;;;;;;;;;;;;;;;;",
";;;;;;;;;;;;;;;;;;;;;;;;;;;;;;;;;;;;;;;;;;;;;;;;;;;;;;;;;;;;;;;;",
";;;;;;;;;;;;;;;;;;;;;;;;;;;;;;;;;;;;;;;;;;;;;;;;;;;;;;;;;;;;;;;;",
";;;;;;;;;;;;;;;;;;;;;;;;;;;;;;;;;;;;;;;;;;;;;;;;;;;;;;;;;;;;;;;;"
};
