/* XPM */
static char *Squelette_SpriteSheet_271636046421[] = {
/* columns rows colors chars-per-pixel */
"64 64 130 2 ",
"   c #5F002A",
".  c #4C3E3C",
"X  c #772A2A",
"o  c #4F413F",
"O  c #5B3356",
"+  c #4F4240",
"@  c #524543",
"#  c #564C45",
"$  c #5A4C45",
"%  c #554C4B",
"&  c #5A4E4B",
"*  c #5C5047",
"=  c #5D514D",
"-  c #5F5452",
";  c #604F4D",
":  c #625247",
">  c #64534C",
",  c #68554D",
"<  c #69594E",
"1  c #615653",
"2  c #695751",
"3  c #655A54",
"4  c #6B5B54",
"5  c #615758",
"6  c #645B5B",
"7  c #6B5E5B",
"8  c #725D54",
"9  c #725E5D",
"0  c #6C6157",
"q  c #6D615C",
"w  c #716056",
"e  c #73625B",
"r  c #79655D",
"t  c #79685E",
"y  c #545778",
"u  c #6C6361",
"i  c #746462",
"p  c #796662",
"a  c #756A66",
"s  c #7C6A63",
"d  c #776C6A",
"f  c #7A6D6B",
"g  c #7F7065",
"h  c #7E716D",
"j  c #7E7372",
"k  c #9D0701",
"l  c #A0592A",
"z  c #D04A01",
"x  c #816E66",
"c  c #816E6A",
"v  c #827067",
"b  c #84726C",
"n  c #89756D",
"m  c #85796F",
"M  c #8B796F",
"N  c #817573",
"B  c #8A7674",
"V  c #847975",
"C  c #8C7B74",
"Z  c #867B79",
"A  c #8C7D7A",
"S  c #917D75",
"D  c #927E7B",
"F  c #EC8300",
"G  c #B38449",
"H  c #8F8077",
"J  c #8E817C",
"K  c #938177",
"L  c #93837C",
"P  c #99857E",
"I  c #96887F",
"U  c #99887E",
"Y  c #6A8580",
"T  c #8E8381",
"R  c #948582",
"E  c #998683",
"W  c #968881",
"Q  c #9C8B83",
"!  c #958989",
"~  c #9E8C8B",
"^  c #9F908E",
"/  c #9E9392",
"(  c #A18E86",
")  c #A28F8A",
"_  c #A88F8E",
"`  c #A29087",
"'  c #A4918B",
"]  c #A9948E",
"[  c #A9988E",
"{  c #A38F91",
"}  c #A49392",
"|  c #AA9593",
" . c #A69995",
".. c #AC9A94",
"X. c #AA9798",
"o. c #AD9C9A",
"O. c #B19C96",
"+. c #B39E9A",
"@. c #B89E9B",
"#. c #AEA09C",
"$. c #B1A096",
"%. c #B4A29C",
"&. c #B9A49E",
"*. c #BAA99F",
"=. c #AE9FA0",
"-. c #B39FA2",
";. c #9FB3A1",
":. c #B5A5A2",
">. c #BAA5A2",
",. c #B7A9A1",
"<. c #BDABA4",
"1. c #B7ABAD",
"2. c #BDACAA",
"3. c #BFB1A7",
"4. c #BFB1AA",
"5. c #C2A6A4",
"6. c #C2ACA6",
"7. c #C5ADA9",
"8. c #C8AFAB",
"9. c #C2B1A6",
"0. c #C4B2AC",
"q. c #CBB5AE",
"w. c #C7B8AF",
"e. c #C4AFB0",
"r. c #C5B5B1",
"t. c #C9B6B1",
"y. c #C7B8B2",
"u. c #CABAB3",
"i. c #FFD980",
"p. c #DCD5C5",
/* pixels */
"% % * % # # # # % % % % % % # % % % # # # # % % # % % % # % % % % % % % % % % % % % % % + @ @ % % % % % & % % % % % % % % % % % ",
"# @ . . . O . . o o . . o o . o . o o # % # # # @ + + + o O o o # % * % = % = % * = % = = % = = & & = % & % & ; - & & - % % # % ",
"% % d J Z Z Z Z j Z Z J Z Z j Z Z Z Z V Z Z V Z T R Z Z N 7 @ @ 1 j j j j N N N j j j j j j j j j j j j N N N N Z Z Z j j d 6 # ",
"# % J } / / ~ { / /  ./ } / / / / }  . .} } } } } o.:.:.( p & @ 3 j ! / } / } }  ./  . . . . ./  . .}  .} } } } X.X.X.1./ d 3 % ",
"# = j / ^ / ~ { } o.=.o. ./ } / } / ' } ' ' /  . .} :.:.E i @ . - j W ^ ^ ^ ^ ^ ^ ^ ^ ^ / ^ ' ^ / ^ / ~ ^ { ) }  .#.=.4./ j - % ",
"# % J } ^ } X.X.=.:.1.,.o. . .o. . . . . . .} ' o.=.u.7.' b > % 7 Z ^  . .} [ ' } ' ' } ' ' } ' } } } } } } } X.#.1.1.4.=.j - % ",
"# % J } ~ { } X.=.-.2.:.o.X. . .[ ' } ' ' ^ ^ ' o.<.y.,.' N 4 2 p T ^  .] ^ ^ ^ ' ` ^ ' ^ ' ' ^ ~ ' ^ ' ~ ) / }  .:.1.4.#.V - & ",
"# = T  .} | } } X.o.#.+.#.X.} } ^ ^ ' ' ^ ^ ^ ' #.<.w.,.Q b 4 2 s D '  .' ` ~ ~ ~ ~ ( ` ~ ^ ~ ~ ' ~ ) ~ ) ) ~ } X.:.1.4.#.j - # ",
"& % A X.X.-.-.X.X.} { { X.o.X.| ' ' ' ' ' ^ ^ ] #.<.w.<.Q b 4 2 p L ) | ' ^ ` ~ ' ) ) ^ ) ) ) ' ' ~ ' ~ ) ) _ _ o.%.1.r.o.N 1 # ",
"% % A X.X.-.-.-.X.E B A ) X.+.o...[ ' ^ ' ' ' ] ..<.t.<.! n 4 , s D ^ | ] ) ( ' ) ) ' ( ) ) ) ' ' ' ' ' ) ) ) | o.-.2.e.=.N - # ",
"% & A X.@.5.e.-.{ B 9 9 A ' +.%.O...] ' ^ ` ' ] $.<.t.<.O O O O O O O O O ' ) ( ( ' ) ( ( ' ' ' ' ~ _ ) ) ) ) ] X.+.6.e.#.V 1 # ",
"% & A X.-.5.e.-.E c 7 9 B ) o.+.+.[ ] ' ' ~ ' ' ..6.q.O O O O O O O O O O O ' ' ' ` ' ) ' ` ~ ( ) ' ) ) ) ) ) ] O.@.2.r.%.N = # ",
"$ & T X.X.X._ E D c p c D E ( ' ] ] ' ) ` ` ' ' O.6.O O O Y Y Y Y Y Y Y O O O ` ) ` ' ~ ` ) ~ ' ) ~ ' ( ) ) ) ' O.+.2.r.#.V - # ",
"# & T o.~ D c c c n B D S B B S K U ( ( ( ` ~ ] ..O O O Y p.p.p.p.p.;.;.Y O O O ' ) ( ' ` ' ' ' ' ' ) ' ' ( _ ] o.+.<.0.:.V - # ",
"# & R  .D f 9 9 p N D P C c x s b S W ( ' ~ ' ' ..O O Y p.p.p.p.p.p.p.p.;.Y O O ( ) ' ` ' ) ' ( ) ' ' ) ' ) ( ] O.@.<.w.%.V - # ",
"# & T ^ B c 9 9 c B E E B c s s c C U ( ( ` ` ] O.O O Y p.p.p.p.p.p.p.p.p.Y O O ' ' ( ' ( ' ) ' ' ( ' ' ` ) ' ] O.$.<.r.#.V - # ",
"% & Z A B c s c B E ( ~ D b c b n S U ( ( ) ) ' O.O O Y p.p.p.p.p.p.p.p.p.y O O ` ' ' ' ` _ ` ' ' ' ' ` ` ] ` ] O.@.6.9.%.V 1 # ",
"% & f N N B N A R ~ ) ) E D B S S E ( ( ( ( ' ' O.O O Y p.p.p.p.p.y y p.p.y O O ' ' ` ' ' ` ] ' ` ' ' ' ` _ _ ] O.&.9.q.:.V 1 # ",
"# & d a c D D E ~ ) | } ) E E P ( ( ) ( ( ` ' ' ..O O y ;.p.p.p.p.y y y ;.Y O O ' ' ' ` ` _ ` ' ` ' ) ' ` ` ` ] O.&.6.9.:.V 1 # ",
"# & d d c D ~ { _ ' _ | | _ ( ( ) ] ' _ ' ` ' ] O.O O y Y ;.;.;.p.p.y y ;.y O O ` O ' ` ' ` ' ' ' ' ' ` _ ` ` ] [ &.9.8.#.V - # ",
"& % f N N E { _ ) { ' ' _ _ ) ) ' ' ` _ ' ' ' ] O.6.O O y y Y Y ;.p.p.p.y y O O O O O ] ' ' ' ' ' ` ' ) ` ( ] ] O.%.6.r.:.V - # ",
"% % j A B ! _ { ) ) ) ) ) ( ( ( ' ( ( ( ( ( ` ] $.<.w.O O y y Y Y ;.p.p.;.O O O O   O O ( ) ( ` _ ( ( ' ( ( U ] O.:.7.r.%.V - # ",
"% ; N ! E E { { _ ) ( ( ( Q ( ( ( ( ( ( ( ( ( ' O.6.q.<.O y Y y Y p.y y y O O ( O k   O O ( ( ( ( ( ( ( ( ( ( ] O.&.2.y.:.Z - # ",
"% & Z { { { { _ ' { { ) _ ) ` ) ( _ _ ( ( ' ] ] O.6.q.O O O y y Y ;.p.p.y O O ` O k   O O ( ' ` ( ` ) ( ( ( ` ] O.>.0.y.#.j - # ",
"% & A =.X.X.X.X.X.@.X.X.] | ] ] ] ] ] ] [ [ O.O.&.6.O O y y y y y y y y y O O O O k i.  O O ] ] ] ] ] ] ] ] ] O.$.>.7.r.:.Z 1 # ",
"@ ; T 1.-.-.>.>.>.-.@.@.@.@.@.@.&.%.@.&.&.$.&.*.<.O O y ;.p.p.p.y Y Y ;.y X X O O k i.  O O $.O.$.@.@.@.@.@.@.@.&.6.t.u.=.N 3 # ",
"% & T r.2.2.7.e.7.7.8.8.6.8.7.7.9.6.7.6.6.6.0.9.9.O O Y p.p.p.p.;.y y y ;.G G X k i.i.  O O 9.7.6.6.8.5.6.6.7.5.7.0.u.u.o.j - % ",
"# - T 1.-.1.7.7.7.8.7.8.8.7.0.9.7.6.6.6.<.6.9.0.9.O O y ;.p.p.;.Y y Y y y l G G k i.i.k O O 0.7.6.6.5.8.5.8.7.5.6.7.t.0. .h 3 # ",
"# & Z  .~ ) o.O.@.| O.O.O.O.+.+.O.........[ ..$.%.O O y y Y Y Y y p.X y X X X k i.z i.  O O O.O.@.O.O.O.O.O.X.O.O.O.-.-.! d 7 # ",
"# & N Z j B A D D D A S D D H H H K H C C H K L U O O y p.y y y ;.y ;.Y X X X k i.z i.  O O C H S S S S A D D D D D D R V u 3 # ",
"% & 1 9 3 4 3 4 2 2 2 4 4 6 4 3 3 < < < < < 0 0 e O O y p.y Y p.;.;.y Y y X   i.z F   O O 3 0 0 3 4 2 3 3 2 2 4 4 2 3 > $ # % # ",
"% & & & & ; & % & & % $ * * * * * * * $ # o * * > O O   y p.y y y X ;.y y   F z F   X O O o o o # @ $ @ $ @ @ $ & @ $ & $ # # # ",
"% % ; - 5 4 q u q q q 0 q 0 e e 0 0 0 0 0 0 0 e s O O   Y p.y p.;.;.X y   F k F   G X O O 0 0 0 0 0 0 3 4 3 4 9 r 9 9 p i 5 - % ",
"@ % j c s N Z Z Z V V C H H C C H m H H m m H H K U O O y y p.y ;.X X   z k F   y G X O O m V N j j h h c c c B A B D R Z 7 5 & ",
"% & N T A R E E ! W W ! W W Q U I I I I L L I Q ' ..O O   y p.p.y   k   k F   y X l X O O W W W W W I I E E D ( ( { +.X.R i 7 & ",
"% & N ~ E ) _ { ' ' ' ' ' ' ' ` ` ` ^ ` Q ^ ~ ] $.*.<.O O   y p.p.z z k     X X l   O O [ ......X...[ ..| | O.O.+.@.>.>.~ d u & ",
"$ = V } { } _ | | _ _ ' ' ] ] ' [ ] ` ' ' ' ] [ %.9.0.O O p.;.y p.z i.F k X X X   O O O.O.O.O.O.@.O.@.O.@.@.5.@.+.@.+.O.! i u & ",
"$ & j } { _ _ _ _ _ _ _ ` _ _ _ ] ] ' ' ( ' ` ] %.3.O O p.;.y Y y F i.i.F X l   O O [ O.O.@.@.&.@.5.5.5.5.5.5.5.@.) E R N 3 - & ",
"% & Z } { | | { _ _ ' _ _ ' _ ' ` _ ' ` ' ( ' ] $.<.O O ' p.y Y p.F i.F k     O O ] ] ] O.&.5.5.6.5.8.q.8.q.q.8.X.D c 9 4 % % % ",
"# & N / { | { _ ' ' _ ' ' _ ' ' ' ' ' ' ( ' ` ] O.,.O O O p.y p.z i.F k O O O O ] ] O.] ] &.6.7.8.q.q.q.q.q.q.5._ S p 7 ; @ % @ ",
"# = V } { } _ _ _ _ _ ' _ ' _ ' _ ' _ ` ` ( ( ] O.*.9.O O n y y k z k ;.O O O ' [ [ ..[ ..O.@.@.O.O.O.O.O.O.[ ] ( S M s 9 ; % % ",
"# & N } { } { } } _ ' ) _ ' _ ] ' ' ' _ ` _ ' ] O.&.9.O O Y ;.O O y Y Y O O ' [ [ ..O...] ) U P S S M M M S M n S P E K b 7 3 = ",
"# = N } _ } _ } { ' { ' ) ' ' ' ' ` ] ` ( ' ` ] O.*.7.O O Y p.O O y Y O O ] ] ] ..O.%.$.] K c r x 8 x , x 8 8 r n P O.| ! a 6 = ",
"# = j } { | _ { ' _ ' ' ' ' ' ' ' ' _ ` ' ` ' ' O.&.O O y p.p.O O y y Y O O ] [ ..O.%.O.( M r , : , , , : : , 8 x ( @.&.} h 6 = ",
"% & N X.{ { { _ _ ) ' { _ _ ' ' ' ' ' ) ' ` ' ] ..&.O O ;.;.O O O y ;.;.Y O O ......| ' Q n r 8 , , 8 8 8 8 8 w n ` ,.2. .h 6 * ",
"# & N { { | | { _ } _ ' ` ] ' ' ' ' ' ' ( ' ' ' O.*.O O y y ;.O O O y Y ;.O O O...` U S C n c x x x x x x x x v P ..6.0.X.h 6 = ",
"# & N { | } _ _ _ ) ) _ ' ' ` ' ] ` ' ) ' ' ` ' ..*.O O ;.;.p.;.O O ] ..%.&.,.%.] L n x v n B S S S D D P K S P ( %.w.w.#.d - - ",
"% & N X.{ } { ) ' _ ] ) ] ' _ ] ` _ ' ' ( ( ' ] O.*.0.O O p.;.p.O K ] O.&.<.<.%.` M s r x n S P ( ( ( ( ` U U ( [ &.r.y.o.d - - ",
"% & N  .} | { _ } _ _ ) ' ' ' ] ` ' ' ` ' ` ` ] ..,.0.6.] b < , s K ] O.%.&.&.[ P b t s v M U U ( _ ` ' O.U ] O.O.5.q.q.$.a - = ",
"% = N } { | { ] ' ' } ' ' ' ] ' ] ' ' ' ` ' ~ ] ..*.9.6.[ b < , s U [ %.$.[ ( L S b b n M K U U ( ` ' ' U ] [ U U @.9.q.$.g - = ",
"% & N } { } } ' } ' ' ' } ' ' ' ' ] ' [ ` ` ' ] ..&.9.6.[ b < < x E $.*...P v v x n C K P U U Q ( ` ` ` U ] U [ $.@.8.q.#.d 6 = ",
"% ; N } } | } _ _ ' } ' ' ' ' ' ` ] ` ` ' ` ` ] ..*.9.<.` v 8 < x ` <.9.[ M w 0 r b K U ` ` ` ^ ` ' ` ` O.U ] U O.@.q.q.#.h - = ",
"# = j  .} | ' } ' ' ^ ' ' ' ' ] ` [ ` ` ` ` ` [ $.*.9.9.' v < < v ' 9.9.[ v < : e n K ` ` [ ` ` ' ` ` ` ` ` U ] ] %.0.u.#.d - = ",
"# = j | ' | } } } ' ' ' ' ' ' ' ` [ ` ` Q ` ' ` ..*.9.9.[ v < < s ' 9.*.[ v < < t M U ` [ ` ` [ ] ` ` ` ` ` ] U ] %.w.y.#.a - = ",
"# = j } ^ ' ' ) ' ' ` ' ' ` ' ' [ ` ` ` ` Q ^ ` ..*.9.<.` n < : g ` *.*.` v < < t H U Q ` ` ` ` ` ` ` ` ` ` ` ] ] &.4.y.#.d - - ",
"# = N } } | ' ' ' ^ ' ` ~ ~ ' ` U ^ ` ^ Q ` Q [ $.*.9.<.[ v < : t U *.*.` v < < t K U ` ` ` Q ^ ` ` ` ` ( U U ] ] &.w.y.#.j - - ",
"# & N o.| X.| } ' } ' } ' ] ' ' ' ] ' ^ ^ ` ' [ $.*.9.3.] b , : e K X...Q v e q v I ^ ' ` ' ' ` ` ^ ' ` ` ' ` ' [ &.r.r.o.d - - ",
"# & Z 1.>.:.-.-.%.#.:.o.#.#.$.#.$.#.#.$.$.$.#.%.*.3.w.3.[ b 4 > 0 v K E L C m C Q  .o.$.$.$.o.$.$.......[ ..O...$.6.r.r. .f - - ",
"% ; Z r.r.r.e.e.r.e.4.4.0.4.0.4.4.4.4.4.3.4.4.w.0.w.y.3.` h 4 > < r s b H W ' $.,.3.1.4.4.4.4.3.3.4.4.3.9.9.<.3.6.9.u.u.o.j - - ",
"% & Z 4.r.u.t.t.r.r.r.r.r.w.r.w.r.w.w.4.4.4.r.y.u.u.r.*.Q g 2 ; > 4 r a V ^ #.<.4.4.0.w.r.r.r.y.y.w.r.w.y.9.0.0.9.0.y.y.=.j 6 - ",
"% = j o.=.:.1.:.:.:.:.:.:.,.,.:.,.:.#.,.#.:.:.<.3.3.%.[ C e > & % 2 4 q h W /  . . .#.#.#.#.#.#.#.#.#.%.#.$.%.*.,.,.:.#./ d - - ",
"# = h Z D R R R R R R R R T W W R L W J J J T Q ^ ^ I V s 8 & % $ = 1 3 q m Z H H H H J J J L R J J J J L L L Q ^ W J T j u - - ",
"# & q 7 7 u u 7 u q u 7 q u q q q q q q q q q u a d q = & @ @ % @ # = * > a d a h d h h h h h h h h h h h g v V m h a a u - 6 - ",
"# % 1 6 3 5 1 1 1 1 1 1 1 - - - 1 - - - - - - < = 1 = % & & % % @ % % # = = = = = = = = = = - = - = > = 1 = 1 1 = = - - - - - % "
};
