/* XPM */
static char *result[] = {
/* columns rows colors chars-per-pixel */
"64 64 15 1 ",
"  c #5F002A",
". c #772A2A",
"X c #5B3356",
"o c #545778",
"O c #9D0701",
"+ c #A0592A",
"@ c #D04A01",
"# c #EC8300",
"$ c #B38449",
"% c #6A8580",
"& c #9FB3A1",
"* c #FFD980",
"= c #DCD5C5",
"- c white",
"; c None",
/* pixels */
";;;;;;;;;;;;;;;;;;;;;;;;;;;;;;;;;;;;;;;;;;;;;;;;;;;;;;;;;;;;;;;;",
";;;;;;;;;;;;;;;;;;;;;;;;;;;;;;;;;;;;;;;;;;;;;;;;;;;;;;;;;;;;;;;;",
";;;;;;;;;;;;;;;;;;;;;;;;;;;;;;;;;;;;;;;;;;;;;;;;;;;;;;;;;;;;;;;;",
";;;;;;;;;;;;;;;;;;;;;;;;;;;;;;;;;;;;;;;;;;;;;;;;;;;;;;;;;;;;;;;;",
";;;;;;;;;;;;;;;;;;;;;;;;;;;;;;;;;;;;;;;;;;;;;;;;;;;;;;;;;X;;;;;;",
";;;;;;;;;;;;;;;;;;;;;;;;;;;;;;;;;;;;;;;;;;;;;;;;;;;;;;;;XXX;;;;;",
";;;;;;;;;;;;;;;;;;;;;;;;;;;;;;;;;;;;;;;;;;;;;;;;;;;;;;;XX XX;;;;",
";;;;;;;;;;;;;;;;;;;;;;;;;;;;;;;;;;;;;;;;;;;;;;;;;;;;;;XX # XX;;;",
";;;;;;;;;;;;;;;;;;;;;;;;;;;;;;;;;;;;;;;;;;;;;;;;;;;;;XX *# XX;;;",
";;;;;;;;;;;;;;;;;;;;;;;;;;;;;;;;;;;;;;;;;;;;;;;;;;;;XX --*@ XX;;",
";;;;;;;;;;;;;;;;;;;;;;;;;;;;;;;;;;;;;;;;;;;;;;;;;;;XX -*-*# XX;;",
";;;;;;;;;;;;;;;;;;;;;;;;;;;;;;;;;;;;;;;;;;;;;;;;;;XX -**-*# XX;;",
";;;;;;;;;;;;;;;;;;;;;;;;;;;;;;;XXXXXXXXX;;;;;;;;;XX -*#**-*@ XX;",
";;;;;;;;;;;;;;;;;;;;;;;;;;;;;;XXXXXXXXXXX;;;;;;;XX -**##*--# XX;",
";;;;;;;;;;;;;;;;;;;;;;;;;;;;;XXX%%%%%%%XXX;;;;;XX -*#**#*--# XX;",
";;;;;;;;;;;;;;;;;;;;;;;;;;;;XXX%=====&%%XX;;;;XX -*##**@*--*@ XX",
";;;;;;;;;;;;;;;;;;;;;XXXXX;;XX%========%XX;;;XX ****##-@*--*# XX",
";;;;;;;;;;;;;;;;;;;XXXXXXXX;XX%========%XX;;XX *##**@#-##*-*# XX",
";;;;;;;;;;;;;;;;;;XXXX....XXXX%========%XX;XXO*@@#**@#**@*-*# XX",
";;;;;;;;;;;;;;;;;XXX..$$$+.XXX%======oo&XXXXO*#@@#**@#*-@*-*# XX",
";;;;;;;;;;;;;;;;XXX.$$+...+ XXo&=====oooXXXO**#@@@**@##-#*-*# XX",
";;;;;;;;;;;;;;;XXX.$+......+ Xo%&&&===ooX  O@#*#@@#*@@#-#*-*# XX",
";;;;;;;;;;;;;;XXX.$.......... XXo%%&===o O@@@#*#@@#*@@#-#*-*# XX",
";;;;;;;;;;;;;;XX.$....o.....oooXXo%%=&=&Ooo##@*#@@#*@@#*#***# XX",
";;;;;;;;;;;;;XX.$+...ooo...o&&&oX&o%==ooo&&O  #*@@#*@@#*@***#OXX",
";;;;;;;;;;;;;XX.$....ooo...o&&%%o&o%&==o%&oXX #*#@#*@@#*@***#OXX",
";;;;;;;;;;;;;XX.$....oo...oo%%%oooooooo%%oXXXX *#@@*@@#*@***#OXX",
";;;;;;;;;;;;;XX.+...ooo.o&&oo%%o&=o%==o%oXX;XX *#@@*@@#*@**##OXX",
";;;;;;;;;;;;;XX.+...oooo%ooXXooo&=o====oXX;;XX ##@@*@@#*@**##OXX",
";;;;;;;;;;;;;;XX +...%%oo XXXX%&ooo====oXX;;XX @#@@*@@#*@**#@OXX",
";;;;;;;;;;;;;;XXX  ....  XXXX&XX==oo==%oXX;;XX @#@@#@#**@-*#OXX;",
";;;;;;;;;;;;;;;XXXX    XXXXXX%&&==&XoooXX;;;XX O#@@#@#*#@-*@OXX;",
";;;;;;;;;;;;;;;;XXXXXXXXX;XX&XXoo&X=&XXX;;;;XX O#@@#@#*@#-#@OXX;",
";;;;;;;;;;;;;;;;;;XXXXX;;;;XX&&==X&&XXX;;;;;XX O@@@#@**@**#@OXX;",
";;;;;;;;;;;;;;;;;;;;;;;;;;;;XXX==&XX&XX;;;;;XX O@@#@#*##-*#OXX;;",
";;;;;;;;;;;;;;;;;;;;;;;;;;;;XXooXX&&XX;;;;;;XX O@@#@#*##-##OXX;;",
";;;;;;;;;;;;;;;;;;;;;;;;;;;;XX==%%XXX;;;;;;;XX @@@#@#*#**#@OXX;;",
";;;;;;;;;;;;;;;;;;;;;;;;;;;XX&==oX&XX;;;;;;;XX @@@@#*##-##OXX;;;",
";;;;;;;;;;;;;;;;;;;;;;;;;;XX=&&X%X&XX;;;;;;XX O@@@##*#**#@OXX;;;",
";;;;;;;;;;;;;;;;;;;;;;;;;;XX=&&X%&oXX;;;;;;XX O@@##*##-##OXX;;;;",
";;;;;;;;;;;;;;;;;;;;;;;;;;XXo==&&ooXX;;;;;;XX @@###@#**#@ XX;;;;",
";;;;;;;;;;;;;;;;;;;;;;;;;XX&=oXXXooXX;;;;;XX O@@#@@#**#@ XX;;;;;",
";;;;;;;;;;;;;;;;;;;;;;;XXXo=oXXXXo%XX;;;;;XX @@#@@#**#@ XX;;;;;;",
";;;;;;;;;;;;;;;;;;;;;;XXX&=oXX;XXoo%XX;;;XX @@#@@#**#@ XX;;;;;;;",
";;;;;;;;;;;;;;;;;;;;;XX%ooXXX;;XXo%o%XXXXX @@#@@#**#@ XX;;;;;;;;",
";;;;;;;;;;;;;;;;;;;;;XX&%oXX;;;;XXo%oXXXX @@#@@#*##@ XX;;;;;;;;;",
";;;;;;;;;;;;;;;;;;;;XX&=&%XX;;;;;;;;XXX  @@@@#**##  XX;;;;;;;;;;",
";;;;;;;;;;;;;;;;;;;;XX=&=XX;;;;;XXXXX  @@@@#**##  XXX;;;;;;;;;;;",
";;;;;;;;;;;;;;;;;;;;;;;;;;;;;XXXXXX  @@@@#####  XXXX;;;;;;;;;;;;",
";;;;;;;;;;;;;;;;;;;;;;;;XXXXXXXX   @@@####@O  XXXX;;;;;;;;;;;;;;",
";;;;;;;;;;;;;;;;;;;;;XXXXXXXX   O@@###@@OOOXXXXX;;;;;;;;;;;;;;;;",
";;;;;;;;;;;;;;;;;XXXXXXXX   O@@@##@OOOOOXXXXXX;;;;;;;;;;;;;;;;;;",
";;;;;;;;;;;;;XXXXXXXX   O@@@@@OOOOOXXXXXXXX;;;;;;;;;;;;;;;;;;;;;",
";;;;;;;;;XXXXXXXXOOOOOOOOOOOOOXXXXXXXXXX;;;;;;;;;;;;;;;;;;;;;;;;",
";;;;;;;;;;;;;;XXXXXXXXXXXXXXXXXXXXX;;;;;;;;;;;;;;;;;;;;;;;;;;;;;",
";;;;;;;;;;;;;;;;;XXXXXXXXXXXXX;;;;;;;;;;;;;;;;;;;;;;;;;;;;;;;;;;",
";;;;;;;;;;;;;;;;;;;;;;;;;;;;;;;;;;;;;;;;;;;;;;;;;;;;;;;;;;;;;;;;",
";;;;;;;;;;;;;;;;;;;;;;;;;;;;;;;;;;;;;;;;;;;;;;;;;;;;;;;;;;;;;;;;",
";;;;;;;;;;;;;;;;;;;;;;;;;;;;;;;;;;;;;;;;;;;;;;;;;;;;;;;;;;;;;;;;",
";;;;;;;;;;;;;;;;;;;;;;;;;;;;;;;;;;;;;;;;;;;;;;;;;;;;;;;;;;;;;;;;",
";;;;;;;;;;;;;;;;;;;;;;;;;;;;;;;;;;;;;;;;;;;;;;;;;;;;;;;;;;;;;;;;",
";;;;;;;;;;;;;;;;;;;;;;;;;;;;;;;;;;;;;;;;;;;;;;;;;;;;;;;;;;;;;;;;",
";;;;;;;;;;;;;;;;;;;;;;;;;;;;;;;;;;;;;;;;;;;;;;;;;;;;;;;;;;;;;;;;",
";;;;;;;;;;;;;;;;;;;;;;;;;;;;;;;;;;;;;;;;;;;;;;;;;;;;;;;;;;;;;;;;"
};
