/* XPM */
static char *Squelette_SpriteSheet_281636046421[] = {
/* columns rows colors chars-per-pixel */
"64 64 127 2 ",
"   c #5F002A",
".  c #4C3E3C",
"X  c #772A2A",
"o  c #4F413F",
"O  c #5B3356",
"+  c #4F4240",
"@  c #524543",
"#  c #564C46",
"$  c #594D46",
"%  c #554C4B",
"&  c #5A4E4B",
"*  c #5C5047",
"=  c #5D514D",
"-  c #5F5452",
";  c #604F4D",
":  c #625247",
">  c #64534C",
",  c #68554D",
"<  c #69594E",
"1  c #615653",
"2  c #695751",
"3  c #645955",
"4  c #6B5A54",
"5  c #615758",
"6  c #645B5B",
"7  c #6B5E5B",
"8  c #725D54",
"9  c #725E5D",
"0  c #6D615C",
"q  c #716056",
"w  c #74625B",
"e  c #79655E",
"r  c #79685E",
"t  c #545778",
"y  c #6C6361",
"u  c #746462",
"i  c #7A6661",
"p  c #756A66",
"a  c #7C6A64",
"s  c #776C6A",
"d  c #7A6D6B",
"f  c #7F7065",
"g  c #7E716D",
"h  c #7E7372",
"j  c #9D0701",
"k  c #A0592A",
"l  c #D04A01",
"z  c #816E66",
"x  c #816E6A",
"c  c #827067",
"v  c #84726C",
"b  c #89756D",
"n  c #8B796F",
"m  c #817573",
"M  c #8A7674",
"N  c #847976",
"B  c #8C7B74",
"V  c #867B79",
"C  c #8C7D7A",
"Z  c #917D75",
"A  c #927E7B",
"S  c #EC8300",
"D  c #B38449",
"F  c #8F8077",
"G  c #8E817C",
"H  c #938177",
"J  c #93827C",
"K  c #99857E",
"L  c #99887E",
"P  c #6A8580",
"I  c #8E8381",
"U  c #948582",
"Y  c #998683",
"T  c #968882",
"R  c #9C8A83",
"E  c #958989",
"W  c #9E8C8B",
"Q  c #9F908E",
"!  c #9E9392",
"~  c #A18E86",
"^  c #A28F8A",
"/  c #A88F8E",
"(  c #A29087",
")  c #A4918B",
"_  c #A9948E",
"`  c #A9988E",
"'  c #A38F91",
"]  c #A49392",
"[  c #AA9593",
"{  c #A69995",
"}  c #AC9B94",
"|  c #AA9798",
" . c #AD9C9A",
".. c #B19C96",
"X. c #B39E9A",
"o. c #B89E9B",
"O. c #AEA09C",
"+. c #B1A096",
"@. c #B4A29C",
"#. c #B9A49E",
"$. c #BAA99F",
"%. c #AE9FA0",
"&. c #B39FA2",
"*. c #9FB3A1",
"=. c #B5A5A2",
"-. c #BAA5A2",
";. c #B7A9A1",
":. c #BDABA4",
">. c #B7ABAD",
",. c #BDACAA",
"<. c #BFB1A7",
"1. c #BFB1AA",
"2. c #C2A6A4",
"3. c #C3ACA6",
"4. c #C5ADAA",
"5. c #C8AFAB",
"6. c #C2B1A6",
"7. c #C4B2AC",
"8. c #CAB5AE",
"9. c #C7B8AF",
"0. c #C4AFB0",
"q. c #C5B5B1",
"w. c #C9B6B1",
"e. c #C7B8B2",
"r. c #CABAB3",
"t. c #FFD980",
"y. c #DCD5C5",
/* pixels */
"% # * % @ # # # # % % % # % % % % % # # # # # % % % % % # % % % % % % % % % % % % % % % + % % % % % % % % % % % % % % % % % % % ",
"# @ . . o O o o . o o o o o . o o o o # % % % # @ o + + o O + + # * & $ & & & $ = * $ & & % & = % = & % & & & = = & % = % & % % ",
"% % s C V V V V h V V I V G h h V V V V N N N V G I V V m 3 # @ - h h h h N h N h h h h h h h h N h h N N h m m V V V V h s 5 # ",
"# % I { ! ! ' W ! ! ! ! ! ! ! { ] ] ! { ] ] ] ] {  .=.;.W i $ @ 6 h E ! ! ! ] ! ! { { { ] { { ] ] ! ] ] ] ' ] { | | | >.! d 1 & ",
"# * V Q Q ] W ' { |  . .! ! ] ! ] ] ! ) ) ) ! { ] { @.=.R u @ . - h E W ! W W Q Q Q Q ! Q Q ) ! ! ! ! Q Q Q ^ ] { { %.>.! h - % ",
"% % V ! W ] ' | %.=.,.>.O.{ {  .{ { { } { { ] ]  .%.r.,._ v ; & 7 C W { { { ) _ ] ) ] ) ) ] ] ) ) ] ] ] ] ' ] | %.>.1.1.%.h - % ",
"# = G ! W ^ ' |  .=.,.=. .| { { ] ) ) ] ) ! ) )  .:.e.:.^ m 4 2 u I ! { _ ( Q Q Q ( ) ( Q Q ) Q Q ) Q ^ ^ Q ' ]  .=.1.1.O.N - % ",
"# = G { ] | | | | %. .@. .| { ) ( Q Q ) ( Q W (  .,.9.;.R v 4 2 a A ) { ) Q ( W W ^ W W ^ ( W ) ( W ^ ^ ^ ^ W ]  .=.>.1.O.h - # ",
"% & C | | &.| | | ] ' ' |  .| [ ( Q ) ) Q ( ( {  .<.8.;.R v 4 , i J ^ [ ) Q ( Q ^ ( ^ W ^ ) ^ W ) ) ) ^ ^ ^ / ]  .X.,.0.%.h - # ",
"% & C | | &.2.&.] Y M C ^ | X. .} _ ] ) ) ( Q _ ..:.e.:.R M 4 , a A ^ { _ ( ^ ^ ^ ^ ) ( ^ ^ ^ ) Q W ) ^ ^ ~ / ]  .&.,.0.%.N - # ",
"% & C | | 2.0.>.' M 9 9 Z ] X.@.X.} _ ) ) ( ) ] ..:.8.:.R v 4 , a H ^ _ _ ^ ^ ( ^ ) ^ ^ ^ ( ) ( ( ) / ^ ^ ^ ^ ] } X.,.q.O.N 1 # ",
"% & C | &.0.2.&.Y x 7 9 M ^  .X...} _ ) Q ( ^ _ } 3.8.:.Y O O O O O O O O O ( ^ ( ( ( ^ ^ ( ^ ^ ^ ^ ^ ^ ^ ^ ~ _ } o.,.0.O.N = # ",
"# & C | | | / Y A x a x Z Y ~ _ _ _ ) ) ( ^ ( ) +.:.8.:.O O O O O O O O O O O ^ ^ ) ( ^ ^ ^ ^ ^ ^ ^ ^ ^ ^ / ~ _ } X.,.7.@.N - # ",
"# & U  .W A x x x v M Z C M M Z H R R ( ^ ( ~ _ } :.8.O O O P P P P P P P O O O ( ^ ( ^ ) ( ) ^ ) ^ ) ( ) ~ ~ _ ..o.:.q.O.N - # ",
"% = U | A d 9 9 i M A K M x a z v B R ~ ^ ~ ) ) } :.O O O P y.y.y.y.y.*.*.P O O O ^ ) ) ( ^ ( ) ^ ) ) ^ / ( ~ _ } @.:.7.@.N 1 # ",
"% % I W M d 9 9 x M Y Y M z a a z B K ~ ^ ( ~ ) ..:.O O P y.y.y.y.y.y.y.y.*.P O O ) ^ ( ^ ) ) ^ ) ) ^ ( ( ) ) _ ..o.:.9.O.N - # ",
"# & N I M x d x M Y ~ W Z v x v b Z Y ~ ~ ) ~ ) } :.O O P y.y.y.y.y.y.y.y.y.P O O ) ) ) ) ( ) ) ( ( ) ) _ ( ( _ o.o.3.7.@.N 1 # ",
"# & g m x M M M U W ^ ^ Y A B M A K ~ ~ ~ ~ ( _ ..:.O O P y.y.y.y.y.y.y.y.y.t O O ) ( ) ) ) ( ) _ ^ ) ( / ( ( _ ..#.6.7.@.N - # ",
"# % s p x A A Y W / ] _ / W K K ~ ~ ~ ~ ^ ^ ( _ } :.O O P y.y.y.y.y.t t y.y.t O O ) ) ( ( ) ) ( ( / ^ ) ( ( ( _ ..#.3.9.@.N 1 # ",
"# = s s x A Y ' ^ / _ ] ] / ~ ~ / ) ) ) ( ( ( _ ..:.O O t *.y.y.y.y.t t t *.P O O _ ) ( ) ) ) ) ( ) ) ) ( ( _ _ ..+.3.5.=.N - # ",
"% & d m m Y ' ' ' ' / ) / ^ / ^ _ ^ / ^ ) ( ) _ +.3.O O t P *.*.*.y.y.t t *.t O O ( ( ( ( ) ) ) ) ) ) ( / ~ ( _ } #.4.7.O.N - # ",
"% & h C C E / ' ^ ^ ^ ^ ~ ~ ~ ~ ~ ~ ( ( ^ ^ ( _ ..3.8.O O t t P P *.y.y.y.t t O O O ( ( ~ / ( ~ ~ / ( ~ ~ ~ ( _ } #.4.q.=.N - # ",
"% & m E Y Y ' ' ^ ^ ~ ^ ~ W ~ ~ ~ ( ( ~ ~ ~ ^ ) O O O O O O O t P P *.y.y.*.X X O t O O ~ ~ ~ ~ ~ ~ R ^ ~ R ~ ) ..$.1.q.=.V - # ",
"% & V ' ' ' ' / ^ / / ^ ^ ^ ^ ( ^ ^ ^ ( ~ ) ) O O O O O O O O P t P y.t t t D D X j O O O ^ ( ~ ( ~ ( ) ~ ~ ( _ ..-.7.e.O.h - # ",
"% & C %.| | | |  . .| [ _ [ _ _ _ _ _ [ ` ` O O t t t t O O O P t P *.y.y.t X X D D X O O O _ _ _ _ _ _ _ _ _ ..+.-.4.q.=.N - # ",
"# & I >.&.&.=.-.&.2.2.o.o.o.o.#.o.#.o.#.@.O O t *.y.y.y.t O O t t t t t t t X X X k D X O O O ....o...o.o.o.o.&.$.3.w.w.%.N 1 # ",
"% & U 0.>.4.4.0.4.5.4.4.4.4.4.4.6.3.3.3.:.O O P y.y.y.y.*.t *.P P   t P P P t X X X k D X O O O 3.3.2.5.5.2.4.2.3.7.r.w. .h 1 % ",
"% = I >.=.-.4.4.4.4.4.4.5.4.7.6.6.3.3.3.$.O O t *.y.y.*.P t t P P P t P P P t X X X X k D X O O O 5.5.2.5.5.2.2.3.4.w.q.{ g 3 # ",
"% & V { W '  .X.o.| X...X.X.X.......} } } } O O t P P P t O *.t t *.X t t t X X X X t t X D X O O ........[ ..o...X.=.&.W s 7 # ",
"$ & h V h M C C A Z Z C Z C F F F H B F F O O *.y.t t t *.*.P P O O *.X t P t X X P *.P X k D X O O Z Z C A A A A A A U N 0 6 # ",
"% $ 1 w 3 4 3 4 2 2 2 2 4 7 3 4 4 4 < < O O *.y.P t O y.O O P P P *.  X t P t t *.*.*.t X X D X O O , 4 2 2 2 4 2 2 2 = # # # # ",
"# & & & & ; & $ & $ & & $ $ * * * $ # O O *.y.P O O O O y.*.t t O O *.X X t P *.P t X X X X k D X O O # # @ # # # # & $ $ # # # ",
"@ % = = 5 7 w y 0 0 0 0 0 0 w w 0 0 O O *.t P O O O O y.O O P P P *.O   X X t t X X X X X X X D X O O 4 4 3 4 9 9 9 9 i u - - & ",
"# & h h d x V V N N F V F B B B F B O O y.P O O J R O O y.*.P P O O *.O   X X X X X X X X X X D   O O c x x v M Z B A U V 7 5 & ",
"$ & h A C A Y Y T T T T L T R L L L O O y.P O O O } ..O O O t t O O O O O   X X X X X X X X X D   O O T Y Y K ~ ^ ' X. .U y 7 = ",
"% & m W W ' ^ / ) ) ( ) ) Q ) ( ( Q O O *.P O O O O O O O *.t P t t t O O O   X X X X X X X X k   O O } [ [ [ o.X.X.-.-.W p y = ",
"# & V ] ' ] / | ] ] / _ ) ) ) _ ` _ O O P y.*.l j O O O *.P P P t P t O O O O     X X X X X k   O O o.o.o.o.o.o.X.X.X.&.U p 7 = ",
"# = h ] / ] / / / / / / / / _ ) _ O O l *.*.S t.l j j j j j t P O P P t O       O             O O -.2.2.2.2.2.2.../ Y A m 6 5 % ",
"% = N ] ' ] ] / / / / ^ / ) / ) _ O O j l S t.t.S   j l l S j j j j j j j j t.    O O O O O O O 2.4.5.5.5.8.8.5.[ A x u 4 % % % ",
"# & h ] / ] ' / / _ / ^ ) / ) ) ^ ( O O t.S t.t.j   S S S l l l t.t.t.t.t.t.  O O O O O O O O 3.6.8.8.8.8.8.8.2./ A i 4 ; @ % @ ",
"# = m ' ' ] / ' _ ^ / / ^ / / ) ) / O O j j j j O O         S S l l l l t.  O O O ` ` _ _ ..#.#.............o.L ~ Z b z 9 = & % ",
"# & N ] ] ] ' / / ' ^ ] _ ( _ ^ ) ( ) O O O O O O t t P t t       S t.t.  O O _ { } ...._ ~ L K Z Z n n n Z n b Z K L K x 7 1 & ",
"# = h ] / ] ] / _ ^ ' ^ ^ ) ) ^ ) ) ) ( O O O O t t P t O O O O O       y.y.O O } ..@.+._ K x e z 8 z , z 8 8 z b K ..[ U p 7 = ",
"# = h { ' ] / / ' ) / _ / ) ) _ ) ) ) / ~ ) O O t P t O O O O O O O O t y.y.O O } ..#.+.^ n 9 , : : , , : : : 8 z ~ o.#.] g 6 = ",
"% & m ] ' ] / / ^ ' / ^ ) ^ ^ _ ) ) ) ) ) ) O O P t P O O b , : u O O O t *.O O } ` [ _ K n e 8 , 8 8 8 8 8 8 q n ^ -.:.{ h 6 = ",
"% ; m ] ' ] ] ' _ ^ / ) ) _ ) ) ) ( / ) ~ ) ( O O P t P O O < > i F O O t *.y.O O ) K Z n n x z z z z z z z z c K } 6.7. .s 6 = ",
"% & m ] / ] / ' / / ^ / _ ^ ) ^ ) ) ) ~ ) ( ) ) } $.4.:._ v < > i J _ O O t y.O O O b z z v M Z Z Z Z A H H Z K ~ ..9.9. .s 6 = ",
"% & m | ' ] ] / _ / _ ^ _ ^ ) _ ) ) ) / ( ~ ) _ } $.7.:._ v , , i J _ O O P *.y.*.O O r z n Z K ~ ~ ~ ~ ( ~ L ~ ` #.e.e. .s - = ",
"# & N ] ] ] / / _ / ^ _ ^ ] _ ^ _ ( ( ) ( ) ( { } -.6.3._ v < , i H _ O O P P P y.O O a c n L L ~ / / ( _ L ` ....#.6.8.+.s - = ",
"$ & N ] ] ] / ] ] ) _ ^ ) ) / _ ( _ _ ( ) ( ) ) } $.7.:.( b 4 , i K ` @.+.` ( J Z v v b n H L L ~ ~ ) ) _ _ _ L L #.8.8.+.f - = ",
"% = m ] ] ] / ] ^ ) _ ] ) ) ( ) _ ( ( Q ^ ( ) _ } $.6.3.` v < < z ~ +.$.} K c f z b n H J L L R ~ ) ( ( _ L L _ +.o.5.8.O.s - - ",
"% = m ] ] ] ] / ] / ^ ) ) ) ) _ ) ( ` ` ( ( ( _ } $.6.:.( v < < c ( :.6.` n q q r v H R ( ( ( Q ( ( ( ( _ L _ L ..o.8.8. .h - = ",
"# & h { _ { ] ^ ) ) ) ) ) ) ) ) ` ( ( ( ( ( ( ` } $.6.6.( b q < f ( 6.6.` c < : w b H ( ( ` ( ( ) ( ( ( ( ( ( _ _ #.9.e.O.s - = ",
"% & h { ) _ ] _ ] ) Q ) ) ) ) ) ( ` ( ( ( R ( ( } $.6.:.` v < < a ( :.:.` c < < r n J ( ` ( ( ` ( ( ( ( ( ( ( ( _ @.7.e.O.s - = ",
"# & m ] ] ] / ^ ) ) ( ) ) ( ) ) ` R ( ` Q L ( ` ..$.6.6.( c < : f ( $.$.( f < < r F L ( ( ( ( ( ( ( ( ( ( ( L ( _ #.7.e.O.s - - ",
"# = m ] ) ] ^ ^ ( Q ( Q ( Q ( Q R ` R R R ( Q ( ` $.6.6.` c < : r R $.$.( c < < r H L ( ( ( R Q ( ( ( ( ( ( ( ( _ #.7.e.O.h - - ",
"% & m  .[ | | ] ] ] ) ) ) _ ) ) ` ) ) Q Q ( ] ` +.$.6.<._ v , ; q J } } R c w 0 v J Q Q ) ( ) ) ( Q ( ( ( ( ( ( ` #.q.q. .s - - ",
"% = V >.=.=.=.&.X.@.=. .O.O.@.O.O.O.+.+.+.+.@.@.$.<.9.<.` v 4 > q c H T G B N B R { +.+.+.+.} } +.+.} } +.} ..} +.3.q.q. .s - = ",
"# & V q.q.q.0.0.q.1.q.,.1.1.1.7.1.1.1.1.<.1.1.1.7.9.r.<.Q f 4 > < w d v F L ) +.;.<.1.1.1.1.1.1.<.,.:.1.<.:.:.<.6.6.r.e.%.h - - ",
"$ & V 1.q.w.w.w.q.q.q.q.q.q.9.9.9.e.9.1.1.1.e.e.r.r.e.$.T f 2 > > q w i N Q O.,.1.1.7.1.e.e.e.e.e.e.9.9.9.7.9.7.6.7.e.e.%.h 6 - ",
"% = h  .X.=.=.=.;.;.=.=.=.=.=.;.=.=.@.@.@.O.;.;.<.<.@.` B w > # & 1 7 0 f J ! +.{ O.{ O.O.O.O.@.O.O.O.O.O.+.@.$.;.;.=.O.! s 6 - ",
"$ & s C I U E U E I U U U U T U U J G T I G E R Q Q L N a 4 = % # = > 1 0 N G F G G F G G G J I G G G J J H J R Q T G G h 7 - & ",
"% & 0 7 7 0 7 0 7 0 0 0 0 0 0 0 0 0 0 0 0 0 0 w p p 0 = & @ @ & @ # > & - y y p s f g g g g v g g g g g f g g n m g p s y - 6 - ",
"# % 1 6 5 3 5 1 1 1 6 1 - - - - 1 - - = - - 1 = - - - % & & & % @ # # # = = - - = = = = = - = 1 = = = = = 1 - 1 1 = = - - - - % "
};
