/* XPM */
static char *result[] = {
/* columns rows colors chars-per-pixel */
"64 64 14 1 ",
"  c #5F002A",
". c #772A2A",
"X c #5B3356",
"o c #545778",
"O c #9D0701",
"+ c #A0592A",
"@ c #D04A01",
"# c #EC8300",
"$ c #B38449",
"% c #6A8580",
"& c #9FB3A1",
"* c #FFD980",
"= c #DCD5C5",
"- c None",
/* pixels */
"----------------------------------------------------------------",
"----------------------------------------------------------------",
"----------------------------------------------------------------",
"----------------------------------------------------------------",
"----------------------------------------------------------------",
"----------------------------------------------------------------",
"----------------------------------------------------------------",
"----------------------------------------------------------------",
"----------------------------------------------------------------",
"----------------------------------------------------------------",
"-------------------------------XXXXXX---------------------------",
"-----------------------------XXXXXXXXX--------------------------",
"----------------------------XXXX%%%%XXX-------------------------",
"---------------------------XXX%%====%XX-------------------------",
"---------------------------XX%=======%XX------------------------",
"--------------------------XX%========&XX------------------------",
"--------------------------XX&========&XX------------------------",
"--------------------------XX&========%XX------------------------",
"--------------------------XX%========%XX------------------------",
"-------------------------XXX%=======&%XX------------------------",
"-----------------------XXXXX%&=====&%oXX------------------------",
"---------------------XXXX...o%&===&%oXX-------------------------",
"--------------------XXX..$$$$o%&&%%ooXX-------------------------",
"-------------------XXX.$$$+&=oo%%oooXX--------------------------",
"-------------------XX.$...%===ooooo%XX--------------------------",
"------------------XX.$+...o&==%oo%%XXXXX------------------------",
"------------------XX.$....oo%&%%%o XXXXXX-----------------------",
"-----------------XX.$....%=oo%oo==o X==&XX----------------------",
"-----------------XX.$....%=o%.=o==oo&===&XX---------------------",
"-----------------XX.+...&&%..&..oo. %&===%XX--------------------",
"-----------------XX.+...&&o..o=o==o=o%%=&oXX--------------------",
"------------------XX +..oo%oo&.==. X=Xo%ooXXX-------------------",
"------------------XXX +..oo%.=.oo X=X&%Xo%=%XX------------------",
"-------------------XXX ....o...==XXX=oXXXo%==XX-----------------",
"--------------------XXX   .  X ==XX=X&XXXXo&=XX-----------------",
"---------------------XXXXXXXX=XooXXX=XX--XXXXXXXXX--------------",
"-----------------------XXXXX=&&%%XXXXX---XXoo&oXXXX-------------",
"-------------------------XXX=Xo%%&=XX-----XXXo&oOOXX------------",
"------------------------XX&oo=X==o&=XX-----XXXoo%& XX-----------",
"------------------------XX=%oX===XX=XXX-----XXXo&*O XX----------",
"------------------------XX==oXooo==o&XXX----XXo%&** XX----------",
"-----------------------XX&&XXXXXXoXo=o&XX----XX *** XX----------",
"----------------------XX&ooXX-XXXXXXX%=XXX---XX @*O XX----------",
"---------------------XX&=&&XX------XXXo==X----XX O  XX----------",
"---------------------XX=&=XX--------XX&&XX----XX @O XX----------",
"------------------------------------XXoo&XX----XX O# XX---------",
"------------------------------------XX&==&XX---XX #O XX---------",
"-------------------------------------XX&&=XX---XXO#@# XX--------",
"------------------------------------------------XXO#@ XX--------",
"------------------------------------------------XXO#@* XX-------",
"------------------------------------------------XXO#@* XX-------",
"-------------------------------------------------XXO#* XX-------",
"-------------------------------------------------XXO#* XX-------",
"-------------------------------------------------XXO** XX-------",
"-------------------------------------------------XXO* XX--------",
"-------------------------------------------------XXO* XX--------",
"-------------------------------------------------XXO XX---------",
"-------------------------------------------------XO XX----------",
"-----------------------------------------------XXXXXX-----------",
"------------------------------------------------XXXX------------",
"----------------------------------------------------------------",
"----------------------------------------------------------------",
"----------------------------------------------------------------",
"----------------------------------------------------------------"
};
