/* XPM */
static char *result[] = {
/* columns rows colors chars-per-pixel */
"64 64 15 1 ",
"  c #5F002A",
". c #772A2A",
"X c #5B3356",
"o c #545778",
"O c #9D0701",
"+ c #A0592A",
"@ c #D04A01",
"# c #EC8300",
"$ c #B38449",
"% c #6A8580",
"& c #9FB3A1",
"* c #FFD980",
"= c #DCD5C5",
"- c white",
"; c None",
/* pixels */
";;;;;;;;;;;;;;;;;;;;;;;;;;;;;;;;;;;;;;;;;;;;;;;;;;;;;;;;;;;;;;;;",
";;;;;;;;;;;;;;;;;;;;;;;;;;;;;;;;;;;;;;;;;;;;;;;;;;;;;;;;;;;;;;;;",
";;;;;;;;;;;;;X;;;;;;;;;;;;;;;;;;;;;;;;;;;;;;;;;;;;;;;;;;;;;;;;;;",
";;;;;;;;;;;;XXX;;;;;;;;;;;;;;;;;;;;;;;;;;;;;;;;;;;;;;;;;;;;;;;;;",
";;;;;;;;;;;XX XX;;;;;;;;;;;;;;;;;;;;;;;;;;;;;;;;;;;;;;;;;;;;;;;;",
";;;;;;;;;;;XX XX;;;;;;;;;;;;;;;;;;;;;;;;;;;;;;;;;;;;;;;;;;;;;;;;",
";;;;;;;;;;XX # XX;;;;;;;;;;;;;;;;;;;;;;;;;;;;;;;;;;;;;;;;;;;;;;;",
";;;;;;;;;;XX # XX;;;;;;;;;;;;;;;;;;;;;;;;;;;;;;;;;;;;;;;;;;;;;;;",
";;;;;;;;;;XX -# XX;;;;;;;;;;;;;;;;;;;;;;;;;;;;;;;;;;;;;;;;;;;;;;",
";;;;;;;;;;;XX *# XX;;;;;;;;;;;;;;;;;;;;;;;;;;;;;;;;;;;;;;;;;;;;;",
";;;;;;;;;;;XX -*# XX;;;;;;XXXXXX;;;;;;;;;;;;;;;;;;;;;;;;;;;;;;;;",
";;;;;;;;;;;;XX -*# XX;;;XXXXXXXXX;;;;;;;;;;;;;;;;;;;;;;;;;;;;;;;",
";;;;;;;;;;;;;XX -*# XX;XXXX%%%%XXX;;;;;;;;;;;;;;;;;;;;;;;;;;;;;;",
";;;;;;;;;;;;;;XX -*# XXXX%%====%XX;;;;;;;;;;;;;;;;;;;;;;;;;;;;;;",
";;;;;;;;;;;;;;;XX *#@ XX%=======%XX;;;;;;;;;;;;;;;;;;;;;;;;;;;;;",
";;;;;;;;;;;;;;;;XX *@XX%========&XX;;;;;;;;;;;;;;;;;;;;;;;;;;;;;",
";;;;;;;;;;;;;;;;;XX *XX&========&XXX;;;;;;;;;;;;;;;;;;;;;;;;;;;;",
";;;;;;;;;;;;;;;;;;XXOXX&========%XXX;;;;;;;;;;;;;;;;;;;;;;;;;;;;",
";;;;;;;;;;;;;;;;;;;XXXX%========%oXX;;;;;;;;;;;;;;;;;;;;;;;;;;;;",
";;;;;;;;;;;;;;;;;;;;XXXX%=======&oXX;;;;;;;;;;;;;;;;;;;;;;;;;;;;",
";;;;;;;;;;;;;;;;;;;;XXXX%&=====&%oXX;;;;;;;;;;;;;;;;;;;;;;;;;;;;",
";;;;;;;;;;;;;;;;;;;;;XXXo%&===&%oXX;;;;;;;;;;;;;;;;;;;;;;;;;;;;;",
";;;;;;;;;;;;;;;;;;;;;XXXXo%&&%%ooXXX;;;;;;;;;;;;;;;;;;;;;;;;;;;;",
";;;;;;;;;;;;;;;;;;;;;;XXXoo%%oooX&&XX;;;;;;;;;;;;;;;;;;;;;;;;;;;",
";;;;;;;;;;;;;;;;;;;;;;;XXXooooo%X&=&XX;;;;;;;;;;;;;;;;;;;;;;;;;;",
";;;;;;;;;;;;;;;;;;;;;;;;XX%oo%%X&=&oXX;;;;;;;;;;;;;;;;;;;;;;;;;;",
";;;;;;;;;;;;;;;;;;;;;XXXXXX%%oXX&=ooXX;;;;;;;;;;;;;;;;;;;;;;;;;;",
";;;;;;;;;;;;;;;;;XXXXXXXXXXo==oo%%oXXX;;;;;;;;;;;;;;;;;;;;;;;;;;",
";;;;;;;;;;;;;;;XXXXXXX&==&oo==oXooXXX;;;;;;;;;;;;;;;;;;;;;;;;;;;",
";;;;;;;;;;;;;;XXX   X&===%XXooX==%XXX;;;;;;;;;;;;;;;;;;;;;;;;;;;",
";;;;;;;;;;;;;XXX .$. ===&o=o==oXXoXX;;;;;;;;;;;;;;;;;;;;;;;;;;;;",
";;;;;;;;;;;;;XX ..$.. =%%=X=&==X=&XX;;;;;;;;;;;;;;;;;;;;;;;;;;;;",
";;;;;;;;;;;;;XX +.$.+..oXo=XXooXX=XX;;;;;;;;;;;;;;;;;;;;;;;;;;;;",
";;;;;;;;;;;;XX .$.$++..=ooX=X==X=XX;;;;;;;;;;;;;;;;;;;;;;;;;;;;;",
";;;;;;;;;;;;XX +$+$++. =o&=XX==XXXX;;;;;;;;;;;;;;;;;;;;;;;;;;;;;",
";;;;;;;;;;;;XX +$$$++. X&%XX=Xooo%XX;;;;;;;;;;;;;;;;;;;;;;;;;;;;",
";;;;;;;;;;;XX .+$$$++. o%oXXXX==%&=XX;;;;;;;;;;;;;;;;;;;;;;;;;;;",
";;;;;;;;;;;XX +$$$$++.o&oXX%%&%%&&=XX;;;;;;;;;;;;;;;;;;;;;;;;;;;",
";;;;;;;;;;;XX +$$+$+..&oXX%&=o==o=&XX;;;;;;;;;;;;;;;;;;;;;;;;;;;",
";;;;;;;;;;;XX +$$+$+. oXXXoo=X==X&oXXX;;;;;;;;;;;;;;;;;;;;;;;;;;",
";;;;;;;;;;;XX +$+.+..XXXX=%o&=ooooX&XXX;;;;;;;;;;;;;;;;;;;;;;;;;",
";;;;;;;;;;;XX +$+... XXXX&=oXoXXXXXoo&XX;;;;;;;;;;;;;;;;;;;;;;;;",
";;;;;;;;;;;;XX +... XXXX&ooXXXXXXXXX%=XXX;;;;;;;;;;;;;;;;;;;;;;;",
";;;;;;;;;;;;XXX... XXXX&=&&XXX;;;;;XXo==XX;;;;;;;;;;;;;;;;;;;;;;",
";;;;;;;;;;;;;XXXXXXX;XX=&=XX;;;;;;;;XX&&XX;;;;;;;;;;;;;;;;;;;;;;",
";;;;;;;;;;;;;;;XXXX;;;;;;;;;;;;;;;;;XXoo&XX;;;;;;;;;;;;;;;;;;;;;",
";;;;;;;;;;;;;;;;;;;;;;;;;;;;;;;;;;;;XX&==&XX;;;;;;;;;;;;;;;;;;;;",
";;;;;;;;;;;;;;;;;;;;;;;;;;;;;;;;;;;;;XX&&=XX;;;;;;;;;;;;;;;;;;;;",
";;;;;;;;;;;;;;;;;;;;;;;;;;;;;;;;;;;;;;;;;;;;;;;;;;;;;;;;;;;;;;;;",
";;;;;;;;;;;;;;;;;;;;;;;;;;;;;;;;;;;;;;;;;;;;;;;;;;;;;;;;;;;;;;;;",
";;;;;;;;;;;;;;;;;;;;;;;;;;;;;;;;;;;;;;;;;;;;;;;;;;;;;;;;;;;;;;;;",
";;;;;;;;;;;;;;;;;;;;;;;;;;;;;;;;;;;;;;;;;;;;;;;;;;;;;;;;;;;;;;;;",
";;;;;;;;;;;;;;;;;;;;;;;;;;;;;;;;;;;;;;;;;;;;;;;;;;;;;;;;;;;;;;;;",
";;;;;;;;;;;;;;;;;;;;;;;;;;;;;;;;;;;;;;;;;;;;;;;;;;;;;;;;;;;;;;;;",
";;;;;;;;;;;;;;;;;;;;;;;;;;;;;;;;;;;;;;;;;;;;;;;;;;;;;;;;;;;;;;;;",
";;;;;;;;;;;;;;;;;;;;;;;;;;;;;;;;;;;;;;;;;;;;;;;;;;;;;;;;;;;;;;;;",
";;;;;;;;;;;;;;;;;;;;;;;;;;;;;;;;;;;;;;;;;;;;;;;;;;;;;;;;;;;;;;;;",
";;;;;;;;;;;;;;;;;;;;;;;;;;;;;;;;;;;;;;;;;;;;;;;;;;;;;;;;;;;;;;;;",
";;;;;;;;;;;;;;;;;;;;;;;;;;;;;;;;;;;;;;;;;;;;;;;;;;;;;;;;;;;;;;;;",
";;;;;;;;;;;;;;;;;;;;;;;;;;;;;;;;;;;;;;;;;;;;;;;;;;;;;;;;;;;;;;;;",
";;;;;;;;;;;;;;;;;;;;;;;;;;;;;;;;;;;;;;;;;;;;;;;;;;;;;;;;;;;;;;;;",
";;;;;;;;;;;;;;;;;;;;;;;;;;;;;;;;;;;;;;;;;;;;;;;;;;;;;;;;;;;;;;;;",
";;;;;;;;;;;;;;;;;;;;;;;;;;;;;;;;;;;;;;;;;;;;;;;;;;;;;;;;;;;;;;;;",
";;;;;;;;;;;;;;;;;;;;;;;;;;;;;;;;;;;;;;;;;;;;;;;;;;;;;;;;;;;;;;;;"
};
