/* XPM */
static char *Squelette_SpriteSheet_091636046420[] = {
/* columns rows colors chars-per-pixel */
"64 64 125 2 ",
"   c #5F002A",
".  c #4C3E3C",
"X  c #772A2A",
"o  c #4F413F",
"O  c #5B3356",
"+  c #4F4240",
"@  c #524543",
"#  c #564C46",
"$  c #584C46",
"%  c #554C4B",
"&  c #5A4E4B",
"*  c #5D514D",
"=  c #5F5452",
"-  c #604F4D",
";  c #625247",
":  c #64534C",
">  c #68554D",
",  c #69594E",
"<  c #615653",
"1  c #695751",
"2  c #655A55",
"3  c #6B5A54",
"4  c #615758",
"5  c #645B5B",
"6  c #6B5E5B",
"7  c #725D54",
"8  c #725E5D",
"9  c #6D615C",
"0  c #716056",
"q  c #74625B",
"w  c #79655E",
"e  c #79685E",
"r  c #545778",
"t  c #6C6361",
"y  c #746462",
"u  c #7A6661",
"i  c #756A66",
"p  c #7C6A64",
"a  c #776C6A",
"s  c #7A6D6B",
"d  c #7F7065",
"f  c #7E716D",
"g  c #7E7372",
"h  c #9D0701",
"j  c #A0592A",
"k  c #D04A01",
"l  c #816E66",
"z  c #816E6A",
"x  c #827067",
"c  c #84726C",
"v  c #89756D",
"b  c #8B796F",
"n  c #817573",
"m  c #8A7674",
"M  c #847975",
"N  c #8C7A74",
"B  c #867B79",
"V  c #8C7D7A",
"C  c #917D75",
"Z  c #927E7B",
"A  c #EC8300",
"S  c #B38449",
"D  c #8E817C",
"F  c #938177",
"G  c #93827C",
"H  c #99857E",
"J  c #99887E",
"K  c #6A8580",
"L  c #8E8381",
"P  c #948582",
"I  c #998683",
"U  c #968882",
"Y  c #9C8B83",
"T  c #958989",
"R  c #9E8C8B",
"E  c #9F908E",
"W  c #9E9392",
"Q  c #A18E86",
"!  c #A28F8A",
"~  c #A88F8E",
"^  c #A29087",
"/  c #A4918B",
"(  c #A9948E",
")  c #A9988E",
"_  c #A38F91",
"`  c #A49392",
"'  c #AA9593",
"]  c #A69995",
"[  c #AC9A94",
"{  c #AA9798",
"}  c #AD9C9A",
"|  c #B19B96",
" . c #B39E9A",
".. c #B89E9B",
"X. c #AEA09C",
"o. c #B1A096",
"O. c #B3A29C",
"+. c #B9A39E",
"@. c #BAA99F",
"#. c #AE9FA0",
"$. c #B39FA2",
"%. c #9FB3A1",
"&. c #B5A5A2",
"*. c #BAA5A3",
"=. c #B7A9A1",
"-. c #BDACA4",
";. c #B7ABAD",
":. c #BDACAA",
">. c #BFB1A7",
",. c #BFB1AA",
"<. c #C2A6A4",
"1. c #C3ABA6",
"2. c #C5ADA9",
"3. c #C8AFAB",
"4. c #C2B1A6",
"5. c #C4B3AC",
"6. c #CBB4AE",
"7. c #C7B8AF",
"8. c #C4AFB0",
"9. c #C5B5B1",
"0. c #C9B6B1",
"q. c #C7B8B2",
"w. c #CABAB3",
"e. c #FFD980",
"r. c #DCD5C5",
/* pixels */
"% % $ % @ # # # % # % % # % % % % % # # # # % # % % % % # % % % % % % % % # % % % # % % + @ # % % % % % % % % % % % % % % % % % ",
"# @ o o . O o o o o o o o . . o . o o # $ % # % @ + + + o O + + # % % * * & & & * * % & * % * % % & & & & & & = * & & % % & % % ",
"% % i D B B B B g g L L B D g B B B B B M B B M L L B B n 3 @ @ < g g g g g g g g g g g g g g g g g g n g n n n B B B B g a 5 # ",
"# % D ` W W E R W W W W W W W W W ` ] ] ` ` ` ` ] } &.=.I z $ @ 2 g T W ` W ` ] ] W ] ] ] ` ] ] ] ` ` ` ` ` ` ` { { { ;.W s 4 # ",
"# * g E E W _ _ ` } #.} ` W ` W ` ` W / ` / W ] ` ` O.=.I y @ . = g U W E E E E E E E W E W E E W W W E R ` R ` W X.#.;.W g = % ",
"# % D ` E ` _ { #.&.;.*.} ] } } ] ] ] ] ] ] / ` } #.w.:./ c < $ 9 B E ] ] ] / / / ` ` / / / ` ` ` ` ` ` ` ` ' { X.;.,.,.#.g = % ",
"# % D ` R / ` { } &.;.&.} ] ` ] ` / ` / / E / ` } -.q.-./ v 2 1 i Z ` ` / ^ E E ^ / / ^ / E E / E / E R R ! E ` } &.;.,.X.M = % ",
"# * L ] ` { ` { { #.O.X.} } ` / ^ E / ^ E E ^ / X.-.7.*.R c 3 1 p Z / ] / E ^ R R ! R R Q E ! R / R ! ! ! ! ! ` { &.,.,.X.g = # ",
"% & V { { $.$.{ { ` _ _ { | { ' ^ ^ / / / E ^ ` } -.7.-.Y c 3 1 p Z / ` ` ^ ^ ! ! ! ! E ! ! ! / / / / ! ! ! ! ~ } &.:.5.} n = # ",
"% & V { { $.$.$.{ I m Z R { | } [ ] ` / / ^ / ` } -.7.-.Y v 3 , u Z ^ ] / / ! / ! ! ! ! ! ! / ! / R / ! ! ! ! ' {  .;.8.&.n = # ",
"% & V { ..<.8.$._ n 8 y V '  .&.| [ ( / / ^ ^ ` | 1.0.-.O O O O O O O O / / ! ^ ! / ! ^ ! ^ / / R / ! / ~ ! ! ( [ $.2.9.X.n = # ",
"% & V { $.<.8.$.I z 3 8 m ! [  . .) ( / E ! / / | -.q.O O O O O O O O O O ! / / ^ ^ ^ ! ! ^ ! ! ! / ! ! ! ! ! ~ [ ..:.8.O.n = # ",
"% & V { { { ~ I Z z p z V I Q ~ ( ( ^ / / ^ / / [ -.O O O K K K K K K O O O ^ ! ! / ^ ! ! ! ! ! ! R ^ / ! ! ~ ( [ ..-.9.X.M = # ",
"# & P } R Z z z z c m C C m N N G J Q Q ! ^ ^ / | O O O K r.r.r.r.r.r.K O O O ^ ^ ! ! / ^ ^ ^ ! / ! ! / / ! Q ( [  .:.5.&.n = # ",
"% = P { Z s 8 8 u m Z I N z p l c N Y R ! Q ^ / [ O O K r.r.r.r.r.r.r.r.K O O ! / ! ^ ^ / / ! / ! / ^ / / ^ Q ( |  .-.7.O.M < # ",
"# % L R m s 8 8 z m I I m l p u x N H Q Q ! ^ ( | O O %.r.r.r.r.r.r.r.r.%.O O / ! / / ! ! ^ / ! / ! / ! Q / / ( | O.-.9.X.M = # ",
"# % M V m z p z m I Q R Z z z c v Z I Q Q Q / / [ O O %.r.r.r.r.r.r.r.r.%.O O ^ / / ~ ^ ^ / / / / ^ ^ / ^ ~ ^ ( | ..1.5.O.M < # ",
"# * g g n m m m P R ~ Q I Z N N Z H Q Q Q Q ^ ( | O O K r.r.r.r.r.r.r.r.K O O ^ / / ^ ^ / ^ / / / / ^ / ^ ~ ( ( | +.4.6.O.M < # ",
"# * a i z V Z I R ! / ~ ~ Y P H Q Q ! Q ! Q / / [ O O K r.r.r.r.r.r.r.r.K O O ~ ^ / ( ^ / ^ ^ ~ / / / ~ ^ ^ ^ ( | +.4.4.&.M = # ",
"# % a a z Z R _ ! ` ' ' ( ~ Q Q ! / / / / ^ / ( | O O K %.r.r.r.r.r.r.%.K O O / ^ ( ^ / / / / / / / / ^ ^ ( ^ ( ) +.1.3.X.M = # ",
"% & s n n I ~ ~ _ / / / ~ ! ! Q / / / ~ / / / ( | O O r K %.r.r.r.r.%.K r O O Q ^ ^ ~ ^ / / / / / / / / ^ Q ~ ( [ +.1.5.&.M = # ",
"% & g B V T _ _ ! ! ~ ! Q Q Q Q / Q Q Q Q Q ^ ( | 1.O O r K %.%.%.%.K r O O Q ~ ^ Q ^ ^ ! Q ^ ^ Q Q Q ! Q Q J ( | +.:.q.O.M = # ",
"% & n T I I _ _ ! R R Q Q Q Q Q Q Q Q Q Q Q O O O O O O r r K K K K r r O O Q Q Q Q Q Q Q Q Q Q Q Q Q Q Q Q Q ( | -.5.9.&.g = # ",
"% & B _ _ _ ~ _ ~ _ ~ ~ ! ! ~ ^ ~ ! Q O O O O O O O O O h r r r r r r O O O O O ^ Q Q ~ / Q Q ^ ! Q / Q Q Q ^ ( [ +.,.9.&.B = # ",
"% & V $.{ { { #.{ | { ' ' ( ( ( ( ( O O O O X X X X X X h K r r r r K O O O O O O ) / ( ( ( ( ( ( ( ( ( ( ( ( | o.*.5.9.&.B 4 # ",
"% & L ;.$.$.*.*.*.$.<.........+.+.O O O X X S S %.r.r.r.X h K K K K e.h r.r.r.%.O O O.o... .o. .................+.1.0.0.} n < # ",
"% & L 8.;.<.8.8.2.2.2.2.1.2.2.2.O O O X S S S K r.r.r.r.%.    r r e.h %.r.r.r.r.K O O 1.1.1.2.1.1.1.1.1.1.1.3.<.1.5.w.0.} g < % ",
"% * L :.&.*.2.2.2.2.3.2.2.3.5.4.O O X S S j X r %.r.r.%.K r r r.r.r r K %.r.r.%.r O O 1.1.1.1.2.1.1.<.<.3.3.<.2.1.5.0.9.] f 2 $ ",
"% & B ` R ` [ | ..| | | | | o.O O X S j X X X r r K K K r X r r.r.r k r K K K r r O O O [ [ [ [ | | | | | | { | | | &. .T a 9 # ",
"$ & g B n M V Z Z m Z C V Z D O O X S X X X K r.r X r X r.r.X r r A r.r.  r O r K r.K O O F N D C C C C V V Z Z Z Z Z P m t < # ",
"# & < q 1 6 1 2 1 1 1 2 3 3 O O X S j X X K r.r X X K %.X X r r.r.r A h %.K O O r K r.r.O O , 0 2 3 1 2 1 1 1 1 3 1 3 * $ # % # ",
"# & & & & & & & & & & & * $ O O X S X X %.%.K X X X X r r.r.X r.r.  r.r.r h   O O r %.r.O O # o # # @ # # # @ $ $ % $ * $ # # # ",
"% % & - < 6 q 9 9 9 9 9 9 q O O X S X X %.%.r X X X X %.X X X r r O     %.k k O r %.r r O O 0 9 2 9 0 2 3 1 6 8 q 6 8 p y = = % ",
"% & s n p n B B B M M B N N O O X S X X r r K r r K r X r.r.  r.r.O r.r.A e.k r %.r O O O M M M f f f f z z z m N C Z P m 6 4 * ",
"$ & n Z V Z I R Y Y Y U U Y O O X j X X X X r r K K X X X X   r.r.O A e.e.%.K r r O O O U J Y Y U J J J I I Z Q ~ ' { } P t 6 * ",
"% & n R T _ _ _ ! ! / ^ / ^ / O O   j X X X X X r K K X X   O r r O h A e.A %.r O O / ) ) ] ] [ ] ] ) o.' ' | | { ..*.*.R i t * ",
"# * n ` _ ' ~ ~ ' ~ ~ / ~ / / O O O   X X X X X X X X X   r.%.K K %.r.h A %.K r O O [ | | |  .|  . ...........<... .$. .T y 6 * ",
"# * M ` _ ' ~ ~ ~ ~ ~ ~ ~ ~ ( / O O O   j X X X X     O r.%.r K K r %.r.k h O O O ( ) | | ....+.+.*.<.<.<.<.<.<. .! I G n 5 5 % ",
"% * g ` _ ` _ ! ~ / ~ / / ( ~ / / O O O           O O O r.O O r.r.O O r.O O O O ( ( ( ) | +.<.<.1.1.2.3.6.6.6.1.' Z z y 6 & % @ ",
"# * g ` _ ` ~ ~ ' ~ / ~ ! ~ / ~ / ^ O O O O O O O O O %.r r.r.r.r.r.r.r %.O O / ( ) ) ( ) +.1.2.2.6.6.6.6.6.6.<.~ C p 1 & @ @ # ",
"# * n ` ' _ _ ' ~ ! ~ ~ / ~ / ( / ( ^ ~ O O O O O O O r.r O r r r r O r r.O O ) ) ) ] ( ) | ..+.+.) | | | | ) ( Q C v u 8 * & % ",
"# & M ` _ ` _ ~ ' ~ ! / ! / / ~ ~ ^ / ~ ^ ^ / ( | O O %.r O O O O O O r %.O O / [ [ | | ( Q J H F C C C C C b v C H I H c 6 < * ",
"# * g ` ! ' ~ _ _ / ~ ! / / / / / / ~ ^ Q / ^ / | O O r.K O O ; e O O K r.O O ( [ | o. ./ H z w w 7 7 7 7 7 7 w v H | ' U i 5 * ",
"# * g ` _ ' _ / / _ ! ' / / / / / / / ^ / ^ / ( [ O O r.r.r O O O O r r.r.O O ) [ | +.o.~ b 8 > ; > > > > > > 7 l Q ..+.` f 5 * ",
"% & g { _ ` ~ ~ / _ / ! / ~ ( / / / / / Q Q / ( | +.O O %.%.O O O O %.%.O O [ [ [ ) [ / H b w 7 > , 7 7 7 , 7 0 v Q -.-.] f 5 * ",
"% & g _ _ ` ~ _ ~ ! ~ / / ^ ^ / / / ~ / / / ^ / [ O O %.r r O : u O r r %.O O | [ / H C N v z l l l z l l l l v H [ 1.5.} s 5 * ",
"% & n { ~ ~ _ _ ~ ~ ~ / / ( ~ / / / ~ Q Q / / / O O %.r.%.%.O > e O %.r.r.%.O O ( G v l l v N C C C Z F H C F H ^ O.5.q.} a 5 * ",
"% & n { ` ` _ ' ( / / ^ ~ ~ ^ / ( / / / / ^ / ( O O r.%.r.O > : u G O %.%.r.O O ^ b e u l v C H Y Q Q Q ^ J J Q ( +.q.q.X.a = * ",
"$ * n ` ' ` ! ! _ / / ~ / / / / / ( / / ^ / ^ / [ @.5.-.( c , > e G ( | +.+.O.) H c e p x b F Y Q / / / J ) ( ( | +.6.6.[ a = * ",
"# * n ` _ ` _ ' ! ' ` / / / ' / / / / / / ^ ^ ( [ -.1.1.) c , , l G [ O.o.( Q J C c c c N F J J Q / ( / ( ( J ) J +.6.6.[ d = * ",
"% & n ` ` ' _ ' _ ~ / / ( / / / ) ^ ^ ^ Q / / ( [ +.5.-.^ c , , l I o.@.[ H x d l v N F H H Y Y Q ^ ^ ^ J ( J ( ..@.6.6.X.a = = ",
"# = n ` _ ' ' / / ' / / / / / / ^ ^ ( ) ^ ^ ^ ( [ @.4.-.) x 7 , l ^ -.>.) b 0 , e c F J ^ ^ ^ ^ ^ ^ ^ ^ ( J ( ( J 1.6.6.X.g = * ",
"# * n ` / [ ` ! ` / ` / / / / / ) ^ ^ ^ ^ ^ ^ ) o.@.4.4.) x , , x ) 4.4.) x , , q v F ^ ) ^ ^ ^ / ^ ^ ^ ^ ^ ( J ( O.5.w.X.a = * ",
"% & g ] / ` ' / / / / / / / / / ^ ) ^ ^ ^ Y ^ ^ [ @.4.-.) x , , e ^ -.@.) x , , e b G ^ ^ ) ^ ) ^ ^ ^ ^ ^ ^ J ^ ) O.7.q.X.i = = ",
"# * g ` ` ` / ~ / E ^ / ^ ^ / / ) ^ ^ ^ E J ^ ) o.@.4.-.) v , ; e ^ @.@.^ d , , e F J ^ ^ Y E ^ ^ ^ ^ ^ ^ ^ ^ ( ( +.5.q.X.a = = ",
"# * n ` / ` / ! ! E E / ^ E ^ ^ J E ^ E Y ^ E ^ ) @.4.4.^ x , ; e ^ @.@.^ d , , e F J ^ ^ ^ ^ ^ ^ ^ ^ ^ ^ ^ J ^ ( +.5.9.X.g = = ",
"% - n } ] { ' ' ' / / / / / / / ) ^ ^ ^ / / ` ) o.@.4.>./ v , ; q G [ [ Y x q 9 c U E ^ / ^ ( ^ ^ R ^ ^ ^ ^ ^ ^ ) +.5.9.] a 4 * ",
"% & B ;.&.=.$.$.&.} &.X.X.X.O.O.X.O.X.o.o.X.X.@.@.>.7.>.( c 3 : 0 x F I F N M N U ] [ o.o.X.[ [ o.o.} [ ) o.| [ +.-.q.9.} s = * ",
"# & B q.8.9.9.8.5.8.,.,.5.,.,.5.,.,.,.,.>.>.,.,.5.7.w.>.^ c 3 - , q s c D J ^ X.=.>.>.,.,.,.,.,.>.,.,.:.4.>.>.-.-.5.w.w.#.s 5 = ",
"% & B ,.9.0.0.9.9.9.9.9.9.q.5.q.9.9.7.,.,.,.9.q.q.w.q.=.U d 1 - : 3 q i M E O.-.,.,.5.,.q.q.q.q.q.7.5.5.7.7.7.5.4.4.7.q.#.g 5 * ",
"# * g } #.&.*.&.&.&.&.&.&.=.&.&.&.O.@.X.=.X.&.>.>.>.@./ m y : & & 2 2 0 d G ] ] ] ] o.X.X.X.X.O.X.X.X.X.X.o.O.@.=.&.&.X.W a 5 = ",
"# * f B V I T P P P U P L P U P P P D P D D P U E R J M p 1 & $ # * : 2 9 M M D D D D D D D P D D D D G G F G Y E U G D g 6 = * ",
"# & 9 6 6 6 t 9 t 9 9 t 9 9 9 9 9 9 9 9 9 9 9 y e i i % & % # & @ # < * * e i i a d f f f f f n f c f f d f c M M d i a t = 5 = ",
"# % 4 5 2 4 4 < < = < < < < = = = = * = = = = = * = < % & % # # # @ # % % = = * * * * * * * * * = * * * = = = = = * * = = = = % "
};
