/* XPM */
static char *result[] = {
/* columns rows colors chars-per-pixel */
"32 32 7 1 ",
"  c #5F002A",
". c #9D0701",
"X c #D04A01",
"o c #EC8300",
"O c #FFD980",
"+ c white",
"@ c None",
/* pixels */
"@@@@@@@@@@@@@@@@@@@@@@@@@@@@@@@@",
"@@@@@@@@@@@@@@@@@@@@@@@@@@@@@@@@",
"@@@@@@@@@@@@@@@@@@@@@@@@@@@@@@@@",
"@@@@@@@@@@@@@@@@@@@@@@@@@@@@@@@@",
"@@@@@@@@@@@@@@@@@@@@@@@@@@@@@@@@",
"@@@@@@@@@@@@@@@@@@@@@@@@@@@@@@@@",
"@@@@@@@@@@@@@@@. .@@@@@@@@@@@@@@",
"@@@@@@@@@@@@@@@ + @@@@@@@@@@@@@@",
"@@@@@@@@@@@@@@.+Oo @@@@@@@@@@@@@",
"@@@@@@@@@@@@@@.+Oo @@@@@@@@@@@@@",
"@@@@@@@@@@@@@@.+Oo @@@@@@@@@@@@@",
"@@@@@@@@@@@@@@.+Oo @@@@@@@@@@@@@",
"@@@@@@@@@@@@@@.+Oo @@@@@@@@@@@@@",
"@@@@@@@@@@@@@@.+Oo @@@@@@@@@@@@@",
"@@@@@@@@@@@@@@.+Oo @@@@@@@@@@@@@",
"@@@@@@@@@@@@@@.+Oo @@@@@@@@@@@@@",
"@@@@@@@@@@@@@@.OOo @@@@@@@@@@@@@",
"@@@@@@@@@@@@@@.OOo @@@@@@@@@@@@@",
"@@@@@@@@@@@@@@.OOo @@@@@@@@@@@@@",
"@@@@@@@@@@@@@@.OOo @@@@@@@@@@@@@",
"@@@@@@@@@@@@@@.OOo @@@@@@@@@@@@@",
"@@@@@@@@@@@@@@.OOo @@@@@@@@@@@@@",
"@@@@@@@@@@@@@@.OOo @@@@@@@@@@@@@",
"@@@@@@@@@@@@@@.ooX @@@@@@@@@@@@@",
"@@@@@@@@@@@@@@@ X @@@@@@@@@@@@@@",
"@@@@@@@@@@@@@@@. .@@@@@@@@@@@@@@",
"@@@@@@@@@@@@@@@@@@@@@@@@@@@@@@@@",
"@@@@@@@@@@@@@@@@@@@@@@@@@@@@@@@@",
"@@@@@@@@@@@@@@@@@@@@@@@@@@@@@@@@",
"@@@@@@@@@@@@@@@@@@@@@@@@@@@@@@@@",
"@@@@@@@@@@@@@@@@@@@@@@@@@@@@@@@@",
"@@@@@@@@@@@@@@@@@@@@@@@@@@@@@@@@"
};
