/* XPM */
static char *result[] = {
/* columns rows colors chars-per-pixel */
"32 32 7 1 ",
"  c #5F002A",
". c #9D0701",
"X c #D04A01",
"o c #EC8300",
"O c #FFD980",
"+ c white",
"@ c None",
/* pixels */
"@@@@@@@@@@@@@@@@@@@@@@@@@@@@@@@@",
"@@@@@@@@@@@@@@@@@@@@@@@@@@@@@@@@",
"@@@@@@@@@@@@@@@@@@@@@@@@@@@@@@@@",
"@@@@@@@@@@@@@@@@@@@@@@@@@@@@@@@@",
"@@@@@@@@@@@@@@@@@@@@@@@@@@@@@@@@",
"@@@@@@@@@@@@@@@@@@@@@@@@@@@@@@@@",
"@@@@@@@@@@@@@@@@ .@@@@@@@@@@@@@@",
"@@@@@@@@@@@@@@@ Xo @@@@@@@@@@@@@",
"@@@@@@@@@@@@@@.XOO. @@@@@@@@@@@@",
"@@@@@@@@@@@@@@.O+oX @@@@@@@@@@@@",
"@@@@@@@@@@@@@.X+OXo. @@@@@@@@@@@",
"@@@@@@@@@@@@@.o+o.oX @@@@@@@@@@@",
"@@@@@@@@@@@@@.+O.o.o.@@@@@@@@@@@",
"@@@@@@@@@@@@.X+O.o.oX @@@@@@@@@@",
"@@@@@@@@@@@@.o+O.o.oX @@@@@@@@@@",
"@@@@@@@@@@@@.oOO.o.oX @@@@@@@@@@",
"@@@@@@@@@@@@.oOO..XoX @@@@@@@@@@",
"@@@@@@@@@@@@.oOO.o.oX @@@@@@@@@@",
"@@@@@@@@@@@@.XOO.o.oX @@@@@@@@@@",
"@@@@@@@@@@@@@.OO.oXo @@@@@@@@@@@",
"@@@@@@@@@@@@@.oOo.oX @@@@@@@@@@@",
"@@@@@@@@@@@@@.XOOXo. @@@@@@@@@@@",
"@@@@@@@@@@@@@@.oOXX @@@@@@@@@@@@",
"@@@@@@@@@@@@@@.Xoo. @@@@@@@@@@@@",
"@@@@@@@@@@@@@@@ .. @@@@@@@@@@@@@",
"@@@@@@@@@@@@@@@@  @@@@@@@@@@@@@@",
"@@@@@@@@@@@@@@@@@@@@@@@@@@@@@@@@",
"@@@@@@@@@@@@@@@@@@@@@@@@@@@@@@@@",
"@@@@@@@@@@@@@@@@@@@@@@@@@@@@@@@@",
"@@@@@@@@@@@@@@@@@@@@@@@@@@@@@@@@",
"@@@@@@@@@@@@@@@@@@@@@@@@@@@@@@@@",
"@@@@@@@@@@@@@@@@@@@@@@@@@@@@@@@@"
};
