/* XPM */
static char *result[] = {
/* columns rows colors chars-per-pixel */
"32 32 7 1 ",
"  c #5F002A",
". c #9D0701",
"X c #D04A01",
"o c #EC8300",
"O c #FFD980",
"+ c white",
"@ c None",
/* pixels */
"@@@@@@@@@@@@@@@@@@@@@@@@@@@@@@@@",
"@@@@@@@@@@@@@@@@@@@@@@@@@@@@@@@@",
"@@@@@@@@@@@@@@@@@@@@@@@@@@@@@@@@",
"@@@@@@@@@@@@@@@@@@@@@@@@@@@@@@@@",
"@@@@@@@@@@@@@@@@@@@@@@@@@@@@@@@@",
"@@@@@@@@@@@@@@@@@@@@@@@@@@@@@@@@",
"@@@@@@@@@@@@@......@@@@@@@@@@@@@",
"@@@@@@@@@@@.X++++Oo.@@@@@@@@@@@@",
"@@@@@@@@@@.+++OOOOOO @@@@@@@@@@@",
"@@@@@@@@@.++OoXXXXoOO @@@@@@@@@@",
"@@@@@@@@.++O.XoooooXOo @@@@@@@@@",
"@@@@@@@.o+O.XooOXOXoXOo @@@@@@@@",
"@@@@@@@.++.XoO++OOoXoOoX@@@@@@@@",
"@@@@@@.o+o.XoXOO.+O.oXOo @@@@@@@",
"@@@@@@.++.Xooo+O.+O.oXOo @@@@@@@",
"@@@@@@.++.Xooo+OX+O.oXOo @@@@@@@",
"@@@@@@.+OXXooo+O+OX.oXOo @@@@@@@",
"@@@@@@.OOXXoooOO.+O.oXOo @@@@@@@",
"@@@@@@.oOoXoooOOX+O.XoOo @@@@@@@",
"@@@@@@@XOOXooO+O+OO.XOO.@@@@@@@@",
"@@@@@@@.oOOXoXXO.O.XXOo @@@@@@@@",
"@@@@@@@@.OOOooo.o.XX+o @@@@@@@@@",
"@@@@@@@@@.OOOXoooXX+O @@@@@@@@@@",
"@@@@@@@@@@.OOOOOOOOO @@@@@@@@@@@",
"@@@@@@@@@@@.XOOOOoo @@@@@@@@@@@@",
"@@@@@@@@@@@@@..    @@@@@@@@@@@@@",
"@@@@@@@@@@@@@@@@@@@@@@@@@@@@@@@@",
"@@@@@@@@@@@@@@@@@@@@@@@@@@@@@@@@",
"@@@@@@@@@@@@@@@@@@@@@@@@@@@@@@@@",
"@@@@@@@@@@@@@@@@@@@@@@@@@@@@@@@@",
"@@@@@@@@@@@@@@@@@@@@@@@@@@@@@@@@",
"@@@@@@@@@@@@@@@@@@@@@@@@@@@@@@@@"
};
