/* XPM */
static char *Suelo_coin1636048597[] = {
/* columns rows colors chars-per-pixel */
"64 64 232 2 ",
"   c #4C3E3C",
".  c #6E0F26",
"X  c #4F413F",
"o  c #79374C",
"O  c #4F4240",
"+  c #524543",
"@  c #564C45",
"#  c #594D46",
"$  c #554C4B",
"%  c #5A4E4B",
"&  c #5D514D",
"*  c #5C5047",
"=  c #5F5452",
"-  c #65544C",
";  c #68554D",
":  c #69594E",
">  c #625247",
",  c #7D4452",
"<  c #615653",
"1  c #695751",
"2  c #655A55",
"3  c #6B5A54",
"4  c #645B5B",
"5  c #6B5E5B",
"6  c #615758",
"7  c #725D5A",
"8  c #604F4D",
"9  c #6D615C",
"0  c #6A6156",
"q  c #74625B",
"w  c #79655E",
"e  c #77665C",
"r  c #746462",
"t  c #796661",
"y  c #756A66",
"u  c #7C6A63",
"i  c #776C6A",
"p  c #7A6D6B",
"a  c #7E716D",
"s  c #7F7065",
"d  c #7E7372",
"f  c #6C6361",
"g  c #A30900",
"h  c #A91603",
"j  c #B11A00",
"k  c #A11D16",
"l  c #993313",
"z  c #B72800",
"x  c #BC3604",
"c  c #A7271B",
"v  c #B32E14",
"b  c #B7381B",
"n  c #AD2E15",
"m  c #85353E",
"M  c #872C2E",
"N  c #B43B23",
"B  c #A6312B",
"V  c #9F1D19",
"C  c #C63B00",
"Z  c #BE4213",
"A  c #B44731",
"S  c #CD4300",
"D  c #C74707",
"F  c #D34D00",
"G  c #D14500",
"H  c #D55400",
"J  c #D75A03",
"K  c #C94E16",
"L  c #DC6201",
"P  c #DE6705",
"I  c #DA681A",
"U  c #DB710C",
"Y  c #E36C00",
"T  c #E16703",
"R  c #E67401",
"E  c #EA7C00",
"W  c #E77803",
"Q  c #E27419",
"!  c #C65928",
"~  c #CB642C",
"^  c #CB683A",
"/  c #D8742A",
"(  c #E37E23",
")  c #853643",
"_  c #9C534A",
"`  c #B54546",
"'  c #A35C4A",
"]  c #A84E49",
"[  c #9F635E",
"{  c #AD6853",
"}  c #816E66",
"|  c #816E6A",
" . c #9C6462",
".. c #84726B",
"X. c #89756D",
"o. c #87756B",
"O. c #817573",
"+. c #8A7674",
"@. c #847975",
"#. c #8C7A74",
"$. c #867B79",
"%. c #8C7D7A",
"&. c #917D75",
"*. c #927E7A",
"=. c #997A79",
"-. c #A56E6A",
";. c #A6736C",
":. c #A77C78",
">. c #8E5E67",
",. c #CF774D",
"<. c #CE7A61",
"1. c #C15646",
"2. c #ED8300",
"3. c #EE8906",
"4. c #F28C00",
"5. c #EE8A13",
"6. c #F49000",
"7. c #EA9539",
"8. c #F19D36",
"9. c #E88C2E",
"0. c #F5A937",
"q. c #EFA43A",
"w. c #8E817C",
"e. c #8F8077",
"r. c #93827C",
"t. c #99857E",
"y. c #958379",
"u. c #BD897A",
"i. c #DC8A54",
"p. c #D88950",
"a. c #E89545",
"s. c #E49C56",
"d. c #E48C47",
"f. c #EFA44E",
"g. c #F9B747",
"h. c #EEA657",
"j. c #F7B753",
"k. c #F1AC50",
"l. c #E59667",
"z. c #E8A963",
"x. c #EDB465",
"c. c #F4B966",
"v. c #EBB371",
"b. c #D98772",
"n. c #FDC75D",
"m. c #FFD25D",
"M. c #F4CB7C",
"N. c #F8C976",
"B. c #FDD778",
"V. c #F7CB6B",
"C. c #FEE27C",
"Z. c #8E8381",
"A. c #948582",
"S. c #9A8682",
"D. c #9C8A83",
"F. c #9E8C8B",
"G. c #968884",
"H. c #9F908E",
"J. c #9E9392",
"K. c #A28E86",
"L. c #A28F8A",
"P. c #A78989",
"I. c #A29087",
"U. c #A4918B",
"Y. c #A9948E",
"T. c #A9988E",
"R. c #A38F91",
"E. c #A49392",
"W. c #AA9593",
"Q. c #A69995",
"!. c #AD9B94",
"~. c #AD9C9A",
"^. c #AA9798",
"/. c #B19B96",
"(. c #B39E9A",
"). c #B89E9B",
"_. c #BA8682",
"`. c #AEA09C",
"'. c #B4A29C",
"]. c #B9A49E",
"[. c #BAA99F",
"{. c #B1A096",
"}. c #B19FA1",
"|. c #B5A5A2",
" X c #BAA5A2",
".X c #BDABA4",
"XX c #BDACAA",
"oX c #B7AAA5",
"OX c #BFB1AA",
"+X c #BFB1A7",
"@X c #D18E8E",
"#X c #ECBA94",
"$X c #C3ABA6",
"%X c #C5ADA9",
"&X c #C3A8A6",
"*X c #C4B2AC",
"=X c #CAB5AF",
"-X c #C3B3A8",
";X c #C5B5B1",
":X c #C9B6B1",
">X c #C7B8B2",
",X c #CABAB3",
"<X c #D4A8A7",
"1X c #CDB28E",
"2X c #FAD786",
"3X c #FAD999",
"4X c #F3CB92",
"5X c #FFE68A",
"6X c #FFEC8D",
"7X c #FFE685",
"8X c #FFEC94",
"9X c #FFEB9C",
"0X c #FFF496",
"qX c #FFF387",
"wX c #F3D4B2",
"eX c #FFE7A8",
"rX c #FFF4A9",
"tX c #FFFBBA",
"yX c #FFF7B9",
"uX c #FDE8BB",
"iX c #F0D4D0",
"pX c #FBE7C9",
"aX c #FFFAC6",
"sX c #FAE9DA",
"dX c #FFFAD5",
"fX c #F9EDE7",
"gX c #FFFDE5",
"hX c #FDF8EA",
"jX c #FEFDF6",
"kX c #FFFFFD",
"lX c #FAF2F0",
"zX c #DCC7CF",
/* pixels */
"$ $ # $ $ $ $ $ $ $ $ $ $ $ $ $ $ $ @ @ @ @ @ $ $ $ $ $ $ $ % % $ $ $ $ $ $ $ $ $ $ @ $ + + $ $ $ $ $ $ $ $ $ $ $ $ $ $ $ $ $ $ ",
"@ +   X                 X X     X X X @ $ $ $ @ + O + O X + O O + $ % % % % % % & & $ # = $ & $ $ & % % % % % = 8 % % & $ $ $ $ ",
"$ $ i w.$.$.$.$.$.$.$.$.$.$.$.$.$.$.$.$.@.@.$.@.w.Z.$.$.| 4 + + 6 d d d O.d O.d d d d d d d d d d d d d d O.O.O.$.$.$.$.d i 6 $ ",
"@ $ w.E.J.J.H.F.R.E.Q.E.J.E.J.J.J.E.E.Q.E.E.E.E.Q.~.|.|.F.u % + 4 O.A.J.E.J.E.E.Q.J.Q.Q.E.E.Q.Q.Q.Q.E.E.E.E.E.E.^.^.^.oXJ.d 6 @ ",
"@ & d H.H.J.R.R.E.^.~.~.E.J.E.J.E.J.E.U.U.H.J.Q.Q.E.`.'.S.r +   = d G.J.J.H.F.F.H.H.H.H.H.H.J.H.J.J.J.F.H.R.L.E.J.~.`.OXJ.d = $ ",
"@ $ w.E.H.E.R.^.}.oXXXoX~.^.~.~.Q.Q.Q.Q.Q.Q.U.Y.~.`.,XXXY...- # 5 %.H.Q.Q.E.E.E.E.E.U.E.E.E.U.E.E.E.E.E.E.E.E.^.}.oXOXOX`.d = $ ",
"@ $ w.E.F.U.E.^.}.}.XX|.~.Q.E.Q.T.U.U.E.U.U.H.U.~..X>X.XI...3 < r *.J.E.E.I.H.I.H.I.F.U.I.H.F.U.H.H.L.I.L.L.E.E.}.}.oXOX`.@.= $ ",
"@ & Z.Q.E.^.E.^.^.}.`.}.~.~.E.U.H.H.U.U.H.H.H.Y.~.XX=XXXF...0 3 y r.U.E.Y.I.H.F.F.L.I.F.I.I.L.F.L.L.L.F.F.L.F.E.~.}.OXOX`.d = @ ",
"$ % %.^.^.}.^.}.^.E.R.R.^.^.^.W.U.H.U.I.U.H.I.E.~.+X=X.XD.| 3 1 u *.U.^.Y.I.F.F.I.L.L.F.L.L.I.U.H.U.E.L.L.P.L.W.~.}.XXXX}.@.= $ ",
"$ % %.^.^.}. X}.E.A.+.%.R.^.(.!.!.Y.T.H.U.I.U.E.~..X=X.XD...7 1 t *.I.E.E.U.I.U.L.U.L.U.L.L.L.U.L.U.F.L.L.K.L.E.~.}.XX;X}.d = @ ",
"$ % %.^.).&X;X}.R.O.r r *.E.(.'.{.!.Y.U.U.U.U.E.{..X=X.XD.X.3 ; t e.U.W.U.U.L.I.I.L.L.I.L.I.L.U.I.U.L.U.U.L.L.W.~.}.%X*X`.O.= @ ",
"$ % $.^.}.&X%X}.S.| 3 7 +.L.~.(./.!.Y.U.F.I.L.U./..X=X&XS...3 ; w *.L.Y.Y.L.I.I.U.U.I.L.L.I.H.L.L.L.L.L.L.L.P.Y.!.(.XX*X|.O.= @ ",
"$ % %.^.^.^.R.S.*.| u | &.S.K.U.Y.Y.I.I.I.L.K.Y./..X=X[.K.} 3 ; t r.L.Y.I.I.I.H.L.L.I.L.L.L.L.L.L.L.L.L.L.L.L.Y.!.'.XX*X`.$.= @ ",
"$ % Z.(.F.=.| p | ..+.*.%.+.+.&.y.t.F.I.K.L.I.U.~..X=X[.t...3 ; w e.I.Y.U.I.L.U.U.I.L.U.L.U.U.L.U.L.U.I.Y.K.K.Y./.{.%X;X'.O.= @ ",
"$ % A.^.=.p 7 7 r +.*.S.+.| } u ..#.S.K.I.L.U.U.!.&X=X.Xt.X.3 ; t y.K.Y.Y.U.F.I.L.L.U.I.I.L.U.U.L.U.U.L.U.L.Y.Y./.(..X*X'.@.= @ ",
"$ $ Z.R.+.p 7 r | +.S.S.+.} t } ..#.t.L.I.K.I.U./..X=X[.t...3 ; w *.K.Y.U.U.I.U.I.U.L.I.I.U.L.I.U.I.L.U.I.L.K.U./.'..X*X`.@.6 @ ",
"@ % $.%.+.| p | +.A.K.F.*...| ..X.&.S.K.K.I.I.U./. X=X Xt...3 ; t &.I.Y.Y.I.I.I.U.K.U.U.I.U.U.U.U.U.U.I.I.I.I.Y./.]..X*X'.$.6 @ ",
"@ % d d | +.+.%.A.F.R.P.S.*.#.#.*.t.K.K.K.K.I.Y.!..X=X[.t...: - w %.K.Y.Y.I.Y.Y.U.Y.I.U.U.U.I.K.I.U.U.U.T.P.Y.Y./.].-X=X'.@.< @ ",
"@ $ p y | %.*.A.P.L.W.U.L.D.S.S.K.K.L.K.L.L.U.U./.&X:X Xt...3 - w &.I.E.Y.I.I.P.U.I.U.K.U.K.L.Y.U.U.L.I.P.I.I.Y.T.].$X-X'.@.< @ ",
"@ % i i | *.F.P.L.W.U.W.W.L.L.K.L.Y.U.L.I.I.U.Y.:._.,.` ` ` ` ` N b N K { ;.t.Y.K.Y.U.I.U.Y.U.I.U.U.U.U.I.Y.I.Y.{.].$X-X'.@.= @ ",
"$ % d d O.S.R.R.E.E.L.U.U.L.L.L.Y.P.L.L.I.I.U.;.c N l.fXfXfXfXsX2XV.2Xc.I v m t.U.U.I.U.U.U.U.Y.U.U.U.K.U.K.Y.T./.'.%X;X|.@.= @ ",
"$ $ d $.%.S.R.R.P.L.L.L.L.L.K.K.I.L.K.K.L.L. .B <XwXpXyXtXyXyXyX9X6X0X5Xc.x.{ o =.U.I.K.K.U.K.I.K.K.U.K.K.K.t.Y./.].XX*X`.@.= @ ",
"$ % $.A.A.P.P.R.L.L.K.K.L.K.K.K.K.K.K.K.P.-.] @XkXjX8Xq./ d.7.a.a.d.a.j.7X0XM.' , =.K.K.K.K.K.K.K.K.K.K.K.K.t.Y./.].*X;X|.d = @ ",
"$ % $.R.R.R.R.R.U.R.R.L.L.L.P.I.L.U.K.K.-.B <XkXjX4X9.J h z H H F H L 3.j.2X6XM._ , =.P.K.I.K.K.L.L.I.L.K.K.Y.Y./..XOX;X|.$.= @ ",
"$ % %.}.^.^.^.}.^.^.^.W.W.Y.Y.Y.Y.Y.Y.-.c <XjXjX3X! j S C T E W W W R E 3.j.7X5XM.' o F.Y.Y.Y.Y.Y.Y.Y.Y.Y.Y.Y./.{.].%X;X|.$.< @ ",
"# % Z.XX}.}. X X X X).).).).].).]./.-.N H pXkX4X! h C T Y 0.9.R q.9.T E 2.5.g.5X8Xq.l , P./.].(.).].{.).).).). X]..X:X:X|.d 6 @ ",
"% $ Z.;XXXXX%X%X%X%X<X%X%X%X%X%X*X%X] c c.aX4X! j C 7.N.N.eX4Xh.V.x.I T E E 5.j.B.m.9.l P.&X$X$X&X$X&X$X&X&X&X&X%X*X,X:X~.a 6 @ ",
"% $ Z.XX|.oX%X%X%X%X%X%X%X%X*X-X*X_.` 1.lXyX^ g C Y h.sXkXkXwXv.2X9Xx.I R 2.E 3.V.9Xj.K -.$X$X%X$X$X&X%X%X%X&X&X$X*X:X;XQ.a 2 @ ",
"$ % $.E.F.E.~.(.).(././.(.(.{.(./.c x f.gXc.C g G E Q i.lXdXp.A iXaXB.h.I P E 3.n.8Xn.U M !.!.!./././././.^./././.(.}.}.F.y 5 @ ",
"$ % O.$.p +.%.%.%.%.*.%.*.%.e.e.r.g ~ B.9X~ j C T 2.T ( sXaX~ c zXaX6XN.b G 4.2.( x.C.k.M e.%.e.&.&.*.&.*.%.=.*.*.*.t.A.O.f 6 @ ",
"$ $ & 9 3 3 4 3 1 1 2 3 3 2 3 3 2 k <.yXB.B g L 2.4.E 8.fXdX/ b iXdXqXN.c x 6.E F d.6X2Xm : : 0 2 1 1 2 1 1 1 3 1 1 3 & # @ # @ ",
"$ & & & % & % # % % # # # # & # # c @XlX2XZ j H E 4.E 8.dXaXf.i.pXyXM.s.v F 4.E H a.6XM.m + * X @ + @ @ @ @ + $ # + @ & # @ @ @ ",
"$ $ 8 8 1 5 5 q 9 0 9 0 9 9 q 0 5 k @XjX2XI C H E 4.E 0.sXuX3XpX3X5Xs.n J 2.2.W H a.6XM.o 0 0 0 0 0 0 0 3 2 3 5 q 5 7 u r = = $ ",
"@ % p d u O.$.$.w.$.@.e.e.e.@.e.#.k <.yX2X/ C H E 2.E 9.3XrXl.@XwXrXx.^ Z L 6.W S 7.6X2Xm o.d e.@.a a a | | ..+.+.*.*.A.+.5 6 8 ",
"$ & d Z.%.Z.S.F.G.G.G.G.t.t.S.S.t.h ! m.B.( C J E 4.R 5.5XrX/ v iXdXqX2Xc x 2.R Q x.C.j.M t.H.D.G.D.r.G.t.A.=.K.P.E.~.~.G.f f % ",
"@ % d F.F.P.R.R.L.I.U.U.H.U.U.Y.U.V C 8.B.g.P F E 2.5.k.dXyX7.,.iXaX7Xh.n D P J v.0Xn.U . {.T.T.!.!.T.Q.W./.^./.(.(. X XF.r f = ",
"@ % @.E.R.W.W.P.W.P.R.W.U.W.Y.U.Y.;.A ( B.B.7.F W 2.x.pXeX7XeXpXeX5Xl.v x Y T I iXaXh.z  ././././.).).).).).&X).(.(.}.~.G.y f % ",
"@ & O.J.R.R.P.W.R.Y.P.Y.L.P.Y.P.Y.U.] Z 0.C.M.9.J Y 7.b.^ c.#X@X2Xs.b z L T P s.lXeX/ . :.).).].].].&X&X&X&X&X&X(.P.S.A.d 4 = $ ",
"@ $ @.E.R.W.R.R.Y.W.Y.Y.Y.Y.Y.Y.I.K.[ c H n.rXN.( R R G z ^ ~ x ,.N z L Y T s.pXgXv.l o S.].&X&X%X&X%X%X%X=X=X%X^.=.| t 2 # $ $ ",
"$ = d E.L.W.W.R.P.R.L.P.L.P.Y.U.Y.I.H.-.c p.7X5X2X0.E E R x x L z z J R J s.yXgX3XA o P.W. X$X%X%X=X=X=X<X=X=X&XY.*.t 3 8 + $ + ",
"@ & O.E.R.R.R.W.R.Y.Y.R.U.Y.U.U.L.P.P.I.-.B p.7X5XB.7.J E Y Y 2.L F G J f.pXgX3X_ , t.Y././.).{.{.{.{.{./.{.T.T.S.&.X.u 5 8 # # ",
"@ % O.E.E.E.R.Y.L.Y.P.L.Y.L.U.U.U.Y.Y.K.U.[ A p.5X0XN.a.k.g.g.g.g.q.l.#XaXgXwX_ , y././.Y.K.t.t.=.y.X.X.X.&.#.o.=.t.D.r.O.5 6 & ",
"@ & O.E.Y.W.L.R.L.R.Y.Y.L.U.Y.P.U.U.Y.U.I.I. .B i.z.V.0X6X6X6X6X6X7XtXgXzX[.' o P./.{.{.Y.y.X.w e q q 7 e 7 7 _ X.t./.Y.G.y 4 & ",
"@ & O.E.P.W.R.R.R.P.Y.R.L.R.Y.L.U.U.I.L.I.I.F.-.B C 7.M.M.N.M.M.M.2X2Xv._ . o P.!./.'.).K.#.7 ; > > ; ; ; > > ; } K.].].E.a 4 & ",
"$ % O.E.R.R.R.R.L.R.U.U.Y.U.U.K.L.L.Y.L.I.L.U.U.:.u.,.b N N B m o o m m  .+.K.W.!.T.W.Y.t.X.w 3 : 3 3 7 3 3 : } X.I..X+X!.d 4 & ",
"% % O.E.R.W.R.R.R.P.U.R.L.L.Y.Y.Y.Y.L.U.U.I.I.Y./.].$X[.Y.o.: - e &.Y./.~./.{./.!.I.t.y.#.X.| } } } } } } } o.X.t.!..X*XQ.p 4 & ",
"$ % O.E.R.W.W.Y.Y.Y.Y.Y.L.U.Y.L.K.Y.U.L.I.I.U.U.!.[.-X.XY...: - w =.I./.{.].].'.T.t...} } X.#.#.&.&.=.y.y.y.y.y.I.'.-X>X^.i = = ",
"$ % O.^.R.W.R.P.R.R.L.U.U.U.L.U.Y.L.U.U.L.U.U.E.~.].*X.XY...; - w y.T.{.]..X.X'.I.X.t t } X.&.t.D.K.K.K.I.t.t.I.Y.].;X>X~.d = = ",
"$ % +.E.E.W.R.L.R.U.W.L.Y.L.Y.L.I.U.U.U.U.I.I.E.~.[.*X&XY...: ; w y.Y.{.].[.[.T.y.o.u e ..#.y.t.K.U.Y.U.Y.I.I.I.!.].=X=X`.i 6 & ",
"@ % @.E.E.R.R.W.W.U.U.U.L.Y.L.Y.Y.U.U.I.U.I.I.Y.!.[.-X.XY.o.: ; } t.!.{.{.T.t.t.#.o...o.X.y.t.t.K.K.Y.I.I.Y.I.Y.T.].=X=XQ.i = & ",
"$ % d E.E.W.R.Y.L.L.U.U.U.U.U.U.T.U.I.T.I.I.U.Y.!.].-X&XI.o.: : } t.{.[.!.y.o.} } X.e.y.y.t.t.H.K.I.I.I.I.I.I.I.Y.{.=X=X`.p = = ",
"@ = d ^.L.W.W.E.R.W.U.E.W.U.U.U.I.T.I.I.I.I.I.Y.!.[.-X.XT.o.3 : } I..X-XT.#.0 : e o.y.t.I.I.I.I.I.I.I.I.I.I.I.I.T.].%X=X`.a = & ",
"@ % O.E.E.!.E.L.E.U.E.U.U.U.U.Y.I.I.T.I.H.I.I.I.{.[.-X[.T.} : : } I.-X-XT.o.: > e o.y.D.T.I.I.I.Y.I.I.I.I.I.I.I.Y.'.*X>X~.i = = ",
"$ % d Q.U.Y.W.U.U.U.U.U.U.U.U.I.T.T.t.T.I.I.I.T.T.[.-X-XT.o.: : s I..X[.I.o.: : w #.t.I.I.T.I.T.I.I.I.I.I.I.u.I.Y.].;X,X`.i = & ",
"@ & d E.E.E.U.L.L.U.I.U.U.I.U.U.T.t.I.I.D.I.D.T.{.[.-X.XI.o.: > s I..X[.I.o.: : e e.t.I.I.I.H.I.I.I.I.I.I.I.I.I.T.].*X>X`.i = = ",
"@ & O.E.H.E.U.L.L.F.H.I.I.H.I.I.T.t.H.H.I.t.H.U.{.[.-X[.T.} : > e t.[.[.I.} : > s y.t.H.I.D.I.I.I.H.I.I.I.t.I.I.Y.].OX>X`.d = = ",
"$ & d }.^.W.W.R.E.E.E.U.Y.I.Y.U.Y.U.U.H.H.I.U.T.{.[.-X+XY...1 > e r.!.~.S...0 q o.t.H.I.U.I.U.U.I.H.D.H.I.I.I.I.T.].*X;X~.p = = ",
"$ $ $.XX X X}.}.(.`.`.~.`.`.{.`.`.{.{.{.{.{.`.[.[.+X>X+XU...3 - 0 ..r.G.r.#.X.#.G.Q.!.`.{.{.!.~.{.{.{.{.{.!./.~.{..X;X;X!.i = = ",
"$ % $.>X;X;X;X;X;X;XXX;X*X-X*X+X+XOXOX+X+XOXOXOX>X>X,X+XU.a 3 - : q u ..#.G.U.`.oX+XOXOX+XOXOX+X+X+X+X+X+X.X+X.X$X*X,X>X}.d = = ",
"$ % $.XX;X:X:X;X;X;X;X;X;X;X;X>X>X;X;X;XOXOX>X>X>X>X>X[.G.s 1 8 - 3 q u @.T.{.oXOXOX-XOX>X>X;X>X>X*X;X;X=X*X*X-X-X*X>X>X`.d = = ",
"@ & d ~.|.|.|.oX|.|.|.|.|.|.|.|.|.|.'.`.`.[.|.OX+X+X[.U.+.q - # # 2 3 9 a t.J.{.Q.Q.`.`.`.`.'.`.`.`.`.`.`.{.[.[.[.[.|.`.J.i 4 & ",
"@ & i %.%.A.A.A.A.A.A.A.Z.G.G.G.A.A.w.G.w.w.Z.D.D.H.t.@.y 3 8 # @ & - 2 9 O.@.e.w.%.e.w.e.w.Z.Z.w.w.e.r.e.y.r.D.F.G.Z.w.d f = & ",
"@ & 9 5 2 r 9 9 9 9 9 5 9 9 0 9 9 9 9 0 9 9 9 9 y y e & % $ $ # + $ & & = f y y s a a a a d a ..a a a a s s ..@.d a i i f = 4 = ",
"$ # 6 6 6 2 < 6 6 = 2 < 6 6 = = < = = = = = = = & = = $ # # $ @ $ + @ @ & & = = & & & & & & & = & = & = = = = = = = = = = & = $ "
};
