/* XPM */
static char *result[] = {
/* columns rows colors chars-per-pixel */
"32 32 7 1 ",
"  c #5F002A",
". c #9D0701",
"X c #D04A01",
"o c #EC8300",
"O c #FFD980",
"+ c white",
"@ c None",
/* pixels */
"@@@@@@@@@@@@@@@@@@@@@@@@@@@@@@@@",
"@@@@@@@@@@@@@@@@@@@@@@@@@@@@@@@@",
"@@@@@@@@@@@@@@@@@@@@@@@@@@@@@@@@",
"@@@@@@@@@@@@@@@@@@@@@@@@@@@@@@@@",
"@@@@@@@@@@@@@@@@@@@@@@@@@@@@@@@@",
"@@@@@@@@@@@@@@@@@@@@@@@@@@@@@@@@",
"@@@@@@@@@@@@@@@...@@@@@@@@@@@@@@",
"@@@@@@@@@@@@@@.oOo.@@@@@@@@@@@@@",
"@@@@@@@@@@@@@.oOOOo @@@@@@@@@@@@",
"@@@@@@@@@@@@.X+O..o. @@@@@@@@@@@",
"@@@@@@@@@@@@.+O.oXXo @@@@@@@@@@@",
"@@@@@@@@@@@.o+o.oXXoX @@@@@@@@@@",
"@@@@@@@@@@@.+O.OOoXXo.@@@@@@@@@@",
"@@@@@@@@@@.X+O.X+O.XoX @@@@@@@@@",
"@@@@@@@@@@.o+O.X+Oo.oX @@@@@@@@@",
"@@@@@@@@@@.oOO.XOOo.oX @@@@@@@@@",
"@@@@@@@@@@.oOO.XOo.XoX @@@@@@@@@",
"@@@@@@@@@@.oOO.oOOo.oX @@@@@@@@@",
"@@@@@@@@@@.XOO.oOOo.oX @@@@@@@@@",
"@@@@@@@@@@@.OO.+Oo.Xo.@@@@@@@@@@",
"@@@@@@@@@@@.oOO.X.XoX @@@@@@@@@@",
"@@@@@@@@@@@@.OOXoXXo @@@@@@@@@@@",
"@@@@@@@@@@@@.oOOXXoX @@@@@@@@@@@",
"@@@@@@@@@@@@@.XoOoo @@@@@@@@@@@@",
"@@@@@@@@@@@@@@ Xoo @@@@@@@@@@@@@",
"@@@@@@@@@@@@@@@   @@@@@@@@@@@@@@",
"@@@@@@@@@@@@@@@@@@@@@@@@@@@@@@@@",
"@@@@@@@@@@@@@@@@@@@@@@@@@@@@@@@@",
"@@@@@@@@@@@@@@@@@@@@@@@@@@@@@@@@",
"@@@@@@@@@@@@@@@@@@@@@@@@@@@@@@@@",
"@@@@@@@@@@@@@@@@@@@@@@@@@@@@@@@@",
"@@@@@@@@@@@@@@@@@@@@@@@@@@@@@@@@"
};
