/* XPM */
static char *result[] = {
/* columns rows colors chars-per-pixel */
"32 32 7 1 ",
"  c #5F002A",
". c #9D0701",
"X c #D04A01",
"o c #EC8300",
"O c #FFD980",
"+ c white",
"@ c None",
/* pixels */
"@@@@@@@@@@@@@@@@@@@@@@@@@@@@@@@@",
"@@@@@@@@@@@@@@@@@@@@@@@@@@@@@@@@",
"@@@@@@@@@@@@@@@@@@@@@@@@@@@@@@@@",
"@@@@@@@@@@@@@@@@@@@@@@@@@@@@@@@@",
"@@@@@@@@@@@@@@@@@@@@@@@@@@@@@@@@",
"@@@@@@@@@@@@@@@@@@@@@@@@@@@@@@@@",
"@@@@@@@@@@@@@.....@@@@@@@@@@@@@@",
"@@@@@@@@@@@@.o+OOo.@@@@@@@@@@@@@",
"@@@@@@@@@@@.+OOOOOO @@@@@@@@@@@@",
"@@@@@@@@@@.+OO..XXoO @@@@@@@@@@@",
"@@@@@@@@@.+OO.ooXXXoo @@@@@@@@@@",
"@@@@@@@@.oOO.Xo++XXXOX @@@@@@@@@",
"@@@@@@@@.+O.XO+OOOXXoOX@@@@@@@@@",
"@@@@@@@.oOo.XoOOXO.XXOX @@@@@@@@",
"@@@@@@@.+O.Xoo+OXO.XXOX @@@@@@@@",
"@@@@@@@.OO.Xoo+OOO.XXOX @@@@@@@@",
"@@@@@@@.OO.Xoo+OOX.XXoX @@@@@@@@",
"@@@@@@@.OO.Xoo+OOO.XXoX @@@@@@@@",
"@@@@@@@.oOo.ooOOXO.XXoX @@@@@@@@",
"@@@@@@@@XOO.oO+OXO.Xoo.@@@@@@@@@",
"@@@@@@@@.oOO.oXOO.XXoX @@@@@@@@@",
"@@@@@@@@@.OOOXo..XXoo @@@@@@@@@@",
"@@@@@@@@@@.OOOXoXXOo @@@@@@@@@@@",
"@@@@@@@@@@@.OOOOOOo @@@@@@@@@@@@",
"@@@@@@@@@@@@.XOOoo @@@@@@@@@@@@@",
"@@@@@@@@@@@@@..   @@@@@@@@@@@@@@",
"@@@@@@@@@@@@@@@@@@@@@@@@@@@@@@@@",
"@@@@@@@@@@@@@@@@@@@@@@@@@@@@@@@@",
"@@@@@@@@@@@@@@@@@@@@@@@@@@@@@@@@",
"@@@@@@@@@@@@@@@@@@@@@@@@@@@@@@@@",
"@@@@@@@@@@@@@@@@@@@@@@@@@@@@@@@@",
"@@@@@@@@@@@@@@@@@@@@@@@@@@@@@@@@"
};
