/* XPM */
static char *result[] = {
/* columns rows colors chars-per-pixel */
"32 32 7 1 ",
"  c #5F002A",
". c #9D0701",
"X c #D04A01",
"o c #EC8300",
"O c #FFD980",
"+ c white",
"@ c None",
/* pixels */
"@@@@@@@@@@@@@@@@@@@@@@@@@@@@@@@@",
"@@@@@@@@@@@@@@@@@@@@@@@@@@@@@@@@",
"@@@@@@@@@@@@@@@@@@@@@@@@@@@@@@@@",
"@@@@@@@@@@@@@@@@@@@@@@@@@@@@@@@@",
"@@@@@@@@@@@@@@@@@@@@@@@@@@@@@@@@",
"@@@@@@@@@@@@@@@@@@@@@@@@@@@@@@@@",
"@@@@@@@@@@@@@@@.. @@@@@@@@@@@@@@",
"@@@@@@@@@@@@@@.++o @@@@@@@@@@@@@",
"@@@@@@@@@@@@@.+O++o @@@@@@@@@@@@",
"@@@@@@@@@@@@.+O..++X @@@@@@@@@@@",
"@@@@@@@@@@@@.+oXo.+O @@@@@@@@@@@",
"@@@@@@@@@@@.+OXoo.o+o @@@@@@@@@@",
"@@@@@@@@@@@.++++Xo.+O @@@@@@@@@@",
"@@@@@@@@@@.+OX+O+oX+OX @@@@@@@@@",
"@@@@@@@@@@.+OX+o+.o+OX @@@@@@@@@",
"@@@@@@@@@@.+oX+o+.o+OX @@@@@@@@@",
"@@@@@@@@@@.+oX++.Xo+OX @@@@@@@@@",
"@@@@@@@@@@.+oX+oO.o+OX @@@@@@@@@",
"@@@@@@@@@@.OoX+oO.X+OX @@@@@@@@@",
"@@@@@@@@@@@.++OO.oX+O @@@@@@@@@@",
"@@@@@@@@@@@.+XX.ooOOo @@@@@@@@@@",
"@@@@@@@@@@@@.+oooX+O @@@@@@@@@@@",
"@@@@@@@@@@@@.OoXX+Oo @@@@@@@@@@@",
"@@@@@@@@@@@@@.O++oX @@@@@@@@@@@@",
"@@@@@@@@@@@@@@.ooX @@@@@@@@@@@@@",
"@@@@@@@@@@@@@@@.  @@@@@@@@@@@@@@",
"@@@@@@@@@@@@@@@@@@@@@@@@@@@@@@@@",
"@@@@@@@@@@@@@@@@@@@@@@@@@@@@@@@@",
"@@@@@@@@@@@@@@@@@@@@@@@@@@@@@@@@",
"@@@@@@@@@@@@@@@@@@@@@@@@@@@@@@@@",
"@@@@@@@@@@@@@@@@@@@@@@@@@@@@@@@@",
"@@@@@@@@@@@@@@@@@@@@@@@@@@@@@@@@"
};
