/* XPM */
static char *result[] = {
/* columns rows colors chars-per-pixel */
"64 64 119 2 ",
"   c #4C3E3C",
".  c #4F413F",
"X  c #54433B",
"o  c #4F4240",
"O  c #524543",
"+  c #564C45",
"@  c #5A4C44",
"#  c #554C4B",
"$  c #5A4E4B",
"%  c #5E5047",
"&  c #5D514D",
"*  c #5F5452",
"=  c #604F4D",
"-  c #625247",
";  c #64534B",
":  c #68554E",
">  c #69594E",
",  c #615653",
"<  c #695750",
"1  c #655A54",
"2  c #6B5B53",
"3  c #615758",
"4  c #645B5B",
"5  c #6B5E5B",
"6  c #725D55",
"7  c #715E5C",
"8  c #6C6157",
"9  c #6D615C",
"0  c #716056",
"q  c #73635B",
"w  c #79665E",
"e  c #79685E",
"r  c #6C6361",
"t  c #746462",
"y  c #796661",
"u  c #756A66",
"i  c #7C6B64",
"p  c #776C6A",
"a  c #7A6D6B",
"s  c #7F7065",
"d  c #7E716C",
"f  c #7E7372",
"g  c #816E66",
"h  c #816E6A",
"j  c #827067",
"k  c #84726B",
"l  c #89756D",
"z  c #85796F",
"x  c #8B796F",
"c  c #817573",
"v  c #8A7674",
"b  c #857974",
"n  c #8C7B74",
"m  c #867B79",
"M  c #8C7D7A",
"N  c #917D76",
"B  c #927E7A",
"V  c #8E8077",
"C  c #8E817C",
"Z  c #938177",
"A  c #93837B",
"S  c #99857E",
"D  c #96887F",
"F  c #99887E",
"G  c #8E8381",
"H  c #948582",
"J  c #998682",
"K  c #968982",
"L  c #9B8A83",
"P  c #958989",
"I  c #9E8C8B",
"U  c #9F908E",
"Y  c #9E9392",
"T  c #A18E86",
"R  c #A28F8A",
"E  c #A88F8E",
"W  c #A29087",
"Q  c #A4918B",
"!  c #A9958E",
"~  c #A9988E",
"^  c #A38F91",
"/  c #A49392",
"(  c #AA9593",
")  c #A79993",
"_  c #AC9B94",
"`  c #AA9798",
"'  c #AD9C9A",
"]  c #B19C96",
"[  c #B39E9A",
"{  c #B89E9B",
"}  c #ADA097",
"|  c #AEA09C",
" . c #B1A096",
".. c #B4A29C",
"X. c #B9A49E",
"o. c #BAA99F",
"O. c #AE9FA0",
"+. c #B39FA2",
"@. c #B5A5A2",
"#. c #BAA5A2",
"$. c #B7A9A1",
"%. c #BDABA4",
"&. c #B7ABAD",
"*. c #BDACAA",
"=. c #BFB0A7",
"-. c #BFB1AA",
";. c #C2A6A4",
":. c #C2ACA6",
">. c #C5ADA9",
",. c #C8AFAB",
"<. c #C1B1A6",
"1. c #C4B2AC",
"2. c #CAB5AF",
"3. c #C7B8AF",
"4. c #C4AFB0",
"5. c #C5B5B1",
"6. c #C9B6B1",
"7. c #C7B8B2",
"8. c #CABAB3",
/* pixels */
"# # % # # # # # # # # # # # # # # # # + + + # + # # # # # # # # # # # # # # # # # # # # o O # # # # # # # # # # # # # # # # # # ",
"+ O                   o .     .   . . + # # # O O O o o O O . . O $ $ $ $ $ $ $ & & # $ $ & & & # $ $ # $ $ $ & * # $ $ # # # # ",
"# & p C m m m m m m m m m m f m m m m m b m b m C G m m c 4 O O 3 a f f c f c c f b b f f f f f f f f c c c c c m m m m f p 1 + ",
"+ # C Y Y Y I ^ ^ / / ` Y / Y Y Y / ) / ( / / / ) ' @.$.J i = O < m P Y / Y / ^ Y Y ) Y ) Y ) / ) ) / / / / / / ` ` ` &.Y f , # ",
"+ $ m U U / I ^ / ' ' ' ) Y / Y / / Y / / Q ) / / ) | $.J t O   * f H Y Y ^ I U U U Q U U U Y U Y Y Y I ^ I Q / ) | O.&.Y f * # ",
"+ # m Y U / ^ ` O.@.*.&.' ) ' ' ) ) ) ) ) / Y ) ' O.8.*.Q k , @ 5 m U ) ) / Q / Q / / / / / Q / / / / / / / / ` O.&.&.-.O.f * + ",
"+ # G / I R ^ ` O.@.&.@.' ) ) / / Q Q / Q Y W Q ' %.7.%.Q k 1 , u B Y ( / W U U Q I W W W U Q U U Q I Q U I / / ' O.-.-.| f * # ",
"+ & C ) / ` ` ` ` ' [ O.' ' / / W U U Q W U I U ' *.5.%.I k 6 < i B Q ) Q W I I I R I I R R R I R I Q I R R I / ' @.-.-.| f * + ",
"# # M ` ` +.` ` ` ` ^ ^ ` ' ` ( Q Q Q U Q U Q ( ' %.3.$.J v 2 < u B Q ` ! R I R I R R I R Q R R U Q Q R R R R E ' +.*.4.O.b * + ",
"# = M ` ` +.;.+.^ H M v R ` [ ` _ ~ Q Q W Q W ( ] :.6.%.J k 2 < y B W ( ! R W W Q Q R W R R R Q Q Q I R R R R ( ' [ *.5.' c * + ",
"# = G ` ` ;.4.&.^ v 7 t N ( [ ..] ` ! Q Q W Q Q ] %.2.%.I k 2 : y Z W ( / Q R W R Q Q R R W W Q R Q R Q R R R ! ` ..>.4.| c * + ",
"# # B ` ` 4.;.+.J h 5 7 v R ` [ ] _ ! Q U W W / _ :.2.:.L g 6 : t B R ! Q Q W R W R W R W I Q R R I R R E R E E ] [ *.4.O.b * + ",
"# $ M ' ` ` E H B k i h N J T E ! ! Q T Q R W Q ] %.3.%.T g < : e A R Q Q Q W Q R W W R R R R R R R R R R R R ! ] [ *.5.| b * + ",
"@ $ H ` ^ B h h h k v N M n n n A S T T T W T ! ] %.2.%.S h 6 : y N W ! Q W R W R Q R Q Q W R Q W Q R Q T E W ! ] ..*.1.@.b * + ",
"# $ G ` M a 7 7 t v B J v h i g k N L T T T Q Q ` %.2.o.S l 6 : y B W ! Q Q R W W Q R W R Q R R E Q Q R T T W ! _ [ *.1.@.b * + ",
"+ # G ^ v h 7 7 h v J J v h i y g n S T R R W Q ] %.2.X.J h 2 : y N Q Q ! W R W W R Q R W W R Q W W R Q E W W ! _ X.%.1.| b * + ",
"+ $ b B b h a h v J R J B v h k l B S T T R Q Q ( %.2.o.S k < > w B W Q Q Q Q W Q Q Q Q Q W W Q W Q W Q W W ! ! { { %.1...b , + ",
"# $ f f h v v M B I E R J N n v B S T T T T W ! ] %.2.X.S k < : w N W Q ! Q Q Q W Q W Q Q Q Q Q Q Q Q Q W E W ! ] { <.2...b , + ",
"+ $ p u h v B H I E ( Q R I J S T T R T T T W Q _ %.2.%.J g 6 ; w N T ! Q Q Q Q Q Q Q W W E E W Q Q R R W W W ! ]  .:.2.@.b , + ",
"+ & p p h B I ^ E / Q / ( R T T R Q Q E W Q Q ! ] %.3.%.F l > ; q M T ! Q Q W Q W E W Q Q W W Q Q Q Q W E W W ! ] X.:.,.| b * + ",
"# $ a c v J ^ ^ E ^ ! E E R R R W Q E E Q Q Q !  .:.2.%.F k 2 ; q n T W ! W W Q W E W W W Q W E Q R Q Q T W ! ! ] ..:.5.@.b * # ",
"# # f M M P E ^ R R R R R R T T T T T T R T Q Q ] :.2.%.F k 2 ; q N L Q W T W W W W E W E W W W R T T R T T F ! ] o.*.5...b * + ",
"# = c P H J ^ ^ R T R R T T T T T T T T T T T ! ] :.2.:.T j 2 : w n W ! Q W T T T T T T T T T T T T T T T T T ! ] o.1.5.@.f * + ",
"# # m ^ ^ ^ E E ^ ^ R R R R T Q T E E W W W Q ! ] :.2.;.F l 6 < i D Q ~ ! Q T T E W T W W T W W T Q T R T T T ! ] X.-.5.@.b * + ",
"# $ M +.` ` ` O.` ` ` ( ( ! ! ! ! ! ! ! ~ ~ ] ] X.<.2.%.L k 0 6 i F ~ _ _ ~ ~ ! ! ! ! ! ! Q W ! ! ! ! ! ! ! E ( ] #.4.5.@.m , + ",
"# $ G &.+.+.@.#.+.;.;.{ { { { { X.X.X.{ ....X.o.%.,.2.:.L i 2 2 s F _  ......... ..... .{ { { X. .{ { { { { { ;.o.:.5.8.' c , + ",
"# = G 4.&.>.>.4.,.;.>.>.>.,.>.:.:.:.:.:.:.:.<.1.1.3.2.:.K e % > i K ..=.%.=.=.=.=.=.=.=.:.:.:.:.:.:.,.;.:.:.>.;.:.,.8.8.' f 4 + ",
"# * G &.@.#.>.>.>.,.,.>.>.,.1.:.<.:.:.:.%.:.:.1.1.3.<.o.K q ; > i L } $.%.=.=.=.=.=.=.=.:.:.;.:.:.,.;.,.;.,.;.;.:.>.8.4.) d , + ",
"+ $ m / I / ] ] { ` ] ] ] [ [ [ ] ] _ _ _ _ }  . .....Q Z e > > i A U ~ _ _ _ } } } ~ ~ _ ] ] ] ] ] ] ] ] ` ] { ] ] +.+.I p 5 + ",
"# $ f M h b M M N N M N B N V V V Z V n V n V A D F Z n i 8 ; ; 0 j z V V V V V V V V V M M M V N N N N M B B B B N H H b r 4 + ",
"+ $ ; r 4 5 < 1 < < 4 5 1 1 2 2 1 1 > > > > 2 8 0 q 2 < ; ; @ X - 2 8 > > 2 1 2 8 1 1 8 > 1 2 1 1 1 < < , < , < 4 < 1 ; $ + + + ",
"+ $ $ $ $ = $ $ $ $ @ @ $ $ % % % % @ @ + X % % ; - ; @ % X X X X ; % % X @ @ @ + % X X + X X + + O + + @ O @ @ @ @ @ $ @ O + + ",
"# $ = * , 5 9 r r 9 9 9 8 8 q q q 8 8 8 8 8 8 q i i s s 8 ; X X ; 8 8 8 q q 8 q 8 8 8 8 8 8 8 8 1 8 1 8 2 < 2 7 t 7 7 t t * * $ ",
"# # a a a d M M M b b b V n b n V b V z z z V V A F I K n q ; ; 0 s z z z n n n V V b z z z V f f d d d h h h v N v B H v 5 3 & ",
"@ $ c G M H J J K L P J K L F L D D D D A D D L U _ } ~ D i < < e M D D K K K K K K K K K D K K K K D D J J B J R ^ ] ' P r 5 $ ",
"# $ c I J R ^ ^ R R Q Q Q W Q Q Q W Q W L I W ! } o.=...K s 2 2 i A W ~ ~ ) Q Q Q ~ ~ ) ) } } ) ) ~ ) } ( ( { ] ] +.*.#.I u r $ ",
"+ & m / ^ ( E E ( E E ! ! E ! ! ~ ! Q Q Q Q Q ~ o.<.<.o.L s 2 < i D ~ ~ } ~ ) ) ~ ~ _ _ ] ] ] { [ { { { { { { ;.{ { +.{ P t 5 $ ",
"+ $ c ^ ^ E ^ E ^ E E E W E E W Q Q Q Q Q T W !  .<.-.o.I s > ; e A ~ } } ~ ~ Q ! ~ ~ _ ] { { { { ;.;.;.;.;.;.;.] T J B c 4 , $ ",
"# $ b / ^ ( ( E E E E R E Q E Q W E Q Q T Q W ~ ] %.1.$.W j ; = q Z W } } Q U ~ ! ! ! ! ] X.;.%.:.,.,.,.,.2.2.,.` B h t 4 $ # O ",
"+ $ c Y ^ / E ^ Q Q E E E Q Q E Q E Q W R W Q Q ] %.>.:.! k : ; q Z U } ~ ~ ~ W ! ] ! ! ! X.:.:.>.1.2.2.2.2.2.;.E N y 2 = O + # ",
"+ & c / ^ ( ^ ^ E R Q Q ^ Q Q Q Q E E W W W Q ! ] o.1.:.Q k : @ q V Q _ _ ~ Q Q ~ ~ _ ! ] ] { { ] ] ] ] ] ] { F T N l y 6 & $ $ ",
"+ & f ` ^ / / E E / E R E Q Q Q Q W Q Q E T Q Q ] X.<.:.! l : - e Z Q _ ~ Q Q ~ ~ _ ] ] ! W F S N N x l N N x j N B J S b 5 3 $ ",
"+ $ f / ^ ( E E E R Q R Q Q Q E ! Q Q W R T W ! ] o.<.:.Q k > ; e A ~ _ _ ~ ! ! ~ ] .. .! N g g g 6 g 6 g : 6 g l S ] ( H u 4 & ",
"+ & b / E / / R / R E E E Q Q Q W E E T Q Q W ! ] X.<.%.! k : ; e V Q _ _ Q ! ~ _ ] ....E x 7 : - - : : - - - 6 j T { X.( d 4 & ",
"# = m ^ ^ ` E E R E Q / E ! Q Q Q Q Q Q W Q Q Q _ X.<.:.! k > ; e V ! _ _ _ _ _ ] _ _ ! S x w < : 6 6 : 6 6 > w x W %.:.) f 4 & ",
"# # c / ^ ^ ^ R E E E R E Q Q W Q W E W R W Q Q _ o.,.:.! l > ; y Z ! _ _  .] ] _ W S N x x h g g g g g j j g l S _ *.1.) a 4 & ",
"@ $ c ^ / ^ ^ ^ ^ ! E E W Q Q E Q Q Q E E W W ! ] o.1.:.E k > ; i A Q ] ....o...! A k g g k v N N N N B Z Z N S T ..1.7.) p 4 & ",
"# $ c ` / / E ( Q Q Q Q Q Q Q ! W E Q W T Q Q Q ` o.>.%.Q k > ; y A ! ] X.%.%...T x y y g x N S F E F E W F F T ! X.5.7.' f * & ",
"+ & c ` ^ ( ^ E / E E E W Q Q ( Q ! W W Q W Q ! _ o.1.:.Q k > : w S ~ ] ..X...~ S k y y j x D F W W ! ! ] F ] F { ;.2.2. .s * & ",
"+ $ f ` / ( Q / E Q / Q Q Q Q Q Q Q Q Q W Q Q Q _ o.:.:.! l > > g S ~ ....! T F n l k l x Z F L W E W W F ! F ] ~ X.2.2. .s * & ",
"# $ f ` ^ / ^ / Q Q / Q E Q Q Q Q Q W ~ W W Q ! _ o.<.:.W k > > g S ..o.~ S l j g l n Z S S L L W W W W ] F F ] ~ { ,.2.| a * * ",
"+ & f / / ( ( Q / R Q Q Q Q Q ! Q W ~ W Q T W ! _ o.<.%.~ j 6 > g W o.<.~ x 0 > q l Z F T W W W W W W W F ] F F ! { ,.2.} a * & ",
"+ & f ) ( ( Q E / Q Q U Q Q Q Q ~ W W W W U W Q _ o.<.<.W l > > j W <.<.~ z > ; q x Z W ~ W W W ! W W W W W F ! ! o.5.7.} p * * ",
"+ $ f ) Q / / / Q Q Q Q Q Q Q Q W W W W U W W ~ ] o.<.%.~ j > > i W %.%.W j > > e x F W W W ~ W W T W W W W ! F ! ..1.7.| p * * ",
"+ & f / / ( Q R Q U Q Q W Q Q Q ~ U W W F W W Q } o.<.<.W l > - s W o.o.W j > > e V F W W U W W W W W W W F W ! ! X.1.7.| p * * ",
"+ & c / Q / Q I I Q W W I W W U W U W W F W L ~ ~ o.<.<.~ j > - e L o.o.W j > > e Z F L W W W W W W W T W T W W ! X.1.5.| f * * ",
"# & c ' ` ` ` / / Q ( Q Q Q ! Q Q ! Q Q U Q Q ) } o.<.=.Q l < - 0 D ` _ I k 0 q z A U Q Q Q Q Q Q W W W W W W Q ~ X.1.5.' p , * ",
"# $ m &.$.#.[ +.@...' O.| | ..} ..} } } } } ....o.=.3.=.! k 2 ; 8 j Z H Z n z n L ) _ } _ } ' _ } } _ _ } _ ] ] ..%.5.5.' p * & ",
"# $ m 5.4.5.5.4.>.-.-.5.1.-.-.1.-.-.-.-.=.-.-.<.1.3.8.=.Q k 2 - > w i k n K Q } $.-.-.-.<.-.-.-.*.-.-.-.<.%.=.%.:.<.8.7.' f * * ",
"@ $ m -.5.7.6.5.5.5.5.5.5.5.7.5.5.3.3.-.1.-.5.7.8.8.7.$.K s < = - 2 t y b U | %.-.-.-.5.7.7.7.7.8.1.1.3.3.1.1.<.<.1.7.7.O.f 4 * ",
"# & f ' [ @.#.@.@.@.@.@.@.@.@.@.$.@...@.| | @.-.=.=.o.U n q , # $ < 1 9 d K Y ) ) } _ ' | | | | | ..| } } ....o.@...@.| Y f 4 * ",
"+ & p M M P P H H H H H G K K K H A G A C D G K U I D V y 4 = @ + & : 1 q c V V M V C C V C A H C C C A A Z D K U K D A f 4 4 # ",
"# $ 9 4 5 5 r 9 9 r 9 r 9 r 9 9 5 9 9 9 9 9 8 t t u 9 & $ O O $ O # * # * t u p p a d d d d d d d d d d s d k b z d p p r * 4 * ",
"+ # 1 4 4 3 , , , * , , , * * * , , * * * * * * * * & $ $ $ $ O + + + + & & * & & & & & * * * & * & * * * * * * * & & * * $ & # "
};
