/* XPM */
static char *result[] = {
/* columns rows colors chars-per-pixel */
"64 64 205 2 ",
"   c #090E1A",
".  c #0E141B",
"X  c #0A0C26",
"o  c #0A0C2B",
"O  c #040528",
"+  c #100E23",
"@  c #100E28",
"#  c #0C1121",
"$  c #0C1128",
"%  c #13132C",
"&  c #131525",
"*  c #0B0C34",
"=  c #05033A",
"-  c #0C0C3B",
";  c #090835",
":  c #120F39",
">  c #100E36",
",  c #0A1131",
"<  c #0F103E",
"1  c #131333",
"2  c #181B31",
"3  c #14123B",
"4  c #1A153D",
"5  c #1E1C3D",
"6  c #211F3E",
"7  c #23253A",
"8  c #0D0B43",
"9  c #120E45",
"0  c #130E4A",
"q  c #151343",
"w  c #191443",
"e  c #171946",
"r  c #1A1A44",
"t  c #15124C",
"y  c #19154D",
"u  c #171A4A",
"i  c #1B1A4C",
"p  c #171453",
"a  c #191552",
"s  c #1D1C54",
"d  c #1E1A5A",
"f  c #1D165C",
"g  c #211E44",
"h  c #211E4A",
"j  c #211D55",
"k  c #221D5B",
"l  c #2A1F51",
"z  c #1D204E",
"x  c #1F2053",
"c  c #232345",
"v  c #23234C",
"b  c #28294B",
"n  c #252A45",
"m  c #302E4F",
"M  c #232352",
"N  c #262955",
"B  c #2A2B54",
"V  c #24245B",
"C  c #28265C",
"Z  c #25285B",
"A  c #2B2B5C",
"S  c #2A2556",
"D  c #322D59",
"F  c #2F305A",
"G  c #33345C",
"H  c #231F61",
"J  c #272561",
"K  c #2A2565",
"L  c #272962",
"P  c #2D2B64",
"I  c #2E2B6A",
"U  c #2D276C",
"Y  c #302E65",
"T  c #332D6D",
"R  c #2F3266",
"E  c #343463",
"W  c #3A3665",
"Q  c #363866",
"!  c #3C3B65",
"~  c #35336C",
"^  c #3A356B",
"/  c #3C3A6C",
"(  c #363A6C",
")  c #2F2B72",
"_  c #322D73",
"`  c #342F78",
"'  c #2E3175",
"]  c #363374",
"[  c #3A3575",
"{  c #3D3B74",
"}  c #37327C",
"|  c #3B357C",
" . c #3D397C",
".. c #423D6D",
"X. c #443B63",
"o. c #413D75",
"O. c #433D7D",
"+. c #41377A",
"@. c #3F417A",
"#. c #3C4070",
"$. c #40405C",
"%. c #444569",
"&. c #434373",
"*. c #44427C",
"=. c #4A447D",
"-. c #47487F",
";. c #4B4878",
":. c #51497E",
">. c #3C3683",
",. c #3E3983",
"<. c #3E378B",
"1. c #3E3A8A",
"2. c #323584",
"3. c #413784",
"4. c #423B84",
"5. c #483F82",
"6. c #423689",
"7. c #423C8A",
"8. c #493F8B",
"9. c #423D91",
"0. c #3F418A",
"q. c #454183",
"w. c #4A4484",
"e. c #464A84",
"r. c #4D4B84",
"t. c #45428B",
"y. c #4A448C",
"u. c #474989",
"i. c #4D4A8B",
"p. c #514E85",
"a. c #524B8D",
"s. c #53538C",
"d. c #585689",
"f. c #474392",
"g. c #4B4492",
"h. c #4D4A96",
"j. c #4F4D98",
"k. c #4C4599",
"l. c #524C94",
"z. c #524D9A",
"x. c #555294",
"c. c #595695",
"v. c #555993",
"b. c #5D5D95",
"n. c #54519C",
"m. c #59529D",
"M. c #5D5B9C",
"N. c #565A9F",
"B. c #615C9A",
"V. c #5F6097",
"C. c #5F6198",
"Z. c #616196",
"A. c #64629B",
"S. c #696A9F",
"D. c #5455A0",
"F. c #5B54A2",
"G. c #5759A2",
"H. c #5B5DA4",
"J. c #5B5FA8",
"K. c #625DA4",
"L. c #635DAA",
"P. c #5E62A4",
"I. c #5C63AB",
"U. c #5C68AF",
"Y. c #5F6AB0",
"T. c #5D63B2",
"R. c #6563A3",
"E. c #6965A6",
"W. c #6A6BA4",
"Q. c #6564AB",
"!. c #6A65AC",
"~. c #656AAD",
"^. c #6C6BAD",
"/. c #6769A7",
"(. c #716DAD",
"). c #7171AF",
"_. c #6465B1",
"`. c #6B66B2",
"'. c #656BB2",
"]. c #6C6CB3",
"[. c #6B65B9",
"{. c #6D6BBA",
"}. c #656EB9",
"|. c #716CB4",
" X c #736CBB",
".X c #786FBD",
"XX c #6A71B6",
"oX c #6C72BA",
"OX c #7471B5",
"+X c #7A75B7",
"@X c #7572BB",
"#X c #7A74BC",
"$X c #7D7ABC",
"%X c #6E68C1",
"&X c #6C67C1",
"*X c #736DC2",
"=X c #7067C0",
"-X c #7671C1",
";X c #7D75CC",
":X c #787ECA",
">X c #7878C6",
",X c #807AC0",
"<X c #7A82CE",
"1X c #8382C5",
"2X c #9CA0E0",
/* pixels */
"w.t.h.f.f.9.y.g.g.g.j.j.n.n.j.f.t.D.B % v 4.,.N.z.h.h.j.j.j.j.j.n.n.n.n.j.h.h.f.f.f.f.8.9 - b n.h.h.j.h.j.j.D.j.n.j.h.g.g.f.t.w.",
"i.Q._.].oX}.XX'.'.'.Y.Y.Y.Y.U.}.<X@Xh.e  .4.oX:X].'.Y.'.~.~.Y.'.Y.'.'.}.}.XX].XX'.Q._.H.J u M.:X}.'.'.'.'.~.'.'.'.XX}.XX'.Q._.i.",
"i.].Q._.Q.XX'.'.oXXXXXXXXXXX}.Y.}.XXj.e ~ G.oX].U.'.oXXX}.XXoXXXoXoXXX~.'.XX'.Q.Q._.].Q.i.Z ~.XXU.XX}.XXXXXXoXoX'.'.XX_.Q._.{.i.",
"w. X@X].'.].'.].}.}.].}.}.XX}.}.oX}.n.z ~ '.XXXX}.}.}.}.XXXX}.].}.}.].'.'.].].'.]. X#XQ.w.V I.XX'.XXXX}.}.].XX}.'.'.].'.].@X|.w.",
"i.@X].@XXXoXXX].].XX].].XX}.XX'.<XI.j.u ' '.&X<XXX'.XXXX].].].XX].XXXX].].{.].oX@X].-X!.i.Z '.<X'.XXXX].XX{.].].oX].{.XX X].-Xa.",
" .z.@X{.{.{.].].].].XXXXXX).].oXT.f.0.z R '.'._.}.oX].].].XX].].XX].{.].].}.].].}.XX_.j. .Z G.T.*X}.].XX|.XXXX].].XX{.{.{.@Xz. .",
"4.>.g.1.t.t.t.t.t.t.t.t.t.t.t.0.2.2.0.z R G.Y.'.I.I.J.I.I.I.J.J.J.J.G.G.G.D.D.D.n.D.f.,.0.A ' 2.0.0.u.0.w.t.t.t.t.t.t.0.1.h.>.4.",
" .1.,.,.,.,.1.>.,.,.,.,. .,.,.1.1.0.#.z Z 0.0.0.1.,.4.4.4.4.>.4.,.,.,.,.,.,.,.>.,.,.1.,. .Z ] 1.1.,.,. .,.,.,. .,.1.,.,.,.,.,. .",
"i.1.,.7.4.>.1.6.4.,.,.4.3.3.1.4.,.0.u.v Q u.1.1.7.4.4.3.3.3.4.,.4.,.,.4.6.4.4.4.7.,.>.7.i.A ] 1.7.4.7.3.4.6.,.,.4.3.6.4.7.>.1.i.",
"q.,.,.7.4.4.3.,.4.4.6.4.6.4.6.7.t.0.*.z I @.q.7.7.1.6.4.6.4.3.6.,.6.>.6.,.4.6.4.4.1.1.,.1.V R f.7.6.6.6.6.,.4.6.,.4.4.4.4.1.1.O.",
"p >.5.} 4.3.4.4.,.4.6.3.6.6.4.>.t.q.x - ] } i.t.>.>.7.6.4.6.6.,.4.4.4.4.1.+.,.,.} 4.q.| 4.x L ,.| 6.4.3.4.,.4.4.6.4.,.4.| 4. .p ",
"s w.4. .+. .>.5.| } 4.3.+.3.>._ | @.i = = J 1.] ) | 4.3.3.+.4.4.| | +.4.4.+. . . .4.t.4.I - = I _ 4.| 3.3.4.} >.4.+.+. . .4.w.j ",
"y O.{  .O.O.O.+.O.4.+.4.5.5.7.q.=.e.x - * C q.q.5.4.q.q.4.4.4. .4.O.+.+.4.O.*.O.{ [ 5.| t 3 = t 4.q.q.5.4.4.O.+.+.O.O.O. .[ O.i ",
"y y 8 y 9 9 0 y t 0 p t 0 0 0 t t t i x N Z t q t t 0 0 0 t t p 0 0 t t 9 t 9 t y 8 9 t q c s t t 0 0 0 0 t 0 t y 9 t 9 y 8 t q ",
"=.=.*.o.O.*.&.=.P t { [ o.{ { { #.{ &.*.*.*.*.*.*.*.O.*.#.#.&.1 % c / o.O.*.&.*.*.&. .&.{ &.{ { { { [ [ [ { t Y =.o.O.O.o.=.w.=.",
"K.B.E.R.(.A.*.r.Y s O.B.|.(.(.^.(.^./.R.R.R.R./.A.R.).).$X2Xe.( Q ( ~././.^.R.R././.~.W.^.^.).^.^.(.(.+XM.O.s Y p.*.A.(.R.E.r.M.",
"^.|.(.!.(..XB.{ R V M.|.|.|.(.(.^.(.^.^.^.).~.^.~.^.^.^.^.1Xe.@.e.v.~.~./.XX^.~.~.^.~.^.^.^.).^.(.(.|.|.OXM.V P &.M.OX(.!.^.!.E.",
"^.#X|.`.(.#XK.~ Z d N.].|.].^.^.(.^.].^.^.^.~.XXXXXX~.U.(.).u.( @.C.~.~.U.~.XXXX^.^.XX^.^.).^.(.(.^.|.].oXG.d V ~ R.#X`.|.|.`.E.",
"`.`.`.`.|.|.c.o.L p n.{.{.|.].|.^.^.).^.^.XX^.^.Q.^.oX_.).+Xe.( @.C.~.~.~.XX~.Q.XX^.^.].^.^.^.^.|.].].|.].n.p L { c.|.|.`.!.!.K.",
"^.|.!.`.^.!.c.o.P d c.].[.].`.^.^.^.^.^.~.^.^.~.].].Q.^.).1Xr.#.#.I.~.~.].E.].`.^.~.~.^.^.^.^.~.^.`.].[.].n.d P { c.^.`.`.!.(.E.",
"M.K.OXK.L.K.[ O.R H t.n.[.Q.Q.Q.Q.R.Q.E.E.Q.E.Q.!.!.Q.!.y.` q.e.( P.~.~.!.L.^.!.Q.Q.Q.E.~.E.R.~.!.Q.Q.[.n.t.J I =. .H.Q.L.|.R.K.",
"5.4.1.,.>.` 4.5.L d u.1.2.>. . . .|  . .| | | | >.>.| 3.| 1.=.e.#.@.x.N.+.| >.3. .|  .| | | |  . .|  .>.,.t.d L O.O.} } 3.4.7.5.",
"t.7.,.y.4.|  .*.L a q.q.t.4.0.O.q.0.,.0.4.4.4.4.4.5.3.4.7.8. .-.u.D 7.4.7.4.5.7.4.4.,.4.4.q.t.q.,.,.q.0.q.w.p L 4. .| 4.y.7.5.w.",
"O.3.,.,. .| q.[ d s  .q.*.4.4.5.w.w.q.4.4.q.4.,.6.4.| g.5.>.O.c 2 ] 4.4.7.4.7.4.4.7.q.4.,.4.q.w.q.*.4.4.q. .s x [ q.| | ,. .1.+.",
"^ T ~ T I ] V = 8 8 t ~ ~ ~ ] ~ P P Q ^ ^ Q Q ~ ] ] T [ K [ ~ ; o S +.>.+._ ] ] W W Q ^ ^ Q E P ~ ] ~ ~ ~ t 8 8 = V ] I T ~ T ^ ",
"r y y i y u s i i y q t y i i q u r o O       3 y y t y j y k C V V a j a t y y 3       O o r u q y i u t q i s y i u i u y y u ",
"=.=.*.=.O. .q.+.O.q.q.*.O.O.O.[ =.:.r X   .   G w.t.O.O.q.+.5.5.5.5. .q.O.4.w.w.G   . # X r :.;.{ 5.O.O.q.*.5.4. .q. . .*.*.=.=.",
"*.7.} >.>.>.6.>.>.,.,.1.1.7.4.>. .=.u * 1 & X ~ 8.8.8.6.6.8.6.3.1.4.6.4.6.7.8.8.T X & , * y -.[ >.4.1.1.<.,.,.>.>.,.>.,.>.>.5.O.",
"O.| i.g.z.z.m.k.z.j.z.z.z.z.z.z.u. .P t h v r ] 3.y.m.l.8.m.F.l.l.K.l.g.l.m.y.3.] i v M t P O.t.l.z.z.z.z.z.k.z.z.m.z.z.g.g.| O.",
"o.M.,X|.#X+X#X|.|.{.|.`.[. X|.+XR.x.i.d ~  .O.a.E.#X+X(.+X.X|.|.(.|.+X+X(.#X+XE.a.+.o.~ d i.a.R.@X]. X|.|.|.|.|.|.#X.X+XOX$XM.o.",
"r.,X|.|.|.`.|.`.`.`.|.^.`.|.|.|.(.+Xc.a ~ | I |.+X`.(.`.`.+X.X|.[..X.XE.(.`.|.+X|.) | ~ y x.+X|.|.|.[.|.`.`.`.`.`.|.(.|.|.|.,Xr.",
"i.K.|.`.|.^.|.^.].|.|.|. X X|.`.M.M.i.i E 4.1.F.`. X.X.X.X.X|.(. X|..X.X.X.X X`.m.1.O.E i i.B.F.|.|.|.|.|.|.|.|.`.|.`.`.^.|.K.a.",
"[ 8.@X].|.|.|.].].|.|.].|.|. X-Xh.` q.M E q.1.>.`.|. X X X.X X[. X.X#X X*X X`.`.>.7.q.E s 5.` z.-X|. X X|.|.].|.`.|.^.|.].+X8.| ",
"w.7.m.z.z.z.m.z.z.m.n.n.n.N.n.F.k.7.g.d P 4.1.1.h.m.F.F.F.K.m.m.m.m.F.m.F.F.m.z.1.1.,.E d g.9.k.F.n.n.n.n.n.n.n.z.m.z.n.z.m.6.5.",
"q.6.| >.| >.,.|  .>.1.,.6.,.,.>.9.1.y.x A *.} ,.2.>.>.6.3.>.>.>.3.>.3.>.6.>.>.}  .| @.A s y.1.1.>.1.4.1.1. .,.,.>.>.>.>.>.| 4.q.",
"5.,.,.4.4.4.1.4.7.5.4.4.7.4.1.1.1.<.t.z v &.@.,.>.3.4.7.7.6.4.1.3.6.6.4.7.7.>.,.0.*.#.v z y.1.1.1.4.7.4.7.4.,.4.4.4.4.4.4.>.4.q.",
"5.1.1.4.1.1.4.1.1.4.4.4.q.4.0.q.7.,.( 1 2 n z ( ,.1.1.7.4.7.1.7.7.1.7.7.7.7.<.>.] z n 2 3 ( ,.4.,.4.q.4.,.*.4.4.1.4.1.7.4.4.4.5.",
"q.5.q.4.5.7.q.q.q.w.-.-.w.q.*.=.*.e.Z $ . # , ( 4.7.t.t.t.t.t.q.5.t.5.t.t.t.4.0.( X # . $ B -.*.-.e.q.q.q.-.w.t.q.q.4.q.4.t.7.q.",
"h i j C s M M M h M s s k j x s u z e o $ $ $ z s s s M s C i v v i C s x x s s z , $ # , 3 z u s x s V s M M h N M V i C h i h ",
"b B v F b G b o o O q P L L Z S Z N N B B B N N N N N S A Q , & $ O A A B B N v B #.F Q G E E Q &.;./ B b 7 O o X b G S D v B B ",
"..o.B.d.A.d...D g y ~ r.K.B.B.Z.V.C.C.C.C.V.b.V.B.V.V.v.&.#.Q $ $ L { Z.B.Z.Z.B.Z.W.S.S./.W.W.W.V.B.^.R.%.c y h A ! d.A.d.Z.p...",
"!.^.`.|.|.E.s.;.P k l.!. X|.|.|.^.XX].].].XXXX].XX X|.OXQ.Q.w.* q  .F.OX|.|.|.|.^.(.!.!.Q.Q.^.^.Q. X;X{.q.S V A =.s.!.|.|.|.-X X",
"K.*X*X X`. Xc.[ U k m.=X X X[.[.].].{.{.{.{.]. X{.oX{.>X X*Xy.i t >.*X{.|. X[.[.[.{.].{.{.{.{.{.=X%X*X*Xy.S k K ] c. X`.=X-X,X*X",
"(.,X X*X=X|.K.] U f L.,X=X=X X X X{.{.{.%X{.{.{.{.{. X[.{.{.,.q 8 7.;X|.|.|. X X X{.[.{.{.[.{.{.%X%X*X|.k.C k U ] K. X X*X%X,X*X",
"!.`.!. X@X!.M.[ U j K.-X X|.|.|.|.|.|.{.].].{.{.{.|.{. X-X#Xy.; - 7.[.|.|.|.|.`.[.].].].].[.].].&X[.;X&Xi.D k Y [ M.!. X-XL.*X*X",
"!.E. X|.|.E.O.o.S k 5.K.-X X XOXOX|.OXOXoXOXOXOX+XOXOX#Xn.l.O.3 r [ g..X+X|..X.X|. X X XOX X X X X-X{.n.O.D k k o.O.E.|.|.#X X!.",
"w.n.k.k.z.3.| q.T k [ 4.g.g.y.y.y.y.y.g.f.y.g.h.y.y.y.i.5.5.O.@ 5 / | 8.8.8.8.8.i.8.y.8.y.8.f.8.f.8.7.4.o.S k T q.} 6.z.f.k.z.t.",
"t.7.<.6.6.>.7.i._ k O.8.3.3.6.6.7.6.6.3.6.6.4.1.4.4.5.4.4.4.r.1 % &.[ 3.6.6.6.6.>.+.>.3.>.>.6.>.3.3.[ +.=.l k T y.7.>.6.7.<.1.t.",
"0.,.1.4.7.t.,.4.K k y.7.3.6.4.6.6.9.6.6.7.6.7.5.4.O.5.5.4.+.O.6 1 / O.4.6.4.3.3.6.6.3.3.3.6.6.3.3.O.+.5.p.D f K O.4.7.7.7.1.1.q.",
"-.,.q.q.i.q.P y y 9 Y w.5.8.7.7.6.8.8.8.5.5.5.O.O.O.O.5.=.O.j X 2 3 =.5.4.O.O.7.3.5.+.+.+.3.5.3.O.+.O.^ i e 9 y a P q.r.4.q.,.-.",
"r e - e 3 q 3 - : : : w 0 0 p a 9 0 h w w 4 4 3 3 3 w 3 3 q * % % 1 w 9 q 3 3 y y > 4 4 w l h 4 4 4 : * $ , : 1 : 3 q q e - e r ",
"6 G G #.! ! ! ! ! ! X.~ ^ ^ [ ^ +.;.S 1 % & X m X.W / / / / ..$.$.../ / ! ! ! ~ D + + @ 4 X.X.X.X.%.! $.%.&.&.o./ %.! / ^ E B c ",
"3 { { -.*.@.@.&.&.O.+.3.3.,.6.>.w.p.h o % & # E 3.7.4.4.7.4.O.&.o.O.,.,. .^ { r.X.@ + + 6 =.O...o.5.q.#.&.4.,. . ./ { w./ | { M ",
"s y.0. .0.q.q.,.4.4.4.7.6.<.<.>.4.q.S 3 % % o ^ 8.6.7.7.7.7.7.4.4.4.<.,.>. .[ +.T : % @ h +.O.+.O.7.7.4.q.7.0.0.,.4.@.q.{ Y { C ",
"q.g.].].~.'.^.].].].].`.`.`.`.|.l. .*.i D o.@.,.|.L.!.`.].`.`.`.Q.`.!.`.!.!.!.B.+.D 4 g &.O.l.|.^.!.].'.}.'.'.}.XX~.].~.R...P S ",
"O.x.].Q.^.].].].].].].|.|.|.|.|.x.| =.i A *.,.7.!.^..X|.].].].].].^.`.!.`.`.!.!.O...- h { q.y.|.'.'.'.'.'.'.'.'.'.~.'.~.P.s.C P ",
"q.^.].XX^.XX].].].].].].].].].^.].OXx.i A @.1.K.@X].Q.^.].].^.].!.].~.`.~.`.^.Q.A.A 3 r r.OXXX].].'.~.XXXX'.~.'.'.~.XX'.H.r.C Z ",
"=.@XXX].].].].].XX].].^.].|.].|.^.^.s.i Z 0.2.Q.].].|.].^.].'.'.!.~.^.^.].!.^.^.A.( ; u :.+X~.].].'.~.'.~.~.XX'.'.~.].Q.~.v.C C ",
"l.^.].OX~.~.].].~.].XXXXXX|.OX~.].XXs.i A @.2.P.].].].].`.].].].].].XX].].].].E.A.A * q -./.^.].].].].].].].'.].].~.OX'.G.s.Z Z ",
"] 7.].].XXXXXXXXXXXXXXOXOXXXOX+Xx.,.q.i B @.,.1.`.Q.Q.^.!.].^.~.].'.].].].].].c.] Q q y &.e.x.|.].'.^.XX].].].].^.`.{.OXOXu.~ V ",
"=.t.~.!.].XX].].].].].^.].].^.|.c.| u.j A  .,.1.R.K.K.Q.K.Q.Q.Q.I.Q.Q.Q.Q.Q.Q.Q.O...: y *.[ w.Q.Q.Q.Q.R.Q.Q.R.P.Q.P.!.OXXXt.] V ",
"4.4._ 1.1. . .| | | } } } } ` | 4.4. .a P  .1.6.3.,. .,. .4.,.,.,.q.,.4.,.1.1.O.O.~ - s r.q.1.,.,.,.,.,.,.,.,.,. .,.,.4.}  . .C ",
"w.>.,.7.3.3.3.6.>.4.3.4.3.3.7.3.3.3.8.f I 4.+.3.3.7.4.4.7.7.5.8.4.7.4.6.8.6.7.| 5.o.; r *.+.4.6.4.1.,.,.4.4.4.4.1.,.4.7.6.+.P s ",
"o.[ O.O.O.O.O.O.O.+.+.+.O.+.O.O.O.+.5.p T a.O.O.O.O.4.O.O.O.4.O.O.q.5.5.5.5.5.r.O.X.; w :.r.5.4.O.O.=.q.q.O.O.O.O. .O.O.q.+.M t "
};
