/* XPM */
static char *_1858_516484eaa7d896377ae8afff924cf6da73cfaba840203ef69ca518f7ed55a630[] = {
/* columns rows colors chars-per-pixel */
"64 64 21 1 ",
"  c #211223",
". c #5F002A",
"X c #772A2A",
"o c #5B3356",
"O c #545778",
"+ c #9D0701",
"@ c #D5062A",
"# c #A0592A",
"$ c #D04A01",
"% c #EC8300",
"& c #B38449",
"* c #00879E",
"= c #6A8580",
"- c #00A5C1",
"; c #9FB3A1",
": c #FF9581",
"> c #FFD980",
", c #FFCABE",
"< c #DCD5C5",
"1 c white",
"2 c None",
/* pixels */
"2222222222222222222222222222222222222222222222222222222222222222",
"2222222222222222222222222222222222222222222222222222222222222222",
"2222222222222222222222222222222222222222222222222222222222222222",
"2222222222222222222222222222222222222222222222222222222222222222",
"2222222222222222222222222222222222222222222222222222222222222222",
"2222222222222222222222222222222222222222222222222222222222222222",
"2222222222222222222222222222222222222222222222222222222222222222",
"2222222222222222222222222222222222222222222222222222222222222222",
"2222222222222222222222222222222222222222222222222222222222222222",
"2222222222222222222222222222222222222222222222222222222222222222",
"2222222222222222222222222222222222222222222222222222222222222222",
"22222222222222222222222222222222oooo2222222222222222222222222222",
"222222222222222222222222222ooo2ooooooo22222222222222222222222222",
"2222222222222222222222222oooooooXXXXoooo222222222222222222222222",
"22222222222222222222222ooooXXXoX####XXooo22222222222222222222222",
"2222222222222222222222oooXX###X##&&&##XXoo2222222222222222222222",
"222222222222222222222ooX###&&&#X&&&##XXoooo222222222222222222222",
"2222222222222222222222oooXX##&&XX##XX####Xoo22222222222222222222",
"222222222222222222222oooXX#&&&##&&&&&#XXooo222222222222222222222",
"222ooooo222222222222ooXX##&&&&&&#&&&&&&#Xoo222222222222222222222",
"222oooooo222222222222oooX###&&&&&#&&#&#&#Xoo22222222222222222222",
"222oo<11oo22222222222ooX#X#&&##&&##&#&X###Xoo2222222222222222222",
"222oo;O=1oo222222222ooX#X#&##X##&$X####XXooo22222222222222222222",
"2222oo;O=<oo2222222ooXXX####XXXX#$$$XX#$$oo222222222222222222222",
"22222oo;O=<oo2222222oooXXX#X$$::X:::$X#:$oo222222222222222222222",
"222222oo;O=<oo222222ooO$,:#$::$,,: *,,X:oo2222222222222222222222",
"2222222oo;O=<oo22o2ooO=1$,X,* :,,,-,,:$oo22222222222222222222222",
"22222222oo;O=<ooooooO=1<<$:,,-,,,,,,,$oo222222222222222222222222",
"222222222oo;O=<oo=ooO;<<;O$:,,,,,,,,:+oo222222222222222222222222",
"2222222222oo;O=<O<ooO=;;=OO:,,,,,:,:++ooo22222222222222222222222",
"22222222222oo;=;O<oo.Oooo.o$:,:$$,:+$+++oo2222222222222222222222",
"222222222222ooOO<Oo.+++..++%+:,,,:+@$+@++oo222222222222222222222",
"22222222222oo=;=Oo$:++..o++>%@:::@@$++@@@+oo22222222222222222222",
"222222222222ooooo:,:$.ooo+@+1+@@@%%+@+@@@@+oo2222222222222222222",
"2222222222222ooooo:::oooo+@@@1>>%++@@+@@@@+oo2222222222222222222",
"22222222222222222ooO=oooo#+@@@@+XXXXXX+@@@+oo2222222222222222222",
"222222222222222222oooo2oo+#+@@XX#&&&&&X+++ooo2222222222222222222",
"2222222222222222222oo222oo+##X&&&X###X&.@+ooo2222222222222222222",
"222222222222222222222222oo++X&###X###X#&.+oo22222222222222222222",
"222222222222222222222222oo+X&####X###X###.oo22222222222222222222",
"222222222222222222222222oo+X&X###X###X###.oo22222222222222222222",
"22222222222222222222222oo.X&#X#######X##X.oo22222222222222222222",
"22222222222222222222222oo.X&#X##########X.oo22222222222222222222",
"2222222222222222222222ooXXX&#X#######X##X.oo22222222222222222222",
"222222222222222222222ooX##X&#X#######X##X.oo22222222222222222222",
"222222222222222222222ooX##X&#X###X###X##.oo222222222222222222222",
"2222222222222222222222ooX#X.&X###X###X#X.oo222222222222222222222",
"22222222222222222222222222X#.X###X###XX.oo2222222222222222222222",
"22222222222222222222222222oXX.X##X##X..oo22222222222222222222222",
"222222222222222222222222222ooo.......ooo222222222222222222222222",
"2222222222222222222222222222ooooooooooo2222222222222222222222222",
"222222222222222222222222222222ooooooo222222222222222222222222222",
"2222222222222222222222222222222222222222222222222222222222222222",
"2222222222222222222222222222222222222222222222222222222222222222",
"2222222222222222222222222222222222222222222222222222222222222222",
"2222222222222222222222222222222222222222222222222222222222222222",
"2222222222222222222222222222222222222222222222222222222222222222",
"2222222222222222222222222222222222222222222222222222222222222222",
"2222222222222222222222222222222222222222222222222222222222222222",
"2222222222222222222222222222222222222222222222222222222222222222",
"2222222222222222222222222222222222222222222222222222222222222222",
"2222222222222222222222222222222222222222222222222222222222222222",
"2222222222222222222222222222222222222222222222222222222222222222",
"2222222222222222222222222222222222222222222222222222222222222222"
};
