/* XPM */
static char *_574_6a5be6f54b20109d499a8959b1792bf9693589dc238a308b8330de486c626340[] = {
/* columns rows colors chars-per-pixel */
"64 64 21 1 ",
"  c #211223",
". c #5F002A",
"X c #772A2A",
"o c #5B3356",
"O c #545778",
"+ c #9D0701",
"@ c #D5062A",
"# c #A0592A",
"$ c #D04A01",
"% c #EC8300",
"& c #B38449",
"* c #00879E",
"= c #6A8580",
"- c #00A5C1",
"; c #9FB3A1",
": c #FF9581",
"> c #FFD980",
", c #FFCABE",
"< c #DCD5C5",
"1 c white",
"2 c None",
/* pixels */
"2222222222222222222222222222222222222222222222222222222222222222",
"2222222222222222222222222222222222222222222222222222222222222222",
"2222222222222222222222222222222222222222222222222222222222222222",
"2222222222222222222222222222222222222222222222222222222222222222",
"2222222222222222222222222222222222222222222222222222222222222222",
"2222222222222222222222222222222222222222222222222222222222222222",
"2222222222222222222222222222222222222222222222222222222222222222",
"2222222222222222222222222222222222222222222222222222222222222222",
"2222222222222222222222222222222222222222222222222222222222222222",
"2222222222222222222222222222222222222222222222222222222222222222",
"2222222222222222222222222222222222222222222222222222222222222222",
"2222222222222222222222222222222222222222222222222222222222222222",
"22222222222222222222222222222222222222oo222222222222222222222222",
"222222222222222222222222222222222222ooooo22222222222222222222222",
"222222222222222222222222222222oo22ooooXXoo2222222222222222222222",
"22222222222222222222222222222oooooooXX#Xoooo22222222222222222222",
"2222222222222222222222222222ooXXooXX##&Xooooo2222222222222222222",
"22222222222222222222222222oooo##XXX#&&#X###Xoo222222222222222222",
"2222222222222222222222222oooXX&&&##&&&X###Xooo222222222222222222",
"222222222222222222222222ooX#####&&XX##&&#XXXooo22222222222222222",
"2222222222222222222222222ooXXX#&&#X&&&&&&&##XXoo2222222222222222",
"2222222222222222222222222oooX#&&&&##&&&#&#&##oo22222222222222222",
"222222222222222222222222oo#&&&#&&#&&#&&#&X#ooo222222222222222222",
"22222222222222222222222ooXX###&&##&&######Xoo2222222222222222222",
"222222222222222222222222oooXX&##X#&#$X$XX#$Xoo222222222222222222",
"22222222222222222222222oooX####XXX##X$:$X#$$oooo2222222222222222",
"2222222222222222222222ooXX#XX#X$$:$XX+:*:X$oooooo222222222222222",
"22222222222222222222222ooXX##X$:*::::, -:$ooooXXoo22222222222222",
"222222222222222222222222oo+XX$:,* ,,,,-,:$oooX#&Xoo2222222222222",
"222222222222222222222222oo+$,:,,,-,,,,,:$..oX#&XX.oo222222222222",
"2222222222222222222222222oo+$,:,,,,,,,,:$..X#&#X#X.oo22222222222",
"2222222222222222222222222oo++$$:,,,:@:,$+..X&X#X#X.oo22222222222",
"22222222222222222222222222oo++%$:,:@:,:+$.X#&#X#XX.oo22222222222",
"22222222222222222222222222oo.++o$$,,:$@+$.X&X#X#XX.oo22222222222",
"222222222222222222222222222oo.o==o$$+@@%X.X&X####X.oo22222222222",
"222222222222222222222222222ooo<1<=Oo%@+%.X#&X###XX.oo22222222222",
"222222222222222222222222222ooO11<;=Oo>>#:X&#X###X.oo222222222222",
"222222222222222222222222222ooO<<;;=OoX#X:X&#X#X#X.oo222222222222",
"222222222222222222222222222oo+O=;=Oo.XX+.X&#X#X#X.oo222222222222",
"22222222222222222222222222oo++..Ooo@..++.X&#X#XX.oo2222222222222",
"22222222222222222222222222oo++..+@@@@......&X#XX.oo2222222222222",
"2222222222222222222222222oo.++++.+@@@@.o.XX.X#X.oo22222222222222",
"2222222222222222222222222oo.++++..+@@@@.oXXX...oo222222222222222",
"222222222222222222222222ooXXX...ooo+@@@@.oXXoooo2222222222222222",
"22222222222222222222222ooX###XXooooo+@@++:ooooo22222222222222222",
"22222222222222222222222ooX###Xoo222oo++.OOOOoo222222222222222222",
"222222222222222222222222ooX#Xoo2222oXX,OO=<oo2222222222222222222",
"22222222222222222222222222222222222oooOO=O;<oo222222222222222222",
"222222222222222222222222222222222222ooOoO;O1<oo22222222222222222",
"222222222222222222222222222222222222oo=ooO;O1<oo2222222222222222",
"2222222222222222222222222222222222222oooooO;O1<oo222222222222222",
"22222222222222222222222222222222222222o22ooO;O1<oo22222222222222",
"222222222222222222222222222222222222222222ooO;O1<oo2222222222222",
"2222222222222222222222222222222222222222222ooO;O1<oo222222222222",
"22222222222222222222222222222222222222222222ooO;O1<oo22222222222",
"222222222222222222222222222222222222222222222ooO;O1<oo2222222222",
"2222222222222222222222222222222222222222222222ooO;O1<oo222222222",
"22222222222222222222222222222222222222222222222ooO;;<oo222222222",
"222222222222222222222222222222222222222222222222oo==<oo222222222",
"2222222222222222222222222222222222222222222222222ooooo2222222222",
"22222222222222222222222222222222222222222222222222ooo22222222222",
"2222222222222222222222222222222222222222222222222222222222222222",
"2222222222222222222222222222222222222222222222222222222222222222",
"2222222222222222222222222222222222222222222222222222222222222222"
};
