/* XPM */
static char *_189_c3248053d95f778723640078b50d15f6a118953ad80a6196f01c19d1f37a48d3[] = {
/* columns rows colors chars-per-pixel */
"64 64 22 1 ",
"  c #211223",
". c #5F002A",
"X c #772A2A",
"o c #5B3356",
"O c #545778",
"+ c #9D0701",
"@ c #D5062A",
"# c #FF2323",
"$ c #A0592A",
"% c #D04A01",
"& c #EC8300",
"* c #B38449",
"= c #00879E",
"- c #6A8580",
"; c #00A5C1",
": c #9FB3A1",
"> c #FF9581",
", c #FFD980",
"< c #FFCABE",
"1 c #DCD5C5",
"2 c white",
"3 c None",
/* pixels */
"3333333333333333333333333333333333333333333333333333333333333333",
"3333333333333333333333333333333333333333333333333333333333333333",
"3333333333333333333333333333333333333333333333333333333333333333",
"3333333333333333333333333333333333333333333333333333333333333333",
"3333333333333333333333333333333333333333333333333333333333333333",
"3333333333333333333333333333333333333333333333333333333333333333",
"3333333333333333333333333333333333333333333333333333333333333333",
"3333333333333333333333333333333333333333333333333333333333333333",
"3333333333333333333333333333333333333333333333333333333333333333",
"3333333333333333333333333333333333333333333333333333333333333333",
"3333333333333333333333333333333333333333333333333333333333333333",
"3333333333333333333333333333333333333333333333333333333333333333",
"333333333333333333333333333333333333oo33333333333333333333333333",
"3333333333333333333333333333333333ooooo3333333333333333333333333",
"3333333333333333333333333333oo33ooooXXoo333333333333333333333333",
"333333333333333333333333333oooooooXX$Xoooo3333333333333333333333",
"33333333333o33333333333333ooXXooXX$$*Xooooo333333333333333333333",
"3333333333oo333333333333oooo$$XXX$**$X$$$Xoo33333333333333333333",
"3333333333o:o3333333333oooXX***$$***X$$$Xooo33333333333333333333",
"3333333333o:o333333333ooX$$$$$**XX$$**$XXXooo3333333333333333333",
"3333333333o:o3333333333ooXXX$**$X*******$$XXoo333333333333333333",
"3333333333o:oo333333333oooX$****$$***$*$*$$oo3333333333333333333",
"3333333333o:-o33333333oo$***$**$**$**$*X$ooo33333333333333333333",
"3333333333o:Oo3333333ooXX$$$**$$**$$$$$$Xoo333333333333333333333",
"333333333oo1Oo33333333oooXX*$$X$*$%X%XX$%Xoo3ooooo33333333333333",
"333333333oo1Oo3333333oooX$$$$XXX$$X%>%X$%%ooooXXooo3333333333333",
"333333333oo1Oo33o333ooXX$X$$X%%>%XX+>=>X%ooooX$*Xooo333333333333",
"333333333oo1Oo33o3333ooXX$$X%>=>>>>< ;>%ooooX$*XX.oo333333333333",
"333333333oo1-oo3-o3333oooXX%><= <<<<;<>..ooX$*$X$X.oo33333333333",
"333333333oo1-Oo3Oo33333oo%<><<<;<<<<<>%....X*X$X$X.oo33333333333",
"333333333oo1-OooOo333333oo%<><<<<<<<<>%...X$*$X$XX.oo33333333333",
"333333333oo1-OooOo333333oo+%%><<<@#><%&+..X*X$X$XX.oo33333333333",
"333333333oo1-OooOoo333333oo++%><>#@>>%+&..X*X$$$$X.oo33333333333",
"333333333oo2:OooOoo333333oo.++%%<<>%%@+&.X$*X$$$XX.oo33333333333",
"333333333oo2:-ooOoo3333333oo.o--%%%+@@,X.X*$X$$$X.oo333333333333",
"333333333oo2:-Oo-Ooo333333ooo121-Oo&2,+.@X*$X$X$X.oo333333333333",
"333333333oo11-Oo-Ooo3333333oO221:-Oo++$><X*$X$X$X.oo333333333333",
"333333333oo11-Oo-Ooo3333333oO11::-Oo$$X>>X*$X$XX.oo3333333333333",
"333333333oo:1--o:Ooo3333333o+O-:-Oo.XX+.<<.*X$XX.oo3333333333333",
"333333333oo-2:-o:--oo33333oo++.Ooo@..++..oo.X$X.oo33333333333333",
"333333333oo-21--:--oo33333oo++.+@@@@.....XXo...ooo33333333333333",
"3333333333oo21:-:--ooo333oo.+++.+@@@@.o.XXXXooooo333333333333333",
"3333333333oo121--:--oooo3oo.+++..+@@@@.oXXXXooo33333333333333333",
"3333333333oo:21:-:----ooooXXX..ooo+@@@@.oXXoo3333333333333333333",
"3333333333oo-221--:--:--oX$$$Xooooo+@@++>oooo3333333333333333333",
"33333333333oo121:--:--::--$$$Xoooooo++.><>oooooo3333333333333333",
"33333333333oo:211:--:---::--Xoooooo::::::::::oooo333333333333333",
"333333333333oo1111:--::---:::111111111111111::--oo33333333333333",
"333333333333oo:1111:--:::---:::::::1111122221Oooo333333333333333",
"333333333333oo:11111:--:1::------::::::11111212oo333333333333333",
"3333333333333oo:12111:--:111::-----------:::::12oo33333333333333",
"3333333333333oo-:121111:--:111::::::::::111112222oo3333333333333",
"33333333333333oo-:1211111:--:1111::::::::::::11122oo333333333333",
"333333333333333oo-:12111111:---:1111111122222222222oo33333333333",
"3333333333333333oo-:122111111::----::::1111111111122oo3333333333",
"33333333333333333ooo:122221111111::-------::::::11122oo333333333",
"333333333333333333oooo:122222221111111111:----::::::12oo33333333",
"33333333333333333333oooo-:11222222222111111111111112222oo3333333",
"3333333333333333333333ooooo-::11222222222222222222211:-oo3333333",
"333333333333333333333333oooooo--:::1111111111111:--ooooo33333333",
"333333333333333333333333333oooooooooooooooooooooooooooo333333333",
"333333333333333333333333333333ooooooooooooooooooooo3333333333333",
"3333333333333333333333333333333333333333333333333333333333333333",
"3333333333333333333333333333333333333333333333333333333333333333"
};
