/* XPM */
static char *Character_SpriteSheet_051636046539[] = {
/* columns rows colors chars-per-pixel */
"64 64 133 2 ",
"   c #211223",
".  c #5F002A",
"X  c #4C3E3C",
"o  c #772A2A",
"O  c #4F413F",
"+  c #5B3356",
"@  c #4F4240",
"#  c #524543",
"$  c #564C46",
"%  c #594C46",
"&  c #554C4B",
"*  c #5A4E4B",
"=  c #5C5047",
"-  c #5D514D",
";  c #5F5452",
":  c #604F4D",
">  c #625247",
",  c #64534C",
"<  c #68554D",
"1  c #69594E",
"2  c #615653",
"3  c #695751",
"4  c #655A55",
"5  c #6B5B54",
"6  c #615758",
"7  c #645B5B",
"8  c #6B5E5B",
"9  c #725D54",
"0  c #725E5D",
"q  c #6D615C",
"w  c #716056",
"e  c #73625B",
"r  c #78635A",
"t  c #79685E",
"y  c #545778",
"u  c #6C6361",
"i  c #746462",
"p  c #796662",
"a  c #756A66",
"s  c #7B6A63",
"d  c #776C6A",
"f  c #7A6D6B",
"g  c #7F7065",
"h  c #7E716D",
"j  c #7E7372",
"k  c #9D0701",
"l  c #D5062A",
"z  c #A0592A",
"x  c #D04A01",
"c  c #816E66",
"v  c #816E6A",
"b  c #827067",
"n  c #84726C",
"m  c #89756C",
"M  c #8B796F",
"N  c #817573",
"B  c #8A7674",
"V  c #847975",
"C  c #8C7A74",
"Z  c #867B79",
"A  c #8C7D7A",
"S  c #917D75",
"D  c #927E7B",
"F  c #EC8300",
"G  c #B38449",
"H  c #8E817C",
"J  c #938177",
"K  c #93827C",
"L  c #99857D",
"P  c #99887E",
"I  c #00879E",
"U  c #6A8580",
"Y  c #00A5C1",
"T  c #8E8381",
"R  c #948582",
"E  c #998683",
"W  c #968882",
"Q  c #9C8B83",
"!  c #958989",
"~  c #9E8C8B",
"^  c #9F908E",
"/  c #9E9392",
"(  c #A18E86",
")  c #A28F8A",
"_  c #A88F8E",
"`  c #A29087",
"'  c #A4918B",
"]  c #A9948E",
"[  c #A9988E",
"{  c #A38F91",
"}  c #A49392",
"|  c #AA9593",
" . c #A69995",
".. c #AC9B95",
"X. c #AA9798",
"o. c #AD9C9A",
"O. c #B19B96",
"+. c #B39E9A",
"@. c #B89E9B",
"#. c #AEA09C",
"$. c #B1A096",
"%. c #B4A29C",
"&. c #B9A49E",
"*. c #BAA99F",
"=. c #AE9FA0",
"-. c #B39FA2",
";. c #9FB3A1",
":. c #B5A5A2",
">. c #BAA5A2",
",. c #B7A9A1",
"<. c #BDACA4",
"1. c #B7ABAD",
"2. c #BDACAA",
"3. c #BFB1A7",
"4. c #BFB1AA",
"5. c #FF9581",
"6. c #C2A6A4",
"7. c #C3ACA6",
"8. c #C5ADA9",
"9. c #C8AFAB",
"0. c #C2B1A6",
"q. c #C4B2AC",
"w. c #CBB4AE",
"e. c #C7B8AF",
"r. c #C4AFB0",
"t. c #C5B5B1",
"y. c #C9B6B1",
"u. c #C7B8B2",
"i. c #CABAB3",
"p. c #FFD980",
"a. c #FFCABE",
"s. c #DCD5C5",
"d. c white",
/* pixels */
"& & = & # $ $ # $ & & & $ & & & & & $ $ $ $ $ & & & * & $ & & & & & & & & & & & & & & & @ # $ & & & & & & & & & & & & & & & & & ",
"$ # X X X + O O O O O @ O X X O O O @ $ & & & $ # O @ @ O + @ @ $ & & & = - * * = - * * ; & - - * * * & * * * ; : * * ; & & & & ",
"& & d H Z Z Z Z j H j T j H j j Z Z Z Z V V V V H T Z Z N 5 # # ; j j j N j j j j j V j j j j j j j j j N j N N Z Z Z j j d 7 $ ",
"$ & H } / / / ~ / / /  ./ /  ./ } } }  .} } /  . .o.:.:.~ s % # 4 V ! / } / } }  ./  ./ /  . .}  . ./  .} } } } X.X.X.1./ j 6 $ ",
"$ - j / ^ / { { } X.o.X. ./ / }  .} ^ ' } ' } } }  .:.:.E i # X ; j R } / ^ ^ ^ ^ / ' ^ ^ ^ / ^ / { { ^ { ~ ' }  .#.#.1./ j ; & ",
"$ & H / ^ } { X.o.1.1.2.=. . .o. . . . . . ./  .o.=.i.3.' n , % q Z ^  . .} ^ [ ' } } ' ' } ' } } } } } } } } X.#.1.1.4.=.j ; $ ",
"$ - H } ~ { } X.=.:.2.:.o. . . .} ' ' } ' ^ ` ' o.3.u.>.' n 5 2 p A / } } ' ^ ^ ' ~ ` ` ^ ' ) ' ~ ^ ) ' ^ ~ } } o.:.4.4.#.V ; & ",
"$ - T } } | | | o.o.o.%.#.X.} } ` ^ ^ ' ` ^ ^ ' o.<.e.>.~ n 5 5 p R '  .' ` ` Q ~ ` ~ ~ ) ^ ) ~ ^ ` ) ~ ~ ` ~ } X.#.1.4.#.j ; $ ",
"& * A X.X.-.-.X.X.} { { X.o...} ^ ` ' ' ^ ' ^ ' +.<.u.<.Q n 5 3 s D ' } ' ` ^ ) ~ ) ) ) ) ` ) ' ' ~ ' ) ) ) ) | o.:.2.r.=.N 2 $ ",
"& * A X.@.-.-.-.X.E B B { X.+.o...[ ' ' ' ^ ' ] o.<.e.<.Q m 5 3 p K ` | } ' ` ) ` ' ) ^ ) ) ) ' ' ' ) ) ) ) ) | o.+.1.r.#.N ; $ ",
"& * A X.X.6.r.-.{ N 0 p D } +.%.+...] ' ` ^ ` | O.<.y.>.Q m 5 1 p K ` | ' ' ) ` ` ) ) ) ) ` ` ` ' ) ) ) ) ) ) _ ..-.8.t.#.V 2 $ ",
"& * A X.-.6.r.-.E v 5 0 B ) ..+.O...] ' ` ' ' ' ..7.t.+ + + 5 1 + + + + ] ' ` ` ' ' ` ` ) ) ' ) ' ~ ) ) _ ) ) ] O.+.2.8.%.N - $ ",
"$ * A X.X.X.{ E D n s v D E ( _ ] ] ' ` ` ) ' ' O.+ + + + + + + + + + + + + ` ` ) ) ` ) ) ) ) ) ` ) ) ) ( ( _ ] ..+.2.q.#.V ; $ ",
"$ * R o.{ D v v v n B D C C B S J P ( ( ) ` ` + + + + o o o + + o o o o + + + + ` ` ) ' ' ` ' ) ' ) ` ' ' ( ( | O.%.7.q.:.N ; $ ",
"& * T o.D p 0 0 p v D L B v s c n S P ~ ( ( + + + o o z z z o o z z z z o o + + + ' ) ` ) ) ' ` _ ' ' ) ' ' ` ] ..%.<.q.%.V 6 $ ",
"& * T ~ B v 0 0 f D E E B c s s v C P ) ` + + o z z z G G G z z z G G G z z o o + + ' ) ` ' ) ' ` ` ) ' ( ' ` ] O.@.<.e.#.N 2 $ ",
"$ & V A B v s v B E ( ~ D n v v m S E ) ( ) + + + o o z z G G o G G G z z o o + + + + ' ' ` ' ` ' ' ' ` ` ` ] ] O.@.<.q.%.V 6 $ ",
"$ - j j N B B A K ~ ) ) E D C C J E ( ( ) + + + o o z G G G z o o z z o o z z z z o + + ' ` _ ] ` ' ' ' ] ` _ ] O.&.0.w.%.V 2 $ ",
"$ & f a v B D R ~ _ | ' _ Q R E ( ( ( ( + + o o z z G G G G G z G G G G G z o o + + + ` ` ' ' ` ' ' ' ) ` ` ` ] O.&.7.w.%.V 2 $ ",
"$ - d d v D ( { _ { ] | ] _ ( ( ( ] ] ( ( + + + o z z z G G G G z G G G G G G z o + + ' ` ' ' ' ' ' ' ` ] ` ` ] O.$.7.0.%.N ; $ ",
"& * j N B E { _ { ' } { _ ) _ ( ' ] ' ' ' + + o z o z G G z z G G z G G z G z G z o + + ' ' ' ' ' ' ' ( ' ( ] ] ..&.7.q.:.Z ; $ ",
"& & j Z Z ! { { ) ) ( ( ~ ( ( ( ( ( ( ( + + o z o z G z z o z G G z z G z G o z z z o + + ( ( ` ( ( ' ( ( ( P ] O.:.7.t.%.j ; $ ",
"& * N ! E E { { ) ) ( ~ ) ( ) ( ( ( ( + + o o o z z z z o o o z G x o z z z z o o + + + ( ( ( ( ( ( ( ) ( ( ( ] $.&.q.t.,.j ; $ ",
"& * Z { { { _ _ ' { _ _ ) ( ( ( _ ( _ ( + + + o o o z o x x x o z x x x o o z 5.x + + ` ` ( ` ` ' ( ) ( ( ( ( ] O.>.4.t.:.Z ; $ ",
"& * A =.X.X.X.o.X.o.X.| | ] ] ] | ] ] ] ] + + x a.5.z x 5.5.x a.o 5.5.5.x o z a.x + + ' ] ] ] ] ] ] ] ] ] ] ] O.$.<.8.t.:.V 6 $ ",
"% * T 1.-.-.>.>.-.6.6.@.@.@.@.&.&.@.&.&.%.%.+ + x a.o a.I   5.a.a.5.  I a.a.o 5.+ + $.%.+.@.+.@.&.$.@.@.@.@.@.@.&.<.y.y.=.N 6 $ ",
"& * R r.1.2.r.8.8.8.8.8.7.8.9.0.7.7.7.+ + + + + + x 5.a.a.Y a.a.a.a.Y a.a.5.x + + + 0.7.7.7.7.7.7.6.9.6.7.7.9.6.7.q.i.y.o.h 6 $ ",
"& - T 1.:.>.8.8.8.8.9.8.9.9.9.0.0.7.+ + y y y y + k x 5.a.a.a.a.a.a.a.a.a.x k k + + + + 7.7.7.7.7.9.6.9.6.9.6.8.7.9.y.t. .h 4 $ ",
"$ * Z } ~ } ..+.@.O.O.O.O.+.O.O.O.+ + y U d.s.;.y k k 5.a.a.a.a.a.a.a.a.5.k k l k k + + + ....[ O.O.O.O.O.O.X.O.O.+.-.+.~ d 8 $ ",
"& * j Z j B A A D B D D A D H H + + y U d.s.s.;.y k k x 5.a.5.x x 5.a.5.x k l l l l k + + + A H S S S S A A D D D D R R V q 7 $ ",
"% * , q 4 8 4 5 3 3 4 5 5 5 4 5 + + y ;.s.s.;.y + k k F k 5.a.a.a.a.5.k x k l l l l l k + + w w 5 5 4 4 3 3 3 3 4 3 4 , $ $ $ $ ",
"$ * * - * : * % * * % % % = = = + + y U ;.;.U y + k l F l k k 5.5.k k l x k l l l l l k + + O $ O $ # $ % # % % # % % % * $ $ $ ",
"$ & * : 4 8 q u q q q q q q e e q + + y y + + + k l l k p.l l l l l l F k k o o o o o o + + + w 4 w q ; 8 4 3 0 0 5 0 p i ; ; & ",
"& * j j a n Z Z V V H Z H J V C C + + k k k k k k l l l l d.l l l l F k o o z z G G G G o + + + N N h g v v m B C D D R B u 6 - ",
"$ * N D A R E E W W W W K P Q P P + + k l l k k + k l l l l d.p.p.F k o z z G G z z z o G . + + + P P W E E L ( ) { +.o.! u 8 * ",
"& * N ~ E { { _ ' ' ' ' ` ` ` ` ` + + k l l l k + z k l l l l l k k o z G G z o z z z o z G . + + .... .| | | @.+.+.>.>.~ a u - ",
"$ * Z } { | _ | } ] _ ] ] _ ' ] ] ] + + l l l + + + z k l l l l l o z G o z z o z z z o z z o . + +.@.@.@.@.@.@.@.+.-.+.R p 8 - ",
"$ * j } { _ { _ _ _ _ _ ' _ ] _ ] ' + + l 5.a.a.+ + k z z k l k k o G z o z z o z z z o z z o . + >.6.6.6.6.6.6.+.) E D N 7 ; * ",
"& - N } { | } _ _ } _ ( _ ' _ ' ' _ ' + + a.5.5.+ + k k o z z z o z G z o z z z z z z o z z o . + 7.9.w.9.w.w.9.| D v p 8 & & & ",
"$ * N } ) | { _ _ _ ' _ ' _ ' ' ' ' ' + + a.a.+ y ;.;.U U k k k o G z z o z z z z z z z z z o . + q.w.w.w.w.w.6.] S p 4 : @ & # ",
"$ - N } { } _ _ | _ ( ' ) ' ] _ _ ` ' ' + + + y ;.y y + k l l k o G z z o z z z z z z o z z o . + O.O.O.O.O.O.P ( S b s 0 * * & ",
"$ * N } { | { ) { ' _ _ _ ' ' ' ' ' ' ( ` + + ;.y ;.U s.+ l l k o G z z o z z z z z z o z z . + + S S m M S S m S D ( L m 8 7 * ",
"$ - j } { _ } { { ' _ } ' ' ' ' ' ] ` _ ( _ + ;.y U y U s.+ k k o G z z o z z o z z z o z o . + + 9 c < c 9 9 c m P O.| R a 7 * ",
"& - V } _ | } _ ' ) _ ) _ ' ' ' ' ' _ ` ` ` + U + + ;.y U s.+ + o . G z o z z o z z z o o . + + > < < < > > > 9 b ( @.&.} h 7 - ",
"& * N } { | { _ } _ ) ' ] ' ' ' ' ' ' ' _ ' + + + + + ;.y U s.+ o z . z o z z o z z o o . + + 9 < 9 9 9 9 9 1 r m ` <.2.X.h 7 - ",
"& * N } { } { _ ) _ ' _ _ ' ' _ ' ' ' ` ( ` ` + O.*.+ + ;.y U s.+ z z . o z z o o . . + + + v c c c c c c c c m L ..<.q...h 7 - ",
"& : N } { _ { _ _ ' _ ' _ ` ] ` ] _ _ ( ( ' ' ' ..*.0.+ + ;.y U s.+ o + . . . . . + + + n n C S S S S D J J S L ` $.q.u.o.d ; ; ",
"& - N X.} } } ' _ ] ' ' ' ' ' ' ' ` ' ' ' ` ' ] O.>.0.<.+ + ;.y U s.+ + + + + + + + p t c m S L ( ( ( ( ` ( P ( [ &.u.u.o.d ; ; ",
"$ * N } | } { _ ' } _ ' ' ' ' ] ` ] ` ' ` ` ' ] ..<.0.<.[ + + ;.;.U s.+ %.&.%.[ L n t s b M L P ( ( ] ' O.P O.P @.6.w.w.$.d 4 = ",
"$ * j X.{ } _ } ' _ } ' ' ' ] ' ] ' ' ' ` ' ` ] ..,.9.<.' n + + ;.s.s.+ $.[ ` P C m n m M J L Q ( ( ' ' P ] P O.P &.w.w.$.a ; - ",
"& * N } } | { { } ' ' ' ' ' ' ' ] ' ` ` ` ` ' ] ..*.0.<.' m 1 + + + + + ..L b g c m C J L P Q Q ( ' ( ' P [ P ] $.*.w.w.#.d ; ; ",
"$ ; j X.' | | ] _ ' } ' ' ' ' ' ' ` ] ` ' ` ' ' ..>.0.<.[ b w 1 b ` <.0.[ M w 1 r m J Q Q ` ` ` ` ` ` ` ] P ] ] P 9.9.w.#.j ; - ",
"$ * j  .] } } ' } ' ' ^ ' ] ' ] [ ` ` [ ` ^ ` [ O.*.0.0.] b 1 1 g ` 0.0.[ b 1 1 e m J ^ [ ` ` ` ` ` ` ` ` ` ] P ] &.e.u. .d ; ; ",
"$ - j  .] } } ' ' ' ' ' ' ' ' ` ` ` ` ` ` ^ ` ` ..*.0.*.[ b 1 1 g Q 3.3.[ b 1 1 t M P ` ` ` [ ` ' ` ` ` ` ` P ] ] %.q.u.#.d ; - ",
"$ * j } ' } ' ' ' ' ' ' ` ] ' ' [ ^ ` ` Q Q ` [ $.*.0.0.[ b 1 > g ` *.*.` g 1 1 t J P Q ` ^ ` ` ` ` ` ` ` ` P ` ] &.q.u.#.f ; ; ",
"& - N } } } ' ) ) ^ ` ` ^ Q ` ^ ` ` ` Q Q ` Q [ [ *.0.0.` m 1 > t P *.*.` g 1 1 t J P ` ` ` ` ` ` ` ` ` ` ` ` ` ] &.q.u.#.j ; ; ",
"& * N =.| | } } } } ' ' ' ] ' ' ' ' ` ` ` ` ` [ $.*.0.3.' m 1 > w L X.$.Q h w e N P Q ` ` ` ' ' ` ^ ` ` ` ` ` ` [ &.t.t.X.f ; ; ",
"& * Z 1.:.>.:.-.%.#.:.=.#.#.%.#.#.#.%.#.#.#.#.*.*.3.e.3.[ n 3 , 5 b K W K M n A Q  .$.#.$.#.o.o.$.$...........$.$.7.t.t...d ; ; ",
"% * Z t.t.t.t.r.t.8.4.4.3.q.3.q.4.3.4.4.3.4.3.4.q.e.u.3.` n 5 , 5 e s n H W ` #.,.4.4.4.4.3.4.3.3.4.<.2.0.3.3.3.0.0.i.u.=.j ; ; ",
"& * Z 4.t.i.i.t.t.t.t.t.t.q.u.t.u.e.e.4.q.4.t.u.u.i.u.*.Q f 3 : , 5 e s M ^ #.<.4.4.4.4.u.u.t.u.u.t.e.e.e.q.q.q.0.q.u.u.=.j ; ; ",
"% * j o.=.:.:.:.:.:.:.,.:.,.:.:.:.%.:.,.#.:.,.3.3.3.*.^ B e 2 % * 4 5 q h P / $. .$. .$.#.#.#.%.#.#.#.#.#.$.%.*.,.,.,.=./ d 7 ; ",
"$ - f A H E E R R R R R R R W ! R R H H H H T W ^ ^ P V s 4 : % $ - , 4 q N V H H H H H H H R H H H H K K J K Q ^ W H H j u ; * ",
"$ * u 8 8 8 q q q q q q q q q q q q q q q q q e a a t & * $ % * # & ; & - a a a d h h h h h h N h n h h h b b V N g d d u ; u * ",
"$ * ; 7 6 7 ; 7 ; ; 6 6 ; ; ; ; , 2 ; ; ; ; 2 2 - ; ; & * % & # $ # $ $ - = ; - - - = - - - - - ; - - - - 2 ; ; ; ; ; ; ; * ; & "
};
