/* XPM */
static char *Character_SpriteSheet_281636046541[] = {
/* columns rows colors chars-per-pixel */
"64 64 134 2 ",
"   c #211223",
".  c #5F002A",
"X  c #4C3E3C",
"o  c #772A2A",
"O  c #4F413F",
"+  c #5B3356",
"@  c #4F4240",
"#  c #524543",
"$  c #564C45",
"%  c #594C46",
"&  c #554C4B",
"*  c #5A4E4B",
"=  c #5C5047",
"-  c #5D514D",
";  c #5F5452",
":  c #604F4D",
">  c #625247",
",  c #64534C",
"<  c #69554D",
"1  c #69594E",
"2  c #615653",
"3  c #695751",
"4  c #655A55",
"5  c #6B5B54",
"6  c #615758",
"7  c #645B5B",
"8  c #6B5E5B",
"9  c #725D54",
"0  c #725E5D",
"q  c #6A6156",
"w  c #6D615C",
"e  c #716056",
"r  c #74625B",
"t  c #79655E",
"y  c #79685E",
"u  c #545778",
"i  c #6C6361",
"p  c #746462",
"a  c #7A6661",
"s  c #756A66",
"d  c #7C6A63",
"f  c #776C6A",
"g  c #7A6D6B",
"h  c #7F7065",
"j  c #7E716D",
"k  c #7E7372",
"l  c #9D0701",
"z  c #D5062A",
"x  c #A0592A",
"c  c #D04A01",
"v  c #816E66",
"b  c #816E6A",
"n  c #827067",
"m  c #84726C",
"M  c #89756D",
"N  c #8B796F",
"B  c #817573",
"V  c #8A7674",
"C  c #847975",
"Z  c #8C7B74",
"A  c #867B79",
"S  c #8C7D7A",
"D  c #917D75",
"F  c #927E7B",
"G  c #EC8300",
"H  c #B38449",
"J  c #8E8177",
"K  c #8E817C",
"L  c #938177",
"P  c #93827C",
"I  c #99857E",
"U  c #99887E",
"Y  c #6A8580",
"T  c #00A5C1",
"R  c #8E8381",
"E  c #948582",
"W  c #998683",
"Q  c #968982",
"!  c #9C8A83",
"~  c #958989",
"^  c #9E8C8B",
"/  c #9F908E",
"(  c #9E9392",
")  c #A18E86",
"_  c #A28F8A",
"`  c #A88F8E",
"'  c #A29087",
"]  c #A4918B",
"[  c #A9948E",
"{  c #A9988E",
"}  c #A38F91",
"|  c #A49392",
" . c #AA9593",
".. c #A69995",
"X. c #AC9B94",
"o. c #AA9798",
"O. c #AD9C9A",
"+. c #B19C96",
"@. c #B39E9A",
"#. c #B89E9B",
"$. c #AEA09C",
"%. c #B1A096",
"&. c #B4A29C",
"*. c #B9A39E",
"=. c #BAA99F",
"-. c #AE9FA0",
";. c #B39FA2",
":. c #9FB3A1",
">. c #B5A5A2",
",. c #BAA5A3",
"<. c #B7A9A1",
"1. c #BDACA4",
"2. c #B7ABAD",
"3. c #BDACAA",
"4. c #BFB1A7",
"5. c #BFB1AA",
"6. c #FF9581",
"7. c #C2A6A4",
"8. c #C3ACA6",
"9. c #C5ADA9",
"0. c #C8AFAB",
"q. c #C2B1A6",
"w. c #C4B3AC",
"e. c #CBB4AE",
"r. c #C7B8AF",
"t. c #C4AFB0",
"y. c #C5B5B1",
"u. c #C9B6B1",
"i. c #C7B8B2",
"p. c #CABAB3",
"a. c #FFD980",
"s. c #FFCABE",
"d. c #DCD5C5",
"f. c white",
/* pixels */
"& & = & & & & & & & O $ $ $ & & & & $ $ $ $ $ & & & & & $ & & & & & & & & & & & & & & & @ # # & & & & & & & & & & & & & & & & & ",
"$ # X X X X X X X X O + O O O O O O O $ & & & $ # O @ @ + # O O $ & - & = * * * = - * * - & - ; & - * * * * * ; : * * ; & & & & ",
"& & f K A A A A A A A A A J C C A A A A C A C A R R A A B 4 # # 4 j k k C k k k k k k k k k k k k k k k B k B B A A A k k f 4 $ ",
"$ & K | ( ( ^ } } | ..( ( ( ( ( | ( | ..| | | | ..O.>.<.W d : # 4 k ~ ( ( ( | | ( ........| ..( ....| ..| | | | o.o.o.2.( k 4 & ",
"$ - k ( / ( } } ..O.O.o.( ( ( ( | ( | ] ] ] | | | | &.>.W p # X ; k E / ( / / / / ( / / / / ( / ( / ( ^ / } | | ( $.$.2.( k ; & ",
"$ & K | / | } o.-.>.3.2.$...O.O.X...........( ..O.-.p.3.] m : * 8 S / ....| ] [ ] | ] | | | ] | | | | | | | |  .-.2.5.5.-.k ; & ",
"$ & R | ^ } | o.O.>.2.,.O.......| ] ] | ] ( ' ] O.3.r.<.] m 5 4 p P ( ..] ] / / ' ' / ] ' ] / ' ^ ] / ] ^ ^ | | O.>.2.5.$.k ; $ ",
"$ - K ..|  .| o.o.-.$.@.$.X.| / ' / / ] ' / / ] %.3.r.1.^ n 5 5 p E ] | { ' ^ ^ ^ ^ _ ^ ' ^ _ ^ ] ^ _ ^ _ _ ^ | o.>.5.5.$.k ; & ",
"& * S o.o.;.;.o.o.| } } o.O.o. .] / ] ] ' ] ] | O.1.r.1.! m 5 3 a P _ | [ ' _ _ ^ _ _ ^ _ _ _ ] ^ ] _ _ _ _ _ ` o.<.3.9.-.C ; $ ",
"& * S o.o.;.;.;.| W V S _ o.@.O.X.{ { / ] / ' | +.1.r.1.! m + 3 d F '  .| ' _ _ ' ] ] ' _ _ _ ] ] _ ] ] _ _ _ [ O.@.2.y.-.B ; $ ",
"& * S o.#.7.t.;.} V 0 0 S | @.@.@. .[ ] ' ] ] [ @.1.u.1.! + + + a L ]  .| ] ] ' ] ' _ _ ' ] _ ] ] ] _ ' } ` _  .o.*.3.t.$.B 2 $ ",
"& * S o.;.7.t.;.W b 8 0 V _ O.&.+.X.[ ] ' ^ ' | X.+ r.1.+ + o + + F ' [ ] ] ' ' _ _ ] ' ' ^ ] _ ] ^ _ _ _ _ _ ` X.#.3.t.&.C - $ ",
"& * S o.o.o.` W S b d b D W _ ` [ ] ] ' ' _ ] ] + + + + + o x o + + + [ ] / ] ^ _ ' ] _ _ _ _ _ _ _ _ _ ) _ _ [ X.@.3.y.$.C ; $ ",
"$ * E O.^ F b b b M V D D V Z Z L ! ) _ _ ) _ + + o + + o x x o + + + + ] ' ' ' _ ] ' _ _ ' ] ' ] ' ] ] [ _ _ [ +.#.1.w.>.B ; $ ",
"& * E ..S g 0 0 a V F W V b d v n D ! _ ) ) + + o x o + o H x x o o o + + ' ' _ ' _ ] ] ' _ ] _ ] _ _ ] ] ) ) [ X.#.1.w.$.C 4 $ ",
"& & R / V b 0 0 b V W W V v d d v Z I ) _ ' + + o x x o o H H o x x x o + + ] ] ' ] _ ' ' ] _ ] _ ] ' _ _ ' ] [ +.&.1.r.-.C ; $ ",
"$ * B F C b g b V W _ W D V b n M F I ) _ _ + + o H x x x H H x x H H x o + + ] ] ] ] ] ] ' ] ) ' ] ' ] ` ' ' [ +.#.q.e.&.C ; $ ",
"$ * k B b V V S E ^ _ ` W D Z Z F I ) ) ) ) _ + + o H H x H H x H x x x x o + + ' ] ' ] ] ] ] [ ] ] ] ] ' ' ` [ +.*.q.q.&.C 2 $ ",
"& * f s b V F W ^ _ | | ` ! I I ) ) ) ) ) _ ' + + o o o x x H o o x o x x o + + [ ) ) ' ' _ ] ' ] _ ' ] ` ' ' [ +.%.q.e.-.C 2 $ ",
"$ - f s b W W } ` ` [ | | ` _ ^ _ [ [ _ _ ' + + o x x x H H x o x x H o x x o + + ] [ ] ) [ ) [ ] ] ] ] ' ' [ [ +.*.8.0.>.A ; $ ",
"& & g B B W } } ` ] ] ] ` _ _ _ [ ` ' ` ] + + o x x x H H x H x H x H H o x o + + [ ) ] ' ] ' ' ] ] ] ) [ ) ' [ X.*.8.w.&.C ; $ ",
"& : k A S ~ } ` _ _ _ _ _ ) ) ) ) ) ) ) ) ) + + + o H x o H H x H H x H o o + + ) ) ) ) ` ' ' ` ) ) _ ' ) ) ) [ +.<.8.y.>.k ; $ ",
"& * B ~ W W } } _ ^ ^ _ ) ) ) ) ) ) ) ) ) ) _ + + o x x o x H H x x H x x H o + + ) ) ) ) ) ) ) ) ) ) ) ) U ) [ +.,.w.y.<.k ; $ ",
"& * A } } } ` ` ` ` _ ` _ _ ) ` ) _ ` ' ' _ ] + + o x c o x H x o x x o x H o + + ) ) ` ) ) ) ) ] ) _ _ ) ) ' [ +.*.5.y.>.A ; $ ",
"& * S ;.o.o.o.o.O.o.o.+.[ [ [ [ [ [ [ [  .{ + + + o x   o x x o c o x o x x o + + { { [ [ [ { [ [ [ [ [ [ [ [ +.%.,.y.y.;.A ; & ",
"& * R 2.;.;.,.,.;.7.;.#.#.#.#.*.*.#.*.*.*.+ + + + + o T 6.o x o 6.s.x c o x + + %.%.%.%.#.#.@.#.+.#.#.#.#.#.#.#.*.8.u.y.@.B 4 $ ",
"& * E t.2.3.t.9.0.0.0.0.9.9.9.9.8.8.8.8.+ + o o o o c 6.s.o x 6.s.s.o c + o + + 4.4.4.4.8.8.8.8.8.8.9.7.9.7.7.9.8.r.p.u.O.k 4 $ ",
"* * R 2.>.,.9.9.9.7.0.0.9.0.w.q.q.8.8.+ + o H H x x o 6.s.s.o s.6.c c l + + + 4.4.4.4.4.8.8.8.8.0.8.9.0.7.0.9.7.8.9.u.y...f 4 $ ",
"$ * A | ^ | O.@.+.+.o.#.#.+.%.@.+.+.+ + o H x o o o H c 6.s.s.6.c c u u u + + X.%.%.{ { X.+.X.+.+.+.+.+.+.+.+.+.o.@.>.@.^ s 8 & ",
"& * k S m B S F F F S D F Z J K J + + o H H o o o o o l l c c G + :.f.f.:.u + + J J J J Z J S J D D D D F S S F F F P E A w 6 $ ",
"$ * 2 8 4 4 4 5 3 3 3 4 5 4 5 4 + + o H H o o o o o . c l l a.+ Y :.d.d.f.u + + y q q q 5 4 1 4 4 3 3 4 5 3 3 5 5 3 5 - * $ $ $ ",
"$ * * - * : * * * % * * % = = = + + o H x o o o o . . . G a.G + Y Y d.d.:.u + + O O O = O O = O $ $ $ # # % # % % # % * $ $ $ $ ",
"& & * : 4 8 i w w w w w w r r + + o H H o o o o . . . . l l z + u Y Y Y u z l + + q q q q q q q q q q 4 3 4 5 0 p 9 0 p p ; ; * ",
"$ * k k f b S S J C C C Z C Z + + o H H o o o c l l . . z z z z + + + + z z z l + + J C C C C k C j j j b b b V D V F E V i 6 * ",
"$ * k F V E W W ~ Q Q ! Q Q U + + o H H o o 6.6.l . o . . z z z z z z l l z z l + + Q ! U U Q Q ! ! U Q W W W ) _ ` O.O.~ i 8 * ",
"& * A ^ W } } } ` ] ] ] ] ] ] + + o x H o o 6.c . o o o . l z z z z l l l z z l + + { { { { %... . .{ .. . .+.+.O.;.7.,.^ s 8 ; ",
"$ * A | } |  .` ] | ` ` ` [ ` + + o x H o o o o o o o o . x x l l l x . + l z l + + { +.+.+.+.#.@.@.#.#.#.#.#.*.#.@.;.@.~ p 8 * ",
"$ * k | ` | ` ` ` ` ` [ [ ` ' [ + + . x o o o o o o o . + . o x x Y Y u + 6.s.6.+ + { +.+.@.#.*.#.7.7.7.7.7.7.7.@._ W P B 7 ; * ",
"& - C | ` | | ` ` ` ` _ ` _ ` ] ] + + . o o o o o o . + + + . z l l u :.u s.s.s.+ + [ [ +.*.7.7.7.0.0.0.0.e.e.0.+.F b p 4 * & & ",
"$ * k | } | ` } ] ] ` ` _ [ ] ] [ ] + + . x o o . . + + + . z z d.d.d.u :.+ + + + [ +.[ [ *.8.9.0.w.e.e.e.e.e.7.` Z a 5 : # & # ",
"$ - B | } | ` } ` ` ` ` ] ` ` ] _ ` ` + + . . . + + + + . z d.d.Y u u u :.u . + + { X.[ [ +.#.*.#.+.+.+.+.#.+.[ ) D M d 0 ; * & ",
"$ * B | } | ` | [ } _ ] ] ] ` [ ] ] ) [ + + + + + + + . d.d.Y u u :.Y u Y u . + + X.+.#.[ ) U I D D N N N N N N D F W I m 5 6 - ",
"& - k | ` | ` ] } ] ` ] _ ] ] ] [ [ _ _ ) + + + + + d.d.Y u u :.Y + o o u o o + + +.@.+.[ I b t v 9 v < v < 9 e M I +. .E s 7 - ",
"$ - C | } | | } ] ` ] } ] ] ] ] ) ] _ ] ] ' + + d.d.u u :.:.Y + + + o o o o o + X.@.&.%._ M t , > > < < < > < 9 n ) #.*.| j 8 = ",
"& * B | ` ` ` | ] ` ] ] [ ] ` ] ] ] ] ) ' + + d.:.Y :.Y o + + + t L + o o o + X.X.{  .{ I M t 9 < < 9 9 9 1 9 e N ' ,.3...k 6 - ",
"& : B | } | } ` _ ` } ] _ ] ] ) [ ] ` [ ] ) + + o x x x o + + , a P ] X.+.%.%.%.+.' I D Z M b v v v v v v v v M I  .8.w...k 7 - ",
"& * B | `  .} ` ` ` ` _ ] [ ] [ ) ] ] ) ] ) ] [ + o o o + n 1 , t P [ +.&.*.*.&.[ P n v v M Z D D F F F L L D I ' %.r.r...f 7 - ",
"& * B o.} | | } | ] ] [ _ _ _ [ _ [ ] ] _ ] ) [ X.,.q.1.[ M 1 , d P { +.*.1.1.%.' N d d v M D I U ) ) ) ' ) U ) { *.r.i.O.k ; - ",
"$ : B o.| | ` } | ` ] ` ] ] ] | { ' ] ] ] ' ' [ X.=.q.8.] M 1 < t P [ %.*.=.*.{ I n y d n N U ! ' [ [ ' { [ U +.+.7.e.r.%.f ; - ",
"$ * k | `  .` | | ] ` [ ] ] ] [ ] ] ] ' ' ] ] ] +.*.q.8.] M 3 < v I X.%.%.{ U U Z M n M N J U U ' ' ) [ [ U { U U #.q.e.%.h ; - ",
"& * A | | | | ] ` ] | ] ] [ ] ] ] ] ' / ' ' ] { X.*.q.1.' M 1 1 v I %.=.+.I n n b M Z L I U U ' ) ' ) ) [ [ [ U %.*.0.e.$.f ; ; ",
"& * k | | | | ] ] ] ] ] ] ] ] ] ] { ' { ' ] ' { %.,.q.8.{ M 1 1 v ' 1.1.{ N e q y M L U ) ' ' ! ' ' ) [ U [ U [ +.#.e.e.O.k ; - ",
"$ - B | |  .| ` ] ] ] ] ] ] ] [ ' ' ' ' ' / ' ' X.=.q.q.[ n 1 1 n ' q.q.{ n 1 > r M L ' { ' ' { ] ' ' ] ' ' U [ [ &.r.i.$.f ; - ",
"$ - k ..[ | | ] ] ] ] ] ] ] ] ' { ' ' ] ' ' ' { %.=.q.=.{ n 1 1 d ' 4.4.{ n 1 1 y N U ! ' { ' ] ' ' ' ' ' ' ' ' [ *.w.i.$.f ; - ",
"$ - k | ] | ] ] ] / ] / ' ] ] ] ' ' ' { ! ! ! { X.=.q.4.{ n 1 1 y ' =.=.' n 1 < y J U ' ' ' / ' ' ' ' ' ' ' ' ' [ *.w.i.$.f ; ; ",
"$ - B | | | ] _ / ] ] ' ^ ' / ] { ' ! ! ! ' / ] X.=.q.4.' n 1 > y U =.=.' n 1 1 y L U / ' ! ' ' ' ' ' ' ' U ' ' { *.w.i.$.k ; ; ",
"& * A O. . .| | | ] ] ] ] [ ] ] [ ] ] / ' ] ] { %.=.q.4.] M 3 > y I X.X.! m r r m U / / ] ' ] ] ] ^ ' ' ' ' ' ' { *.y.y.X.g ; ; ",
"& & A 2.,.,.>.;.>.&.&.$.$.$.%.$.%.$.%.$.%.%.$.=.=.4.r.4.] M 5 , 5 n L E L C B Z ! ..X.%.%.%.X.X.%.%.X.X.%.X.+.X.%.1.y.y.o.f ; ; ",
"$ * A y.y.y.t.t.3.y.y.3.q.5.w.5.5.5.5.5.4.5.5.5.w.r.p.4.] j 3 , 3 t g m J U ] %.<.5.5.5.5.5.5.5.4.4.5.5.4.1.4.4.8.q.p.i.-.k ; ; ",
"* * A 5.y.p.u.u.y.y.y.y.y.i.y.i.i.r.r.5.5.5.y.i.p.p.i.<.Q h 3 : , 5 r d C / $.3.5.5.w.5.i.i.y.i.i.y.w.r.r.w.w.5.q.w.p.i.-.k ; ; ",
"$ * k O.;.>.>.>.>.>.>.>.>.>.<.<.<.>.>.-.<.$.<.<.4.4.=./ Z r , % * 3 5 w h Q ( ....$...$.$.$.$.$.$.$.$.$.$.%.&.=.=.<.&.-.( f 7 ; ",
"$ - g S S ~ ~ E E E E E E Q E R E E K U K R E ! / / U J s 5 * * $ - 2 4 w C J J J J J K K P P E K K K P P L U ! / Q R K k i ; * ",
"& * w i 8 w 8 8 i w i 8 w w i w 5 w w w w 8 w w p s w = * # * * # & , & - p s s f j j j j j k j j j j j j h h N k j f f i ; i - ",
"$ & 6 ; 2 7 6 4 2 2 2 2 2 2 2 ; 2 ; ; ; ; ; 4 ; ; ; ; & * * $ # $ # $ & - - ; - - - - - - - , - - - ; - ; ; ; 2 ; ; ; ; ; ; * & "
};
