/* XPM */
static char *e00c7a4600894086c3547885fe6c416bTldB2wbMlaAC2kPZ[] = {
/* columns rows colors chars-per-pixel */
"64 64 18 1 ",
"  c None",
". c #5F002A",
"X c #772A2A",
"o c #5B3356",
"O c #545778",
"+ c #9D0701",
"@ c #D5062A",
"# c #A0592A",
"$ c #D04A01",
"% c #EC8300",
"& c #B38449",
"* c #6A8580",
"= c #9FB3A1",
"- c #FF9581",
"; c #FFD980",
": c #FFCABE",
"> c #DCD5C5",
", c white",
/* pixels */
"                                                                ",
"                                                                ",
"          oo                                                    ",
"         ooo                                                    ",
"        ooooo                                                   ",
"       ooo,oo                                                   ",
"      ooo,,,oo                                                  ",
"      oo,,,,oo                                                  ",
"     oo*,,,,,oo                                                 ",
"     oo=,,,,,oo                                                 ",
"     oo>,>,,,,oo             o                                  ",
"    ooo>,=,,,,oo       oo   ooo                                 ",
"    oo*,>=>,,,,oo     oooooooXoo                                ",
"    oo*,>=>>,,,oo    ooXXoooX#Xoo                               ",
"    oo=,>=>>,,,,oo  ooX#XoXX##Xoo                               ",
"    oo>,>==>,>,,oo  ooX##XX&##XXoo                              ",
"    oo>,>==>,>,,,ooooX###&&&&X##Xoo                             ",
"    oo>,>*=>,>>,,ooooX&&#&&###&&#Xoooo                          ",
"    oo>,>*=>,=>=,,oooXXX##&XX#X##Xoooooo                        ",
"    oo>,>*=>,=>=,,ooX###&&#X##&X##XXXXoooo                      ",
"    oo>,>*=>,=>=>,,X###&&#&#&#&&X#X&&&XXooo                     ",
"    oo>,>=*>,=>=>,,oX##X#&&##&##&XXX#&&&Xooo                    ",
"    oo>,>>*>,=>*>,,X#XX#&#X##X#&XXXXXX#&&Xoo                    ",
"    oo>,>>*>>==*>>>XX$X##X$X#X##X....XXX#&Xoo                   ",
"    oo>,>>*=>==*=>$$.-X#X:-XXX#+X.++..XXX&Xoo                   ",
"    oo>,>>*=>==*=>$-.$X#$:-X$XX+X..+..XXX#&Xoo                  ",
"    oo>,,>*=>==*=>..++.-X$$-$+$.X...+..XXX&Xoo                  ",
"    oo>,,>*=>==*=>>.++OOO....+%...++...XXX&Xoo                  ",
"    oo=,,>=*>==*==>o.o=,,=O$%;+..+++..XXXX&Xoo                  ",
"    oo=,,>=*>==*==>o.*=>>,O+@++.++++.XXXXX#Xoo                  ",
"    oo=,,>>*>>=**=>oo**>>=O@@@+.+++.XXXXX#.oo                   ",
"    oo*>,>>*=>=**=>ooO***O+@@@+....XXXXXX.ooo                   ",
"    oo*>,,>=*>=**=>ooooooo+@@@++...XXXX#.ooo                    ",
"     oo=,,>=*>>=*=>ooooo.+++@@@+.oo.....ooo                     ",
"     oo=,,>>*=>=*==oo ooo.+++@@@.ooooooooo                      ",
"     oo*>,>>=*>>**=*oo oo+.++@@@.ooooooo                        ",
"      oo>,>>>*=>=*=*oo  oo.#++@@#.oo                            ",
"      oo=,,>>=*>=**=*oo oo.X####X.oo                            ",
"      oo*,,>>>*=>=*=*oooo..+XXXX++.oo                           ",
"       oo>,>>>=*==**=*ooo.++.++@@+.ooo                          ",
"       oo=,,>>>**==*=*ooo.+++...+@@++oo                         ",
"        oo>,>>>=**=**=*oo.++.ooo.+@@++oo                        ",
"        oo=>,>>>=**=***oXX++.oooo.+@@+.oo                       ",
"         oo=>,>>>=**=**XXXXXooo ooo.X++oo                       ",
"         oo*=>,>>>=**=**XXXoooooooX##XXo                        ",
"          oo*=>,>>>=**==***OOOOoooX###Xo                        ",
"           oo*=>>>>>=***====***OOOOXXXo                         ",
"            oo*=>>>>>>=***oooooooo                              ",
"             ooo==>,,,>>=***OOOooooooooooooo                    ",
"              ooooo=>,,,>>=*****OOOOOooooooooooo                ",
"                ooooo*=>,,,>>>===*****OOOOO*ooooo               ",
"                   oooooo**=>>,,,>>>>>>>>>======oo              ",
"                     oooooooooooooooooooooooooooo               ",
"                         ooooooooooooooooooooooo                ",
"                                                                ",
"                                                                ",
"                                                                ",
"                                                                ",
"                                                                ",
"                                                                ",
"                                                                ",
"                                                                ",
"                                                                ",
"                                                                "
};
