/* XPM */
static char *_9bd64ddf0ab4ee7ba4ab3b8ee09bd53yNKDOAQw6qUfoKU5[] = {
/* columns rows colors chars-per-pixel */
"64 64 17 1 ",
"  c None",
". c #5F002A",
"X c #772A2A",
"o c #5B3356",
"O c #545778",
"+ c #9D0701",
"@ c #D5062A",
"# c #A0592A",
"$ c #D04A01",
"% c #EC8300",
"& c #B38449",
"* c #6A8580",
"= c #9FB3A1",
"- c #FF9581",
"; c #FFD980",
": c #DCD5C5",
"> c white",
/* pixels */
"                                                                ",
"                                                                ",
"                                                                ",
"             o                                                  ",
"            ooo                                                 ",
"            oooo                                                ",
"           oo:oo                                                ",
"           oo*>oo                                               ",
"           oo*:oo                                               ",
"           oo*O>oo                                              ",
"           oo*O>oo          o                                   ",
"           oo*O>oo    oo   ooo                                  ",
"            ooO:oo   oooooooXoo                                 ",
"            oo*=>oo ooXXoooX#Xoo                                ",
"            oo*O>ooooX#XoXX##Xoo                                ",
"            oo*O>ooooX##XX&##XXoo                               ",
"             ooO:oooX###&&&&X##Xoo                              ",
"             ooO=>ooX&&#&&###&&#Xoooo                           ",
"             oo*O:oooXXX##&XX#X##Xooooo                         ",
"             oo*O:oX###&&#X##&X##XXXXoooo                       ",
"             oo*O*X###&&#&#&#&&X#X&&&XXooo                      ",
"            ooooO*:X##X#&&##&##&XXX#&&&Xooo                     ",
"           oo=oo**X#XX#&#X##X#&XXXXXX#&&Xoo                     ",
"            ooO===XX$X##XX#X##XXXXXXXXX#&Xoo                    ",
"             oooO$$.-X#X-XXX#X+XX..XXXXX&Xoo                    ",
"              ooo--.$X#$-X$.X.+X..+.XXXX#&Xoo                   ",
"               oo..++.-X$$-$+$.X...+.XXXX&Xoo                   ",
"                oo.++OOO....+%........XXX&Xoo                   ",
"                 oo.o=>>=O$%;+..+++...XXX&Xoo                   ",
"                 oo.*=::>O+@+++.+++..XXXX#Xoo                   ",
"                 ooo**::=O@@@++..+..XXXX#.oo                    ",
"                 oooO***O+@@@++...XXXXXX.ooo                    ",
"                  ooooooo+@@@++...XXXX#.ooo                     ",
"                   oooo.+++@@@+.oo.....ooo                      ",
"                     ooo.+++@@@.ooooooooo                       ",
"                      oo+.++@@@.ooooooo                         ",
"                       oo.#++@@#.oo                             ",
"                        oo.X####X.oo                            ",
"                       oo..+XXXX++.oo                           ",
"                       oo.++.++@@+.ooo                          ",
"                       oo.+++...+@@++oo                         ",
"                       oo.++.ooo.+@@++oo                        ",
"                      ooXX++.oooo.+@@+.oo                       ",
"                      oXXXXXoo  ooo.X++oo                       ",
"                       oXXXo    ooX##XXoo                       ",
"                                 oX###Xo                        ",
"                                  oXXXo                         ",
"                                                                ",
"                                                                ",
"                                                                ",
"                                                                ",
"                                                                ",
"                                                                ",
"                                                                ",
"                                                                ",
"                                                                ",
"                                                                ",
"                                                                ",
"                                                                ",
"                                                                ",
"                                                                ",
"                                                                ",
"                                                                ",
"                                                                "
};
