/* XPM */
static char *_a6d12fd76a34d6bb5ca2717652b5574kcW9lEksVuR2tXjK[] = {
/* columns rows colors chars-per-pixel */
"64 64 20 1 ",
"  c None",
". c #211223",
"X c #5F002A",
"o c #772A2A",
"O c #5B3356",
"+ c #545778",
"@ c #9D0701",
"# c #D5062A",
"$ c #A0592A",
"% c #D04A01",
"& c #EC8300",
"* c #B38449",
"= c #6A8580",
"- c #00A5C1",
"; c #9FB3A1",
": c #FF9581",
"> c #FFD980",
", c #FFCABE",
"< c #DCD5C5",
"1 c white",
/* pixels */
"                                                                ",
"                                                                ",
"                                                                ",
"                                                                ",
"                                                                ",
"                                                                ",
"                                                                ",
"                                                                ",
"                                                                ",
"                            O                                   ",
"                           OOO                                  ",
"                       O  OOoOO                                 ",
"                      OOOOOo$oOOO                               ",
"                     OOoOOo$$oOOOO                              ",
"                    OOo$oOo*$$oooOO                             ",
"                    OOo$$oo**o$$$oOO                            ",
"                    OOo*$$$**$$**$oOO                           ",
"                     OOo**$**$*$$$$oOO                          ",
"                     OOooo$$*oo$o$$oOO                          ",
"                    OOo$$$**$o$$*o$$oOO                         ",
"                   OOo$$$**$*$*$**o$oOO                         ",
"                    OOOo*$o**$**$*ooOO                          ",
"                     OOo$$o$**$$*$$*oOO                         ",
"                     OOo$%o$*$o$$o$*oOO                         ",
"                OOO  OOo$.o$$o%o$o$$oOO                         ",
"               OOOOO  OOo-:o$o:,$%o$OO                          ",
"              OOOooOO OO%:,o$:,,o%OoOO                          ",
"             OOOo*$oOO OO:,,o,:%@XXOOOO                         ",
"             OOXoo*$oOOOXX:,,:%#&@++++OO                        ",
"            OOXo$o$*$oOXXX%%%@#1@O;11;+OO                       ",
"            OOXo$o$o*oX@@X%@@#>#O=;<<1+OO                       ",
"            OOXoo$o$*$o@@X&@#>##O==<<;+OO                       ",
"            OOXoo$o$o*o@XXX&&###O+===+@OO                       ",
"            OOXo$$$$o*oXOOX@####@OOOO@@@OO                      ",
"            OOXoo$$$o*$oOOX@####@@X@@@##@OO                     ",
"             OOXo$$$o$*oOO@@@####@XO@@###@OO                    ",
"             OOXo$o$o$*oOOX$@@###@oOO@@###@OO                   ",
"             OOXo$o$o$*oOOXo$$$$$oXOOOO@#:,@OOOO                ",
"              OOXoo$o$*oOOXXooooo@@XOOOO%:,,OOOOO               ",
"              OOXoo$o*XOOOX@@X@@##@XOO OO:%O+<<<OO              ",
"               OOXo$oXOOOX@@@X@@@##@@OO OOO+;++OO               ",
"                OOXXXOOOOX@@XOOOX@##@@OO OO;+;=<OO              ",
"                 OOOOO Ooo@@XOOOOO@##@@OOOO;+;+=1OO             ",
"                  OOO OoooooOO  OOOXo@@OOOO=OO;+=1OO            ",
"                       OoooO    OOo$$ooOO OOOOO;+=1OO           ",
"                                 Oo$$$oO   O  OO;+=1OO          ",
"                                  OoooO        OO;+=1OO         ",
"                                                OO;+=1OO        ",
"                                                 OO;+=1OO       ",
"                                                  OO;+=1OO      ",
"                                                   OO;<<OO      ",
"                                                    OOOOOO      ",
"                                                     OOOOO      ",
"                                                                ",
"                                                                ",
"                                                                ",
"                                                                ",
"                                                                ",
"                                                                ",
"                                                                ",
"                                                                ",
"                                                                ",
"                                                                ",
"                                                                "
};
