/* XPM */
static char *_678_d5c8239b84154c83b9b48f017195ff2b0f6b68ca98a887edf75cdbad098a8785[] = {
/* columns rows colors chars-per-pixel */
"64 64 17 1 ",
"  c #5F002A",
". c #772A2A",
"X c #5B3356",
"o c #545778",
"O c #9D0701",
"+ c #D5062A",
"@ c #A0592A",
"# c #D04A01",
"$ c #EC8300",
"% c #B38449",
"& c #6A8580",
"* c #9FB3A1",
"= c #FF9581",
"- c #FFD980",
"; c #DCD5C5",
": c white",
"> c None",
/* pixels */
">>>>>>>>>>>>>>>>>>>>>>>>>>>>>>>>>>>>>>>>>>>>>>>>>>>>>>>>>>>>>>>>",
">>>>>>>>>>>>>>>>>>>>>>>>>>>>>>>>>>>>>>>>>>>>>>>>>>>>>>>>>>>>>>>>",
">>>>>>>>>>>>>>>>>>>>>>>>>>>>>>>>>>>>>>>>>>>>>>>>>>>>>>>>>>>>>>>>",
">>>>>>>>>>>>>>>>>>>>>>>>>>>>>>>>>>>>>>>>>>>>>>>>>>X>>>>>>>>>>>>>",
">>>>>>>>>>>>>>>>>>>>>>>>>>>>>>>>>>>>>>>>>>>>>>>>>XXX>>>>>>>>>>>>",
">>>>>>>>>>>>>>>>>>>>>>>>>>>>>>>>>>>>>>>>>>>>>>>>XXXX>>>>>>>>>>>>",
">>>>>>>>>>>>>>>>>>>>>>>>>>>>>>>>>>>>>>>>>>>>>>>>XX;XX>>>>>>>>>>>",
">>>>>>>>>>>>>>>>>>>>>>>>>>>>>>>>>>>>>>>>>>>>>>>XX:&XX>>>>>>>>>>>",
">>>>>>>>>>>>>>>>>>>>>>>>>>>>>>>>>>>>>>>>>>>>>>>XX;&XX>>>>>>>>>>>",
">>>>>>>>>>>>>>>>>>>>>>>>>>>>>>>>>>>>>>>>>>>>>>XX:o&XX>>>>>>>>>>>",
">>>>>>>>>>>>>>>>>>>>>>>>>>>>>>>>>>>X>>>>>>>>>>XX:o&XX>>>>>>>>>>>",
">>>>>>>>>>>>>>>>>>>>>>>>>>>>>>>>>>XXX>>>XX>>>>XX:o&XX>>>>>>>>>>>",
">>>>>>>>>>>>>>>>>>>>>>>>>>>>>>>>>XX.XXXXXXX>>>XX;oXX>>>>>>>>>>>>",
">>>>>>>>>>>>>>>>>>>>>>>>>>>>>>>>XX.@.XXX..XX>XX:*&XX>>>>>>>>>>>>",
">>>>>>>>>>>>>>>>>>>>>>>>>>>>>>>>XX.@@..X.@.XXXX:o&XX>>>>>>>>>>>>",
">>>>>>>>>>>>>>>>>>>>>>>>>>>>>>>XX..@@%..@@.XXXX:o&XX>>>>>>>>>>>>",
">>>>>>>>>>>>>>>>>>>>>>>>>>>>>>XX.@@.%%%%@@@.XXX;oXX>>>>>>>>>>>>>",
">>>>>>>>>>>>>>>>>>>>>>>>>>>XXXX.@%%@@@%%@%%.XX:*oXX>>>>>>>>>>>>>",
">>>>>>>>>>>>>>>>>>>>>>>>>XXXXX.@@.@..%@@...XXX;o&XX>>>>>>>>>>>>>",
">>>>>>>>>>>>>>>>>>>>>>>XXXX....@@.%@@.@%%@@@.X;o&XX>>>>>>>>>>>>>",
">>>>>>>>>>>>>>>>>>>>>>XXX..%%%.@.%%@%@%@%%@@@.&o&XX>>>>>>>>>>>>>",
">>>>>>>>>>>>>>>>>>>>>XXX.%%%@...%@@%@@%%@.@@.;&oXXXX>>>>>>>>>>>>",
">>>>>>>>>>>>>>>>>>>>>XX.%%@......%@.@@.@%@..@.&&XX*XX>>>>>>>>>>>",
">>>>>>>>>>>>>>>>>>>>XX.%@.........@@.@..@@.#..***oXX>>>>>>>>>>>>",
">>>>>>>>>>>>>>>>>>>>XX.%.....  ..O.@...=.@.= ##oXXX>>>>>>>>>>>>>",
">>>>>>>>>>>>>>>>>>>XX.%@.... O  .O . #.=#@.# ==XXX>>>>>>>>>>>>>>",
">>>>>>>>>>>>>>>>>>>XX.%.... O   . #O#=##.= OO  XX>>>>>>>>>>>>>>>",
">>>>>>>>>>>>>>>>>>>XX.%...        $O    oooOO XX>>>>>>>>>>>>>>>>",
">>>>>>>>>>>>>>>>>>>XX.%...   OOO  O-$#o*::*X XX>>>>>>>>>>>>>>>>>",
">>>>>>>>>>>>>>>>>>>XX.@....  OOO OOO+Oo:;;*& XX>>>>>>>>>>>>>>>>>",
">>>>>>>>>>>>>>>>>>>>XX @....  O  OO+++o*;;&&XXX>>>>>>>>>>>>>>>>>",
">>>>>>>>>>>>>>>>>>>>XXX ......   OO+++Oo&&&oXXX>>>>>>>>>>>>>>>>>",
">>>>>>>>>>>>>>>>>>>>>XXX @....   OO+++OXXXXXXX>>>>>>>>>>>>>>>>>>",
">>>>>>>>>>>>>>>>>>>>>>XXX     XX O+++OOO XXXX>>>>>>>>>>>>>>>>>>>",
">>>>>>>>>>>>>>>>>>>>>>>XXXXXXXXX +++OOO XXX>>>>>>>>>>>>>>>>>>>>>",
">>>>>>>>>>>>>>>>>>>>>>>>>XXXXXXX +++OO OXX>>>>>>>>>>>>>>>>>>>>>>",
">>>>>>>>>>>>>>>>>>>>>>>>>>>>>XX @++OO@ XX>>>>>>>>>>>>>>>>>>>>>>>",
">>>>>>>>>>>>>>>>>>>>>>>>>>>>XX .@@@@. XX>>>>>>>>>>>>>>>>>>>>>>>>",
">>>>>>>>>>>>>>>>>>>>>>>>>>>XX OO....O  XX>>>>>>>>>>>>>>>>>>>>>>>",
">>>>>>>>>>>>>>>>>>>>>>>>>>XXX O++OO OO XX>>>>>>>>>>>>>>>>>>>>>>>",
">>>>>>>>>>>>>>>>>>>>>>>>>XXOO++O   OOO XX>>>>>>>>>>>>>>>>>>>>>>>",
">>>>>>>>>>>>>>>>>>>>>>>>XXOO++O XXX OO XX>>>>>>>>>>>>>>>>>>>>>>>",
">>>>>>>>>>>>>>>>>>>>>>>XX O++O XXXX OO..XX>>>>>>>>>>>>>>>>>>>>>>",
">>>>>>>>>>>>>>>>>>>>>>>XXOO. XXX>>XX.....X>>>>>>>>>>>>>>>>>>>>>>",
">>>>>>>>>>>>>>>>>>>>>>>XX..@@.XX>>>>X...X>>>>>>>>>>>>>>>>>>>>>>>",
">>>>>>>>>>>>>>>>>>>>>>>>X.@@@.X>>>>>>>>>>>>>>>>>>>>>>>>>>>>>>>>>",
">>>>>>>>>>>>>>>>>>>>>>>>>X...X>>>>>>>>>>>>>>>>>>>>>>>>>>>>>>>>>>",
">>>>>>>>>>>>>>>>>>>>>>>>>>>>>>>>>>>>>>>>>>>>>>>>>>>>>>>>>>>>>>>>",
">>>>>>>>>>>>>>>>>>>>>>>>>>>>>>>>>>>>>>>>>>>>>>>>>>>>>>>>>>>>>>>>",
">>>>>>>>>>>>>>>>>>>>>>>>>>>>>>>>>>>>>>>>>>>>>>>>>>>>>>>>>>>>>>>>",
">>>>>>>>>>>>>>>>>>>>>>>>>>>>>>>>>>>>>>>>>>>>>>>>>>>>>>>>>>>>>>>>",
">>>>>>>>>>>>>>>>>>>>>>>>>>>>>>>>>>>>>>>>>>>>>>>>>>>>>>>>>>>>>>>>",
">>>>>>>>>>>>>>>>>>>>>>>>>>>>>>>>>>>>>>>>>>>>>>>>>>>>>>>>>>>>>>>>",
">>>>>>>>>>>>>>>>>>>>>>>>>>>>>>>>>>>>>>>>>>>>>>>>>>>>>>>>>>>>>>>>",
">>>>>>>>>>>>>>>>>>>>>>>>>>>>>>>>>>>>>>>>>>>>>>>>>>>>>>>>>>>>>>>>",
">>>>>>>>>>>>>>>>>>>>>>>>>>>>>>>>>>>>>>>>>>>>>>>>>>>>>>>>>>>>>>>>",
">>>>>>>>>>>>>>>>>>>>>>>>>>>>>>>>>>>>>>>>>>>>>>>>>>>>>>>>>>>>>>>>",
">>>>>>>>>>>>>>>>>>>>>>>>>>>>>>>>>>>>>>>>>>>>>>>>>>>>>>>>>>>>>>>>",
">>>>>>>>>>>>>>>>>>>>>>>>>>>>>>>>>>>>>>>>>>>>>>>>>>>>>>>>>>>>>>>>",
">>>>>>>>>>>>>>>>>>>>>>>>>>>>>>>>>>>>>>>>>>>>>>>>>>>>>>>>>>>>>>>>",
">>>>>>>>>>>>>>>>>>>>>>>>>>>>>>>>>>>>>>>>>>>>>>>>>>>>>>>>>>>>>>>>",
">>>>>>>>>>>>>>>>>>>>>>>>>>>>>>>>>>>>>>>>>>>>>>>>>>>>>>>>>>>>>>>>",
">>>>>>>>>>>>>>>>>>>>>>>>>>>>>>>>>>>>>>>>>>>>>>>>>>>>>>>>>>>>>>>>",
">>>>>>>>>>>>>>>>>>>>>>>>>>>>>>>>>>>>>>>>>>>>>>>>>>>>>>>>>>>>>>>>"
};
