/* XPM */
static char *_1259_00362f1fef2e239b264951b6cb60d2685c47e957369ba8d785e677da8b8641e3[] = {
/* columns rows colors chars-per-pixel */
"64 64 16 1 ",
"  c #5F002A",
". c #772A2A",
"X c #5B3356",
"o c #545778",
"O c #9D0701",
"+ c #D5062A",
"@ c #A0592A",
"# c #D04A01",
"$ c #B38449",
"% c #6A8580",
"& c #9FB3A1",
"* c #FF9581",
"= c #FFCABE",
"- c #DCD5C5",
"; c white",
": c None",
/* pixels */
"::::::::::::::::::::::::::::::::::::::::::::::::::::::::::::::::",
"::::::::::::::::::::::::::::::::::::::::::::::::::::::::::::::::",
"::::::::::::::::::::::::::::::::::::::::::::::::::::::::::::::::",
"::::::::::::::::::::::::::::::::::::::::::::::::::::::::::::::::",
"::::::::::::::::::::::::::::::::::::::::::::::::::::::::::::::::",
"::::::::::::::::::::::::::::::::::::::::::::::::::::::::::::::::",
"::::::::::::::::::::::::::::::::::::::::::::::::::::::::::::::::",
"::::::::::::::::::::::::::::::::::::::::::::::::::::::::::::::::",
"::::::::::::::::::::::::::::::::::::::::::::::::::::::::::::::::",
"::::::::::::::::::::::::::::::::::::::::::::::::::::::::::::::::",
"::::::::::::::::::::::::::::::::::XX::::::::::::::::::::::::::::",
":::::::::::::::::::::::::::::::::XXXXX::::::::::::::::::::::::::",
"::::::::::::::::::::::::::::XXX:XX..XXXX::::::::::::::::::::::::",
":::::::::::::::::::::::::::XXXXXX.@@..XXX:::::::::::::::::::::::",
":::::::::::::::::::::::::XXX...X.@@$@@..XX::::::::::::::::::::::",
":::::::::::::::::::::::XXXX.@@@.@$$@@..XXXX:::::::::::::::::::::",
"::::::::::::::::::::::XXX..@$$$@$$@..@@@@.XX::::::::::::::::::::",
":::::::::::::::::::::XX.@@@$@@@@@@@$$@..XXX:::::::::::::::::::::",
"::::::::::::::::::::::XXX..@$$$.$$$$$$$@.XX:::::::::::::::::::::",
":::::::::::::::::::::XX ..@$$$@@.@@@@$@$@.XX::::::::::::::::::::",
"::::::::::::::::::::XX..@$$$$$.@....@$.@@@.XX:::::::::::::::::::",
":::::::::::::::::::XX .@.@@$@..$@@@$@@@..XXX::::::::::::::::::::",
":::::::::::::::::::XX @.$$@@.@.$$@$$@.@*#XX:::::::::::::::::::::",
"::::::::::::::::::XX O.$.@@.$@@$$@$@@.@=#XX:::::::::::::::::::::",
"::::::::::::::::::XX O..@.@$@$@$$@$@.*.#XX::::::::::::::::::::::",
"::::::::::::::::::XX OO..@$$.$@@$@@.*#XXX:::::::::::::::::::::::",
"::::::::::::::::::XXOO+#*@@@.$.@$.@.#XXX::::::::::::::::::::::::",
"::::::::::::::::::XXOO++#.@..@.@@.@+OXX:::::::::::::::::::::::::",
"::::::::::::::::::XX OO+O#...@#.@..OOXXXXX::::::::::::::::::::::",
":::::::::::::::::::XX OO O.#O. .@.O++OXXXXX:::::::::::::::::::::",
"::::::::::::::::::::XX   OOO++OO.O+++OooooXX::::::::::::::::::::",
":::::::::::::::::::::XX  OO+++++O++++o&-;%oXX:::::::::::::::::::",
"::::::::::::::::::::::XX  O+++++++++Oo&--;%oXX::::::::::::::::::",
"::::::::::::::::::::::XX  OO++++++++ X%&--&oXX::::::::::::::::::",
":::::::::::::::::::::::XX.OOO+++++++  X%&&%oXX::::::::::::::::::",
":::::::::::::::::::::::XX @.OO+++++O   XXXoXX:::::::::::::::::::",
":::::::::::::::::::::::XXOO@@OOO++OO@   OO XX:::::::::::::::::::",
"::::::::::::::::::::::XX OOO.@@.OO.@OX O++O XX::::::::::::::::::",
"::::::::::::::::::::::XX OO  OO@@@@O XXXO+O+XX::::::::::::::::::",
":::::::::::::::::::::XX.OO    OOOOOO XXXXOO**XXXXX::::::::::::::",
":::::::::::::::::::::XX.@..XXX O OO XX::XX#*=*XXXXX:::::::::::::",
"::::::::::::::::::::::X.@@.XXXX OO+OXX:::XX*#Xo%&%XX::::::::::::",
":::::::::::::::::::::::X..X:::XX O++OXX:::XXXo-ooXX:::::::::::::",
"::::::::::::::::::::::::::::::XX OOO.XX::::XX-o&%&XX::::::::::::",
":::::::::::::::::::::::::::::::XX..@.XX::::XX-o-%o&XX:::::::::::",
"::::::::::::::::::::::::::::::::X.@@.X:::::XX%XX-%o&XX::::::::::",
":::::::::::::::::::::::::::::::::X..X:::::::XXXXX-%o&XX:::::::::",
":::::::::::::::::::::::::::::::::::::::::::::X::XX-%o&XX::::::::",
":::::::::::::::::::::::::::::::::::::::::::::::::XX-%o&XX:::::::",
"::::::::::::::::::::::::::::::::::::::::::::::::::XX-%o&XX::::::",
":::::::::::::::::::::::::::::::::::::::::::::::::::XX-%o&XX:::::",
"::::::::::::::::::::::::::::::::::::::::::::::::::::XX;%o&XX::::",
":::::::::::::::::::::::::::::::::::::::::::::::::::::XX;;-XX::::",
"::::::::::::::::::::::::::::::::::::::::::::::::::::::XXXXXX::::",
":::::::::::::::::::::::::::::::::::::::::::::::::::::::XXXXX::::",
"::::::::::::::::::::::::::::::::::::::::::::::::::::::::::::::::",
"::::::::::::::::::::::::::::::::::::::::::::::::::::::::::::::::",
"::::::::::::::::::::::::::::::::::::::::::::::::::::::::::::::::",
"::::::::::::::::::::::::::::::::::::::::::::::::::::::::::::::::",
"::::::::::::::::::::::::::::::::::::::::::::::::::::::::::::::::",
"::::::::::::::::::::::::::::::::::::::::::::::::::::::::::::::::",
"::::::::::::::::::::::::::::::::::::::::::::::::::::::::::::::::",
"::::::::::::::::::::::::::::::::::::::::::::::::::::::::::::::::",
"::::::::::::::::::::::::::::::::::::::::::::::::::::::::::::::::"
};
