/* XPM */
static char *Character_SpriteSheet_041636046539[] = {
/* columns rows colors chars-per-pixel */
"64 64 134 2 ",
"   c #211223",
".  c #5F002A",
"X  c #4C3E3C",
"o  c #772A2A",
"O  c #4F413F",
"+  c #5B3356",
"@  c #4F4240",
"#  c #524543",
"$  c #564C46",
"%  c #594D46",
"&  c #554C4B",
"*  c #5A4E4B",
"=  c #5C5047",
"-  c #5D514D",
";  c #5F5452",
":  c #604F4D",
">  c #625247",
",  c #64534C",
"<  c #68554D",
"1  c #69594E",
"2  c #615653",
"3  c #695751",
"4  c #655A55",
"5  c #6B5A54",
"6  c #615758",
"7  c #645B5B",
"8  c #6B5E5B",
"9  c #725D54",
"0  c #725E5D",
"q  c #6D615D",
"w  c #716056",
"e  c #74625B",
"r  c #79655D",
"t  c #79685E",
"y  c #545778",
"u  c #6C6361",
"i  c #746462",
"p  c #796662",
"a  c #756A66",
"s  c #7C6A63",
"d  c #776C6A",
"f  c #7A6D6B",
"g  c #7F7065",
"h  c #7E716D",
"j  c #7E7372",
"k  c #9D0701",
"l  c #D5062A",
"z  c #A0592A",
"x  c #D04A01",
"c  c #816E66",
"v  c #816E6A",
"b  c #827067",
"n  c #84726C",
"m  c #89756D",
"M  c #8B796F",
"N  c #817573",
"B  c #8A7674",
"V  c #847976",
"C  c #8C7B74",
"Z  c #867B79",
"A  c #8C7D7A",
"S  c #917D75",
"D  c #927E7B",
"F  c #EC8300",
"G  c #B38449",
"H  c #8F8077",
"J  c #8E817C",
"K  c #938177",
"L  c #93827C",
"P  c #99857D",
"I  c #99887E",
"U  c #00879E",
"Y  c #6A8580",
"T  c #00A5C1",
"R  c #8E8381",
"E  c #948582",
"W  c #998683",
"Q  c #968882",
"!  c #9C8B83",
"~  c #958989",
"^  c #9E8C8B",
"/  c #9F908E",
"(  c #9E9392",
")  c #A18E86",
"_  c #A28F8A",
"`  c #A88F8E",
"'  c #A29087",
"]  c #A4918B",
"[  c #A9948E",
"{  c #A9988E",
"}  c #A38F91",
"|  c #A49392",
" . c #AA9593",
".. c #A69995",
"X. c #AC9B95",
"o. c #AA9798",
"O. c #AD9C9A",
"+. c #B19B96",
"@. c #B39E9A",
"#. c #B89E9B",
"$. c #AEA09C",
"%. c #B1A096",
"&. c #B4A29C",
"*. c #B9A49E",
"=. c #BAA99F",
"-. c #AE9FA0",
";. c #B39FA2",
":. c #9FB3A1",
">. c #B5A5A2",
",. c #B9A5A3",
"<. c #B7A9A1",
"1. c #BDACA4",
"2. c #B7ABAD",
"3. c #BDACAA",
"4. c #BFB1A7",
"5. c #BFB1AA",
"6. c #FF9581",
"7. c #C2A6A4",
"8. c #C3ACA6",
"9. c #C5ADA9",
"0. c #C8AFAB",
"q. c #C2B1A6",
"w. c #C4B3AC",
"e. c #CBB5AE",
"r. c #C7B8AF",
"t. c #C4AFB0",
"y. c #C5B5B1",
"u. c #C9B6B1",
"i. c #C7B8B2",
"p. c #CABAB3",
"a. c #FFD980",
"s. c #FFCABE",
"d. c #DCD5C5",
"f. c white",
/* pixels */
"& $ = & @ $ $ $ $ & & & & $ & & $ & $ # $ $ $ & & & & * $ & & & & & & & & & & & & & & & @ & & & & & & & & & & & & & & & & & & & ",
"$ # X X O + O O X X X X O X X O O O @ $ & & & $ # O @ @ + # O O $ & & - = - = & - - = * = & * * * * * * * * - - : * & & & - & & ",
"& & d J Z Z Z Z j Z Y A Z Z V V Z Z j J V Z V V A R Z Z N 3 # # 2 j j j j N j V j j j j j j j j j j j j N N j V Z Z Z Z j d 6 $ ",
"& * Z ..} ( ( ^ ( ( o.....( | | ..( ..| | | ( ....O.<.<.^ s * # 4 j ~ / | ( ( | ( ....| ..( ........( ..| | | | o.o.o.2.( j 2 & ",
"$ = Z / / / } } ..O.-.O.( ( | | | | ( ] | ] ( ......&.<.W i # X ; j E | ( / / / / ( / / / ( / / ( } ( ^ } ( ] | ..$.-.2.( j ; & ",
"& * Z ( ] | } o.-.>.2.,.O...o.........X...| | ..O.-.p.3.] v < & q Z / ....| | ] ] | ] | ] ] | | | | | | | | | o.$.2.2.5.-.j ; $ ",
"$ * J ( ^ _ }  .o.>.2.>.O.......| ] | ] ] / ' ] o.3.i.1.] m 5 2 a D ( | | ] / / ' _ ^ ] ] / / ' ^ ] ^ ] ^ ^ ] | ..>.5.5.$.j ; & ",
"$ - R ..| o.o.o.o.O.&.$.@.o.| | ] / / ] ' / / ] O.1.r.<.^ n 5 3 s D ] ..] ' ' ! / ^ _ ' ^ ' _ ^ ^ ' ] ^ _ _ ^ | o.>.5.5.$.j ; $ ",
"& * A o.o.;.;.o.o.o.} } o.O.o. .] ' ] / ] / ] | O.1.e.1.! n 5 3 p L _ | [ / _ ^ ' ] _ ^ _ _ _ ] _ ] | _ _ _ _  .O.>.3.9.-.V ; $ ",
"& & A o.o.;.;.;.| W B A _ o.@.O.X.{ | ] ] ' ' | @.1.i.=.! N 5 3 p L '  .[ ' _ _ ' _ ] ' _ _ _ ] ] _ _ ] _ _ _ ` o.;.2.y.$.V - $ ",
"& * A o.#.7.t.;.} B 0 0 A [ @.&.+.X.[ ] ' / ] [ +.1.e.1.! n 9 < p K ] | | ] _ ' _ ] _ _ _ ' _ ] _ ] _ _ _ _ )  .o.*.8.t.&.N ; $ ",
"& * A o.;.7.t.;.W v 8 0 C _ o.@.+.X.[ ] ' ] _ ] +.1.e.1.! n 5 < p K ] [ ] ] ' _ ' ' ' _ _ ] ' _ _ _ _ _ _ _ _ [ +.@.3.t.$.N ; $ ",
"& * A o.o.o.` W D v s v S W ) ` [ [ ] ' ' _ ' ] X.1.r.+ + + 5 < + + + + [ / ' ' _ ' ] _ _ _ _ _ _ _ _ _ _ _ ` [ +.@.3.w.-.V ; $ ",
"% * E O.^ D v v v m B S A C C C L I ) ) ) _ ' [ +.+ + + + + + + + + + + + + ' ' _ ] ' _ _ ' ] _ ' ] _ ] _ _ ) [ o.&.1.y.&.V ; $ ",
"& & R O.D f 0 0 p N D P B v s c n C ! ) ' _ ] + + + + o o o + + o o o o + + + + ' ] ] ] ' _ ] ] _ ] ' ] [ ) ) [ +.&.1.w.&.V 2 $ ",
"& * R ^ B v 0 0 v B W W B c s s v C P ) _ ) + + + o o z z z o o z z z z o o + + + _ _ ' ' ] _ ' ] _ ] _ ' ) ' [ +.*.1.r.$.V ; $ ",
"$ - V A B v f v B W ) ^ S m v v M D W ) ) + + o z z z G G G z z z G G G z z o o + + ] ] ' ] ' ] ] ' ] ' ' ' [ [ +.#.4.q.&.V 2 $ ",
"$ * j j v B B A D ^ } _ W D C C D P ) ) ) ) + + + o o z z G G o G G G z z o o + + + + ] ] ' [ ] ] ] ] ' ` ' ' [ +.#.8.e.&.V 2 $ ",
"$ * d a v B A W ) `  .| } ^ P P ) ) ) ) ) + + + o o z G G G z o o z z o o z z z z o + + _ ] ` ' ] _ ] ] [ ' ' [ +.*.q.e.&.V 2 $ ",
"$ - d d v D ) } _  .]  .` _ _ ) _ ` [ _ + + o o z z G G G G G z G G G G G z o o + + + ) [ ' ' ] ] ] ] ] [ I [ [ +.*.8.q.-.V ; $ ",
"& * f N B W } ` _ } [ _ _ ` ) ` ] [ ] ` ] + + + o z z z G G G G z G G G G G G z o + + ' ' [ _ [ [ ) _ ] ' ' [ [ %.&.9.y.>.V ; $ ",
"& & j A A ~ } } ` _ _ ) _ ) ) ) ) ) ) ) _ + + o z o z G G z z G G z G G z G z G z o + + ] ) ) ) ) ) ] ) ) ) I [ +.&.9.y.&.V ; $ ",
"& : N ~ W ~ } ^ _ _ ) ^ ) ) ) ) ) ) ) ) + + o z o z G z z o z G G z z G z G o z z z o + + ) ) ) ) ) ) ) ) ) ) [ +.*.5.y.<.j ; $ ",
"& & Z } } } ` ` } } _ ` _ _ ' ' _ _ _ + + o o o z z z z o o o z G x o z z z z o o + + + ) ' ) ' _ ] ) _ ) ) ) [ +.,.5.y.>.V ; $ ",
"& * A ;.o.o.o.o.O.O. . .[ [  .[ [ [ [ [ + + + o o o z o x x x o z x x x o o z 6.x + + [ [ [ [ [ [ [ [ [ [ [ [ +.%.1.9.y.>.Z ; & ",
"& * R 2.;.;.,.,.;.7.#.#.#.#.*.#.*.#.*.*.&.+ + x s.6.z x 6.6.x s.o 6.6.6.x o z s.x + + @.@.@.@.#.%.#.#.#.#.#.#.#.*.1.u.u.@.N 2 $ ",
"& - E t.3.3.9.9.0.9.0.0.9.9.9.9.q.8.8.8.8.8.+ + x s.o s.U   6.s.s.6.  U s.s.o 6.k + + 8.8.8.8.8.8.8.0.7.8.9.7.9.8.w.p.p.O.j 2 & ",
"& - R 2.>.2.9.0.9.9.0.0.9.9.w.q.9.8.8.8.1.1.+ + + x 6.s.s.T s.s.s.s.T s.s.6.x k k k + + + 8.8.9.0.8.7.0.0.7.9.7.8.9.p.y...h 4 $ ",
"$ * Z | ^ | o.@.#.o.+.+.+.@.%.@.X.+.X.X.{ + + + + k x 6.s.s.s.s.s.s.s.s.s.x k l l k k + + + +.O.+.+.+.+.+.+.O.+.+.@.>.@.^ d 8 $ ",
"$ * V Z v N A A D S S D A D H K H H H H + + y y y y k 6.s.s.s.s.s.s.s.s.6.x l l l l k o o + + H S S S S A D D D D D D E V q 6 $ ",
"$ * , 8 7 7 5 5 3 3 3 5 5 4 5 4 5 4 1 + + y f.d.:.y k x 6.s.6.x x 6.s.6.x k l l l o o G G o + + 3 3 3 4 5 3 3 5 5 3 5 - % $ $ $ ",
"& * * - * : * % * & * & * = = = = = + + y f.d.d.y + k k x 6.s.s.s.s.6.l x k k l o z G z o o . + + $ $ # # % # # & $ $ * % $ $ $ ",
"$ & * : 3 8 u u q q q q q q q q q + + y Y f.d.d.y + k l k a.l 6.6.k l l x k k o z G z z o G . + + 5 5 q 5 3 7 e e 9 0 p i 2 ; & ",
"$ * j j f v Z A H j H Z H C C C C + + y :.d.d.Y + k k l l l f.l l l l F l l o z G o z z o z o . + + h h v v v B S B D E B 8 6 * ",
"& * N D A E W W Q Q Q ! I I I ! I + + y Y :.:.+ k . k k l l l f.a.F F k l o z G z o z z o z o . + + I Q W W W ) _ } +.o.~ u 8 ; ",
"& * N ^ ~ _ _ } ' / ] ] ' / [ ' ] ] + + y y + k k . z k l l l l l k k l o z G o z o z z o z o . + +  ... .+. .+.@.;.3.,.^ a u * ",
"$ * V | } o.` ` |  .` ` [ ` [ [ ] [ + + k k k k k + o z k l l l l l l l o G z o z z z z z z o . + + #.#.#.#.#.#.#.@.@.@.~ a 8 * ",
"$ * V | } ` } ` ` ` ` ` ` ' ` ' [ ] + + k l l l k + k o z k k k k k z o z G z o z z z z o z o . + + 7.7.7.7.7.7.@._ W D N 2 6 * ",
"& * j | }  . .` ` [ _ [ ` ` ` [ [ ' + + k l l l l + + k o z z z z z k o G z z o z z z z o z . + + 9.0.0.0.e.e.0.+.D v i 7 * & # ",
"$ * V | _ o.} ` _ _ ` _ _ [ _ ] _ [ ] + + l l l l k + k k k k k k k k o G z z o z z z z o o . + + w.e.e.e.e.e.8.` S s 5 : # # $ ",
"$ * N } }  .} _ _ ` _ _  ._ _ ` ` ) ` ) + + l 6.s.s.+ y Y Y k k l l k o G z z o z o z z o . + + +.+.+.[ +.+.{ [ ) S m s 0 - * & ",
"& * V | | | ` }  ._ ` ] _ ` [ ] _ [ [ _ ) + + s.6.6.y :.y o k k l l l o G z z o z o z o o . + + S S S m M S M m S D W P n 8 6 - ",
"$ - j | } ` }  ._ ` _  .[ ] ] _ [ _ ] _ _ + + s.s.+ :.y d.d.d.k l l l k . G z o z o z . . + + r c 9 c 9 c 9 9 r m ) [  .~ a 7 - ",
"$ - V | |  .} _ | ` _ _ _ ` ] [ ) [ [ ) ] ' + + + y :.y y y Y d.d.l l k + . z o z o . + + + 0 < > > < < > > > 9 b ) #.*.| h 7 = ",
"& * V } } o._ `  ._ _ ` [ _ ] _ [ ] [ ) ] ' ] + + y Y y Y :.y y Y d.d.k + + . . . . + + + M r 9 < 9 9 3 9 9 1 r M ) <.3...n 8 * ",
"& - N | } ` ` } } ` ` ] _ _ [ [ _ ' ` ] ) ] ] ] + + y + + + Y :.y y Y d.d.+ + + + + + S M M v c c c c c b c c m P X.q.w...f ; ; ",
"$ * N } } ` } ` _ _ ` _ [ _ [ _ ] [ ] _ ' ] ' ] +.+ + + + + + + Y :.Y y y d.d.+ + + n b c n B S S S D S K K S P ) %.w.i.O.d 7 ; ",
"& * N o.| o.} |  .] ] _ [ ] _ ] [ ) ] _ ] ' ] [ o.=.+ 8.] m + + + + + Y Y :.:.d.+ + p p c M S P ) ) ) ` ) ) I ' [ *.i.i.O.d ; ; ",
"% * V | }  ._ | } [ _ [ _ ] [ ] ] ] ] ' ] ' ] ] X.*.w.8.[ n 1 + + + + + + + + + + n t s b M I I ) ' [ ` [ I [ [ %.7.r.e.%.d ; ; ",
"$ - N | | |  ._  ._ | _ ` ] ] [ [ ' [ ' ' ] ] [ %.=.q.1.{ n 1 < s P { &.+ + + + S n n m M K I I ) ) ' ' [ { [ I I #.e.e.{ g ; - ",
"& - N | }  .} [ _ [ _ [ ] ] ] ] ] ] ' { ' ' ] { X.*.q.8.[ b 1 1 c ! %.=.X.I m g c m C K P I I ! ) ) ' ' [ I I [ %.*.0.e.$.d ; ; ",
"$ - j o.|  . .} } ] | ] ] ] [ ] ' / { ' ] ' ' ] +.=.q.1.{ n 1 1 b ' =.4.{ M w 1 r n K I ' ' ' / ' ' ) [ [ I [ I +.*.0.e.$.d ; ; ",
"$ * V | | ..[ _ | ] ] ] ] ] ] [ ! { ' ' ' ' ! { X.=.q.1.' b 1 1 b { 4.q.{ n 1 > e m K ' ' { ' ' ] ' ' ' ' ' ' [ [ *.w.i.$.d ; - ",
"& * j | ] [ | | ] ] ] ] ] ] ] ] { ' ' ' / ' ' ' %.=.q.q.{ m 1 1 t ' =.=.{ b 1 1 t M I ' { ' ' { ] ' ' ' ' ' ' ' [ &.r.i.$.d ; ; ",
"$ - j | | | ] ] ] / ' ] ] ] ] ] ' { ' ' ! ' ' { X.=.q.q.' m 1 > t ' =.=.' g 1 1 t H I ! ' ' ' ' ' ' ' ' ' I ' ' [ *.w.i.$.j ; ; ",
"$ - N | ] | ] _ / ] / ] ! ' ' / ' ' / ' ! ! / ' %.=.q.=.{ b 1 > t ' =.=.' b 1 1 t K I ' ' ! ' / ' ' ' ' ' ' ' ' { *.w.i.$.d ; ; ",
"& * N O. . . .| ] | | ] ] ] [ ] ] ] ] ] / ] | { %.=.q.4.[ n 3 > t L ..X.! n e q N I / ! ] ] ] ] ] ! ' ' ' ' ' ' { *.r.w.O.d 6 - ",
"& - Z 2.>.,.>.;.&.&.&.$.$.$.%.%.$.$.%.%.%.%.&.&.<.4.r.4.| m 3 > w b K Q K C N C ! | %.%.%.%.X.X.%.$.X.X.%.X.+.X.*.=.y.y.o.d 6 - ",
"$ * Z y.y.y.t.t.y.3.y.3.w.5.w.5.5.5.5.5.4.5.5.5.r.r.p.4./ n 3 < 3 e f n H Q ] %.<.4.5.5.5.5.5.4.4.5.5.4.4.1.4.4.1.q.p.p.O.j 6 - ",
"& - Z 5.y.p.u.y.y.y.y.y.y.i.y.i.r.i.r.5.5.5.i.i.r.p.r.<.I g 3 : , 5 e s N / &.1.5.5.w.5.i.i.i.i.i.y.w.r.r.w.w.r.q.w.i.i.-.j 7 - ",
"$ * V O.-.>.,.>.>.>.<.<.>.<.>.>.<.>.>.<.&.$.<.4.4.4.&.{ C e 2 * * 3 5 q h Q ......$...$.$.$.$.$.$.$.&.$.$.&.&.<.<.&.&.-.( d 7 ; ",
"$ * d A D ~ ~ E E E E E R Q Q Q L E J J R J R Q / / I V s 3 * % $ - 2 4 e h H H J J H J J J L E J J J J K K K ! / Q Q J V 8 ; * ",
"$ * q 8 8 q u 5 8 8 q q q u q q q q q q q q q e a a q - * % & * # & - = ; u a a g d h h h h h h h h h h h g g V V g a d u ; 7 ; ",
"$ & 6 6 2 4 6 2 6 6 6 6 ; ; ; ; , 2 ; ; ; - 2 ; ; ; ; & * & $ # $ # & $ - - ; - - - - - - ; - , - - 2 - ; ; ; ; ; ; ; ; ; ; * * "
};
