/* XPM */
static char *Character_SpriteSheet_021636046539[] = {
/* columns rows colors chars-per-pixel */
"64 64 133 2 ",
"   c #211223",
".  c #5F002A",
"X  c #4C3E3C",
"o  c #772A2A",
"O  c #4F413F",
"+  c #5B3356",
"@  c #4F4240",
"#  c #524543",
"$  c #564C45",
"%  c #594D46",
"&  c #554C4B",
"*  c #5A4E4B",
"=  c #5C5047",
"-  c #5D514D",
";  c #5F5452",
":  c #604F4D",
">  c #625247",
",  c #64534C",
"<  c #68554D",
"1  c #69594E",
"2  c #615653",
"3  c #695751",
"4  c #655A55",
"5  c #6B5B55",
"6  c #615758",
"7  c #645B5B",
"8  c #6B5E5B",
"9  c #725D54",
"0  c #725E5D",
"q  c #6D615C",
"w  c #73625B",
"e  c #78635A",
"r  c #79685E",
"t  c #545778",
"y  c #6C6361",
"u  c #746462",
"i  c #796662",
"p  c #756A66",
"a  c #7B6A64",
"s  c #776C6A",
"d  c #7A6D6B",
"f  c #7F7065",
"g  c #7E716D",
"h  c #7E7372",
"j  c #9D0701",
"k  c #D5062A",
"l  c #A0592A",
"z  c #D04A01",
"x  c #816E65",
"c  c #816E6A",
"v  c #837167",
"b  c #84736C",
"n  c #89756C",
"m  c #8C796F",
"M  c #817573",
"N  c #8A7674",
"B  c #847975",
"V  c #8C7B74",
"C  c #867B79",
"Z  c #8C7D7A",
"A  c #917D75",
"S  c #927E7B",
"D  c #EC8300",
"F  c #B38449",
"G  c #8F8077",
"H  c #8E817C",
"J  c #938177",
"K  c #93827C",
"L  c #99857D",
"P  c #99887E",
"I  c #00879E",
"U  c #6A8580",
"Y  c #00A5C1",
"T  c #8E8381",
"R  c #948582",
"E  c #998683",
"W  c #968882",
"Q  c #9C8A83",
"!  c #958989",
"~  c #9E8C8B",
"^  c #9F908E",
"/  c #9E9392",
"(  c #A18E86",
")  c #A28F8A",
"_  c #A88F8E",
"`  c #A29087",
"'  c #A4918B",
"]  c #A9948E",
"[  c #A9988E",
"{  c #A38F91",
"}  c #A49392",
"|  c #AA9593",
" . c #A69995",
".. c #AC9B95",
"X. c #AA9798",
"o. c #AD9C9A",
"O. c #B19B96",
"+. c #B39E9A",
"@. c #B89E9B",
"#. c #AEA09C",
"$. c #B1A096",
"%. c #B3A29C",
"&. c #B9A39E",
"*. c #BAA99F",
"=. c #AE9FA0",
"-. c #B39FA2",
";. c #9FB3A1",
":. c #B5A5A2",
">. c #BAA4A3",
",. c #B7A9A1",
"<. c #BDACA4",
"1. c #B7ABAD",
"2. c #BDACAA",
"3. c #BFB1A7",
"4. c #BFB1AA",
"5. c #FF9581",
"6. c #C2A6A4",
"7. c #C3ACA6",
"8. c #C5ADA9",
"9. c #C8AFAB",
"0. c #C2B1A6",
"q. c #C4B3AD",
"w. c #CBB5AE",
"e. c #C7B8AF",
"r. c #C4AFB0",
"t. c #C5B5B1",
"y. c #C9B6B1",
"u. c #C7B8B2",
"i. c #CABAB3",
"p. c #FFD980",
"a. c #FFCABE",
"s. c #DCD5C5",
"d. c white",
/* pixels */
"& & = & # $ $ # $ & & & $ & & & $ & $ $ $ $ $ $ & & & & $ & & & & & & & & & & $ & & & & @ # & & & & & & & & & & & & & & & & & & ",
"$ # X X X + O O O O O @ O X X O O O @ $ & & & & # @ # @ O + @ @ $ & * & * * * * - = * * - & - & & - * * * * * ; ; * & ; & * & & ",
"& & s H C C C C h H h T h H h h C B C C B C B B H T C C B 8 # $ 2 h h h h h h M h h M h h h h h h h h h h M M M C C C h h s 4 $ ",
"$ & H } / / / ~ / / /  ./ /  ./ } /  . .} } } }  .o.:.:.E i % # 4 M ! / } / } } /  . ./  .}  . . . .} } } } } } X.X.X.1./ h 2 & ",
"$ - h / ^ / { { } X.o.X. ./ / }  .^ ' } ' ^ } }  .} #.:.E u # X 2 h R / / ^ ^ ^ ^ ^ ' / ^ ^ } / / / / ~ / ) ' } / #.=.1./ h ; & ",
"$ & H / ^ } { X.o.1.1.2.=. . .o. . . . . . .}  .o.=.i.2.` b , & 8 C ^  . . .' ' } ' } ' } } ' ' ' } } } } } } X.=.1.4.4.=.h ; $ ",
"$ - H } ~ { } X.=.:.2.:.o. . . .} ' ' } ' ^ ^ ` o.2.e.<.' b 4 3 u S ^  .] ^ ^ ^ ` ^ ' ` ^ ^ ' ^ ^ ' ~ ' ~ ) { } o.:.1.4.#.h ; & ",
"$ - T } } | | | o.o.o.%.#.X.} } ' ^ ^ ' ` ^ ^ ' o.<.e.<.) b 9 3 a K '  .' ` ` ~ ~ ) ~ ~ ( ` ~ ' ' ~ ' ~ ) ) ~ } X.:.4.4.#.h ; $ ",
"& : Z X.X.-.-.X.X.} { { X.o.X.| ` ^ ' ' ^ ' ^ ] +.<.e.<.W N 5 3 a K ) | ' ` ^ ) ~ ) ) ) ) ) ` ~ ' ' ' ) ) ) ) | o.:.1.t.+.M ; $ ",
"& & Z X.X.>.-.-.X.E N N ) X.+.X...[ ' ' ' ' ' ] o.<.y.<.Q b 5 3 i S ' } ] ^ ` ) ` ' ) ^ ) ) ) ' ^ ~ ' ) ) ) ) _ X.+.2.r.-.M - $ ",
"& * T X.X.6.r.>.{ M 0 i S } %.%.+...| ' ^ ^ ` | O.<.w.<.Q b 9 < i K ` | ' ' ) ) ` _ ) ) ) ` ` ' ' ) ) ) ) ) ) | O.+.8.r.#.B 2 $ ",
"& * S X.X.r.6.-.E c 5 0 N ) ..%.O...] ` ` ` ' ' O.<.w.<.L b 5 < r S ` ] ] ' ` ' ` ` ` ` ) ' ) ) ) ) ) _ ) ) ( ] ..%.1.t.#.B ; $ ",
"$ * Z X.X.X._ E S c i c A E ( ' ] ] ` ` ` ) ` ' O.*.w.+ + + 5 < + + + + ` ` ' ` ) ' ' ) ) ) ) ) ` ) ) ) ) ) ) ] O.+.2.q.%.M 2 $ ",
"$ * R o.~ S c c c n N S Z N N A J L ( ) ) ` ` [ o.+ + + + + + + + + + + + + ` ' ` ) ` ) ) ` ' ) ' ) ` ' ` ) _ ] O.+.<.q.#.B ; $ ",
"& * ! X.S d 0 0 i b S L A c x x b A Q ( ( ( ' + + + + o o o + + o o o o + + + + ' ` ' ' ` ) ' ` _ ' ' ) ` _ ( [ ..%.<.e.#.B 2 $ ",
"$ & T ~ N d 0 u c N E E N x i i x V E ( ) ` + + + o o l l l o o l l l l o o + + + ) ) ` ` ' ) ' ` ` ) ' ` ) ` ] O.@.<.q.%.C 2 $ ",
"$ * C S B c d c N E ( E S N c b n S E ( ( + + o l l l F F F l l l F F F l l o o + + ` ' ' ` ' ` ' ' ' ` _ ` ` ] O.@.<.q.%.B 2 $ ",
"& * d M c N N Z R Q _ ) E S V V S L ( ( ( ( + + + o o l l F F o F F F l l o o + + + + ' ' ' ' ( ` ' ' ' ` ` ] ] O.@.0.w.%.B 2 $ ",
"$ & s p c S S E ~ _ | ' ) Q R L ( ( ) ( ) + + + o o l F F F l o o l l o o l l l l o + + ` ' ` _ ' ' ` ' _ ` ` ] O.&.7.9.:.B 2 $ ",
"$ - s s c S E { _ { ] } ] _ ( ( ) ' ' ' + + o o l l F F F F F l F F F F F l o o + + + ' ` ' ] ' ' ` ' ' ` ] ` ] $.&.0.0.%.M ; $ ",
"& * d M M E _ { _ ) } ' ) _ ) ) ' ' ` _ ) + + + o l l l F F F F l F F F F F F l o + + ] ` ' ' ' ` ' ` ' _ ( ` ] o.&.7.q.:.C ; $ ",
"& * h C Z ! { { ) ) ) ) ) ( ( ( ` ` ( ( ( + + o l o l F F l l F F l F F l F l F l o + + ( _ ` ` ) ) ) ` ( ( ` ] O.>.2.e.#.M ; $ ",
"& * M ! E E { { ) ) ( ( ) ( ( ( ) ( ( ( + + o l o l F l l o l F F l l F l F o l l l o + + ( ( ( ( ( ) ( ( P ` ] O.&.q.t.:.M ; $ ",
"& * C { { { _ _ _ { { ) _ ( ( _ ( _ _ + + o o o l l l l o o o l F z o l l l l o o + + + ` ) ` ( ) ( ( ) ( ( ` ] O.*.4.q.:.C ; $ ",
"& * Z =.X.X.X.+.X.+.X.| ] ] ] ] ] ] ] ] + + + o o o l o z z z o l z z z o o l 5.z + + ] ] ] [ ' ] ] ] ] ] ] _ O.$.*.8.t.:.C 2 $ ",
"% * T 1.-.-.:.>.>.-.-.@.@.@.&.@.&.&.@.&.+ + + z a.5.l z 5.5.z a.o 5.5.5.z o l a.z + + $.O.@.+.%.$.@.@.@.@.@.@.-.*.7.y.y.=.M 2 $ ",
"& * T r.1.8.r.8.9.6.9.9.8.8.8.7.0.7.7.+ + t t t z a.o a.I   5.a.a.5.  I a.a.o 5.+ + 3.<.7.7.7.7.7.7.9.6.7.7.6.9.7.q.i.y.o.h 2 & ",
"& ; T 1.:.>.8.8.8.9.9.9.8.9.q.q.7.7.+ + t U d.s.;.z 5.a.a.Y a.a.a.a.Y a.a.5.z + + 3.<.3.7.7.7.8.7.7.6.6.9.9.8.6.6.8.i.t. .g 4 $ ",
"% * C  .~ } X.O.@.O.O.O.+.+.$.o.O.+ + t U d.s.s.;.t z 5.a.a.a.a.a.a.a.a.a.z + + + + $.$...o.O.$.O.@.O.O.+.| O.O.+.O.:.+.! s 8 $ ",
"& * h C c M Z S S N Z A S A G G J + + t ;.s.s.;.t + j 5.a.a.a.a.a.a.a.a.5.j j j j + + G V G G G A A A A Z Z S S S S R E C q 7 $ ",
"$ * - 8 8 5 8 4 3 3 3 4 4 4 5 5 5 + + t U ;.;.U t + j D 5.a.5.z z 5.a.5.z j k k j j + + 1 5 q 1 5 3 3 4 3 3 3 3 3 3 3 - % $ $ $ ",
"% * * , * * * % * * * * = = = = = + + t t + + + j j k D j 5.a.a.a.a.5.k z j k k k k j + + O O O $ $ # $ $ # $ $ % $ % * % $ $ $ ",
"& & * ; 3 8 w q q q q q q q q w q + + j j j j j j j k j p.k k 5.5.k k D j j k k k k k j + + q q q q 4 q 3 3 8 0 w 5 0 i u 2 ; & ",
"& * d h p M C C C B G C G V V V V + + j j k j j + j k k d.j k k k D D j k j k k k k k j + + m M f g g f c c c N V S S R C 8 6 * ",
"% * M S Z T ! E W W W W P P Q P P + + j k k k j + j k k k d.p.p.D j j k k j j k k k k j + + Q Q W W H P E E E ( ) ] X.o.! y 8 - ",
"& * B ~ E ) _ { ' ` ' ' ' ^ ` _ ' ' + + k j j + + l j k k k k j j k k k o o o o o o j + + ..| | X.[  .$.| O.| O.O.-.6.>.~ p y - ",
"% * M } { _ _ | } ] _ _ ] _ ' ] ' ] + + j 5.a.5.+ j l j k k k k k k o o l F F F F F o + + +.O.+.+.+.@.@.@.&.@.&.@.+.-.+.! u 8 * ",
"$ * M } { | { _ _ _ _ _ ' _ ] ' [ ` ` + + a.5.5.+ + j l l j j j j o F F F o l l l o F . + + @.@.&.6.6.6.6.6.6.6.+.) E S M 4 ; * ",
"$ ; M } { | _ _ _ _ ' _ _ ) _ ] ] ` ] + + 5.U U ;.;.j j o l l l o F l l l o l l l o l F . + + 7.6.7.9.9.9.w.w.9.O.S c i 8 * & & ",
"& * M } ) | { } _ { ] ` ] ) ) ' _ _ ' + + ;.U t t + U j j j j o F l l l l o l l l o l l l . + + 9.9.w.w.w.w.w.6._ A i 3 * # & # ",
"$ * M } { } _ _ ) ' { ' _ ' ] _ ) _ ] + + U t t U s.+ j k j j o F o l l l o l l l o l l l . + + $.O.O.O.O.O.O.] L S n a 0 * * * ",
"$ * M } { | { ) _ _ ' _ _ ' ' ' ' ` ` + + U + U t s.+ j k k o F l o l l l l l l l o l l o . + + L A m m A m m m A L L L M 8 6 = ",
"& - h } { } } { { ] { ' ' ' ' ' ' ' ' _ + + + ;.t s.+ j k k o F l o l l l l l l l l l l o . + + e e 9 e 9 9 9 e n P O.| ! s 7 - ",
"$ - M  ._ } _ _ ' _ ' ) _ ` ' ' ' ' ' ' ( + + + U t s.j k k o F l o l l l l l l l o l l o . + + , > < < < < > 9 v ( @.&.' g 7 = ",
"& * M } { | { _ ' _ ' _ _ ] ' ' ' ) ) ] ` ` + + ;.t s.j j j o F l o l l l l l l l o l l o . + + < 5 9 9 9 9 1 e n ` ,.2.X.g 7 - ",
"& * M } { | { _ ) _ ) } ' ' ' ' ' ] ) ` _ ( ` + + U t s.l o o F l o l l l o l l l o l l . + + x x x c x v x x n L ..7.q. .g 7 - ",
"& * M } { _ { _ _ _ _ ' ' ' ' ' ' ' ) ) ` ) ` + + ;.t s.l l o . F o l l l o l l l o l o . + + A A S S S J A A L ` $.e.e.#.s ; ; ",
"& * M X.} } } ' ] ' ' ' _ ' _ ' ] ' _ ] ` ' ` ] + + U t s.l o + . o l l l o l l l o o . + + A K P ( ( ( ` P ( ( [ &.t.u.o.s ; ; ",
"* * M  .} | { ' } _ ' ] _ ' ' ' ' ' ' ' ` ' ` ] + + ;.t s.o + + + . o l l o l l o . . + + m J Q ( ' ' ' O.P O.P @.6.w.w.$.f ; - ",
"$ * M } { | } _ ' ' } ' _ ` ] ' ' ' ' ' ` ` ` ] o.+ + U t s.+ + + + . . . . . . . + + + m J P P ( ` [ ' P ] P O.P &.w.w.$.p ; - ",
"& * M } { | _ } } ' } ' ' ' ' ' [ ' [ ` ` ` ' ] ..*.+ ;.t s.+ + f + + + + + + + + + + J L L P ` ` ` ( ` P [ P ] $.*.w.w.#.h ; ; ",
"& * M X.} | } ' _ ) ' ' ' ' ' ] ` ' ' ` ` ` ' [ ..*.0.+ s.s.+ 1 v Q + + + + + + + b J Q ` ` ` ` ` ` ( ` ] P ] ] P 9.9.w. .s ; - ",
"$ * h } } ..} ' ' ' ' ^ } ] ' ' [ ` ` ` ` ` ` [ ..*.0.<.+ + + 1 f [ 3.0.[ n 1 1 w n J ` ` [ ` ` ` ' ` ` ` ` ] P [ &.q.i.#.s ; ; ",
"$ - B } ' ] } ' } ' ' ' ' ' ' ' ` [ ` ` ^ Q ` [ $.*.0.<.[ + + 1 f Q *.*.` v 1 1 r m P ^ ` ` ` [ ' ` ` ` ` ` P ] ] %.e.u.#.s ; - ",
"$ * M } / } ' ) ' ' ' ' ` ` ' ' [ Q Q [ ` P ` ` ..*.0.<.[ v 1 > f ` *.*.` v 1 1 r G P ` ` ^ ` ` ` ` ` ` ` ` P ` ] &.q.u.#.s ; ; ",
"$ - M } ' } ' _ ` ^ ` ` ` ^ ` ^ Q [ ` Q Q ` ^ ` $.*.0.<.` n 1 > r ` *.*.` v 1 1 r J P Q ` ` ` ` ` ` ` ` ` ` ` ` ] &.q.u.#.h ; ; ",
"& * M o.| | | } } } } ' ' ] ' ' ' ' ' ` ' ' } [ $.*.0.3.[ b 1 : w J ....Q b w w b P ^ ^ ' ` ' ' ` ~ ` ` ` ` ` ` [ &.t.t.X.s ; ; ",
"* * C 1.:.:.:.-.%.o.%.o.#.#.$.#.#.#.#.$.#.$.%.%.*.3.e.3.' v 5 , q v K P J B n V Q  ...$.$.$.#. .$.$.....O...$...&.*.t.t. .g ; - ",
"& * C t.t.t.r.r.t.t.2.q.4.3.q.q.4.3.4.4.3.4.4.4.e.e.i.3.' b 3 , 1 w a b G P ^ $.,.2.4.3.3.4.4.3.3.3.3.2.3.3.3.<.7.0.i.u.=.h ; ; ",
"$ * C 4.t.i.y.y.t.t.t.t.t.e.t.e.u.e.e.4.4.4.e.u.u.u.u.*.W f 3 : > q w a B / %.,.4.4.q.e.u.u.t.u.u.u.q.e.e.q.q.q.0.q.u.u.=.h 7 ; ",
"* * h o.%.:.:.:.:.:.:.:.:.,.:.:.:.%.%.,.,.%.,.3.3.3.%.} V w 2 % * 1 5 q f W / $. .#. .#.#.#.#.#.#.#.#.#.#.$.%.*.,.,.#.:./ s ; ; ",
"$ - s Z Z ! ! R R R R R R R T ! R R T K H H T ! ^ ~ P G a 3 : % $ - 2 4 q B h G C H G H H H R K H H H J H J P Q ^ W H T h q ; ; ",
"$ - q q 8 q q y y q q q q q q q q q q q q 7 q w p p q - * % & * # & - & ; r s s s f g g g g b h g g g g g v g m M f p s y ; y & ",
"& & 2 6 7 6 2 2 2 ; 2 2 2 2 2 ; , 2 ; ; 2 ; ; ; - ; ; $ & & $ $ # $ $ $ - - ; - ; - = - - - - ; - - ; ; - ; ; 2 ; ; ; ; ; - ; & "
};
