/* XPM */
static char *Character_SpriteSheet_011636046538[] = {
/* columns rows colors chars-per-pixel */
"64 64 134 2 ",
"   c #211223",
".  c #5F002A",
"X  c #4C3E3C",
"o  c #772A2A",
"O  c #4F413F",
"+  c #5B3356",
"@  c #4F4240",
"#  c #524543",
"$  c #564C46",
"%  c #594C46",
"&  c #554C4B",
"*  c #5A4E4B",
"=  c #5C5047",
"-  c #5D514D",
";  c #5F5452",
":  c #604F4D",
">  c #625247",
",  c #64544C",
"<  c #68554D",
"1  c #69594E",
"2  c #615653",
"3  c #695751",
"4  c #655A55",
"5  c #6B5B54",
"6  c #615758",
"7  c #645B5B",
"8  c #6B5E5B",
"9  c #725D54",
"0  c #725E5D",
"q  c #6D615C",
"w  c #716056",
"e  c #73625B",
"r  c #78635A",
"t  c #79685E",
"y  c #545778",
"u  c #6C6361",
"i  c #746462",
"p  c #796662",
"a  c #756A66",
"s  c #7B6A64",
"d  c #776C6A",
"f  c #7A6D6B",
"g  c #7F7065",
"h  c #7E716D",
"j  c #7E7372",
"k  c #9D0701",
"l  c #D5062A",
"z  c #A0592A",
"x  c #D04A01",
"c  c #816E66",
"v  c #816E6A",
"b  c #827067",
"n  c #84736C",
"m  c #89756C",
"M  c #8B796F",
"N  c #817573",
"B  c #8A7674",
"V  c #847975",
"C  c #8C7B74",
"Z  c #867B79",
"A  c #8C7D7A",
"S  c #917D75",
"D  c #927E7B",
"F  c #EC8300",
"G  c #B38449",
"H  c #8F8077",
"J  c #8E817C",
"K  c #938177",
"L  c #93827C",
"P  c #99857D",
"I  c #99887E",
"U  c #00879E",
"Y  c #6A8580",
"T  c #00A5C1",
"R  c #8E8381",
"E  c #948582",
"W  c #998683",
"Q  c #968882",
"!  c #9C8A83",
"~  c #958989",
"^  c #9E8C8B",
"/  c #9F908E",
"(  c #9E9392",
")  c #A18E86",
"_  c #A28F8A",
"`  c #A88F8E",
"'  c #A29087",
"]  c #A4918B",
"[  c #A9948E",
"{  c #A9988E",
"}  c #A38F91",
"|  c #A49392",
" . c #AA9593",
".. c #A69995",
"X. c #AC9B95",
"o. c #AA9798",
"O. c #AD9C9A",
"+. c #B19B96",
"@. c #B39E9A",
"#. c #B89E9B",
"$. c #AEA09C",
"%. c #B1A096",
"&. c #B4A29C",
"*. c #B9A39E",
"=. c #BAA99F",
"-. c #AE9FA0",
";. c #B39FA2",
":. c #9FB3A1",
">. c #B5A5A2",
",. c #BAA5A2",
"<. c #B7A9A1",
"1. c #BDACA4",
"2. c #B7ABAD",
"3. c #BDACAA",
"4. c #BFB1A7",
"5. c #BFB1AA",
"6. c #FF9581",
"7. c #C2A6A4",
"8. c #C3ACA6",
"9. c #C5ADA9",
"0. c #C8AFAB",
"q. c #C2B1A6",
"w. c #C4B3AC",
"e. c #CBB5AE",
"r. c #C7B8AF",
"t. c #C4AFB0",
"y. c #C5B5B1",
"u. c #C9B6B1",
"i. c #C7B8B2",
"p. c #CABAB3",
"a. c #FFD980",
"s. c #FFCABE",
"d. c #DCD5C5",
"f. c white",
/* pixels */
"& & = & # $ $ # $ & & & & # & & & & $ $ $ $ $ $ & & & * $ & & & & & & & & & & & & & & & @ & & & & & & & & & & & & & & & & & & & ",
"$ # X X X + O O O O O @ O X O O X O O $ & & & $ # # @ @ O + O O $ = & * = * * * - = & * = & & - * * * * * * * - - * * * & & & & ",
"& & d J Z Z Z Z j J j R j J j Z Z Z Z Z V Z V Z J R Z Z N 4 # # ; j j j N j j N j j V j j j j j j j j j N N N N Z Z Z Z j d 7 $ ",
"$ & J | ( ( ( ^ ( ( ( ..( ( ( ( ( | ....| | | | ..O.>.>.) p : # 7 j ~ ( ( ( | | ..( ..( | ....| ..| ..| | | | | o.o.o.2.( f 6 $ ",
"$ - j ( / ( } } | O.O.O...( | ( | ] ( ] ] / | | | | &.>.! i # X ; j Q ( | ( / / / / / / / ( / ( ( ( ( ^ | ^ } | ( $.-.2.( j ; & ",
"$ & J ( / | } o.-.,.2.>.$.....O.............| { $.-.p.3.] n , & 8 A / ....] | ] | | ] | ] ] | | | | | | | | |  .$.2.5.5.-.j ; & ",
"$ - J | ^ } | o.-.>.3.2.O.......{ / | ] ] / / ] O.4.i.1.' n 5 2 i L ( | | ] / / ' ] ] ' / ] _ ] / ] / ^ _ ] ( | O.>.2.5.$.V ; & ",
"$ - R | |  . . .o.O.O.&.O.X.| | ] / / ] ] / / ] ..3.r.,.^ n 5 5 s D ] ..] ' ' ! ^ _ ^ ^ ' ^ ' ^ ' ^ _ _ _ ^ _ | o.>.5.5.$.j ; $ ",
"* & A o.o.;.;.o.o.| } } o.O.X.| ] / ] ' ' ] ] | O.1.r.1.! n 5 3 a L ` | | ' ' ] ^ _ _ / ] _ _ _ ] ] ] ^ _ _ _ ` O.&.3.5.-.N ; $ ",
"& & A o.o.;.;.;. .~ B B } o.@.+.X.{ { / ] / '  .O.8.r.1.! N 5 3 p D '  .] ] _ _ ] _ _ _ _ _ _ ] / ^ ] ] _ _ _  .X.;.3.y.-.N 2 $ ",
"& * A o.#.7.t.;.} B 0 p D | @.@.+.X.[ ] ] ' ] | +.8.e.1.! n 9 < p K '  .] _ _ ' _ ] _ ' _ ' ] ' ' ] _ ] _ _ ` [ X.;.9.t.&.N ; $ ",
"& * A o.;.7.t.;.~ v 3 0 B _ O.&.+.X.[ ] ^ ' ] ] +.1.e.=.) v 5 < t D _ { { _ ] ' ' ' ' _ _ ' _ _ _ _ _ ` _ _ _ ` X.#.3.t.$.N ; $ ",
"% * J o.o.o.` W D v s v C W ) ] [ [ ] ] ' ' ' ] X.1.r.+ + + 5 < + + + + { ^ ' _ _ ' _ _ ) ' _ _ _ _ _ _ ) _ _ [ +.@.3.9.$.V ; $ ",
"$ * R O.^ D v v v m B D D B B S K I ) ) _ ) _ [ +.+ + + + + + + + + + + + + ' ' _ ] ] _ ' ' ] _ ' ] _ ] [ _ ) [ +.&.3.y.&.V ; $ ",
"& * ~ o.D f 0 0 p v D P B v c s n C ! ) _ ) ' + + + + o o o + + o o o o + + + + ' _ ] ] ] _ ] ] ] ] ' ] ] ) ) [ X.@.1.w.&.V 6 $ ",
"$ * R ^ B f 0 0 v D W W B c s s v C P ) ' _ + + + o o z z z o o z z z z o o + + + ] _ ' _ ] _ ' _ _ ] _ ) [ ' [ +.&.1.r.$.V ; $ ",
"$ & V D V v f v B W _ ! D n n n m S W ) ) + + o z z z G G G z z z G G G z z o o + + ' ] ) [ ] ) ] ' ' ] [ ) [ [ +.#.1.w.&.V 2 $ ",
"$ - j j v B B A D ^ ` _ W D B C D W ) ) ) ) + + + o o z z G G o G G G z z o o + + + + ] ] ' ] [ ] ] ] ' ' ) ) [ +.#.q.r.&.V 2 $ ",
"$ & f a v D D W ^ _  .| ` ^ W P ) _ _ ) _ + + + o o z G G G z o o z z o o z z z z o + + ) [ [ ) ] _ ] ] [ ) ' [ +.*.q.0.&.V 2 $ ",
"$ - d d v D W } `  .] | ] ] ) ) ) _ [ ' + + o o z z G G G G G z G G G G G z o o + + + ] ' _ _ _ ] ] ] ] [ ' ' [ +.*.8.0.&.V ; $ ",
"& & f N N W } ` ` ] ] ] ] ` _ _ [ _ ` _ _ + + + o z z z G G G G z G G G G G G z o + + ] ] ] ' [ [ ) ] ' _ ' [ [ O.*.8.w.>.V ; $ ",
"& & j A A ~ } } _ _ _ _ _ ) ) ) ) ' ' _ ) + + o z o z G G z z G G z G G z G z G z o + + _ ' ' ' ) ) _ ' ) ) I [ +.,.3.r.$.V ; $ ",
"* * N ~ E ^ } } _ ^ ^ _ ) ) ) ) ' ) ' ) + + o z o z G z z o z G G z z G z G o z z z o + + ) ) ) ) ) ) ) ) ) I [ +.*.w.y.>.j ; $ ",
"& * Z } } ^ ` ` ` ` _ ` _ _ _ ) _ _ _ + + o o o z z z z o o o z G x o z z z z o o + + + ) ' ) ) ] ) _ _ ' ) [ [ +.=.5.y.>.Z ; $ ",
"% * A -.o.o.o.-.o.@.o.o. . .[ [ [ [ [ [ + + + o o o z o x x x o z x x x o o z 6.x + + [ [ [ [ [ [ [ [ [ [ [ [ +.%.,.0.y.>.Z 6 $ ",
"% * R 2.;.;.,.,.,.;.;.#.#.#.*.#.#.*.#.*.&.+ + x s.6.z x 6.6.x s.o 6.6.6.x o z s.x + + %.@.@.#.@.%.%.#.*.#.#.#.#.*.8.u.u.-.N 2 $ ",
"& - R t.2.7.t.t.0.7.0.0.9.9.9.q.8.0.8.8.8.1.+ + x s.o s.U   6.s.s.6.  U s.s.o 6.+ + 1.8.8.8.8.9.7.0.7.7.9.7.9.7.8.w.p.p.O.j 2 $ ",
"& : R 2.>.,.9.9.0.0.0.0.9.0.0.q.q.8.8.+ + + + + + x 6.s.s.T s.s.s.s.T s.s.6.x + + + q.q.8.8.8.9.7.0.0.7.0.0.9.7.8.q.p.t...h 4 $ ",
"& * Z | ^ | +.+.+.+.+.+.+.+.@.+.+.+.+ + y y y y + k x 6.s.s.s.s.s.s.s.s.s.x k k + + + + X.X.O.X.+.+.+.+.+.+.o.@.+.+.>.;.~ d 8 $ ",
"& * N Z v N A A S S D A D D H H K + + y Y f.d.:.y k k 6.s.s.s.s.s.s.s.s.6.k k l k k + + + H H H S D S S D A S D D D D E B u 7 $ ",
"% * , u 8 5 8 5 3 3 3 5 5 4 4 5 + + y Y f.d.d.:.y k k x 6.s.6.x x 6.s.6.x k l l l l k + + + w w 4 3 5 4 5 3 2 3 5 3 5 - = $ $ $ ",
"$ * * * * * & % * * * & * = = = + + y :.d.d.:.y + k k F k 6.s.s.s.s.6.k x k l l l l l k + + O O $ # $ $ # # % % % % $ = % # $ $ ",
"& & * : 6 8 q i q q q q q q q w + + y Y :.:.Y y + k l F l k k 6.6.k k l x k l l l l l k + + w q 4 q q ; 5 5 5 0 0 0 0 p i 6 ; & ",
"* * f j s n Z Z Z Z Z C H H C C C + + y y + + + k l l k a.l l l l l l F k k o o o o o o + + + V N n h g v v n B D B D E B 8 6 * ",
"$ * N D A E W Q Q Q Q Q I Q P ! Q + + k k k k k k l l l l f.l l l l F k o o z z G G G G o + + + ! Q I Q W W W ) _ } +.o.E u 8 - ",
"& * N ^ ~ _ ` } ] ] ] ' ] / [ ' ] + + k l l k k + k l l l l f.a.a.F k o z z G G z z z o G . + + + X.{ .. . . .+.+.@.3.,.^ a u - ",
"$ * Z | }  .` ` [ ` [ ` [ ` [ [ [ + + k l l l k + z k l l l l l k k o z G G z o z z z o z G . + + @.+.#.#.#.#.#.#.+.#.@.~ i 8 * ",
"$ - j | } ` ` } } ` ` ` ` _ _ [ ] [ + + l l l + + + z k l l l l l o z G o z z o z z z o z z o . + ,.7.7.7.7.7.7.@.` E L N 8 ; * ",
"& - N | }  .` } ` ` ` ] _ ` _ [ [ _ + + l 6.s.s.+ + k z z k l k k o G z o z z o z z z o z z o . + 8.0.e.0.e.e.0.X.D v i 8 & & & ",
"$ - j | }  .| ] ` ` [ _ [ _ ` ] _ ] ] + + s.6.6.+ + k k o z z z o z G z o z z z z z z o z z o . + e.e.e.e.e.e.0.` S p 3 : # & # ",
"$ - N | } } } `  .` _ _ ] ] [ ` _ [ ` + + s.s.+ y :.:.Y Y k k k o G z z o z z z z z z z z z o . + +.+.+.+.+.+.[ W S m s 0 ; * & ",
"$ * N | |  . .} } ] ` ` ` ] ] ] [ _ [ _ + + + y :.y y + k l l k o G z z o z z z z z z o z z o . + S S S M S m M S P W L n 8 6 - ",
"$ - j | }  .` ` } ] } ] ] ] ] ] ' _ _ _ ) + + :.y :.Y d.+ l l k o G z z o z z z z z z o z z . + + r 9 9 r 9 9 r m ) [ X.E d 4 = ",
"$ - j ..} | } _ ] ` ] ` ` ' ] ] _ [ [ ' ) ) + :.y Y y Y d.+ k k o G z z o z z o z z z o z o . + + > < < < < > 9 b ) #.*.| h 7 - ",
"& ; N | }  .` ` } ] [ _ [ _ ] _ [ _ ) [ ] ] + Y + + :.y Y d.+ + o . G z o z z o z z z o o . + + < 9 9 1 9 9 1 r m _ ,.1.X.j 7 - ",
"& & N | }  .} _ ] ` ` ` _ _ [ [ _ [ _ _ ] ) + + + + + :.y Y d.+ o z . z o z z o z z o o . + + c c c c c b c c m P X.q.w...f 7 - ",
"& * N |  .} } } } ] ` ` [ _ [ ) [ ) _ _ _ ] ' + +.=.+ + :.y Y d.+ z z . o z z o o . . + + + C C S D D K K S S P ' %.r.r.O.d 7 - ",
"& * N  .} | `  .] ] ] _ [ ] _ [ _ [ [ ] ' ) ] [ { =.q.+ + :.y Y d.+ o + . . . . . + + + c m S P ! ) ) ) ' ) I ) { *.y.i.$.d ; - ",
"% * V | |  .} ] | ` | [ _ ] ] [ ] ] ] ] ' ' ] [ X.=.8.8.+ + :.y Y d.+ + + + + + + + t s b M I I ) ] [ ] [ I { +.+.*.e.e.%.g ; - ",
"$ * N  .}  .| ` | ] ] ] ` ] [ ] ] ] ] ] ' ] ] ] %.=.q.1.{ + + :.:.Y d.+ %.{ ' I S n n m M H I ! ) ' ' ] [ [ [ I I #.e.e.%.a ; - ",
"* * N | | | ` | ` } ] ] ] ] ] ] { ' ' ' ' ' ] [ O.*.q.8.' m + + :.d.d.+ X.L n g c m C K P I I ! ' ] ' ' [ I I [ %.*.e.e.$.d ; ; ",
"& * N | ]  .| | ] ] ] | ] ] ] ] ' { ] { ] ' ' [ X.=.q.1.{ m 1 + + + + + { M w 1 t n K I ) ' ' ' ' ' ' ] [ I [ I +.#.q.e.$.j ; - ",
"& * N | | X.] ] ] ] ] ] ] ] ] ] ' { ! ' ! ' ! { %.=.q.q.{ b 1 1 b ' q.q.{ n 1 > r n K ' { ' ' ' ' ' ' ' ' ' ' [ [ &.w.p.$.f ; ; ",
"$ - j ..] { | ] ] ] / ] ] { ] ] ' { { ! ' ' ' { X.=.q.1.{ b 1 1 g ' 1.1.{ b 1 1 t M I ' ' { ' { ] ' ' ' ' ' ' ' { *.r.i...d ; - ",
"$ * N | | | ] ` | ] ] ] ] ] ] ] { ! ' / ' ! ! { X.=.q.1.{ m 1 > t ' =.=.' b 1 1 t H I ! ' ! / ' ' ' ' ' ' ' I ' [ *.w.i.$.d ; ; ",
"$ - j | ] | ` ^ ' / ' / ' ! ] ' { ! ' I { ! / ] %.=.q.1.' b 1 > t ! =.=.' b 1 1 t K I ' ' ' ' ' ' ' ' ' ' ' ' ' { &.w.y.$.j ; ; ",
"& - N O. . . .| | | | ] ] ' { ] ] { ] / / ' ] { %.1.q.4.] n < > t L X.O.I b e e n I / / ] ' / ' ] ' ' ' ' ' ' ' { *.r.w.X.d ; ; ",
"& * Z 2.,.>.>.;.O.&.$.$.$.&.&.$.$.&.%.%.%.%.$.=.=.4.w.4.{ n 5 , w b K W L C N C ! ..X.%.%.%.%.%.%.%...X.%.X.+.X.%.8.y.y.o.d ; ; ",
"& * Z y.y.y.t.t.y.y.9.5.w.q.5.q.5.5.5.5.5.5.5.w.w.r.i.5.] h 5 , 1 e f n H I ] %.<.5.5.5.5.5.5.5.5.5.1.5.4.1.4.4.8.w.p.p.-.j ; ; ",
"$ * Z 5.y.p.u.u.y.y.y.y.y.y.y.y.y.i.5.5.5.5.w.i.r.p.r.=.! g 3 , , 5 e a N / $.4.5.5.w.5.y.y.y.i.i.w.r.r.r.w.w.5.q.w.i.i.-.j ; ; ",
"& * j O.-.<.>.>.>.>.>.>.>.>.<.<.<.>.&.=.$.>.<.<.4.4.=./ B e , % * 3 5 q g Q ......$...%.$.$.$.$.$.$.$.&.$.%.=.=.>.=.$.-.( d 7 ; ",
"% - d J D E ~ E E E E E R Q E ~ E L E J J J Q ^ / / L H p 5 - & $ - , 6 q N H H J J J J J J L E J J J J L K L ! / Q E R j u ; - ",
"$ * q 8 8 8 q q q q q q q q q q q q q q q q q q a a q - * % # & # & ; = ; u a a g d h h h h j h h h h h h g h M j g a d u ; u - ",
"$ & 6 7 6 4 6 2 2 6 2 6 6 ; ; ; ; ; ; ; ; ; ; ; - ; ; = * * & $ & # $ $ - ; - - - - - - - - , - - - 2 - ; ; ; ; ; ; ; ; ; - - & "
};
