/* XPM */
static char *Character_SpriteSheet_261636046541[] = {
/* columns rows colors chars-per-pixel */
"64 64 134 2 ",
"   c #211223",
".  c #5F002A",
"X  c #4C3E3C",
"o  c #772A2A",
"O  c #4F413F",
"+  c #5B3356",
"@  c #4F4240",
"#  c #524543",
"$  c #564C46",
"%  c #594C46",
"&  c #554C4B",
"*  c #5A4E4B",
"=  c #5C5047",
"-  c #5D514D",
";  c #5F5452",
":  c #604F4D",
">  c #625247",
",  c #64534C",
"<  c #69554D",
"1  c #69594E",
"2  c #615653",
"3  c #695751",
"4  c #655A55",
"5  c #6B5A54",
"6  c #615758",
"7  c #645B5B",
"8  c #6B5E5B",
"9  c #725D54",
"0  c #725E5D",
"q  c #6E6057",
"w  c #6D615C",
"e  c #716056",
"r  c #74625B",
"t  c #79655E",
"y  c #79685E",
"u  c #545778",
"i  c #6C6361",
"p  c #746462",
"a  c #7A6661",
"s  c #756A66",
"d  c #7B6A63",
"f  c #776C6A",
"g  c #7A6D6B",
"h  c #7F7065",
"j  c #7E716D",
"k  c #7E7372",
"l  c #9D0701",
"z  c #D5062A",
"x  c #A0592A",
"c  c #D04A01",
"v  c #816E66",
"b  c #816E6A",
"n  c #827067",
"m  c #84726C",
"M  c #89756D",
"N  c #8B796F",
"B  c #817573",
"V  c #8A7674",
"C  c #847975",
"Z  c #8C7A74",
"A  c #867B79",
"S  c #8C7D7A",
"D  c #917D75",
"F  c #927E7B",
"G  c #EC8300",
"H  c #B38449",
"J  c #8E8077",
"K  c #8E817C",
"L  c #938177",
"P  c #93827C",
"I  c #99857E",
"U  c #99887E",
"Y  c #6A8580",
"T  c #00A5C1",
"R  c #8E8381",
"E  c #948582",
"W  c #998683",
"Q  c #968882",
"!  c #9C8A83",
"~  c #958989",
"^  c #9E8C8B",
"/  c #9F908E",
"(  c #9E9392",
")  c #A28E86",
"_  c #A28F8A",
"`  c #A88F8E",
"'  c #A29087",
"]  c #A4918B",
"[  c #A9948E",
"{  c #A9988E",
"}  c #A38F91",
"|  c #A49392",
" . c #AA9593",
".. c #A69995",
"X. c #AC9A94",
"o. c #AA9798",
"O. c #AD9C9A",
"+. c #B19B96",
"@. c #B39E9A",
"#. c #B89E9C",
"$. c #AEA09C",
"%. c #B1A096",
"&. c #B3A29C",
"*. c #B9A49E",
"=. c #BAA99F",
"-. c #AE9FA0",
";. c #B39FA2",
":. c #9FB3A1",
">. c #B5A5A2",
",. c #BAA5A3",
"<. c #B7A9A1",
"1. c #BDACA4",
"2. c #B7ABAD",
"3. c #BDACAA",
"4. c #BFB1A7",
"5. c #BFB1AA",
"6. c #FF9581",
"7. c #C2A6A4",
"8. c #C3ACA6",
"9. c #C5ADA9",
"0. c #C8AFAB",
"q. c #C2B1A6",
"w. c #C4B2AC",
"e. c #CBB4AE",
"r. c #C7B8AF",
"t. c #C4AFB0",
"y. c #C5B5B1",
"u. c #C9B6B1",
"i. c #C7B8B2",
"p. c #CABAB3",
"a. c #FFD980",
"s. c #FFCABE",
"d. c #DCD5C5",
"f. c white",
/* pixels */
"& & = & # $ $ $ & & & $ & $ & & & & $ $ $ $ $ & & & & & $ & & & & & & & & $ & & & $ & & @ # # & & & & & & & & & & & & & & & & & ",
"$ # X X X + O O O O O O O O X O O O O $ & & & $ # O # # O + O O $ = - & - - * & - - & - - & - - - * * & * * * - ; * * & & & & & ",
"& & f K A A A A k A A K k K k k A A A A C C A C K R A A B 8 # # ; k k k k k k B k k C k k k C k A k k C C k k C A A A A k f 7 $ ",
"$ & K | ( ( ^ } ( ( ( ( ( ( ..( | | ( ..| | ( | ..O.>.*.W g % # 7 k ~ / | ( | | ..( ..( ..( | ( | ( | | | | | | o.o.o.2.( g 6 % ",
"$ - A / / | } } | O.O.O...( | ( | ] ( ] | ] ( ..| ..$.>.! p # X ; k E ( ( / / / / / ] / / / / ( ( ( ^ ( ^ | ] | ( $.-.2.( k ; & ",
"$ & A ( ^ | } o.-.>.3.2.-...O.O.......X.....] ..O.-.p.3.] m , % 8 S / ......] ] ] ] | | ..] | ] ] | | | | | | o.$.2.2.5.-.k ; & ",
"$ - K ( ^ _ | o.-.>.2.>.O.....| ] ..] ] ] / / ] O.1.i.1.] V 5 2 s F / ..{ / / / / ' ] ] / ] ^ ] / / _ ] ^ ^ ] | O.>.5.5.$.k ; = ",
"$ - K ..| o.| o.o.O.&.O.&...| | / / ] ] / / / ] O.1.y.1.! m 5 3 d F ] | ] ' ' ^ ^ ) ^ ^ ) ^ _ ) / ] _ ^ _ _ ^ | o.>.5.5.$.k ; & ",
"& * S o.o.;.;.o.o.| } } o.O.o. .] ] ] / ] ] ] ] O.1.r.1.! B 5 < d P _ | ] ] ^ ^ ] ' _ ] ^ ] _ / _ _ _ _ _ _ _  .O.>.3.y.-.k ; & ",
"& * S o.#.;.;.;.o.W V F ^ o.@.X.X.{ ] ] ] / ] ] O.1.r.1.! m + 3 a F ]  .{ ] ' _ ] ^ ] ^ ] _ _ ] ] | _ _ _ _ _  .O.@.3.t.O.C ; $ ",
"& * S o.o.7.t.;.} B 0 p F | @.@.+.X.[ ] ] ] ] { +.1.e.1.! + + + a P ] | ] ] ) ] ) ] ) _ ] ) ] ] _ ] _ _ _ _ _ ` o.@.9.y.$.B 2 $ ",
"& * S o.;.7.t.;.W b 5 0 V _ O.@.@.X.] ] ^ ' ] ] +.+ e.1.+ + o + + D _ { ] ] ] ' ] ] ) ] ) ] ' ^ ^ _ ` _ _ _ _ [ +.@.3.t.&.C - $ ",
"$ * S o.o.o.` W F b d b F I ) [ [ [ ' ] ] ' ] { + + + + + o x o + + + { ] _ ' ] ) ] ^ ' ) ] _ _ ] _ _ _ _ ` ) [ +.@.1.y.$.C ; $ ",
"$ * R O.^ F b b b m V D S V V D P U ) ' ) ^ ) + + o + + o x x o + + + + ] ) ^ ] ) ] ] ' ) ] _ ' ] ] ] _ ] ) ) [ X.@.3.w.>.C ; $ ",
"& * ~ o.F g 0 0 a V F W S b d v m Z ! ) ' ^ + + o x o + o H x x o o o + + ] _ ' ] ] _ ] ] ] _ ] ] ) ] _ ] ] ) [ +.@.3.w.&.C ; $ ",
"$ * R ^ V g 0 0 b V W I V b a a b Z I ) ) ' + + o x x o o H H o x x x o + + ] _ ) ] ] ) ] ) ] _ ] ] _ ] ) ] ] [ +.&.1.r.$.C ; $ ",
"& - C K V b g b V W _ _ V m v m M D W ) ) _ + + o H x x x H H x x H H x o + + ] ' ] ' ] ) [ ] ] ] ] ] ' ` ' ' [ +.#.8.w.*.C ; $ ",
"$ * j k b V V S P ^ _ _ ) F V S F I ) ) ) ) ] + + o H H x H H x H x x x x o + + ] ] ] ) [ ) [ ] ' ] ] ] ' ' [ [ +.*.q.q.&.C ; $ ",
"$ - f s b F F W ^ _  .| } W W I ) ) ) ) ) ) ' + + o o o x x H o o x o x x o + + ] [ ] [ ) ) ) ) ' ] _ ] ` ' ' [ +.%.8.e.>.C 6 $ ",
"$ & f f b F W } `  .] | ` ` _ ) ` ] ] ] _ ] + + o x x x H H x o x x H o x x o + + ) ] ' ] ] [ ] ] ] ] ' ' [ ' [ +.*.q.0.$.C ; $ ",
"* & g B B W } } ` ] ] ] ] ] ] ] ] ] ] ` ] + + o x x x H H x H x H x H H o x o + + ] ) ] ] ] ] [ ] ] ] ] ' ) ) [ X.*.9.w.&.C ; $ ",
"& & k S S ~ ` } _ _ _ _ ) ^ + ) ] ) ) ) ) ) + + + o H x o H H x H H x H o o + + ) ) ] ) ) ] ) ) ) ) ) _ ) ) ) [ %.*.3.y.>.C ; $ ",
"& : B ~ W W } } _ ^ _ _ ) + + + ) ) ) ) ) ) ) + + o x x o x H H x x H x x H o + + ) ) ) ) ) ) ) ) ) ) ) ) ) ) [ +.*.w.y.>.k ; $ ",
"& * A } } } } ` ` | _ _ + + d.+ + ` ) ) ` _ ] + + o x c o x H x o x x o x H o + + ) ` ) ) _ ) ' ) ] _ ) ) ) ) [ +.,.5.y.>.C ; $ ",
"& * S -.o.o.o.o.@.O.o.o.+ + :.d.+ + [ [ [ { +.+ + o x   o x x o c o x o x x o + + [ [ [ ] [ ] [ [ ' [ [ [ [ [ +.%.,.9.y.>.C 6 $ ",
"# : R 2.;.;.,.,.;.,.#.#.+ + Y u d.+ + *.*.&.*.=.+ + o T 6.o x o 6.s.x c o x o o + + %.*.#.@.*.%.%.#.#.#.#.#.#.#.*.8.u.u.-.C 2 $ ",
"& * R y.3.3.9.9.0.7.0.0.+ + :.u d.+ + 8.8.1.q.w.+ + c 6.s.o x 6.s.s.o c x o H H o + + 8.8.8.8.8.8.8.7.0.8.8.0.7.8.w.p.u.$.k 6 $ ",
"& ; R 2.;.2.9.9.9.0.0.0.9.+ + Y u d.+ + 1.8.q.w.w.+ + 6.s.s.o s.6.c c l . o x H H o + + 8.8.8.8.8.0.0.7.0.8.7.7.8.w.p.y...j 2 $ ",
"$ * A | ^ | O.@.#.#.+.+.+.+ + :.u d.+ + { X.X.%.%.&.+ + 6.s.s.6.c c a.l l . o o x H o + + X.X.X.+.+.+.+.+.o.+.#.O.@.>.@.! f 8 $ ",
"& * k S j V S S V V S D F D + + Y u d.+ + D J P U + + c c l l l G a.l z . l . o o H o + + J J J D D D F S S F F F F P E C i 6 $ ",
"% * 2 8 4 4 4 5 5 4 4 5 8 5 + + :.u d.+ + 1 5 q e + + l l c c G z z z z . l l . o x H o + + q q 5 5 4 4 3 3 2 3 3 3 5 - % $ % $ ",
"$ * * * * : : * * % % * * % = + + Y u d.+ + % > , + + l + u u l z z z l . . l l o o H o + + O O $ # % # % # % % % % % * % $ $ $ ",
"& & : ; 4 8 w i w w w w w w r + + :.u d.+ + + r y + + u :.:.f.u z z z l . . l l o o H o + + q w q q q 4 5 4 5 0 r 8 0 a p ; ; & ",
"& * g b s j S S A C J A J Z Z Z + + Y u d.+ + + + + + Y :.d.d.f.u z z l . . . . o o H o + + M C j k j j b b b V Z S F E V 8 6 * ",
"& * B R S P W W Q Q Q E U Q ! U + + :.u d.+ u + + + u Y d.d.d.f.u z z . c c . o o o x o + + ! ! Q U U K W I W W _ ` @.o.~ i 8 ; ",
"$ * B ^ W } } } ] ] ] ] ] ] ] ) ] + + Y u u :.+ + + . + Y Y :.u l z l . 6.c o o o x . + + { {  .X.....%. .+.o.+.O.#.3.,.~ s i * ",
"$ * C | ` |  .` | [ ` ` [ ` [ [ [ + + u u Y :.+ + + . . + u u l l l x . o o o o o . + + @.@.+.+.@.+.#.#.#.#.#.7.#.#.;.O.W s 8 * ",
"* * k | } | ` ` ` ` ` ` ` ] ) [ + + u Y Y :.6.s.6.l l l z l . x x x . o o o o x . + + +.+.#.#.#.*.7.7.7.7.7.7.7.O._ W P C 7 ; * ",
"& * C | _ | } ` [ ` ] ` ] ` ` ] ] + + + + + 6.6.6.z z z z l . o o l . . . . . . + + [ [ +.*.8.8.7.8.0.0.0.e.e.0.o.F b p 5 * & # ",
"& * k | }  .} ` ` ] ` ] ` ] ] _ ] ] + + + + s.s.z l z z l . . . l z l . + + + + + +.[ [ [ *.8.8.0.e.e.e.e.e.e.7.` D a 5 - $ # & ",
"$ - k | } } }  . .` ` _ ] ` [ ` ] ] ] ` ) + + Y d.+ l l [ . . . . z z l . + + + { [ { [ [ +.#.*.+.+.+.+.+.+.{ [ ) D M a 0 * * % ",
"$ - C | }  .` ` } ] _ ` ] ] ] ] ] ] ] _ ) + + u Y + + + . . . . . . z z l . + + X.X.+.+.[ ) U I D D N M N D N M D F ) I m 8 6 ; ",
"$ - k | } | _ } } ] _ ] ` ] ] ] ] [ ` ) ) [ + + + + + o o . . + + + . z z l . + + +.&.%.] I v t v 9 v 9 v 9 9 t M I +.[ Q s 7 * ",
"$ - C | ` | ` | _ ` | ` ] ] ] ] ] ] [ ) ) ] ] + + + o o o o o + + + + . o l . + + +.*.@.) D 0 < > > < < > > < 9 n ) #.*.| j 7 - ",
"& * k o.} } ` } _ | ` ] ` ] ) [ ] ] ] _ _ ' ] ] X.=.+ o o o + , + + o x x o o + + X.X.] U M t 9 < < 9 9 9 9 9 e M ] ,.1...k 7 - ",
"& * k } }  . .} ] ` _ ` ] ] ] ] ] ] ] ] ' ` ' [ +.*.q.8.[ m < , t + o x x x o + X.' W D Z M b v v v b v v v v n I { w.w...g 7 - ",
"& * B o.} ` ` ` ` ] _ ` ] ] ] ] ] [ ` ' ] ' ' ] X.=.w.1.[ m < , a P + o o o + &.[ P M v n M Z D F D F D L L D I ' %.w.r.O.g 7 - ",
"& * B | o.| | _ ` [ ] ] ` [ ` ] [ ) ] ] ) ] ] [ +.,.q.8.] m 1 , a P [ +.*.1.1.%.' M a y v M D I ) ) ) ) ) ) U ) { *.r.i.O.g 6 - ",
"% * C | }  .` ] | _ ] ] ] ` ] ] [ ] ] ] ' ] ' { X.=.w.8.] m 1 1 t P [ +.*.*.&.{ I m d d n N U U ) ) ] [ +.U +.U #.7.e.r.%.f ; - ",
"$ - C | |  .| ` | ] ] ] ] | [ ] ] ] ] ' ] ' ] ] +.=.8.1.{ m 1 1 d I X.&.%.[ ' U D m n M N J U U ) ) [ ] U +.U +.U *.q.e.%.h ; - ",
"& * B | } | } | ` ` ] | ] ] ] ] ] ] ] { ' ' ] [ { *.w.1.{ M 1 1 v U %.=.X.P M h v m N L I U ! / ) ' ) ) [ U U [ %.7.e.e.$.f ; ; ",
"& * B | |  . .] ] | ] ] ] ] ] [ ' { ' ' ' ] ' [ %.=.q.8.' M 1 1 n ' 4.4.{ N e 1 y M L U ' ' ' ' ' ' ' ' U +.U [ U 8.e.e.$.k ; - ",
"$ - C | | ..| ` ] ] / ] ] ] { ] { ' ' ' ' ! ' { X.=.q.1.' M 1 1 n ' q.q.{ n 1 > r N L ' ' { ' ' ] ' ' ' ' ' [ U [ *.r.i...j ; - ",
"$ - k | ] { ] | | ] ] ] ] ] ] ] ' ' ' ' ' / ' { %.=.q.q.{ n 1 1 d ' 1.1.{ m 1 1 y N P ' { ' ' ' ] ' ' ' ' ' U [ [ &.w.i.$.f ; - ",
"$ * C | | | ] _ ] ] ' ] ] ' ] ] { / ' ' ' ! ' ' X.=.q.1.' M 1 > h ' 1.=.' n 1 1 y N U ' ' ' ' ' ' ' ' ' ' ' U ' [ *.w.y.$.f ; ; ",
"$ - k | ] | ` _ ] / ] ' ^ ^ ] ' ' / ' ! ' ! ! { %.=.q.1.{ n 1 > y U =.=.' n 1 1 y L U ' ' ' ! / ' ' ' ' ' ' ' ' [ *.r.y.$.k ; ; ",
"& & k o.o.o. .| ] | | ] ] ] ] | ] ] ] ' ] ] ' ..%.1.q.4.] m 1 > e P X.X.! n e r m U / / ' ' ] ] ' / ' ^ ' ' ] ' { *.r.y...f ; ; ",
"& ; A 3.,.>.@.;.&.$.-.@.$.&.%.%.$.$.%.$.%.%.$.=.=.4.r.4.{ m 5 , q n P ! P C M S ! ..O.%.%.%.%.X.%.X.%.X.%.X.X.%.%.1.y.y.o.j ; ; ",
"& - A p.y.y.y.t.y.t.5.5.5.5.r.5.5.5.5.5.5.5.5.5.5.r.i.4.] j 5 , 1 r g m J Q / %.<.5.1.4.5.5.5.5.4.4.3.4.4.1.1.1.8.q.p.i.O.k ; ; ",
"$ - A 5.y.y.y.y.y.y.y.y.y.r.y.y.r.r.r.5.5.5.r.y.i.p.r.=.! h 3 : < 5 r a C / $.1.5.5.5.r.y.y.i.i.i.y.r.r.r.w.r.5.w.w.i.i.-.k 7 ; ",
"$ * k O.>.>.>.>.>.>.<.>.>.>.>.<.>.>.=.>.$.<.>.<.4.4.=./ Z r 2 % * 4 5 w h Q | ....$...$.$.$.$.$.$.$.$.%.%.%.&.=.>.<.&.>.( k 7 - ",
"$ - f S S W W ~ ~ E E E E E Q Q E P K K K K E ! / ^ U C a 5 * % $ - , 2 w C J J K K J K K K E P K K K P K P U ! / Q K K k 7 7 & ",
"$ * w i 8 8 w w 8 w w w w i w w w w w w w w w p s s y & * & % * # $ ; - ; i s s h f j j j j m k j j j j j n n C C h s f i ; 7 ; ",
"$ * 6 6 6 4 2 2 6 ; 6 6 ; ; ; ; ; ; ; ; ; ; 2 ; - ; - - * % & # & # $ $ - - ; - - - - - - - - - ; - ; - ; 2 - 4 - - ; ; ; - - & "
};
