/* XPM */
static char *Character_SpriteSheet_271636046541[] = {
/* columns rows colors chars-per-pixel */
"64 64 134 2 ",
"   c #211223",
".  c #5F002A",
"X  c #4C3E3C",
"o  c #772A2A",
"O  c #4F413F",
"+  c #5B3356",
"@  c #4F4240",
"#  c #524543",
"$  c #564C45",
"%  c #594D46",
"&  c #554C4B",
"*  c #5A4E4B",
"=  c #5C5047",
"-  c #5D514D",
";  c #5F5452",
":  c #604F4D",
">  c #625247",
",  c #64534C",
"<  c #68554D",
"1  c #69594E",
"2  c #615653",
"3  c #695751",
"4  c #655A54",
"5  c #6B5B54",
"6  c #615758",
"7  c #645B5B",
"8  c #6B5E5B",
"9  c #725D54",
"0  c #725E5D",
"q  c #6A6156",
"w  c #6D615C",
"e  c #716056",
"r  c #74625B",
"t  c #79655D",
"y  c #79685E",
"u  c #545778",
"i  c #6C6361",
"p  c #746462",
"a  c #7A6662",
"s  c #756A66",
"d  c #7C6A64",
"f  c #776C6A",
"g  c #7A6D6B",
"h  c #7F7065",
"j  c #7E716D",
"k  c #7E7372",
"l  c #9D0701",
"z  c #D5062A",
"x  c #A0592A",
"c  c #D04A01",
"v  c #816E66",
"b  c #816E6A",
"n  c #827067",
"m  c #84726C",
"M  c #89756D",
"N  c #8B796F",
"B  c #817573",
"V  c #8A7674",
"C  c #847975",
"Z  c #8C7B74",
"A  c #867B79",
"S  c #8C7D7A",
"D  c #917D75",
"F  c #927E7B",
"G  c #EC8300",
"H  c #B38449",
"J  c #8E8077",
"K  c #8E817C",
"L  c #938177",
"P  c #93827C",
"I  c #99857E",
"U  c #99887E",
"Y  c #6A8580",
"T  c #00A5C1",
"R  c #8E8381",
"E  c #948582",
"W  c #998683",
"Q  c #978982",
"!  c #9C8B83",
"~  c #958989",
"^  c #9E8C8B",
"/  c #9F908E",
"(  c #9E9392",
")  c #A18E86",
"_  c #A28F8A",
"`  c #A88F8E",
"'  c #A29087",
"]  c #A4918B",
"[  c #A9948E",
"{  c #A9988E",
"}  c #A38F91",
"|  c #A49392",
" . c #AA9593",
".. c #A79994",
"X. c #AC9A94",
"o. c #AA9798",
"O. c #AD9C9A",
"+. c #B19C96",
"@. c #B39E9A",
"#. c #B89E9B",
"$. c #AEA09C",
"%. c #B1A096",
"&. c #B4A29C",
"*. c #B9A49E",
"=. c #BAA99F",
"-. c #AE9FA0",
";. c #B39FA2",
":. c #9FB3A1",
">. c #B5A5A2",
",. c #BAA5A2",
"<. c #B7A9A1",
"1. c #BDACA5",
"2. c #B7ABAD",
"3. c #BDACAA",
"4. c #BFB1A7",
"5. c #BFB1AA",
"6. c #FF9581",
"7. c #C2A6A4",
"8. c #C2ACA6",
"9. c #C5ADA9",
"0. c #C8AFAB",
"q. c #C2B1A6",
"w. c #C4B2AC",
"e. c #CBB4AE",
"r. c #C7B8AF",
"t. c #C4AFB0",
"y. c #C5B5B1",
"u. c #C9B6B1",
"i. c #C7B8B2",
"p. c #CABAB3",
"a. c #FFD980",
"s. c #FFCABE",
"d. c #DCD5C5",
"f. c white",
/* pixels */
"& & = & # $ $ $ $ & & & $ & & & & & $ $ $ $ & $ & & & & $ & & & & & & & & & & & & & & & @ & & & & & & & & & & & & & & & & & & & ",
"$ # X X O + O O X O O O O O O O O O O $ % & & & # @ @ @ O + @ @ $ & - & = - * & - - & = * & * ; & * * * * * * - ; * * & & & & & ",
"& & f K A A A A k A A R k J k k A A A A C C C C R R A A B 3 # # 2 k k k B k k B k k k k k k k k k k k B B B B B A A A A k f 4 & ",
"$ & K | ( ( ^ } ( ( ( ( ( ( ..( ( | | ..| | ( o...O.<.>.^ a * $ 4 k ~ ( ( ( | | ..( ..| ..| ..( ..| | | | } | ..o.o.o.2.( g 6 % ",
"$ - k ( / ( ^ } | o.O.o...( ( | | | ( | ] ] ( | ..| &.>.W p # X ; j ~ ( | / / / / / / ( / ( / / ( ( ( / / } _ | ( O.-.2.( k ; & ",
"$ & K | / | } o.-.2.3.2.-.....O.............| { O.-.p.3.] m : % 8 A / ....| ] ] ] | | ] ] ] | | | | ( | | | | o.$.2.5.5.-.k ; & ",
"$ & R | ^ _ } o.O.>.2.>.O.....o.| ] | ] | / / ] O.3.r.1.] m 5 3 a R / ..{ ] / / ' ] ] ' ] / ^ ] / ^ ] ] _ _ } | O.>.2.5.$.C ; & ",
"$ - K ..| o.o.o.O.O.@.$.$.o.| | ' / ] ' / / / ] O.1.r.,.^ m 8 1 d F ] | ] ' ^ / ^ _ ^ ^ ' / _ _ ' ] ^ _ ^ _ ^ | o.>.5.5.$.k ; $ ",
"* & S o.o.;.o.o.o.| } } o.O.o. .' ] ] ] / ] ] | @.1.r.1.Q m + 5 a P _ | [ ^ ' ^ ] _ ^ ] _ _ _ / ] _ ] _ _ _ `  .O.>.2.y.@.B 2 $ ",
"& & R o.o.;.7.;.o.W V S _ o.@.X.X...] ] ] / ] [ O.1.r.1.Q + + + d F '  .| ] ' _ _ ' ' ^ ' _ _ ] ^ ] _ _ _ _ _ | O.@.2.t.$.B ; $ ",
"& * S o.o.7.t.2.} B 0 0 Z | @.&.+.X.[ ] ' ^ ] | +.+ u.1.+ + o + + P ] | ] ] _ ] _ ' ] _ _ ' _ ] ] ] _ _ _ ` _ ` X.#.2.y.$.B 2 $ ",
"& * F ` ;.t.7.;.W b 0 0 V _ O.&.+.X.[ ] ' ] ] ] + + + + + o x o + + + [ [ ' _ ' ] ] ' _ _ _ ] _ ^ _ _ _ _ _ _ [ o.*.9.9.&.B ; $ ",
"% * S o.o.o.` W S m d b F W ) ] [ [ ] ' ' _ ' + + o + + o x x o + + + + ] ' _ ' _ ' ' _ _ _ _ _ ] _ _ _ _ ` ) [ X.&.3.w.$.C ; $ ",
"$ * E O.^ F b b b m V F F V V D P I ) ) _ _ + + o x o + o H x x o o o + + ' ] _ ' _ _ ] ' ' ' _ ' ] _ ] ] ) ) [ X.#.1.y.>.B ; $ ",
"& * ~ o.S g 0 0 a V F I V b d v m D Q _ ' ) + + o x x o o H H o x x x o + + ' ' ] _ ' ' ] ] _ ] _ ] ' ] ] ] ) [ +.@.1.w.&.C 2 $ ",
"$ & R ^ V b 0 0 b V W W V v d d v Z I ) ) _ + + o H x x x H H x x H H x o + + ] _ ] ] _ _ ' ] _ ] _ ] _ ) _ ] [ +.&.1.r.-.C ; $ ",
"& * A F C b g b V W ) ^ F m m m M F U ) ) ) _ + + o H H x H H x H x x x x o + + ` ' ] ] ] ' ' ] ' ' ] ] ' ' ` [ +.#.=.w.&.C 2 $ ",
"$ * g B b V V S E ! _ _ W F V Z F I ) ) _ ) _ + + o o o x x H o o x o x x o + + ' [ ' ] ] ] ] ] ] ] ] ' [ ' ' [ +.#.q.e.&.C 6 $ ",
"$ & f s b S F W ^ ` | ] _ ! W I ) ) _ ) ) ) + + o x x x H H x o x x H o x x o + + ] ] ' ' ` ' ] ] _ ] _ ' ' ' [ +.*.q.e.&.C 2 $ ",
"$ - f f b F W } ` | [ | ` ` _ ) ) ` ] ] ] + + o x x x H H x H x H x H H o x o + + ' ' ] ] ' ' ` ] ] ] ] ` ' ` [ +.*.8.q.>.C 2 $ ",
"& * g k V W } } ` ` ` ] ` _ _ _ ] ] ` ` _ ] + + + o H x o H H x H H x H o o + + ] ` ' ' ) ] ' ' ] ] ] ` ' ) ' [ X.*.8.y.$.B ; $ ",
"& * k S S ~ ` } _ _ _ _ _ ) ) ) ' ) ) ) _ ) ' + + o x x o x H H x x H x x H o + + ' ' ' ` ' ' ` ' ) ) ] ) ) ' [ +.>.8.y.>.C ; $ ",
"& * B ~ W W } } _ _ _ _ ) ) ) ) ' ) ) ) ) ) ) + + o x c o x H x o x x o x H o + + ) ' ) ' ) ) ) ) ) ) ) ) U ' [ +.*.5.y.-.C ; $ ",
"& * A } } } } ` } } _ _ _ _ ) ` ' ` ' ' ' ` ] + + o x   o x x o c o x o x x o + + ) ) ` ' ) ) ) _ ) _ ) ) ) ' [ +.,.w.y.>.C ; $ ",
"& * S ;.o.o.o.o.O.@.o. .[ [ [ [ [ [ [ [ { [ +.+.+ + o T 6.o x o 6.s.x c o x + + { { [ [ [ [ { { [ [ [ ' [ [ [ +.&.*.w.y.>.C 6 $ ",
"& * R 2.;.;.,.,.,.;.7.;.#.#.#.*.#.#.*.*.&.&.*.=.+ + c 6.s.o x 6.s.s.o c + o + + %.%.&.&.#.+.+.#.#.#.#.#.#.#.#.#.*.8.u.u.@.B 2 $ ",
"& * E t.2.9.t.t.0.0.9.9.9.9.9.9.q.8.9.7.1.8.q.+ + o H 6.s.s.o s.6.c c . + + + 1.4.4.4.4.8.8.8.8.8.8.7.0.7.9.7.9.8.w.p.u.O.k 2 & ",
"& * R 2.;.>.9.9.9.7.0.9.9.0.w.q.q.8.8.8.8.8.+ + o H H x 6.s.s.6.c c l l . + + 8.4.4.=.4.8.8.8.8.8.8.0.0.7.9.9.7.8.w.u.y...j 4 $ ",
"% * A | ^ | @.@.#.+.+.+.+.@.+.%.+.+.X.X.{ + + o H x o c l c c l c l a.l o . + + %.%.{ %.+.X.+.X.+.+.+.+.+.+.o.#.+.@.>.;.^ f 8 $ ",
"& * k S b C Z S F V F S S F K K L J J Z J + + o H o o G z z z l G a.l z o . + + J J J J S J S J D D D D Z F F F F F F E C i 6 $ ",
"$ * - w 7 7 5 5 3 3 3 5 5 4 5 5 4 4 1 1 + + o H x o o G l a.G G z z z z l . + + y q q q 1 4 q 1 5 4 3 5 3 2 2 3 3 3 3 - % $ & $ ",
"$ - * - * : * % * * * % % = = = = = % % + + o H o o c l a.l u u u u z z l . + + O O O O % O O $ $ # # $ $ # % % % % % * % $ $ $ ",
"& & * 2 3 7 r i w w w w w r r r r w e w + + o H o 6.6.. l + :.f.f.:.u z l . + + q q q q q q q q q q q q 5 4 3 0 0 9 0 a p ; ; & ",
"% * g b g B A S A A A A C Z + + + + + + + + o H o 6.c . + Y :.d.d.f.u l . + + Z J J J j j J J k k j j f b b B V F Z F E V 8 6 - ",
"& * k R Z E W W Q Q Q W ! U + d.d.d.d.+ + + o x o o o . + Y Y d.d.:.u l . + + Q Q Q Q Q U U Q Q Q Q U Q W W F ) _ } @.O.~ i 8 * ",
"& * k } W _ } } ] ] ] ' ] ] ' + :.Y u d.d.+ + . x o o o + u Y Y Y u l x . + + ] ( { { { ....%.{  . .X... .+. .+.+.;.,.,.^ s i ; ",
"$ * C | } | ` ` [ ` ` ` [ ` [ ` + :.:.u u d.d.{ . o o o . + + + + o x . + + ..{ { X.X.X.+.+.+.+.@.#.#.+.#.#.#.7.#.@.;.@.E p 8 * ",
"$ - k | ` | ` ` ` ` ` ` ] ` ' [ [ + + :.:.u u d.d.. x u o l . l z x o . + + { { { [ { X.+.#.#.*.#.7.7.7.7.7.7.7.@._ W F B 7 ; * ",
"& & C | }  .| ` ` ] [ _ ] ` ` ] ] ] + + + :.:.u Y d.d.u . . l z z l l . + + / { { [ [ [ +.*.7.7.9.9.0.0.e.e.e.0.o.F b a 7 * & & ",
"$ ; k | } | ` } ] ` ` ` ` ] ] ] _ ] ] + + + + :.:.u u u :.6.z z l z . + + { / { [ [ [ [ +.*.8.0.9.0.e.e.e.e.e.7.` D a 5 : # # & ",
"$ - C | } o.` _ ` _ ] _ ] } ` _ ] ` ] ` ' + + + + d.d.Y 6.s.z l l z . + + ] { ] { { X.[ +.+.#.%.+.+.+.[ +.+.#.U U D m d 9 : * % ",
"$ - B | } | } } ` ` ` ] ] ] [ ] ] ' ] ) ' ' + + Y Y u 6.s.s.. :.z l . + + [ ] { { X.X.X.[ ' I I D D D M N D N n D U ) I B 7 6 * ",
"$ * B | ` | } ` } [ ` ] ` ] ] ] ] [ ' ` ` ' ` + + + + + + + u u z . + + { [ [ [ { +.&.&.[ F m 0 v 9 v 9 v 9 9 v M I +. .W s 7 - ",
"$ - B | } | ` | ] } ] } ] ] ` ] ] ] ` ' ' ] ' ] + + + + + + . o l . + + X.[ { { X.+.&.&._ D 9 < > > < < > > > 9 n ) #.*.| j 7 - ",
"& * B o.}  .` } ] _ | ] ] ] ` [ ] ] ] ] ' ] ' [ X.*.q.+ + o x x o o + + X.X.{ X.X.{  .] U M t 9 < 9 9 < 9 9 1 t M ) <.3...j 7 - ",
"& * B } } | } ` ` ` ` _ ] ] ' ] ] ] ` ) ) ] ] ] +.=.w.8.+ o x x x o + X.X.%.&.+.{ [ U F D M m v v v v v v v v M I X.8.w.o.j 7 - ",
"$ * B | ` } ` } _ ] _ ` ` ] ' ] ' ] _ ] ) ] ) [ X.,.q.1.] + o o o + [ X.&.&.=.&.{ I m v v M V D D D F F I L D I ' &.r.r.O.f ; ; ",
"& * B o.} o.} [ ` ` [ [ ] ] ` ] [ ] ] ] ] ) ] [ +.<.9.1.[ m 1 , y P [ %.*.1.1.&.' V y y v M D I ) ) ) ' ' U U ) { *.y.i.$.f ; ; ",
"$ - B | |  .` } [ ` ] ] ] | [ ` ' ] ] ] ' ] ' [ X.<.w.7.[ m 1 < y I { +.&.*.&.{ I m y d n N L ' ) ` ' [ +.U +.#.+.7.r.r.%.h ; - ",
"$ - B ..| | ` | ] ` } ] ] ] ] ] [ ] ] ' ] ' ' [ X.<.q.8.[ M 1 1 y I { &.%.[ ) U Z m m M N L U U ) ' ] ' U +.U U U #.e.e.{ h ; - ",
"& * B | ` | | ` | ] ] ] ] ] ] ] [ ] ' ' ' ' ] [ X.=.w.8.] n 1 1 v ) &.=.X.I M h v M N L I U U U ) ) ' ' +.U [ U %.#.0.e.$.f ; ; ",
"& * B | | | | | ` ] | ] ] [ ] ] ] ' [ / ' _ ' [ +.=.q.=.{ n 9 1 v ) =.q.{ N q 1 t M L ! ' ' / ' ' ' ` ' U [ U [ +.*.0.e.$.k ; - ",
"* * k ..| X.] ] ] ] ] / ] ] ] [ { ' ' { ' ' / { X.=.q.q.[ n 1 1 v ] q.q.{ n 1 1 t M L / { ' ' { ] ] ' ' ' ' U { [ *.r.y.$.f ; - ",
"$ * k | [ | | ] ] ] ] ] ] ] ] ' ' { ' ' ' ! ' ' %.=.q.q.{ n 1 1 y ] =.=.{ n 1 1 y M U ' ' { ' ' ] ' ' ' { U U [ { &.w.i.$.s ; ; ",
"$ - B [ ] | ] _ | ] ] ] ' ] ] ] ' ' ' ' ! ' / { X.=.q.=.{ M 1 > h ] =.q.' h 1 < y J U U ' ' / ' ' ' ' ' ' ' ' ' { *.r.i.$.f ; ; ",
"& - k | ( | ] ` _ / ' ' / ' ^ ] ' / ' ' ! ! ! { X.=.q.q.' n 1 > y U =.=.' n 1 < h L U ' ' ! ' ] ' ' ' ' U ' U { [ %.5.i.$.k ; ; ",
"& * C o.o.o.| | ] | | ] [ ' [ ] [ ] ] / ' ] { { %.=.q.4.[ m 1 > e L X.X.Q M e e m U / ' ] ] ] ] ' / ' ' ] ] ' ] +.*.r.w.o.f ; ; ",
"* * A 2.>.,.>.;.&.$.$.$.$.$.%.$.%.$.%.$.%.%.$.&.=.4.r.4.] m 5 , q m P W P V m S ! ..X.%.X.%.X.X.%.%.X.X.X.{ +.X.&.7.y.y.O.f ; ; ",
"$ * A y.y.y.y.t.y.t.3.w.5.q.w.5.5.5.5.5.4.4.5.5.w.r.p.4.] j 5 , 1 r v m J U ] $.<.2.4.5.5.5.5.5.4.4.1.5.q.4.1.4.8.w.p.i.-.k ; ; ",
"& * A 5.y.u.i.y.y.y.y.y.y.r.i.y.i.i.r.5.5.5.i.i.i.p.r.=.Q h 3 : , 8 r a C / $.1.5.5.r.i.i.i.i.i.i.y.r.r.r.q.w.w.q.q.i.i.-.k ; ; ",
"$ - k O.>.>.>.>.>.>.>.>.>.<.>.>.>.>.&.$.-.&.<.4.4.4.&.{ V p , * * 4 5 w j U ( ..X.$.X...$.$.$.$.$.$.$.$.$.%.&.=.<.<.&.>.( f 7 ; ",
"$ - j A S W W E E E E E E E E ~ E P R U K K R Q / / U C a 3 * % $ = 2 2 w C J J A K K K K K K E K K K K P K U ! / Q K K k i 7 & ",
"$ * w 8 7 0 i w i w i w w w w w w w w w w w w r s p i - * % & - $ $ , - ; p s s f h j j j j j j j j j j m h m C C h s f i ; 7 ; ",
"$ * 6 6 6 4 6 2 6 ; 2 2 2 ; ; ; 2 2 ; ; ; ; 2 ; ; 2 ; & * * & # # # & $ & - ; - ; - = - ; - ; , - - 2 - - ; ; ; ; - ; ; ; - - & "
};
