/* XPM */
static char *Character_SpriteSheet_251636046541[] = {
/* columns rows colors chars-per-pixel */
"64 64 134 2 ",
"   c #211223",
".  c #5F002A",
"X  c #4C3E3C",
"o  c #772A2A",
"O  c #4F413F",
"+  c #5B3356",
"@  c #4F4240",
"#  c #524543",
"$  c #564C45",
"%  c #594D46",
"&  c #554C4B",
"*  c #5A4E4B",
"=  c #5C5047",
"-  c #5D514D",
";  c #5F5452",
":  c #604F4D",
">  c #625247",
",  c #64534C",
"<  c #68554D",
"1  c #69594E",
"2  c #615653",
"3  c #695751",
"4  c #655A54",
"5  c #6B5B54",
"6  c #615758",
"7  c #645B5B",
"8  c #6B5E5B",
"9  c #725D54",
"0  c #725E5D",
"q  c #6A6156",
"w  c #6D615C",
"e  c #716056",
"r  c #74625B",
"t  c #79655D",
"y  c #79685E",
"u  c #545778",
"i  c #6C6361",
"p  c #746462",
"a  c #7A6662",
"s  c #756A66",
"d  c #7C6A64",
"f  c #776C6A",
"g  c #7A6D6B",
"h  c #7F7065",
"j  c #7E716D",
"k  c #7E7372",
"l  c #9D0701",
"z  c #D5062A",
"x  c #A0592A",
"c  c #D04A01",
"v  c #816E66",
"b  c #816E6A",
"n  c #827067",
"m  c #84726C",
"M  c #89756D",
"N  c #8B796F",
"B  c #817573",
"V  c #8A7674",
"C  c #847975",
"Z  c #8C7B74",
"A  c #867B79",
"S  c #8C7D7A",
"D  c #917D75",
"F  c #927E7B",
"G  c #EC8300",
"H  c #B38449",
"J  c #8E8077",
"K  c #8E817C",
"L  c #938177",
"P  c #93827C",
"I  c #99857E",
"U  c #99887E",
"Y  c #6A8580",
"T  c #00A5C1",
"R  c #8E8381",
"E  c #948582",
"W  c #998683",
"Q  c #978982",
"!  c #9C8B83",
"~  c #958989",
"^  c #9E8C8B",
"/  c #9F908E",
"(  c #9E9392",
")  c #A18E86",
"_  c #A28F8A",
"`  c #A88F8E",
"'  c #A29087",
"]  c #A4918B",
"[  c #A9948E",
"{  c #A9988E",
"}  c #A38F91",
"|  c #A49392",
" . c #AA9593",
".. c #A79994",
"X. c #AC9A94",
"o. c #AA9798",
"O. c #AD9C9A",
"+. c #B19C96",
"@. c #B39E9A",
"#. c #B89E9B",
"$. c #AEA09C",
"%. c #B1A096",
"&. c #B4A29C",
"*. c #B9A49E",
"=. c #BAA99F",
"-. c #AE9FA0",
";. c #B39FA2",
":. c #9FB3A1",
">. c #B5A5A2",
",. c #BAA5A2",
"<. c #B7A9A1",
"1. c #BDACA5",
"2. c #B7ABAD",
"3. c #BDACAA",
"4. c #BFB1A7",
"5. c #BFB1AA",
"6. c #FF9581",
"7. c #C2A6A4",
"8. c #C2ACA6",
"9. c #C5ADA9",
"0. c #C8AFAB",
"q. c #C2B1A6",
"w. c #C4B2AC",
"e. c #CBB4AE",
"r. c #C7B8AF",
"t. c #C4AFB0",
"y. c #C5B5B1",
"u. c #C9B6B1",
"i. c #C7B8B2",
"p. c #CABAB3",
"a. c #FFD980",
"s. c #FFCABE",
"d. c #DCD5C5",
"f. c white",
/* pixels */
"& & = & # $ $ $ $ & & & $ & & & $ & $ $ $ $ $ & & O = & & & & & & & & & & & & & & & & & @ # # & & & & & & & & & & & & & & & & & ",
"$ # X X O + O O X O O O O O O O O O @ $ & & $ $ # + O O O + O O $ & = & * * * * - = * * - & * ; - & * * * * * ; ; * * & & & & & ",
"& & f K A A A A k A A R k J k k A A A A C A A A K R J A B 5 # # 4 k k k k k k B k B A k k k k k k k k B B k B B A A A A k f 4 & ",
"$ & K | ( ( ^ } ( ( ( ( ( ( ..( ( | | ..| | ( | ( $.<.<.! d * # 4 k ~ ( | ( | | ( ..( ( | ....( ..( ....| | | | o.o.o.2.( g 6 $ ",
"$ - k ( / ( ^ } | o.O.o...( ( | | ( | | ] ] ( | ( ..$.>.Q p # X ; k ~ ( ( / / / / / ] ( ] ( / / ( ( ( ^ / / _ | ..$.-.2.( k ; & ",
"$ & K | / | } o.-.2.3.2.-.....O.............| { $.-.p.3.] m , * 8 A ^ ......] ] | ] | ] | ] | | | | | | | | | o.O.2.2.5.-.k ; & ",
"$ & R | ^ _ } o.O.>.2.>.O.....o.[ ] | ] | / / ] $.3.i.1.] M 5 2 a R ] ..[ ' / / / ' ] ' / / ' / _ _ } ] _ } _ ..O.>.5.5.$.k ; = ",
"$ - K ..| o.o.o.O.O.@.$.$.o.| | / / ] ' / / / ] ..4.w.1.^ m 5 3 a F / ..] ' ^ / ^ _ ^ ^ ) ' ^ ] ^ _ ^ _ _ ^ ^ | o.-.5.5.$.k ; & ",
"* & S o.o.;.o.o.o.| } } o.O.o. .' ] ] ] / ] ] | @.1.r.1.Q m + 5 d F ] ..] ] ^ _ ^ ' _ _ ] _ _ ^ ^ ] ] _ _ _ ` | O.>.9.t.-.B ; $ ",
"& & R o.o.;.7.;.o.W V S _ o.@.X.X...] ] ] / ] [ O.1.r.1.Q + + + a P _  .[ ] ' ] ] _ ] ^ _ _ _ ] ] _ ] _ _ _ _ ` X.;.2.5.-.B ; $ ",
"& * S o.o.7.t.2.} B 0 0 Z | @.&.+.X.[ ] ' ' ] | +.+ u.1.+ + o + + L _ | | ' _ ' ' _ ] _ _ ' ' _ ] ] _ ' _ ` _ [ +.&.9.y.&.B ; $ ",
"& * F ` ;.t.7.;.W b 0 0 V _ O.&.+.X.[ ] ] ^ ] ] + + + + + o x o + + + [ ] ] ' _ ] ' ' _ _ _ ] _ ] ^ _ _ _ _ _ [ o.#.3.t.$.B ; $ ",
"% * S o.o.o.` W S m d b F W ) ] [ [ ] ' ' _ ' + + o + + o x x o + + + + ] ' ' ] _ _ ' _ _ _ _ _ _ _ ^ ' ` ) _ [ X.&.1.y.&.A - $ ",
"$ * E O.^ F b b b m V F F V V D P I ) ) _ _ + + o x o + o H x x o o o + + ' _ ' ] ' ' _ _ ] ] ] ] _ ] ] ] ' ` ] +.&.8.w.-.A ; $ ",
"& * ~ o.S g 0 0 a V F I V b d v m D Q _ ' ) + + o x x o o H H o x x x o + + ] _ _ _ ] ] ' _ ] _ ] ] _ ] ] ) ' { o.*.1.w.$.A 4 $ ",
"$ & R ^ V b 0 0 b V W W V v d d v Z I ) ) _ + + o H x x x H H x x H H x o + + ] ' ] _ ' ' ] _ ' _ _ ] _ ) ` ' ] +.@.1.w.$.C ; $ ",
"& * A F C b g b V W ) ^ F m m m M F U ) ) ) _ + + o H H x H H x H x x x x o + + ] ' [ ] ] ] [ ] ] ' ' ] ' [ ) [ +.#.1.w.&.C 4 $ ",
"$ * g B b V V S E ! _ _ W F V Z F I ) ) _ ) _ + + o o o x x H o o x o x x o + + ] ] ) ] [ ' ) ] ] ] ] ' ) [ ` [ +.#.q.e.&.C ; $ ",
"$ & f s b S F W ^ ` | ] _ ! W I ) ) _ ) ) ) + + o x x x H H x o x x H o x x o + + ' ] ' ) ) ) ] ] ] ] _ ' ' ' [ +.%.q.e.>.B ; $ ",
"$ - f f b F W } ` | [ | ` ` _ ) ) ` ] ] ] + + o x x x H H x H x H x H H o x o + + ] ] ' ] ] ) [ ' ] ] ] [ ' ' [ +.*.8.0.&.A ; $ ",
"& * g k V W } } ` ` ` ] ` _ _ _ ] ] ` ` _ ] + + + o H x o H H x H H x H o o + + ' ) [ ) ] ] ] ) ] ] ] ` ) ' [ [ O.*.8.w.>.B ; $ ",
"& * k S S ~ ` } _ _ _ _ _ ) ) ) ' ) ) ) _ ) ' + + o x x o x H H x x H x x H o + + ` ) ) ) ' ) [ ' ) ) _ ) ) U [ +.<.8.y.$.A ; $ ",
"& * B ~ W W } } _ _ _ _ ) ) ) ) ' ) ) ) ) ) ) + + o x c o x H x o x x o x H o + + ) ) ) ) ) ) ) ) ) ) ) ) ) U [ +.*.w.w.>.k ; $ ",
"& * A } } } } ` } } _ _ _ _ ) ` ' ` ' ' ' ` ] + + o x   o x x o c o x o x x o + + ) ) [ ) ) ' ' _ ) _ ' ) ) [ [ +.*.5.y.>.A ; $ ",
"& * S ;.o.o.o.o.O.@.o. .[ [ [ [ [ [ [ [ { [ +.+.+ + o T 6.o x o 6.s.x c o x + + { { ] { ] { [ [ [ [ { [ [ [ [ +.%.,.w.y.>.A ; & ",
"& * R 2.;.;.,.,.,.;.7.;.#.#.#.*.#.#.*.*.&.&.*.=.+ + c 6.s.o x 6.s.s.o c + o + + &.%.&.#.+.#.#.*.+.#.#.#.#.#.#.#.*.8.u.u.@.B 4 $ ",
"& * E t.2.9.t.t.0.0.9.9.9.9.9.9.q.8.9.7.1.8.q.+ + o H 6.s.s.o s.6.c c . + + + 1.4.q.4.q.7.8.8.7.8.7.0.7.7.0.7.9.9.w.p.u.O.k 4 $ ",
"& * R 2.;.>.9.9.9.7.0.9.9.0.w.q.q.8.8.8.8.8.+ + o H H x 6.s.s.6.c c l l . + + q.4.4.4.4.8.8.9.8.0.8.7.0.7.0.9.7.8.w.u.y...f 4 $ ",
"% * A | ^ | @.@.#.+.+.+.+.@.+.%.+.+.X.X.{ + + o H x o c l c c l c l a.l o . + + %.%.{ { X.+.+.+.+.+.+.+.+. .+.+.+.O.#.;.^ f 8 & ",
"& * k S b C Z S F V F S S F K K L J J Z J + + o H o o G z z z l G a.l z o . + + J J J J J J Z J D D F D F F F F F F E W B i 7 $ ",
"$ * - w 7 7 5 5 3 3 3 5 5 4 5 5 4 4 1 1 + + o H x o o G l a.G G z z z z l . + + q q 1 q 4 4 q q 5 5 2 5 2 3 2 3 3 3 5 : $ $ $ $ ",
"$ - * - * : * % * * * % % = = = = = % % + + o H o o c l a.l u u u u z z l . + + = O O = O O O O $ O $ $ $ # % % $ % $ % * $ $ $ ",
"& & * ; 3 7 w p w w w w w w r e r w e w + + o H o 6.6.. l + :.f.f.:.u z l . + + q q q q q q q q q q q ; 3 5 5 0 p 0 0 p p 2 ; & ",
"$ * k b g B A A C C J A Z Z + + + + + + + + o H o 6.c . + Y :.d.d.f.u l . + + Z C J J C C N J k k k j j b b b V S V R W V 8 6 * ",
"$ * B R Z E W W ~ Q W W Q Q + d.d.d.d.+ + + o x o o o . + Y Y d.d.:.u l . + + Q Q Q Q Q U U Q Q Q Q U U I W I ) _ } o.O.~ i 8 - ",
"& * B ^ W _ } } ] ] _ ' ' { ` + :.Y u d.d.+ + . x o o o + u Y Y Y u l x . + + ] ( { { { { { %...X.X.....+.o. .+.+.#.7.,.^ s i - ",
"$ * A | ` | ` ` } | ` [ [ ` ] [ + :.:.u u d.d.{ . o o o . + + + + o x . + + ..{ { X.X.+.+.+.@.+.#.+.#.#.#.#.#.*.#.@.#.@.~ p 8 * ",
"$ * B } ` | ` ` ` ` ` ` ` ] [ ] { + + :.:.u u d.d.. x u o l . l z x o . + + { { [ [ { X.+.#.#.*.#.7.7.7.7.7.7.7.@._ W F B 4 ; * ",
"& * A | | | ` ` [ ` ` ` ` _ _ ] ] _ + + + :.:.u Y d.d.u . . l z z l l . + + / { [ [ [ { +.*.7.7.9.9.9.9.e.e.e.0.o.F b a 7 * & & ",
"$ * k | } | } ` ` ] _ ` ` _ [ ` ] ] ] ) + + + :.:.u u u :.6.z z l z . + + { / { [ { { [ { *.8.9.9.e.e.e.e.e.e.7.` D a 5 : # & # ",
"$ - B | } | ` } ` ` _ ] ` ] [ ` ` ] ) ' ' + + + + d.d.Y 6.s.z l l z . + + { ' { { { [  .+.+.#.@.+.+.+.+.+.+.#.U W D M d 8 : * * ",
"$ - B | } | ` | | _ ] ` _ ] ] ] ] ] [ ` ` ) + + Y Y u 6.s.s.. :.z l . + + { ] [ ..X.+.+.[ ) U I L D D N N D N n D U U I V 7 6 * ",
"$ * k | ` | ` } ` _ ` | ] ] ] ] ] ` ' ' _ ] ) + + + + + + + u u z . + + { { [ [ X.+.%.%.{ L b t v 9 9 9 v 9 9 v M U +. .~ f 4 - ",
"$ - A | } | } ] | ` _ _ ` ] ] ] [ ' ] ` ' ) ] [ X.+ + + + + . o l . + + ..[ [  .X.@.&.%.` N 0 < > > < < < > < 9 n ) #.*.| j 7 = ",
"& * B o.` ` } | } ] ` ] ] ] ` ' ] ] ] ] ] _ ] ] X.=.w.+ + o x x o o + + X.{ X.X.X.X. .] U N t 9 < < 9 9 9 9 1 e M ] ,.8...k 7 - ",
"& * B } } o.} ` ] ` ] ` ] ) [ [ ] ] ] ) ) ] ) { +.*.9.8.+ o x x x o + O.%.%.&.%.X.' I F D M v v v v b v n v v M I { w.w...g 7 - ",
"$ * B | } ` } ` _ ] ] ` ` ] ] ` ` [ ` ' ) ' ] ] X.=.w.1.[ + o o o + [ X.%.=.,.%.[ P M v v m V D D D F D L L L I ) *.w.r...f 7 - ",
"& * B o.} o.| ] ` ` [ ] ] ] ] ] ] ' ] ] ] ) ` { X.=.9.1.[ m < , y P [ %.*.,.1.%.' N a y v N D I ) ) ) ' ) ) U U { *.r.i.O.f 7 - ",
"$ * B ..` o.` | } ] ` ] ] ] ] ] ] ] ] ] ) ] ' [ +.=.w.7.] m 1 < t P [ %.*.*.&.{ I m y d n N P U ) ` ] ] [ U [ U #.7.q.r.%.f ; - ",
"% - B | |  .` ] | ] | ] ] ] ] [ ] ] ] ] ] ' ] { X.*.q.8.{ M 1 < v I X.%.+.{ ) U Z m m M N L U ! ) ) ' [ [ [ U +.U *.e.e.%.h ; - ",
"& * B | } | | ] ` ` ] ] ] ] ] ] { ' ] ' ) ) ] ] X.*.w.1.{ n 1 1 v ! %.=.{ I n n v M Z L I U U ' ) ' ' ' [ U U [ %.*.0.e.$.j ; ; ",
"& * k o.| | | ` ] | ] ] ] ] [ ] ' { ' / ' ] ' { X.=.q.1.{ n 9 1 v ) 1.q.{ N e q t M L U ' ' ' ! ' ] ) ' [ U [ U +.*.0.e.$.f ; ; ",
"$ - B ..[ | ] | | ] | ] | ] ] ] { ' ' { ' ! / { %.=.q.1.{ n 1 1 n ' q.q.{ m 1 > t M L / ' { ' { { ' ' ' ' ' ' [ [ *.w.p...f ; ; ",
"$ * k ..[ | | ] ] ] / ] ] ] ] ] ' { ' ' ' ' ' ] X.=.q.1.{ n 1 1 d ' 1.1.{ n 1 1 y M U ' { ' ' ' ' ' ' ' ' ' ' ' { *.w.i.$.f ; ; ",
"& - k | ] | ] ` _ ] ' ] ] ' { ' ' ' ' ' ! ' ' { %.=.q.q.[ n 1 > y { =.=.' n 1 1 y J U U ' ' ' ' ' ' ' ' ' ' U ' [ *.w.i.$.f ; ; ",
"% - k | | | ] _ _ _ ' / ' ^ ' ' ' / ' ' ! ! ! ' { =.q.q.' M 1 > y U =.=.' n 1 1 y L U ' ' ' ! / ' ' ' ) ' ) ' ' { &.w.y.$.k ; ; ",
"& * B O.o.o.| | | | | [ ] ] { ] { ' ] ' ] ] { { %.=.q.4.{ M 1 > r L ..O.! m e e M Q / ' ] ] ] ] ] ] ' ' ' ' ' ' { *.w.y.O.f ; ; ",
"& * A 2.,.,.&.;.>.O.O.;.$.$.%.$.$.$.%.$.%.%.$.=.=.4.r.4.] m 5 , q m L W P Z C Z ~ ..X.%.X.%.%.O.%.X.%...X.%.+.X.&.8.y.y...g ; ; ",
"$ * A y.y.y.y.t.9.y.5.5.5.w.w.5.5.5.5.5.2.5.5.5.r.r.p.4.' m 5 : 1 t d m J Q ] %.<.4.4.4.5.5.5.5.4.4.5.5.4.1.4.1.8.q.p.i.-.k ; ; ",
"& - A 5.y.u.y.y.y.y.y.y.y.i.w.y.y.r.r.5.5.5.r.i.i.p.i.<.Q d 3 : , 5 t s C / &.<.5.5.5.y.y.i.i.i.y.y.w.r.r.w.r.w.q.w.i.i.-.k 7 ; ",
"% * k O.$.>.,.>.>.>.>.>.<.<.>.<.>.>.=.>.>.$.>.1.4.4.=./ V p , % * 2 4 w j Q { ....$...$.$.$.&.$.$.$.$.$.&.%.&.=.<.=.&.>.( f 7 ; ",
"$ - j A F ~ ~ W ~ E E E E E E R E P K K K K E ! / ^ U C a 3 * * $ - , 4 r k A J J J K K K K K E K K K K K L P ! / Q R K k 7 ; - ",
"& & w 8 8 8 8 w 8 w 8 w i w w w w w 8 w w w w i s s y & * % & * $ & , - ; p s s f h j j j j j j j j j j j n m C B h f s i ; i - ",
"$ & 4 7 6 4 6 2 2 6 2 2 6 ; 4 ; 2 ; ; ; ; ; ; ; ; ; ; = * & % # $ # & $ & - ; ; - - - - - ; - , - - ; ; - ; 2 ; ; - ; ; ; & ; & "
};
