/* XPM */
static char *_0913_fa2ea5663f18bdbe0431a4c17a6ae1bd22f2e19269d21d281689942358c32e1f[] = {
/* columns rows colors chars-per-pixel */
"64 64 18 1 ",
"  c #5F002A",
". c #772A2A",
"X c #5B3356",
"o c #545778",
"O c #9D0701",
"+ c #D5062A",
"@ c #A0592A",
"# c #D04A01",
"$ c #EC8300",
"% c #B38449",
"& c #6A8580",
"* c #9FB3A1",
"= c #FF9581",
"- c #FFD980",
"; c #FFCABE",
": c #DCD5C5",
"> c white",
", c None",
/* pixels */
",,,,,,,,,,,,,,,,,,,,,,,,,,,,,,,,,,,,,,,,,,,,,,,,,,,,,,,,,,,,,,,,",
",,,,,,,,,,,,,,,,,,,,,,,,,,,,,,,,,,,,,,,,,,,,,,,,,,,,,,,,,,,,,,,,",
",,,,,,,,,,,,,,,,,,,,,,,,,,,,,,,,,,,,,,,,,,,,,,,,,,,,XX,,,,,,,,,,",
",,,,,,,,,,,,,,,,,,,,,,,,,,,,,,,,,,,,,,,,,,,,,,,,,,,,XXX,,,,,,,,,",
",,,,,,,,,,,,,,,,,,,,,,,,,,,,,,,,,,,,,,,,,,,,,,,,,,,XXXXX,,,,,,,,",
",,,,,,,,,,,,,,,,,,,,,,,,,,,,,,,,,,,,,,,,,,,,,,,,,,,XX>XXX,,,,,,,",
",,,,,,,,,,,,,,,,,,,,,,,,,,,,,,,,,,,,,,,,,,,,,,,,,,XX>>>XXX,,,,,,",
",,,,,,,,,,,,,,,,,,,,,,,,,,,,,,,,,,,,,,,,,,,,,,,,,,XX>>>>XX,,,,,,",
",,,,,,,,,,,,,,,,,,,,,,,,,,,,,,,,,,,,,,,,,,,,,,,,,XX>>>>>&XX,,,,,",
",,,,,,,,,,,,,,,,,,,,,,,,,,,,,,,,,,,,,,,,,,,,,,,,,XX>>>>>*XX,,,,,",
",,,,,,,,,,,,,,,,,,,,,,,,,,,,,,,,,,X,,,,,,,,,,,,,XX>>>>:>:XX,,,,,",
",,,,,,,,,,,,,,,,,,,,,,,,,,,,,,,,,XXX,,,XX,,,,,,,XX>>>>*>:XXX,,,,",
",,,,,,,,,,,,,,,,,,,,,,,,,,,,,,,,XX.XXXXXXX,,,,,XX>>>>:*:>&XX,,,,",
",,,,,,,,,,,,,,,,,,,,,,,,,,,,,,,XX.@.XXX..XX,,,,XX>>>::*:>&XX,,,,",
",,,,,,,,,,,,,,,,,,,,,,,,,,,,,,,XX.@@..X.@.XX,,XX>>>>::*:>*XX,,,,",
",,,,,,,,,,,,,,,,,,,,,,,,,,,,,,XX..@@%..@@.XX,,XX>>:>:**:>:XX,,,,",
",,,,,,,,,,,,,,,,,,,,,,,,,,,,,XX.@@.%%%%@@@.XXXX>>>:>:**:>:XX,,,,",
",,,,,,,,,,,,,,,,,,,,,,,,,,XXXX.@%%@@@%%@%%.XXXX>>::>:*&:>:XX,,,,",
",,,,,,,,,,,,,,,,,,,,,,,,XXXXXX.@@.@..%@@...XXX>>*:*>:*&:>:XX,,,,",
",,,,,,,,,,,,,,,,,,,,,,XXXX....@@.%@@.@%%@@@.XX>>*:*>:*&:>:XX,,,,",
",,,,,,,,,,,,,,,,,,,,,XXX..%%%.@.%%@%@%@%%@@@.>>:*:*>:*&:>:XX,,,,",
",,,,,,,,,,,,,,,,,,,,XXX.%%%@...%@@%@@%%@.@@.X>>:*:*>:&*:>:XX,,,,",
",,,,,,,,,,,,,,,,,,,,XX.%%@......%@.@@.@%@..@.>>:&:*>:&::>:XX,,,,",
",,,,,,,,,,,,,,,,,,,XX.%@...    .@@.@.#.@@.#..:::&**::&::>:XX,,,,",
",,,,,,,,,,,,,,,,,,,XX.%...  OO .O@...=;.@.= ##:*&**:*&::>:XX,,,,",
",,,,,,,,,,,,,,,,,,XX.%@...  O  .O..#.=;#@.# =#:*&**:*&::>:XX,,,,",
",,,,,,,,,,,,,,,,,,XX.%...  O   . #O#=##.= OO  :*&**:*&:>>:XX,,,,",
",,,,,,,,,,,,,,,,,,XX.%...   OO   $O    oooOO ::*&**:*&:>>:XX,,,,",
",,,,,,,,,,,,,,,,,,XX.%....  OOO  O-$#o*>>*X X:**&**:&*:>>*XX,,,,",
",,,,,,,,,,,,,,,,,,XX.@..... OOOO OO+Oo>::*& X:**&**:&*:>>*XX,,,,",
",,,,,,,,,,,,,,,,,,,XX @..... OOO O+++o*::&&XX:*&&*::&::>>*XX,,,,",
",,,,,,,,,,,,,,,,,,,XXX ......    O+++Oo&&&oXX:*&&*:*&::>:&XX,,,,",
",,,,,,,,,,,,,,,,,,,,XXX @....   OO+++OXXXXXXX:*&&*:&*:>>:&XX,,,,",
",,,,,,,,,,,,,,,,,,,,,XXX     XX O+++OOO XXXXX:*&*::&*:>>*XX,,,,,",
",,,,,,,,,,,,,,,,,,,,,,XXXXXXXXX +++OOO XXX,XX**&*:*&::>>*XX,,,,,",
",,,,,,,,,,,,,,,,,,,,,,,,XXXXXXX +++OO OXX,XX&*&&::&*::>:&XX,,,,,",
",,,,,,,,,,,,,,,,,,,,,,,,,,,,XX @++OO@ XX,,XX&*&*:*&:::>:XX,,,,,,",
",,,,,,,,,,,,,,,,,,,,,,,,,,,,XX .@@@@. XX,XX&*&&*:&*::>>*XX,,,,,,",
",,,,,,,,,,,,,,,,,,,,,,,,,,,XX OO....O  XXXX&*&*:*&:::>>&XX,,,,,,",
",,,,,,,,,,,,,,,,,,,,,,,,,,XXX O++OO OO XXX&*&&**&*:::>:XX,,,,,,,",
",,,,,,,,,,,,,,,,,,,,,,,,,XXOO++O   OOO XXX&*&**&&:::>>*XX,,,,,,,",
",,,,,,,,,,,,,,,,,,,,,,,,XXOO++O XXX OO XX&*&&*&&*:::>:XX,,,,,,,,",
",,,,,,,,,,,,,,,,,,,,,,,XX O++O XXXX OO..X&&&*&&*:::>:*XX,,,,,,,,",
",,,,,,,,,,,,,,,,,,,,,,,XXOO. XXX,XXX.....&&*&&*:::>:*XX,,,,,,,,,",
",,,,,,,,,,,,,,,,,,,,,,,,X..@@.XXXXXXX...&&*&&*:::>:*&XX,,,,,,,,,",
",,,,,,,,,,,,,,,,,,,,,,,,X.@@@.XXXoooo&&&**&&*:::>:*&XX,,,,,,,,,,",
",,,,,,,,,,,,,,,,,,,,,,,,,X...oooo&&&****&&&*:::::*&XX,,,,,,,,,,,",
",,,,,,,,,,,,,,,,,,,,,,,,,,,,,,XXXXXXXX&&&*::::::*&XX,,,,,,,,,,,,",
",,,,,,,,,,,,,,,,,,,,XXXXXXXXXXXXXooo&&&*::>>>:**XXX,,,,,,,,,,,,,",
",,,,,,,,,,,,,,,,XXXXXXXXXXXooooo&&&&&*::>>>:*XXXXX,,,,,,,,,,,,,,",
",,,,,,,,,,,,,,,XXXXX&ooooo&&&&&***:::>>>:*&XXXXX,,,,,,,,,,,,,,,,",
",,,,,,,,,,,,,,XX******:::::::::>>>::*&&XXXXXX,,,,,,,,,,,,,,,,,,,",
",,,,,,,,,,,,,,,XXXXXXXXXXXXXXXXXXXXXXXXXXXX,,,,,,,,,,,,,,,,,,,,,",
",,,,,,,,,,,,,,,,XXXXXXXXXXXXXXXXXXXXXXX,,,,,,,,,,,,,,,,,,,,,,,,,",
",,,,,,,,,,,,,,,,,,,,,,,,,,,,,,,,,,,,,,,,,,,,,,,,,,,,,,,,,,,,,,,,",
",,,,,,,,,,,,,,,,,,,,,,,,,,,,,,,,,,,,,,,,,,,,,,,,,,,,,,,,,,,,,,,,",
",,,,,,,,,,,,,,,,,,,,,,,,,,,,,,,,,,,,,,,,,,,,,,,,,,,,,,,,,,,,,,,,",
",,,,,,,,,,,,,,,,,,,,,,,,,,,,,,,,,,,,,,,,,,,,,,,,,,,,,,,,,,,,,,,,",
",,,,,,,,,,,,,,,,,,,,,,,,,,,,,,,,,,,,,,,,,,,,,,,,,,,,,,,,,,,,,,,,",
",,,,,,,,,,,,,,,,,,,,,,,,,,,,,,,,,,,,,,,,,,,,,,,,,,,,,,,,,,,,,,,,",
",,,,,,,,,,,,,,,,,,,,,,,,,,,,,,,,,,,,,,,,,,,,,,,,,,,,,,,,,,,,,,,,",
",,,,,,,,,,,,,,,,,,,,,,,,,,,,,,,,,,,,,,,,,,,,,,,,,,,,,,,,,,,,,,,,",
",,,,,,,,,,,,,,,,,,,,,,,,,,,,,,,,,,,,,,,,,,,,,,,,,,,,,,,,,,,,,,,,",
",,,,,,,,,,,,,,,,,,,,,,,,,,,,,,,,,,,,,,,,,,,,,,,,,,,,,,,,,,,,,,,,"
};
