/* XPM */
static char *_7833_8305d977e2111e829d2358ab3218fb682bb6b0d566eadd5caaa6c860fdba3453[] = {
/* columns rows colors chars-per-pixel */
"64 64 20 1 ",
"  c #211223",
". c #5F002A",
"X c #772A2A",
"o c #5B3356",
"O c #545778",
"+ c #9D0701",
"@ c #D5062A",
"# c #A0592A",
"$ c #D04A01",
"% c #EC8300",
"& c #B38449",
"* c #6A8580",
"= c #00A5C1",
"- c #9FB3A1",
"; c #FF9581",
": c #FFD980",
"> c #FFCABE",
", c #DCD5C5",
"< c white",
"1 c None",
/* pixels */
"1111111111111111111111111111111111111111111111111111111111111111",
"1111111111111111111111111111111111111111111111111111111111111111",
"1111111111111111111111111111111111111111111111111111111111111111",
"1111111111111111111111111111111111111111111111111111111111111111",
"1111111111111111111111111111111111111111111111111111111111111111",
"1111111111111111111111111111111111111111111111111111111111111111",
"1111111111111111111111111111111111111111111111111111111111111111",
"1111111111111111111111111111111111111111111111111111111111111111",
"1111111111111111111111111111111111111111111111111111111111111111",
"11111111111111111111111111111111111o1111111111111111111111111111",
"1111111111111111111111111111111111ooo111111111111111111111111111",
"111111111111111111111111111111111ooXoo11o11111111111111111111111",
"1111111111111111111111111111111oooX#Xooooo1111111111111111111111",
"111111111111111111111111111111ooooX##XooXoo111111111111111111111",
"11111111111111111111111111111ooXXX##&XoX#Xoo11111111111111111111",
"1111111111111111111111111111ooX###X&&XX##Xoo11111111111111111111",
"111111111111111111111111111ooX#&&##&&###&Xoo11111111111111111111",
"11111111111111111111111111ooX####&#&&#&&Xoo111111111111111111111",
"11111111111111111111111111ooX##X#XX&##XXXoo111111111111111111111",
"1111111111111111111111111ooX##X&##X#&&###Xoo11111111111111111111",
"1111111111111111111111111ooX#X&&#&#&#&&###Xoo1111111111111111111",
"11111111111111111111111111ooXX&#&&#&&X#&Xooo11111111111111111111",
"1111111111111111111111111ooX&##&##&&#X##Xoo111111111111111111111",
"1111111111111111111111111ooX&#X##X#&#X$#Xoo111111111111111111111",
"1111111111111111111111111ooX##X#X$X##X #Xoo11ooo1111111111111111",
"11111111111111111111111111oo#X$#>;X#X;=Xoo11ooooo111111111111111",
"11111111111111111111111111ooXo$X>>;#X>;$oo1ooXXooo11111111111111",
"1111111111111111111111111oooo..+$;>X>>;oo1ooX#&Xooo1111111111111",
"111111111111111111111111ooOOOO+%@$;>>;..oooX#&XX.oo1111111111111",
"11111111111111111111111ooO-<<-o+<@+$$$...oX#&#X#X.oo111111111111",
"11111111111111111111111ooO<,,-*o@:@++$.++.X&X#X#X.oo111111111111",
"11111111111111111111111ooO-,,**o@@:@+%.++X#&#X#XX.oo111111111111",
"11111111111111111111111oo+O***Oo@@@%%...+X&X#X#XX.oo111111111111",
"1111111111111111111111oo+++oooo+@@@@+.oo.X&X####X.oo111111111111",
"111111111111111111111oo+@@+++.++@@@@+.ooX#&X###XX.oo111111111111",
"11111111111111111111oo+@@@++o.+@@@@+++ooX&#X###X.oo1111111111111",
"1111111111111111111oo+@@@++ooX+@@@++#.ooX&#X#X#X.oo1111111111111",
"1111111111111111oooo+>;@+oooo.X#####X.ooX&#X#X#X.oo1111111111111",
"111111111111111ooooo>>;$oooo.++XXXXX..ooX&#X#XX.oo11111111111111",
"11111111111111oo,,,Oo$;oo1oo.+@@++.++.ooo.&X#XX.oo11111111111111",
"111111111111111ooOO-Oooo1oo++@@+++.+++.ooo.X#X.oo111111111111111",
"11111111111111oo,*-O-oo1oo++@@+.ooo.++.oooo...oo1111111111111111",
"1111111111111oo<*O-O-oooo++@@+ooooo.++XXo1ooooo11111111111111111",
"111111111111oo<*O-oo*oooo++X.ooo11ooXXXXXo1ooo111111111111111111",
"11111111111oo<*O-ooooo1ooXX##Xoo1111oXXXo11111111111111111111111",
"1111111111oo<*O-oo11o111oX###Xo111111111111111111111111111111111",
"111111111oo<*O-oo11111111oXXXo1111111111111111111111111111111111",
"11111111oo<*O-oo111111111111111111111111111111111111111111111111",
"1111111oo<*O-oo1111111111111111111111111111111111111111111111111",
"111111oo<*O-oo11111111111111111111111111111111111111111111111111",
"111111oo,,-oo111111111111111111111111111111111111111111111111111",
"111111oooooo1111111111111111111111111111111111111111111111111111",
"111111ooooo11111111111111111111111111111111111111111111111111111",
"1111111111111111111111111111111111111111111111111111111111111111",
"1111111111111111111111111111111111111111111111111111111111111111",
"1111111111111111111111111111111111111111111111111111111111111111",
"1111111111111111111111111111111111111111111111111111111111111111",
"1111111111111111111111111111111111111111111111111111111111111111",
"1111111111111111111111111111111111111111111111111111111111111111",
"1111111111111111111111111111111111111111111111111111111111111111",
"1111111111111111111111111111111111111111111111111111111111111111",
"1111111111111111111111111111111111111111111111111111111111111111",
"1111111111111111111111111111111111111111111111111111111111111111",
"1111111111111111111111111111111111111111111111111111111111111111"
};
