/* XPM */
static char *Character_SpriteSheet_201636046541[] = {
/* columns rows colors chars-per-pixel */
"64 64 136 2 ",
"   c #211223",
".  c #5F002A",
"X  c #4C3E3C",
"o  c #772A2A",
"O  c #4F413F",
"+  c #5B3356",
"@  c #4F4240",
"#  c #524543",
"$  c #564C46",
"%  c #5A4C45",
"&  c #554C4B",
"*  c #5A4E4B",
"=  c #5C5047",
"-  c #5D514D",
";  c #5F5452",
":  c #604F4D",
">  c #625247",
",  c #64534C",
"<  c #68554D",
"1  c #69594E",
"2  c #615653",
"3  c #695751",
"4  c #655A55",
"5  c #6B5B54",
"6  c #615758",
"7  c #645B5B",
"8  c #6B5E5B",
"9  c #725D54",
"0  c #725E5D",
"q  c #6E6057",
"w  c #6D615C",
"e  c #716056",
"r  c #73625B",
"t  c #79655E",
"y  c #79685E",
"u  c #545778",
"i  c #6C6361",
"p  c #746462",
"a  c #7A6661",
"s  c #756A66",
"d  c #7C6A64",
"f  c #776C6A",
"g  c #7A6D6B",
"h  c #7F7065",
"j  c #7E716D",
"k  c #7E7372",
"l  c #9D0701",
"z  c #D5062A",
"x  c #A0592A",
"c  c #D04A01",
"v  c #816E66",
"b  c #816E6A",
"n  c #827067",
"m  c #84726C",
"M  c #89756D",
"N  c #85796F",
"B  c #8B796F",
"V  c #817573",
"C  c #8A7674",
"Z  c #847976",
"A  c #8C7B74",
"S  c #867B79",
"D  c #8C7D7A",
"F  c #917D75",
"G  c #927E7B",
"H  c #EC8300",
"J  c #B38449",
"K  c #8F8077",
"L  c #8E817C",
"P  c #938177",
"I  c #93837C",
"U  c #99857E",
"Y  c #96887F",
"T  c #99887E",
"R  c #6A8580",
"E  c #00A5C1",
"W  c #8E8381",
"Q  c #948582",
"!  c #998683",
"~  c #968881",
"^  c #9C8B83",
"/  c #958989",
"(  c #9E8C8B",
")  c #9F908E",
"_  c #9E9392",
"`  c #A18E86",
"'  c #A28F8A",
"]  c #A88F8E",
"[  c #A29087",
"{  c #A4918B",
"}  c #A9948E",
"|  c #A9988E",
" . c #A38F91",
".. c #A49392",
"X. c #AA9593",
"o. c #A69995",
"O. c #AD9B95",
"+. c #AA9798",
"@. c #AD9C9A",
"#. c #B19B96",
"$. c #B39E9A",
"%. c #B89E9B",
"&. c #AEA09C",
"*. c #B1A096",
"=. c #B4A29C",
"-. c #B9A49E",
";. c #BAA99F",
":. c #AE9FA0",
">. c #B39FA2",
",. c #9FB3A1",
"<. c #B5A5A2",
"1. c #BAA5A2",
"2. c #B7A9A1",
"3. c #BDABA4",
"4. c #B7ABAD",
"5. c #BDACAA",
"6. c #BFB1A7",
"7. c #BFB1AA",
"8. c #FF9581",
"9. c #C2A6A4",
"0. c #C3ACA6",
"q. c #C5ADA9",
"w. c #C8AFAB",
"e. c #C2B1A6",
"r. c #C4B2AC",
"t. c #CAB5AE",
"y. c #C7B8AF",
"u. c #C4AFB0",
"i. c #C5B5B1",
"p. c #C9B6B1",
"a. c #C7B8B2",
"s. c #CABAB3",
"d. c #FFD980",
"f. c #FFCABE",
"g. c #DCD5C5",
"h. c white",
/* pixels */
"& $ = & # $ $ # & $ & & & # & & O $ $ $ $ $ & $ & & & * $ & & & & & & & & & & & & & & & @ # # & & & & & & & & & & & & & & & & & ",
"$ # X X O + O O X O O O O O O O O + O $ & $ & & $ O @ @ O + @ O # * * & & - = & = - * - * * - ; * - * & * & * ; : * - & & & $ & ",
"& & f L S S S S Z S S W S L k Z Z Z Z S K K k k L W L S b 8 # # ; k k k k V k Z k k Z k k k k k k k k k V V V V S S S S k f 7 $ ",
"& * S o._  ._ ( _ _ _ _ _ _ _ _ o._ o.o._ _ _ o._ &.<.<.( d % # q k / _ .._ _ ..o._ .._ _ o.o._ o...o..... ...o.+.+.+.4._ k 6 $ ",
"$ = S ) ) ) (  ...@.@.@._ _ _ ...._ ..{ ..) ....o.o.<.=.! p # X - k / ) _ ) ) ) ) ) { _ ) ) .._ _ _ ( _ )  .' ..o.&.:.4._ k ; & ",
"& * S _ { ..+.+.:.1.4.4.&.o.@.o.o.o.o.o.o.o.{ o.@.&.s.5.{ m 2 % w S ) o.o...{ | ..{ ..{ ....{ { ..o...o.......+.&.4.4.7.:.k ; $ ",
"$ * L _ ( '  . .:.<.5.<.@.o.o.o.| { ..{ { ) ) [ @.5.y.3.{ m 5 3 s G _ o.| [ ) ) [ ) { [ ) [ { ) ( { ) ( ' ' ( ..@.:.7.7.&.k ; & ",
"$ - W o...+.+.+.+.@.@.=.@.@...{ ) ) { { [ ) ) { o.6.y.2.( m 8 3 s I { ..{ [ ( ( ( ' ( ( ` ) ( ( [ ( ' ' ( '  ...@.<.7.7.&.k ; $ ",
"& * D +.+.>.>.+.+... . .+.@.+.X.} ) [ { ) [ { ..@.3.t.3.^ m 5 3 d G ] ....[ [ ' ( ' ' { ' ' ' { { ( ' ' ] ' ' X.@.$.5.u.:.V ; $ ",
"& * D +.+.>.>.>.X./ C D ' +.$.O.X.X.| [ { { [ ..$.3.a.3.! V 5 < a + ' | { { ' { { ' [ ( { ' ' { { { { ' ' ' ' } @.>.5.7.:.V ; $ ",
"& * W +.%.9.u.4. .V 0 0 F ..$.=.#.O.| { ) { { } @.0.t.;.^ m 9 < + + + X.} [ ' [ ' { ' ' ' [ [ { { ( ' ' ' ' ' ] +.$.q.u.&.Z ; $ ",
"& * G +.+.9.9.>.! b 0 0 C ' @.$.#.#.{ { [ [ ' ..#.3.t.0.^ m 5 + + o + + { { + [ [ ' { [ [ ( { ' { [ ' ' ] ' ' } #.%.5.i.=.V ; $ ",
"$ * D +.+.+.] ! G b d b F ! ` } | { { ' [ [ [ { O.;.t.3.^ + + + o x o + + + + + ' [ ' ' ' ' ' ' ' ' ' ' ' ' ' } #.=.5.r.&.V ; $ ",
"$ * Q @.( G b b b C C F D C C F P U ` ` ' ` ' } #.3.t.;.+ + + + o x x o + + o + + { { [ [ [ ' { { ' { [ ' [ ] } #.$.3.i.<.Z ; $ ",
"& * Q +.D g 0 0 p m G U C b d d m F T ( ' ' [ { #.3.t.+ + o o o x x J o + o x o + + ' [ { { ' [ { ' ' { { ' [ } +.-.3.r.&.Z ; $ ",
"& & W ) C b 0 0 b D ! ! C b a v m A T ` ' ` [ } O.3.+ + o x x x o J J o o x x o + + { ' ' [ { ' { [ ' { [ { [ { #.$.3.y.&.Z 4 $ ",
"$ * S G C b g b C ! ` ( G C b m M G U ` ' ' [ } O.+ + o x J J x x J J x x x J o + + { { { { } [ { { { [ [ ] [ } #.%.0.y.=.S 2 $ ",
"& * g V b C V D Q ` ' ' ! G A A G U ` ` ` ` { { + + o x x x x J x J J x J J o + + } [ ' [ ' [ { [ { { { [ ] [ } #.-.e.e.=.V ; $ ",
"$ & f s b D G ! ( ' X...` ! ! U ` ` ' ` ' ` ` } + + o x x o x o o J x x o o o + + [ [ [ { ' [ { [ ] ' { [ [ [ } #.-.0.t.<.Z 2 $ ",
"$ - f f b G `  .]  .} ..] ] ` ` ' { { { [ [ { + + o x x o J x x o x J J x x x o + + } ' [ } { { { { { [ } [ [ } *.-.0.e.&.Z ; $ ",
"& * g k V !  . .] { { { ] ' ] ] { ] ' ] ' { { + + o x o J J x J x J x J J x x x o + + ' { { { { { { { { ` ` [ } o.-.q.r.=.V ; $ ",
"& * k D D !  . .' ' ' ' ' ` ^ ` [ [ [ ` ' ` [ } + + o o J x J J x J J o x J o + + + [ [ ` { ` [ { ` ' [ ` ` ` } #.-.q.i.<.Z ; $ ",
"& * V / ! !  . .] ( ` ` ` ^ ` ` [ ` ` ` ` ` ` + + o J x x J x x J J x o x x o + + ` [ ` ` ` ` ` ` ` ` ` ` ` ` } *.-.7.i.:.Z ; $ ",
"* * S  . . .] ] {  . .' ] ' [ ' [ ' ' [ [ { { + + o J x o x x o x J x o c x o + + ] ` ' ` [ ` ` ` ' ' ` ` ` ` } #.1.r.i.<.Z ; $ ",
"& * S >.+.+.+.+.@.%.+.X.X.} } } } } } #.| } #.+ + o x x o x o c o x x o   x o + + + } } { } } } } [ } } } } X.#.*.3.q.i.<.S 2 $ ",
"& * W 4.>.>.<.1.1.>.>.%.%.%.%.-.%.%.-.%.-.=.-.;.+ + x o c x f.8.o x o 8.E o + + + + + $.$.%.%.%.*.%.%.%.%.%.%.%.-.3.p.p.:.V 6 $ ",
"& * Q u.4.q.u.q.w.w.w.w.0.q.w.e.0.0.0.0.0.3.r.e.+ + o + c o f.f.8.x o f.8.c o o o o + + 0.0.0.0.0.0.9.w.0.9.q.9.0.r.s.p.@.j 6 $ ",
"& * W 4.<.1.q.q.q.9.w.w.q.w.w.e.e.0.0.0.3.3.r.e.r.+ + + l c c 8.f.o f.f.8.o x x J J o + + 0.0.0.0.w.w.w.9.w.w.9.0.w.p.i.o.j 4 $ ",
"& * S o.(  .@.$.%.+.#.#.$.$.$.@.#.#.O.O.| O.*.*.*.+ + u u u c c 8.f.f.8.c J o o o x J o + + O.#.#.#.#.#.#.#.#.+.#.$.>.>.( f 8 $ ",
"% * k D b V D D G F F D G D P L K K K A K A K I + + u ,.h.h.,.+ H c c l l o o o o o J J o + + D F F F G D G G G G F Q Q Z w 6 $ ",
"$ * 2 w 8 5 5 5 3 3 4 5 5 5 5 4 5 4 1 1 1 1 1 q + + u h.g.g.,.R + d.l l c . o o o o o J J o + + 5 4 3 3 3 3 3 3 3 3 5 - % $ & $ ",
"& = * * * * * & * % * % & % = = = = = % O = = = + + u ,.g.g.R R + H d.H . . . o o o o x J o + + $ # $ $ # $ $ $ $ $ % = $ $ $ $ ",
"& & * : 3 8 w 8 w w w w w w r r q q q q q 5 e + + l z u R R R u + z l l . . . . o o o o J J o + + 4 q 4 4 4 0 0 0 9 0 a p ; ; & ",
"$ * k k s V S D K Z Z S K A Z A K K K N N N + + l z z z + + + + z z z z . . l l c o o o J J o + + m j j b b b C F C G Q C 8 6 : ",
"$ * V G C Q ! / ~ ~ / ! Y Y ^ T Y Y Y Y Y U + + l z z l l z z z z z z . . o . l 8.8.o o J J o + + ~ ~ ~ U ! U ` '  .$.@./ i i * ",
"& * V ' /  .' ] { [ { [ [ } { [ ) ) [ [ ( ( + + l z z l l l z z z z l . o o o . c 8.o o J x o + + O.O.X.X.#.X.%.$.>.1.1.( s i * ",
"$ * Z .. .X.] X...] ] X.} ] } } [ } } } { { + + l z l + . x l l l x x . o o o o o o o o J x o + + %.%.%.%.%.%.%.%.$.>.$./ p 8 * ",
"$ * V .. .]  .] ] ] ] ] ] ] ' } | [ [ [ [ { + + 8.f.8.+ u R R x x o . + . o o o o o o o x . + + -.1.9.9.9.9.9.9.#.] ! I V 7 ; * ",
"& & V .. .X.X. .] ] ' ] } ' } ' } ' { { [ ' + + f.f.f.u ,.u l l z . + + + . o o o o o o . + + 0.0.0.w.w.w.t.t.w.X.G b p 5 & & & ",
"$ ; k .. ...] ' ] } ] { ' ] ' { ' { ' { ' ' [ + + + + ,.u g.g.g.z z . + + + . . o o x . + + 0.q.0.t.t.t.t.t.t.9.] F d 4 : # & # ",
"$ - V .... .] ] ] ' { ] { ] } ] ] [ ] [ [ ] [ + + . u ,.u u u R g.g.z . + + + + . . . + + #.-.%.#.#.#.#.#.#.%.T ` F m a 0 : & & ",
"$ - V .. .+...] ] }  .{ ] { { { ' } { [ ' [ { + + . u R u R ,.u u R g.g.. + + + + + + + } ` T U P F B B B F B M F U ` P V 8 7 = ",
"$ - k ..' X.'  .{  .] ..{ { { ' { ' } ] [ ' [ + + o o u o o + R ,.u u R g.g.+ + + + + #.} P b t v 9 v < v 9 9 v M U #.X.! s 7 = ",
"$ - V .. ...] .. .{ ' ' ' { { } } [ ' ' ' [ { } + o o o o o + + + R ,.,.u u g.g.+ + =.*.` F 0 , > > < < > > > 9 v ` %.-...j 7 - ",
"& * S  . .X. . .] ] ' { { ' } ' } ' { [ ' [ { } O.+ o o o + < , + + + o R ,.R ,.g.+ + { ^ M t 9 < 9 9 < 9 1 9 e M ` 2.7.@.k 7 - ",
"& * V .. .X.] ' ..] { ] ] } ' [ ' [ } ] [ { { { #.;.q.0.} m < , t + + o x x x o + + U P A M b v v v v v v v v M U O.e.r.o.g 7 - ",
"$ * V .. . . .] ] { ' ] { { ' } } ' ' ' { [ [ } O.;.r.3.{ m 1 < a U } + o o o + } U m v v M A F F F G G U P F U ` -.r.a.@.j 7 - ",
"* * V ..X.X.X. .{ ] } ' } { ' } } ' } ' [ ' { { O.;.e.5.} m 1 > a P } @.-.;.3.=.[ B a t v M F U ` ` ` [ [ T T ` } -.r.a.@.f ; - ",
"& * V +.X.X. ... .{ ] { { { } { { { { { { { [ } o.3.e.0.} n 3 < a P | *.=.-.=.| U m y d n B T T ` ' } ] T #.T #.#.-.t.y.*.s ; - ",
"$ * V .. ...] { ..{ ..{ { { } { [ } { { { [ [ } O.;.r.3.} M 5 < v U X.*.*.| [ T F m n M B P T T ` [ [ [ #.T #.T T -.t.t.*.h ; - ",
"& * V ....X... .] { ..{ X.{ { { [ { | [ [ [ { } #.;.q.3.[ M 1 1 v T =.;.#.P m h v M A P U U T ^ ` ' [ [ T #.T } *.%.w.t.&.f ; ; ",
"& * k +. .X.} } ] { { { { { { { | [ [ [ ` [ { } O.;.e.;.| n 9 1 v [ 3.e.| B q 1 t m P T [ [ [ [ [ [ [ { } T } | #.%.w.t.&.j ; - ",
"$ * V ..} ..{  .{ ..{ ) { { { { [ [ | [ [ [ ) | #.;.e.e.} n 1 1 n [ e.e.| n 1 1 r N P [ [ | [ ) } [ [ [ [ [ } T } -.y.a.&.f ; ; ",
"$ - k o.} o.....{ { { { { { } { | [ ) [ [ ^ [ [ O.;.e.;.| n 1 1 d [ ;.6.| n 1 1 y B T [ | [ [ | [ [ [ [ [ [ T [ } =.r.a.&.s ; - ",
"$ * V ..{ ..{ ' ..{ { { { [ [ [ | [ [ | ^ [ ^ | *.;.e.e.| m 1 > y [ ;.;.[ n < < y K T [ [ [ [ [ [ [ [ [ [ T } [ } -.r.a.&.f ; ; ",
"& - V ..{ ..{ ' ' ( [ [ ) [ ) [ [ [ ^ T ) ^ ( | | ;.e.e.[ m 1 > y [ ;.;.[ n 1 < y P ^ ^ [ [ ^ [ [ [ [ [ [ ` T } | -.r.a.&.k ; ; ",
"& * V @.+.+.+. ...{ ..} { [ } { } [ [ [ [ { | | *.;.e.6.} m 3 > r U o.@.^ n r r m ~ ) [ } [ [ } [ [ [ [ [ [ [ [ | -.y.i.o.f 6 - ",
"& * S 4.<.1.=.>.<.&.&.@.&.&.&.=.&.=.&.*.&.&.=.=.;.6.y.6.} m 5 , q n P ! P A V A ^ | o.*.&.*.@.@.*.*.o.O.*.O.#.@.*.3.a.i.@.f ; - ",
"% - S i.i.i.i.u.u.i.5.r.r.7.r.7.7.7.7.7.6.7.7.7.y.y.s.6.) n 3 , 1 r g m K Y [ &.2.5.6.7.7.7.7.7.7.5.5.7.6.3.3.6.0.r.s.a.:.k 6 ; ",
"$ * S 7.i.p.p.i.i.i.i.i.i.r.y.y.a.y.7.y.7.r.r.a.y.s.a.2.~ h 3 : , 5 r d Z ) =.5.7.7.r.y.a.r.a.a.a.a.r.y.y.y.e.r.e.r.t.a.:.k 6 - ",
"& - k @.&.<.1.<.<.<.<.<.<.2.<.<.<.2.=.:.=.&.2.4.6.6.=.| C r 3 * & 2 5 r h ~ | o.o.&.o.&.&.&.&.=.&.&.&.=.&.*.-.;.2.2.=.:._ f ; ; ",
"$ - f D W ! / Q Q Q Q Q W ~ ~ / Q I ~ L L L Q ^ ) ( Y Z s 3 * % % - , 4 w V Z L S K L L L L L W L L L L L I I ^ ) ~ Y W Z 8 ; ; ",
"& - w w 8 8 8 w i i w w w w w w 8 w w w w w w w s s s & * & # * $ & ; & - s s s f j h j j j j j k h j j j h n Z N j s s i ; 7 ; ",
"$ & 6 ; 2 7 2 6 2 ; 2 2 2 ; ; ; 2 ; ; ; ; ; 4 ; - ; - = * * $ $ # $ $ $ - - ; - - - ; - - - ; - ; ; , - - 4 ; ; - - ; ; ; - ; & "
};
