/* XPM */
static char *Character_SpriteSheet_181636046540[] = {
/* columns rows colors chars-per-pixel */
"64 64 133 2 ",
"   c #211223",
".  c #5F002A",
"X  c #4C3E3C",
"o  c #772A2A",
"O  c #4F413F",
"+  c #5B3356",
"@  c #4F4240",
"#  c #524543",
"$  c #564C46",
"%  c #594D46",
"&  c #554C4B",
"*  c #5A4E4B",
"=  c #5C5047",
"-  c #5D514D",
";  c #5F5452",
":  c #604F4D",
">  c #625247",
",  c #64534C",
"<  c #69554D",
"1  c #69594E",
"2  c #615653",
"3  c #695751",
"4  c #655A55",
"5  c #6B5B54",
"6  c #615758",
"7  c #645B5B",
"8  c #6B5E5B",
"9  c #725D54",
"0  c #725E5D",
"q  c #6D615C",
"w  c #716056",
"e  c #73625B",
"r  c #79655E",
"t  c #79685E",
"y  c #545778",
"u  c #6C6361",
"i  c #746462",
"p  c #7A6661",
"a  c #756A66",
"s  c #7C6A64",
"d  c #776C6A",
"f  c #7A6D6B",
"g  c #7F7065",
"h  c #7E716D",
"j  c #7E7372",
"k  c #9D0701",
"l  c #D5062A",
"z  c #A0592A",
"x  c #D04A01",
"c  c #816E66",
"v  c #816E6A",
"b  c #827067",
"n  c #84726C",
"m  c #89756D",
"M  c #8B796F",
"N  c #817573",
"B  c #8A7674",
"V  c #847975",
"C  c #8C7A74",
"Z  c #867B79",
"A  c #8C7D7A",
"S  c #917D75",
"D  c #927E7B",
"F  c #EC8300",
"G  c #B38449",
"H  c #8E8077",
"J  c #8E817C",
"K  c #938177",
"L  c #93827C",
"P  c #99857E",
"I  c #99887E",
"U  c #6A8580",
"Y  c #00A5C1",
"T  c #8E8381",
"R  c #948582",
"E  c #998683",
"W  c #968882",
"Q  c #9C8A83",
"!  c #958989",
"~  c #9E8C8B",
"^  c #9F908E",
"/  c #9E9392",
"(  c #A28E86",
")  c #A28F8A",
"_  c #A88F8E",
"`  c #A29087",
"'  c #A4918B",
"]  c #A9948E",
"[  c #A9988E",
"{  c #A38F91",
"}  c #A49392",
"|  c #AA9593",
" . c #A69995",
".. c #AD9B94",
"X. c #AA9798",
"o. c #AD9C9A",
"O. c #B19C96",
"+. c #B29E9A",
"@. c #B89E9B",
"#. c #AEA09C",
"$. c #B1A096",
"%. c #B4A29C",
"&. c #B9A49E",
"*. c #BAA99F",
"=. c #AE9FA0",
"-. c #B39FA2",
";. c #9FB3A1",
":. c #B5A5A2",
">. c #BAA5A2",
",. c #B7A9A1",
"<. c #BDACA4",
"1. c #B7ABAD",
"2. c #BDACAA",
"3. c #BFB1A7",
"4. c #BFB1AA",
"5. c #FF9581",
"6. c #C2A6A4",
"7. c #C2ACA6",
"8. c #C5ADAA",
"9. c #C8AFAB",
"0. c #C2B1A6",
"q. c #C4B3AC",
"w. c #CAB5AE",
"e. c #C7B8AF",
"r. c #C4AFB0",
"t. c #C5B5B1",
"y. c #C9B6B1",
"u. c #C7B8B2",
"i. c #CABAB3",
"p. c #FFD980",
"a. c #FFCABE",
"s. c #DCD5C5",
"d. c white",
/* pixels */
"& $ = & # $ $ $ $ & & & & $ $ & $ & $ $ $ $ $ & & & & * $ & & & & & & & & & & & & & & & @ & & & & & & & & & & & & & & & & & & & ",
"$ # X X O + O O X O O O O O X O O O @ $ & & & # # O @ @ O + @ O $ & * = * - % & = - * * % & * - & * * * % * - - - * & - & * & & ",
"& & d J Z Z Z Z j Z Z T Z J j j Z Z Z Z V Z V Z J T Z Z N 5 # # 2 j j j j j j N j j N j j j j j j j j N N N N N Z Z Z j j d 6 & ",
"& * Z  ./ / { ~ / / / / / / /  ./ }  . .} } } }  .o.:.,.Q p : # 4 j ! / / } /  . ./  ./  . . ./  .} }  .} } } } X.X.=.1./ f 6 % ",
"$ - Z ^ ^ / ~ { } o.=. ./ /  ./ } } ^ ' ' ^  .}  . .%.:.E i # X ; j W / } ^ ^ ^ ^ ^ ' / ' / ^ ^ / / ^ ^ ^ { ' }  . .=.1./ j ; & ",
"$ & Z / ~ } { X.=.:.1.2.#. .X.X. . . . . . .' } o.o.i.2.' n 2 & 8 A ^  . .} } ' } ' } ' } ' } } ' } }  .} } } X.=.1.4.4.=.j ; & ",
"$ = T } ~ ) { X.o.:.2.:.o. . . .' }  .' ' ^ ^ ' o.2.e.<.' m 5 3 i L ^  .] ^ ^ ^ ^ ` ' ` ^ ^ ) ^ ~ ' ^ ~ ~ ~ { } o.:.1.4.#.V ; & ",
"$ - J  .} X.X.X.X.=.=.+.o.X. .' ` ^ ^ ' ^ ' ^ ' o.2.e.,.Q N 5 3 a L ' } ' ` ` ~ ~ ) ~ ~ ( ` ) ~ ' ~ ) ) ) ) ~ } X.:.4.4.#.j ; $ ",
"& * A X.X.-.-.X.X.X.{ { X.o.X.| ' ` ' } ' ^ ` } o.<.e.<.Q N 5 3 a D _ | ] ^ ) ` ~ ) ) ~ ` ) ) ' ' ' ) ) ) ( ) | X.:.2.r.=.N ; $ ",
"& * A X.X.-.-.-._ R B A ) X.+.X...[ ' ' ' ` ^ ] +.7.e.<.Q n 5 3 p + ` ] } ' ( ) ` ' ) ' ) ) ) ' ^ ~ ' ' ) ) ) _ ..%.2.r.#.N 2 $ ",
"& * T X.@.6.r.1.{ B 0 0 D } %.%.o.[ ] ' ' ' ' ] o.7.w.<.E n 9 < + + + } ] ` ' ` ` ) ` ) ) ` ` ' ' ) ) ) ) ) ) | X.%.2.t.%.N ; $ ",
"& * D X.X.6.6.-.E v 8 0 B ) ..%.+...] ' ~ ` ` } O.<.w.7.I n 5 + + o + + ' ' + ` ' ' ` ) ) ^ ) ) ) ) ) ) _ ) ) ] O.@.2.r.#.N ; $ ",
"& * A X.X.X._ E A n s c S E ( ' ] ] ' ` ` ) ` ' ..7.w.*.Q + + + o z o + + + + + ) ` ' ) ) ) ) ) ) ) ) ) ) ) _ ] ..+.<.q.#.N 2 $ ",
"$ * R o.~ D v v v n B D A B B S L I Q ' ) ` ( ] O.*.e.*.+ + + + o z z o + + o + + ) ` ) ` ` ' ) ' ` ' ' ' ) ( ] ..@.<.e.:.N ; $ ",
"& - R X.A f 0 0 p B D E B v c s b S Q ( ) ( ) ' O.<.e.+ + o o o z z G o + o z o + + ' ' ) ) ' ` ' ) ) ' ' ( ` ] O.@.2.q.%.V 4 $ ",
"& & T ~ B v 0 0 v B E E B c p c v C P ( ` ) ( ' O.6.+ + o z z z o G G o o z z o + + ) ` ` ' ' ) ) ' ` ) ) ` ' ] ..%.2.e.#.N ; $ ",
"$ * Z D V v f v B E ( E D B v b m D P ( ( ) ` ' ..+ + o z G G z z G G z z z G o + + ' ' ' ` ' ' ` ' ` ' ` ] ` ] O.@.0.q.%.N 4 $ ",
"$ * f N v B B A R ~ _ ) E D C C D P ( ( ) ( ` ] + + o z z z z G z G G z G G o + + ' ' ( ' ' ' ' ' ' ' ' ` _ _ ] O.&.0.9.%.V ; $ ",
"$ & d a v B D E Q ) | } _ Q E E ( ( ' ( ( ( ' ' + + o z z o z o o G z z o o o + + ' ` _ ( ] ` ' ' ) ` ' ` ` ` ] O.&.0.9.#.Z 4 $ ",
"$ - d d v E E { _ | ' } _ ) ( ( ) ' ' ' ' ' ' + + o z z o G z z o z G G z z z o + + ] ` ` ` ' _ ' ' ' ' ` ] ` ] O.$.0.9.:.N ; $ ",
"& * f j N E { _ _ ' ' ' ) _ ) ) ' ' ` _ ) ' ' + + o z o G G z G z G z G G z z z o + + ' ' ' ' ` ' ' ' ( ' ( ] ] o.&.7.t.%.N ; & ",
"& * j A A ! { { ) ) ) ) ) ( ( ( ` ( ( ( ( ( ` ] + + o o G z G G z G G o z G o + + + ( ( ' ( ` ` ( + ' ( ( ( I ] O.:.7.q.:.j ; $ ",
"& * N ! E E { _ _ ~ ( ( ( ( ( ( ` ( ( ( ( ( ( + + o G z z G z z G G z o z z o + + ` ( ( ( ) ( ( + + + ( ( ( ( ] O.&.q.e.:.V ; $ ",
"& * Z { { { { _ _ { { { ) ( ( _ ` _ _ ` ` ' ' + + o G z o z z o z G z o x z o + + ` ` ` ( ( ( + + s.+ + ( ( ( ] +.&.4.t.:.V ; $ ",
"& * A =.X.X.X.X.o.@.X.| ] ] ] ] ] ] ] | [ [ O.+ + o z z o z o x o z z o   z o + + ] ] ] ] ] + + a.;.+ + ] ] _ O.$.&.q.t.:.Z 6 $ ",
"$ * T 1.-.-.:.>.>.-.6.-.@.@.@.&.@.@.&.&.%.%.+ + o o z o x z a.5.o z o 5.Y o + + %.$.$.$.%.+ + s.y U + + @.@.@.@.&.7.y.y.+.N 6 $ ",
"& * R r.1.8.8.r.9.9.6.9.8.8.7.7.7.7.7.7.7.+ + o G G o z x o a.a.5.z o a.5.x + + 3.3.3.*.7.+ + s.y ;.+ + 9.6.8.6.7.q.i.y.o.N 2 $ ",
"& - T 1.:.>.8.8.9.9.6.9.9.7.w.0.0.7.7.7.+ + o G G z o . k x x 5.a.o a.a.5.+ + <.3.3.3.3.+ + s.y U + + 9.6.9.8.6.7.q.y.t.} f 4 $ ",
"& * Z  .~ { ..+.X.@.O.+.O.+.+.+.+.O...+ + o G z o o . k k p.x x 5.a.a.5.+ + o...$.$. . .+ + s.y ;.+ +  .X.O.O.O.X.O.:.-.~ d q $ ",
"% * j A v V A A D B S A S A J J C K H + + o G o o . k . l k p.F k k k x x + + H H H H + + s.y U + + H H A D D D D D R R V q 6 $ ",
"& * , 8 7 5 7 5 3 3 3 8 5 4 4 5 5 4 + + o G z o . k k . l l l l F x x k k + + 5 1 w w + + s.y ;.+ + 2 4 3 3 3 3 5 3 5 - % $ $ $ ",
"$ * * - * : * % * * % % = = = = = = + + o G o o k k . . k l l l k y y + k + + % = O + + s.y U + + O $ $ $ # $ % $ $ % % % $ $ $ ",
"& & : - 5 5 u u q q q q q q e e e q + + o G o o k k . . k l l l y d.;.;.y + + q w + + + s.y ;.+ + q 4 w 5 3 8 0 0 0 0 i i ; - * ",
"& & j v d N Z Z V V H Z V H C C C C + + o G o o . . . . k l l y d.s.s.;.U + + + + + + s.y U + + N n h d v v v B S C D R B u 6 - ",
"% * N T B R E E R W W Q I W I I I I + + o z o o o . x x . l l y d.s.s.s.U y + + + y + s.y ;.+ + W I I I E E D ( ( _ X.o.! u u * ",
"& * N ~ E { ) _ ` ' ' ' ' ' ' ' ' ^ ` + + . z o o o x 5.. k l k y ;.U U + . + + + ;.y y U + + | | .... .| | O.O.O.-.7.>.~ a u * ",
"$ * V } { X._ _ } _ _ ] ' ] ] ] [ ] ' ` + + . o o o o o . z k k k y y + . . + + + ;.U y y + + O.@.+.@.@.@.@.@.6.@.@.-.+.R i u * ",
"$ * N } ) | { _ ] _ _ _ _ ' ` _ ] ' ' ` ' + + . z o o o o . z z z . k l k k k 5.a.5.;.U U y + + @.>.6.6.6.6.6.6.O.) E D N 7 ; * ",
"& - N } { } } _ _ ' _ _ ' _ _ ' ` _ ' ' ' ( + + . . . . . . k o o . k l l l l 5.5.5.+ + + + + 7.7.7.8.9.9.w.w.9.X.D v i 8 & & & ",
"$ * N } _ | { { ' _ _ ' _ _ ' ' ' _ ' ' ( ) ' + + + + + . k l k . . . k l l k l a.a.+ + + + 7.7.9.w.w.w.w.w.w.6._ S p 3 : # & # ",
"$ - N } { } { _ _ _ ) ' ) ' _ ' ' _ ` _ ` _ ( ' + + + . k l l . . . . ..k k + s.U + + ] | O.@.&.O.O.O.] O.O.@.I I S n c 0 * * & ",
"& * N } { | } _ } ) ' _ { ' ] ' ' ' _ ` ` ` ' ] + + . k l l . . . . . . + + + U y + + +.] ( I P S S S m M S M b S I E P n 8 4 - ",
"$ - j } { } _ _ ) _ _ ' ] ' ' ' ' ' ] _ ( ' ` + + . k l l . + + + . . o o + + + + + $.$.] P v r c 9 c 9 c 9 9 c m P O.] W a 6 - ",
"$ - j  .{ } } ) } _ ' _ _ ) ' ' ' ' ` ` ' ` ' + + . k o . + + + + o o o o o + + + +.%.%.` M 0 < > > < < > > > 9 b ( @.6.} h 7 - ",
"& * N } { { _ { ' { ' ' ' ' ' ' ' ' ' ` ' ` ' + + o o z z o + + r + o o o + [ ..[ ..| ' I m r 9 < 9 9 < 9 9 1 r m ( ,.2. .h 7 - ",
"& : N } _ | | { _ ) ' { ' ' ' ' ' ' _ ' ` ) ' ' + o z z z o + , t K ] ..+.$.+.+...` P D S m v c c c c c b b c m P ..7.q.o.f 7 - ",
"& * N { { _ { _ _ _ _ ' ] _ ` _ ' ' ' ) ` ' ` ] ..+ o o o + 1 , p L ] O.$.&.*.%.] P b c c m C S S S D D K K S P ` &.e.e. .j 7 - ",
"& * N X.} } } _ ] ' ' ' ` _ _ ] ` ] ' ) ' ( ' ] ..*.8.7.] b 1 , p L ] O.&.*.<.%.( M s t c m S P ( ( ( ` ` I I ( ] &.t.u.o.d ; - ",
"$ * N  .} X._ } { ' ' ' ' _ ' ' ] ` ' ' ` ` ' ] ..,.q.7.[ n 1 < t L ] +.&.&.&.[ E b t s b M I I ( _ ' ' O.I O.I @.6.w.w.$.g ; - ",
"$ - N } } { _ ) } ' ' ' ' } ] ' ` ] ' ' ` ' ` ] ..,.7.7.` m 1 < s P [ %.$.[ Q I S m b m M H I Q ( ( ' ' I O.I O.I &.w.w.$.g ; & ",
"& - N } } | } _ { _ ' } ' ' ' ' ` ' [ ` ` ` ' ] ..&.q.<.[ m 1 1 c Q $.*. .P m g c n C K P I Q Q ( ` ` ' ] I I ] $.@.9.w.#.d ; ; ",
"$ - j X.' | } } ] _ ' ' ' ' ] ' ] ` ^ [ ` ` ` ] ..*.0.<.` b 9 1 c ` <.0.[ M w 1 r m K I ( ` ` ` ` ' ( ` ] I ] I O.&.0.w.#.h ; ; ",
"$ * j } } ..} ' } ' ' ' ' ] ' ' [ ` ` ` Q ` ` ` $.*.0.0.[ b 1 1 b [ 0.0.[ n 1 > e m K ` [ ` ` ` ` ` ` ` ` ` I O.] &.e.u.#.d ; ; ",
"& * N } } ] ' } ' ' ' ' ' ' ' ' ` ` ` ` ` ^ ` [ ..*.0.<.[ b 1 1 t ` <.*.[ b 1 1 t M I ` ` ` [ ` ` ` ` ` ` ` I ] ] %.q.u.#.a ; - ",
"$ * N } ' } ] ' ' ^ ` ' ` ` ' ' [ ^ ` ` ` Q ` [ ..*.0.<.` m 1 > t ` *.*.` b 1 1 t H I Q ` ` ` ` ` ` ` ` ` ] I [ ] &.q.u.#.d ; ; ",
"$ - N } } ' ' ~ ^ ' ^ ' ` ~ ` ^ ` ` ` ` I ^ Q ^ $.*.0.<.[ b 1 > t ` *.*.` b 1 1 t K I ` ` ^ ` ` ` ` ` ` ` I ] I [ &.q.u.#.j ; ; ",
"& * N o.| X.| } ] ' } ' ' ' ' ' [ ' ^ ^ ` [ [ [ $.<.0.3.] m 1 > e L  .o.Q b w e n I ^ ' ' ` ' ` ` ~ ' ` ` ` ` ` [ &.e.t. .d 6 - ",
"& - Z 1.:.>.-.-.:.#.-.=.#.%.%.#.%.#.$.$.$.#.%.%.*.3.e.3.] b 5 , w b K W L C V C Q  . .$.#.$.o...$.$...[ O...$...&.*.t.t.X.f ; - ",
"$ * Z u.t.t.t.r.8.4.4.4.4.q.q.4.4.4.4.4.,.4.4.4.4.e.i.3.^ b 5 , 1 e f n C I ` #.,.4.4.4.4.4.4.4.3.4.2.2.3.3.3.2.7.q.i.u.o.j 7 ; ",
"& * Z 4.t.y.t.t.t.t.u.u.u.q.t.e.u.u.4.4.4.q.e.u.u.i.u.,.W g < : , 5 e s V ^ %.2.4.4.q.u.e.e.t.u.u.e.e.e.e.q.q.0.0.0.u.u.=.j 6 - ",
"% * j o.:.:.:.:.:.:.:.:.:.,.:.,.:.:.%.,.%.%.:.3.3.3.%.[ C e , * * 3 5 q g W  . . .#... .#.#.#.#.#.#.#.%.#.$.%.*.:.,.:.%./ d 7 ; ",
"$ - f A A E ! E R R R W R T W W R L I J T J T ! ^ ^ I V p 5 * & & = 2 4 q N H H H Z H J J J J R J J J J J L I Q ^ W J T j u ; - ",
"& * q u 8 8 q 8 q q 8 q q u q q q q q q q q q e a a t * * $ % * # & ; % ; u a a g h h h h h h h h h h h h g g M V g a d u ; 7 ; ",
"$ & 6 ; 2 4 6 6 6 ; 2 6 6 ; ; ; 2 ; ; - ; ; ; ; - ; ; & * & & & # # $ $ - - ; - - - - - - ; ; , - - ; - ; ; ; ; ; ; - ; ; - ; & "
};
