/* XPM */
static char *Character_SpriteSheet_191636046540[] = {
/* columns rows colors chars-per-pixel */
"64 64 136 2 ",
"   c #211223",
".  c #5F002A",
"X  c #4C3E3C",
"o  c #772A2A",
"O  c #4F413F",
"+  c #5B3356",
"@  c #4F4240",
"#  c #524543",
"$  c #564C45",
"%  c #5A4C45",
"&  c #554C4B",
"*  c #5A4E4B",
"=  c #5C5047",
"-  c #5D514D",
";  c #5F5452",
":  c #604F4D",
">  c #625247",
",  c #64534C",
"<  c #68554D",
"1  c #69594E",
"2  c #615653",
"3  c #695751",
"4  c #655A54",
"5  c #6B5B54",
"6  c #615758",
"7  c #645B5B",
"8  c #6B5E5B",
"9  c #725D54",
"0  c #725E5D",
"q  c #6B6156",
"w  c #6D615C",
"e  c #716056",
"r  c #73625B",
"t  c #79655D",
"y  c #79685E",
"u  c #545778",
"i  c #6C6361",
"p  c #746462",
"a  c #7A6662",
"s  c #756A66",
"d  c #7C6A64",
"f  c #776C6A",
"g  c #7A6D6B",
"h  c #7F7065",
"j  c #7E716D",
"k  c #7E7372",
"l  c #9D0701",
"z  c #D5062A",
"x  c #A0592A",
"c  c #D04A01",
"v  c #816E66",
"b  c #816E6A",
"n  c #827067",
"m  c #84726C",
"M  c #89756D",
"N  c #85796F",
"B  c #8B796F",
"V  c #817573",
"C  c #8A7674",
"Z  c #847976",
"A  c #8C7B74",
"S  c #867B79",
"D  c #8C7D7A",
"F  c #917D75",
"G  c #927E7B",
"H  c #EC8300",
"J  c #B38449",
"K  c #8F8077",
"L  c #8E817C",
"P  c #938177",
"I  c #93837C",
"U  c #99857E",
"Y  c #96887F",
"T  c #99887E",
"R  c #6A8580",
"E  c #00A5C1",
"W  c #8E8381",
"Q  c #948582",
"!  c #998683",
"~  c #968881",
"^  c #9C8B83",
"/  c #958989",
"(  c #9E8C8B",
")  c #9F908E",
"_  c #9E9392",
"`  c #A18E86",
"'  c #A28F8A",
"]  c #A88F8E",
"[  c #A29087",
"{  c #A4918B",
"}  c #A9948E",
"|  c #A9988E",
" . c #A38F91",
".. c #A49392",
"X. c #AA9593",
"o. c #A69995",
"O. c #AC9B94",
"+. c #AA9798",
"@. c #AD9C9A",
"#. c #B19C96",
"$. c #B39E9A",
"%. c #B89E9B",
"&. c #AEA09C",
"*. c #B1A096",
"=. c #B4A29C",
"-. c #B9A49E",
";. c #BAA99F",
":. c #AE9FA0",
">. c #B39FA2",
",. c #9FB3A1",
"<. c #B5A5A2",
"1. c #BAA5A2",
"2. c #B7A9A1",
"3. c #BDABA4",
"4. c #B7ABAD",
"5. c #BDACAA",
"6. c #BFB1A7",
"7. c #BFB1AA",
"8. c #FF9581",
"9. c #C2A6A4",
"0. c #C2ACA6",
"q. c #C5ADA9",
"w. c #C8AFAB",
"e. c #C2B1A6",
"r. c #C4B2AC",
"t. c #CAB5AE",
"y. c #C7B8AF",
"u. c #C4AFB0",
"i. c #C5B5B1",
"p. c #C9B6B1",
"a. c #C7B8B2",
"s. c #CABAB3",
"d. c #FFD980",
"f. c #FFCABE",
"g. c #DCD5C5",
"h. c white",
/* pixels */
"& & = & # $ $ # & & & $ & # & & $ & $ $ $ $ $ $ & & & & $ & & & & & & & & & & & & & & & # # # & & & & & & & & & & & & & & & & & ",
"$ # X X X + O O O O O O O X O O O O @ $ & & & & # @ # @ O + O O $ = & & = * * * - - = & - & - - - & * * * * * - - * * * * & & & ",
"& & f L S S S S k L k W k L k S S S S S Z Z Z Z L W S S V 7 # # ; j k k Z k k V k k Z k k k k k k k k k V V V V S S S S k f 6 $ ",
"$ & L .._ _ _ ( _ _ _ o._ _ _ _ _ ....o.o.......o.@.<.<.^ d * # 7 Z / _ _ _ ......_ .._ o.o.o._ o.o...o... ...o.+.+.+.4._ k 6 $ ",
"$ - k _ ) _  . ...@.@.@.o._ _ ...._ { ..{ { ..o...o.=.<.! p # X 2 j / ) ) ) ) ) ) ) { _ { ) _ ) _ _ _ ( _ '  ..._ &.:.4._ k ; & ",
"$ & L _ ) .. .+.@.4.4.1.&.o.@.@.+.o.o.o.o.o._ ..@.:.s.5.{ m , & 8 S ) o.o.....{ ......{ ....{ ................X.:.4.4.7.:.k ; $ ",
"$ - L ..(  ...+.@.<.4.<.@.o.o.....{ { ..{ _ { { @.3.a.3.{ N 5 3 a G _ o.{ { ) [ ) [ ( [ ) ) ( [ ( ) ' { ( ( ....@.<.7.7.&.k ; & ",
"$ - W ....X.X.X.+.:.=.=.@.+.o._ [ ) ) { [ ) ( [ @.3.a.1.( m 5 3 a Q { o.{ [ ( ) ( ' [ [ ( [ ' ' ' ' ' ( ' ' ( ..@.<.7.7.&.k ; $ ",
"& * D +.+.>.>.+.+... . .+.#.+...{ { { { ) [ { o.*.3.t.2.! N 5 3 a + ' o.X.[ ' ' ( ' ' ' ' ( { ) { ' ' ' ' ' ] ] +.=.5.r.@.V ; $ ",
"& & D +.+.>.>.>.+.! C G ( +.$.#.O.| | { { { { { @.3.p.3.^ N 5 3 + + + o.{ { ' [ [ { { ( ' ' ' { ( ' ..{ ' ' ' } +.<.4.u.<.V ; $ ",
"& * D +.%.9.u.>. .V 0 p F ..$.<.#.+.| { ) [ [ o.$.3.t.3.^ m 5 + + o + + { ' + ` [ ' { ' ' [ ' { { { ' { ' ' ' X.+.%.0.i.&.V ; $ ",
"& * D +.>.9.u.>.! b 5 0 C ' +.$.#.O.{ { ' ' ' { O.0.t.3.^ + + + o x o + + + + + { [ [ ' ' { [ ' ( ' ' ' ' ' ` ] #.=.5.u.=.V ; $ ",
"& * W +.+.+.] ! G b d b F ! ` } | { { { [ [ [ } #.3.t.3.+ + + + o x x o + + o + + ' [ ' ' ' ' ' [ ' ' ' ' ' ' } +.=.5.r.:.Z ; $ ",
"% & Q #.( G b b b m C F D C C F P U ` ` ' ' [ { O.3.t.+ + o o o x x J o + o x o + + [ ' [ { { ' { { { [ { ' { } O.%.3.a.=.Z ; $ ",
"& * Q +.G g 0 0 a C G U C b d v m F ! ` ' ` { { O.3.+ + o x x x o J J o o x x o + + { { ' ' { { [ ] ' { { ` ` } #.=.3.r.&.Z ; $ ",
"$ & W ) C g 0 0 b C ! ! A b d a v D T ` ` ' [ { #.+ + o x J J x x J J x x x J o + + ' [ [ { ' [ { [ { ' { [ [ } #.%.6.r.=.V 7 $ ",
"& * S G C b d g C ! ` ( F m b b M F ! ` ` { ` { + + o x x x x J x J J x J J o + + [ { [ } [ [ { { { { [ [ ] [ } #.%.0.e.=.Z 6 $ ",
"$ * k g V C m D Q ( ] ` ! G A A G T ` ` ` ` { } + + o x x o x o o J x x o o o + + { { { [ { { { [ { { { [ ] } } #.-.e.y.=.Z 2 $ ",
"$ & f f b G G ! ( ' } { ] ^ U U ` ` ` ` ' ` [ + + o x x o J x x o x J J x x x o + + [ { { { [ { { ' ' [ [ [ [ } #.-.0.w.=.Z 2 $ ",
"$ - f f b G '  .] ] ..o...] ' ( ] { { { { [ { + + o x o J J x J x J x J J x x x o + + { { [ { { { { { { } [ [ } #.*.0.w.&.Z ; $ ",
"& & g V V !  .]  .] ] { ] ' ' ' { { { { ' { { | + + o o J x J J x J J o x J o + + + ] [ { { { { { { { { ` ` } } *.=.q.r.<.k ; $ ",
"* & k D D /  . .' ' ( ' ' ` ` ` ` { ` ` ` ` [ + + o J x x J x x J J x o x x o + + ` [ [ { ` ` { ' ` ` { ` ` T } #.=.q.r.<.Z ; $ ",
"* & V / ! !  .( ] ` ` ` ` ` ` ` ` ` ` ` ` ` ` + + o J x o x x o x J x o c x o + + ` ` ` ` ` ` ` ` ` ` ` ` ` ` } #.1.7.a.&.S ; $ ",
"& : S  . . .] ]  . .' ] ' ' { { ] ` { { ` ] { + + o x x o x o c o x x o   x o + + ] ` ` ` [ ` ` [ ' ' ` ` ` [ } #.1.r.i.<.S ; $ ",
"& * D :.+.+.+.$.+.%.+.X.X.} } } } } } } | } #.#.+ + x o c x f.8.o x o 8.E o + + | } } } } } } } } } } } } } X.X.*.2.q.i.<.V 6 $ ",
"& * W 4.>.>.1.>.1.>.>.%.%.%.%.%.%.%.-.-.=.=.-.;.+ + o + c o f.f.8.x o f.8.c + + *.=.=.*.#.%.%.#.*.%.#.%.%.%.%.%.-.0.p.p.>.V 6 $ ",
"& * W u.5.5.q.u.w.w.w.w.q.q.q.q.0.0.0.0.0.0.r.e.t.+ + + . c c 8.f.o f.f.8.J o + + 3.3.6.0.0.0.w.0.w.9.w.w.9.9.w.0.r.s.s.@.j 2 % ",
"& * Q 4.>.4.q.q.q.9.w.w.w.r.q.e.e.0.0.0.3.3.r.e.e.+ + . l l c c 8.f.f.8.x J J o + + e.6.0.0.0.q.9.w.w.9.w.q.w.9.0.q.s.i.o.j 7 $ ",
"& * S ..( ..#.#.%.#.#.#.#.$.*.$.#.#.O.O.O.| *.*.+ + . o l d.l c l c c l c o x J o + + *.O.O.#.+.#.#.#.#.#.#.+.#.+.$.<.$./ f 8 $ ",
"* * V S g C D D G C D G F G K K P P K K K K K I + + . o z l d.H l z z z H o o J o + + K D K K K F F F F G F G G G F Q ! Z r 7 $ ",
"$ * , i 8 5 8 4 3 3 3 5 5 4 5 4 4 5 1 1 1 1 1 e + + . l z z z z H H d.l H o o x J o + + 1 4 q 1 4 3 3 4 3 4 6 3 3 3 3 - $ $ $ $ ",
"$ * * * * * * % * * & * * = = = = % = O O = = = + + . l z z u u u u l d.l c o o J o + + % O % O $ $ $ # % # # % % % % * * $ $ $ ",
"& % - - 4 8 w p w w w w w w e r w q q q q q w r + + . l z u ,.h.h.,.+ l . 8.8.o J o + + q q q q 5 4 q 4 3 3 5 8 0 9 0 a p 6 ; & ",
"$ & k k f m S S S S S S K A K A K K N K N N A K P + + . l u h.g.g.,.R + . c 8.o J o + + + + + + + + j j b b C C D D G G C 8 6 * ",
"$ & k G D G ! ! ! ^ ~ ~ ~ ~ T T Y Y Y Y U I Y ^ { + + . l u ,.g.g.R R + . o o o x o + + + g.g.g.g.+ Y ~ ! ! G ` ' ] #.+.Q p 8 * ",
"& * V ( (  . . .{ [ [ { { { { { [ { [ [ ^ ( [ | *.+ + . x l u R R R u + o o o x . + + g.g.u R ,.+ X.O.O.X.X.#.#.#.$.5.4./ f i - ",
"% * Z ..] ..] ] ..} ] ] } ] { { | | { { { { { | =.r.+ + . x o + + + + . o o o . | g.g.u u ,.,.+ #.%.%.%.%.%.%.9.%.$.>.$./ p 8 - ",
"% * V ..] X. .] ] ] ] ] { ] } ] { { { { ` { [ | =.e.+ + . o x z l . l o u x . g.g.u u ,.,.+ + %.%.9.9.9.9.9.9.9.$.' ! G C 7 6 & ",
"& * V .. ... . .] ] ] { ] { ] } { { { { ' ' { | #.0.+ + . l l z z l . . u g.g.R u ,.,.+ + + 9.9.0.w.w.w.w.t.t.w.X.G b a 5 & & $ ",
"$ ; k ..] ....{ ] ] } ' { ] ' { { ] { ' { [ [ { #.2.e.+ + . z l z z 8.,.u u u ,.,.+ + + + -.w.0.q.r.t.t.t.t.t.9.} F a 7 : # $ # ",
"& - V .. ... .] ] { ] ..] ] { { ] { [ [ ] { [ } #.3.e.+ + . z l l z f.8.R g.g.+ + + + } #.#.#.-.#.#.#.%.#.#.%.T ` F b v 9 * & & ",
"$ * V .. .X... .' ] { ' { [ { ] ] { ] { [ ` { } #.;.q.+ + . l z ,.. f.f.8.u R R + + #.#.} { T U P F B B B F B n F G ` U V 8 4 : ",
"$ - k .. ...] ] } ] { { ] { { { [ { { { { [ ` } #.-.e.3.+ + . z u u + + + + + + + #.=.#.} P b t v 9 9 9 v 9 9 v M U #.X.! f 7 - ",
"$ - k o. ...{ ]  .{  .' { { { { { } { [ [ { { { #.1.e.3.+ + . l o . + + + + + | O.#.=.=.{ B 0 < > > < < < > > 9 n ` %.-...j 7 = ",
"& * V  . .X. . .{ ] { ] { { } { { { ] [ { ` { } O.;.q.0.+ + o o x x o + + O.| O.O.| O.{ T M t 9 < 9 9 9 9 9 1 t B ` 2.7.o.j 7 - ",
"& : V  .] X.]  .] { ] { ] { { [ ] { { { ` { { { #.;.e.0.{ + o x x x o + #.#.=.#.O.{ T F C B b v v v v v n n v M U O.e.r.+.g 7 - ",
"& * V +.] .. .] ] ] { { { { { ] [ ] { { { [ ` { #.-.e.3.{ N + o o o + #.=.-.;.=.| P M v v B C F F F F G P P F U ` =.r.a.@.f ; ; ",
"& * V ..X..... .{ { ] ] { { { { } [ { { ` { { } #.1.e.3.} m 1 < a P | #.=.3.3.=.[ B a a v M F U ! ` ` ` [ T T ` } -.r.a.@.k ; ; ",
"$ - V .. .X. ...] { { { { { } { } [ { { [ { { } O.;.e.0.{ M 1 < a P | #.=.-.=.| U m y d n B T T ` { { { #.T | T %.9.t.y.*.h ; - ",
"$ - V o.......] ..{ ..{ { ] } { { { } [ { [ { { *.;.q.3.| n 1 < v U X.=.*.| ` U A m m M B K T ^ ` ' { { T } T #.T -.t.t.| h ; - ",
"& * V ..] X...{ ] ] { { } { { { { { | [ [ { { } O.-.e.0.[ M 1 1 v T *.;.O.U n n v M A P U U T ^ ` [ { { T } T | %.-.w.t.&.k ; ; ",
"& - V ........] { ..{ { { { { { { { [ [ [ [ [ { O.;.e.3.| M 1 1 v [ 3.e.| B e q t M P T [ [ [ [ [ [ [ [ #.T | T *.%.w.t.&.f ; ; ",
"$ * V o...o.{ ....{ ..{ { { ..{ [ [ | [ [ ^ [ [ *.;.e.e.[ n e 1 n [ e.e.| n 1 > r M P [ | [ [ [ } [ [ [ [ [ T } | =.r.a.o.f ; - ",
"* * k o...{ ..{ { { { { { { { { | [ [ ) [ ) [ | O.;.e.e.| M 1 1 d [ 3.3.| n 1 1 y B T [ [ | [ | [ [ [ [ [ [ } T | -.r.a.&.f ; ; ",
"$ * V { { ..{ ] { { [ [ { [ { { | [ [ | ^ [ ^ | O.;.e.3.| M 1 1 h ^ ;.;.[ n 1 1 y K T ^ [ ^ [ [ [ [ [ [ [ [ [ } } -.r.a.&.f ; ; ",
"$ - k o...{ ] ' ' ( [ ) [ ) [ [ [ ^ [ T ) ^ ( | *.;.e.3.[ n 1 O y [ ;.;.[ n 1 1 y P T [ [ [ ) [ [ [ [ [ T [ T } } -.r.a.&.k ; ; ",
"& * V +.X.X.........{ { { { { { { { { { ) { { | *.;.e.6.} m 1 > r P +.O.^ m e e N Y ( [ { [ { [ { [ [ [ [ [ [ { | -.r.a.@.g ; ; ",
"& * S 4.1.1.=.>.<.@.<.@.&.&.=.=.&.&.*.*.*.*.&.;.;.6.y.6.{ m 5 , q n P ! I N Z K ( ..O.&.*.*.@.&.*.O.@.O.O.O.#.O.=.0.a.i.o.f ; ; ",
"% - W i.i.i.u.u.r.i.5.r.r.7.7.7.7.7.7.7.6.6.7.7.r.y.s.6.{ m 5 , 1 t g m L ~ { *.2.6.6.7.7.6.6.7.6.6.7.6.e.6.3.6.0.r.s.a.:.k ; ; ",
"$ * S 4.i.s.p.p.i.i.i.i.i.a.a.a.a.y.y.7.7.7.a.a.s.s.a.2.~ h 3 : , 5 r d Z ) =.2.7.7.r.7.a.y.i.i.a.i.a.a.r.r.y.e.e.e.a.a.:.k 6 ; ",
"$ - k @.=.<.<.<.<.<.<.<.<.<.<.<.<.<.;.<.=.&.<.2.6.6.;.) A r , % - , 5 w h ~ ..o.o.&.@.&.&.&.&.=.&.&.&.&.&.*.=.;.;.<.<.&._ g 7 ; ",
"$ - f D D / / / Q Q Q Q W Y ~ ~ Q I L L W W ~ ^ ) ( Y K d 5 - & $ - 2 6 w V K L S L K L L L Y W L L L I I K I ^ ) ~ Y L k 7 ; - ",
"$ * i 7 8 8 8 w w w w w w i w w w w w w w w w p s s w = * # & * # & - = - s s s f h j j j j m j j j j j j m m N k h s f i ; 7 ; ",
"$ * 6 7 4 4 6 6 6 ; 6 2 6 ; ; ; ; 2 ; - ; ; 2 ; - ; ; & * * & # $ # & $ - - - - - - - - - - ; - ; - - - - ; ; ; ; ; - ; ; ; ; & "
};
