/* XPM */
static char *_864_f14c61fb7736b614502e6ccff69646a45e686fd201f0173a5c09c16403e15b81[] = {
/* columns rows colors chars-per-pixel */
"64 64 16 1 ",
"  c #5F002A",
". c #772A2A",
"X c #5B3356",
"o c #545778",
"O c #9D0701",
"+ c #D5062A",
"@ c #A0592A",
"# c #D04A01",
"$ c #B38449",
"% c #6A8580",
"& c #9FB3A1",
"* c #FF9581",
"= c #FFCABE",
"- c #DCD5C5",
"; c white",
": c None",
/* pixels */
"::::::::::::::::::::::::::::::::::::::::::::::::::::::::::::::::",
"::::::::::::::::::::::::::::::::::::::::::::::::::::::::::::::::",
"::::::::::::::::::::::::::::::::::::::::::::::::::::::::::::::::",
"::::::::::::::::::::::::::::::::::::::::::::::::::::::::::::::::",
"::::::::::::::::::::::::::::::::::::::::::::::::::::::::::::::::",
"::::::::::::::::::::::::::::::::::::::::::::::::::::::::::::::::",
"::::::::::::::::::::::::::::::::::::::::::::::::::::::::::::::::",
":::::::::::::::::XXXXXXXXXXXXXXXXXXXXX::::::::::::::::::::::::::",
":::::::::::::XXXXXXXXXXXXXXXXXXXXXXXXXXXX:::::::::::::::::::::::",
"::::::::::::XXXXX%%&-------------&&&%%XXXXXX::::::::::::::::::::",
":::::::::::XX%&--;;;;;;;;;;;;;;;;;;;--&&%XXXXX::::::::::::::::::",
":::::::::::XX;;;;--------------;;;;;;;;;--&%XXXX::::::::::::::::",
"::::::::::::XX;-&&&&&&%%%%&----------;;;;;;;-&XXXX::::::::::::::",
":::::::::::::XX;;---&&&&&&%%%%%%..&-------;;;;-&XXX:::::::::::::",
"::::::::::::::XX;;-----------&&.@@..%&&------;;-&%XX::::::::::::",
":::::::::::::::XX;;;;;;;;;...-.@@$@@..%%&------;-&%XX:::::::::::",
"::::::::::::::::XX;;---&&.@@@.@$$@@..--&%%&-----;-&%XX::::::::::",
":::::::::::::::::XX;;;;..@$$$@$$@..@@@@.-&%%&----;-&%XX:::::::::",
"::::::::::::::::::XX;.@@@$@@@@@@@$$@..&&---&%%&---;-&XX:::::::::",
":::::::::::::::::::XX;-..@$$$.$$$$$$$@.%%&&-&%%&-----&XX::::::::",
":::::::::::::::::::XXX..@$$$@@.@@@@$@$@.%%%&&&%%&----&XX::::::::",
"::::::::::::::::::XX..@$$$$$.@....@$.@@@.&%%%&&%%&----XX::::::::",
":::::::::::::::::::XXX.@@$@..$@@@$@@@..X%%&&%%%&%%&--;&XX:::::::",
":::::::::::::::::::XX.$$@@.@.$$@$$@.@*#XXX%%&&%%&%%&-;-XX:::::::",
"::::::::::::::::::XX.$.@@.$@@$$@$@@.@=#XXXXX%%&%%&%%-;;%XX::::::",
":::::::::::::::XXXX...@.@$@$@$$@$@.*.#oXX:XXXX%%%%&%&-;&XX::::::",
"::::::::::::::XXXXXXX..@$$.$@@$@@.*# o%oXX::XXXX%%&%%-;-XX::::::",
":::::::::::::XX   XXX#*@@@.$.@$.@.# o&;%oXX:::XXX%%&%&-;XX::::::",
"::::::::::::XX .$. XXX#.@..@.@@.@   o&-&oXX::::XX%%&%%-;%XX:::::",
":::::::::::XX ..$.. XXX#...@#.@.. OOX%&%oXX::::XX%%&X%&;%XX:::::",
":::::::::::XX @.$.@..XXX.# . .@. OOO  XoXX::::::XXo&X%%-&XX:::::",
"::::::::::XX .$.$@@..XXXOOO O+.OOOOO  XXX:::::::XXo%Xo%--XX:::::",
"::::::::::XX @$@$@@. XXO++OOO+++++OO  XX::::::::XXo%Xo%--XX:::::",
"::::::::::XX @$$$@@. OOO++++O+++++OO XX:::::::::XXo%Xo%&;XX:::::",
":::::::::XX .@$$$@@. O+O++++O++++OO @XX::::::::::XXoXX%&;XX:::::",
":::::::::XX @$$$$@@.+++O++++O++++O @.XX::::::::::XXoXXo&;XX:::::",
":::::::::XX @$$@$@..+++OO++OO+++O.@. XX::::::::::XXoXXo%-XX:::::",
":::::::::XX @$$@$@. OOOOOOO @@OO@@.O XX:::::::::::Xo:Xo%-XX:::::",
":::::::::XX @$@.@..OOXX    OOO@@.OOO XX:::::::::::Xo:Xo%-XX:::::",
":::::::::XX @$@... XXXX.OO    OOOOOO XX:::::::::::Xo:Xo%-XX:::::",
"::::::::::XX @... XXXXX.@..XXX O OO XX::::::::::::X%::X%-XX:::::",
":::::::::::XX... XX:::X.@@.XXXX OO+OXX::::::::::::XX::Xo-X::::::",
"::::::::::::XXXXXX:::::X..X:::XX O++OXX::::::::::::X::Xo-X::::::",
":::::::::::::XXXX:::::::::::::XX OOO.XX:::::::::::::::Xo-X::::::",
":::::::::::::::::::::::::::::::XX..@.XX:::::::::::::::Xo-X::::::",
"::::::::::::::::::::::::::::::::X.@@.X::::::::::::::::Xo&X::::::",
":::::::::::::::::::::::::::::::::X..X::::::::::::::::::%&X::::::",
":::::::::::::::::::::::::::::::::::::::::::::::::::::::X&X::::::",
":::::::::::::::::::::::::::::::::::::::::::::::::::::::X&X::::::",
"::::::::::::::::::::::::::::::::::::::::::::::::::::::::&X::::::",
"::::::::::::::::::::::::::::::::::::::::::::::::::::::::&X::::::",
"::::::::::::::::::::::::::::::::::::::::::::::::::::::::XX::::::",
"::::::::::::::::::::::::::::::::::::::::::::::::::::::::X:::::::",
"::::::::::::::::::::::::::::::::::::::::::::::::::::::::::::::::",
"::::::::::::::::::::::::::::::::::::::::::::::::::::::::::::::::",
"::::::::::::::::::::::::::::::::::::::::::::::::::::::::::::::::",
"::::::::::::::::::::::::::::::::::::::::::::::::::::::::::::::::",
"::::::::::::::::::::::::::::::::::::::::::::::::::::::::::::::::",
"::::::::::::::::::::::::::::::::::::::::::::::::::::::::::::::::",
"::::::::::::::::::::::::::::::::::::::::::::::::::::::::::::::::",
"::::::::::::::::::::::::::::::::::::::::::::::::::::::::::::::::",
"::::::::::::::::::::::::::::::::::::::::::::::::::::::::::::::::",
"::::::::::::::::::::::::::::::::::::::::::::::::::::::::::::::::",
"::::::::::::::::::::::::::::::::::::::::::::::::::::::::::::::::"
};
