/* XPM */
static char *_2861_31b1c19f4140dcf6f5a34ba60e5e1da9306dcabf15763172c988ae06e1543847[] = {
/* columns rows colors chars-per-pixel */
"64 64 16 1 ",
"  c #5F002A",
". c #772A2A",
"X c #5B3356",
"o c #545778",
"O c #9D0701",
"+ c #D5062A",
"@ c #A0592A",
"# c #D04A01",
"$ c #B38449",
"% c #6A8580",
"& c #9FB3A1",
"* c #FF9581",
"= c #FFCABE",
"- c #DCD5C5",
"; c white",
": c None",
/* pixels */
"::::::::::::::::::::::::::::::::::::::::::::::::::::::::::::::::",
"::::::::::::::::::::::::::::::::::::::::::::::::::::::::::::::::",
"::::::::::::::::::::::::::::::::::::::::::::::::::::::::::::::::",
"::::::::::::::::::::::::::::::::::::::::::::::::::::::::::::::::",
"::::::::::::::::::::::::::::::::::::::::::::::::::::::::::::::::",
"::::::::::::::::::::::::::::::::::::::::::::::::::::::::::::::::",
"::::::::::::::::::::::::::::::::::::::::::::::::::::::::::::::::",
"::::::::::::::::::::::::::::::::::::::::::::::::::::::::::::::::",
"::::::::::::::::::::::::::::::::::::::::::::::::::::::::::::::::",
"::::::::::::::::::::::::::::::::::::::::::::::::::::::::::::::::",
":::::::::::::XXXXX::::::::::::::::::::::::::::::::::::::::::::::",
":::::::::::::XXXXXX::::::::::::XX:::::::::::::::::::::::::::::::",
":::::::::::::XX-%%XX::::::::::XXXXX:::::::::::::::::::::::::::::",
":::::::::::::XX-&&oXX::::XXX:XX..XXXX:::::::::::::::::::::::::::",
":::::::::::::XX-;o&oXX::XXXXXX.@@..XXX::::::::::::::::::::::::::",
"::::::::::::::XX-;o&oXXXX...X.@@$@@..XX:::::::::::::::::::::::::",
":::::::::::::::XX-;o&oXX.@@@.@$$@@..XXXX::::::::::::::::::::::::",
"::::::::::::::::XX-;o&..@$$$@$$@..@@@@.XX:::::::::::::::::::::::",
":::::::::::::::::XX-.@@@$@@@@@@@$$@..XXX::::::::::::::::::::::::",
"::::::::::::::::::XX-;..@$$$.$$$$$$$@.XX::::::::::::::::::::::::",
"::::::::::::::::::XXX..@$$$@@.@@@@$@$@.XX:::::::::::::::::::::::",
":::::::::::::::::XX..@$$$$$.@....@$.@@@.XX::::::::::::::::::::::",
"::::::::::::::::::XXX.@@$@..$@@@$@@@..XXX:::::::::::::::::::::::",
"::::::::::::::::::XX.$$@@.@.$$@$$@.@*#XX::::::::::::::::::::::::",
":::::::::::::::XXXX.$.@@.$@@$$@$@@.@=#XX::::::::::::::::::::::::",
"::::::::::::::XXXX...@.@$@$@$$@$@.*.#oXX::::::::::::::::::::::::",
":::::::::::::XX   XX..@$$.$@@$@@.*# o%oXX:::::::::::::::::::::::",
"::::::::::::XX .$. X#*@@@.$.@$.@.# o&;%oXX::::::::::::::::::::::",
":::::::::::XX ..$.. X#.@..@.@@.@   o&-&oXX::::::::::::::::::::::",
":::::::::::XX @.$.@..X#...@#.@.. OOX%&%oXX::::::::::::::::::::::",
"::::::::::XX .$.$@@..OO.#O.O.@. OOO  XoXX:::::::::::::::::::::::",
"::::::::::XX @$@$@@.O++OO+O++.OOOOO  XXX::::::::::::::::::::::::",
"::::::::::XX @$$$@@.++++O++++++++OO  XX:::::::::::::::::::::::::",
":::::::::XX .@$$$@@.++++O++++++++OO XX::::::::::::::::::::::::::",
":::::::::XX @$$$$@@.O+++OO++++++OO @XX::::::::::::::::::::::::::",
":::::::::XX @$$@$@..O++O OO+++++O @.XX::::::::::::::::::::::::::",
":::::::::XX @$$@$@. OOO  @OO+++O.@. XX::::::::::::::::::::::::::",
":::::::::XX @$@.@..X    O  @@OO@@.O XX::::::::::::::::::::::::::",
":::::::::XX @$@... XXXX  O   O@@.OO XX::::::::::::::::::::::::::",
"::::::::::XX @... XXXXX.OO    OOOOO XX::::::::::::::::::::::::::",
":::::::::::XX... XX::XX.@..XXX OOOOO XX:::::::::::::::::::::::::",
"::::::::::::XXXXXX::::X.@@.X:XX OO+OOXX:::::::::::::::::::::::::",
":::::::::::::XXXX::::::X..X:::XX O++OXX:::::::::::::::::::::::::",
"::::::::::::::::::::::::::::::XX OOO.XX:::::::::::::::::::::::::",
":::::::::::::::::::::::::::::::XX..@.XX:::::::::::::::::::::::::",
"::::::::::::::::::::::::::::::::X.@@.:::::::::::::::::::::::::::",
":::::::::::::::::::::::::::::::::X..X:::::::::::::::::::::::::::",
"::::::::::::::::::::::::::::::::::::::::::::::::::::::::::::::::",
"::::::::::::::::::::::::::::::::::::::::::::::::::::::::::::::::",
"::::::::::::::::::::::::::::::::::::::::::::::::::::::::::::::::",
"::::::::::::::::::::::::::::::::::::::::::::::::::::::::::::::::",
"::::::::::::::::::::::::::::::::::::::::::::::::::::::::::::::::",
"::::::::::::::::::::::::::::::::::::::::::::::::::::::::::::::::",
"::::::::::::::::::::::::::::::::::::::::::::::::::::::::::::::::",
"::::::::::::::::::::::::::::::::::::::::::::::::::::::::::::::::",
"::::::::::::::::::::::::::::::::::::::::::::::::::::::::::::::::",
"::::::::::::::::::::::::::::::::::::::::::::::::::::::::::::::::",
"::::::::::::::::::::::::::::::::::::::::::::::::::::::::::::::::",
"::::::::::::::::::::::::::::::::::::::::::::::::::::::::::::::::",
"::::::::::::::::::::::::::::::::::::::::::::::::::::::::::::::::",
"::::::::::::::::::::::::::::::::::::::::::::::::::::::::::::::::",
"::::::::::::::::::::::::::::::::::::::::::::::::::::::::::::::::",
"::::::::::::::::::::::::::::::::::::::::::::::::::::::::::::::::",
"::::::::::::::::::::::::::::::::::::::::::::::::::::::::::::::::"
};
