/* XPM */
static char *Character_SpriteSheet_101636046540[] = {
/* columns rows colors chars-per-pixel */
"64 64 130 2 ",
"   c #5F002A",
".  c #4C3E3C",
"X  c #772A2A",
"o  c #4F413F",
"O  c #5B3356",
"+  c #4F4240",
"@  c #524543",
"#  c #564C45",
"$  c #584C46",
"%  c #554C4B",
"&  c #5A4E4B",
"*  c #5C5047",
"=  c #5D514D",
"-  c #5F5452",
";  c #604F4D",
":  c #625247",
">  c #64534C",
",  c #68554D",
"<  c #69594E",
"1  c #615653",
"2  c #695751",
"3  c #655A55",
"4  c #6B5A54",
"5  c #615758",
"6  c #645B5B",
"7  c #6B5E5B",
"8  c #725D54",
"9  c #725E5D",
"0  c #6A6156",
"q  c #6D615C",
"w  c #716056",
"e  c #74625B",
"r  c #79655D",
"t  c #79685E",
"y  c #545778",
"u  c #6C6361",
"i  c #746462",
"p  c #796662",
"a  c #756A66",
"s  c #7C6A63",
"d  c #776C6A",
"f  c #7A6D6B",
"g  c #7F7065",
"h  c #7E716D",
"j  c #7E7372",
"k  c #9D0701",
"l  c #D5062A",
"z  c #A0592A",
"x  c #D04A01",
"c  c #816E66",
"v  c #816E6A",
"b  c #827067",
"n  c #84726C",
"m  c #89756D",
"M  c #8B796F",
"N  c #817573",
"B  c #8A7674",
"V  c #847975",
"C  c #8C7B74",
"Z  c #867B79",
"A  c #8C7D7A",
"S  c #917D75",
"D  c #927E7B",
"F  c #B38449",
"G  c #8D8077",
"H  c #8E817C",
"J  c #938177",
"K  c #93827C",
"L  c #99857E",
"P  c #99887E",
"I  c #6A8580",
"U  c #8E8381",
"Y  c #948582",
"T  c #998683",
"R  c #968882",
"E  c #9C8A83",
"W  c #958989",
"Q  c #9E8C8B",
"!  c #9F908E",
"~  c #9E9392",
"^  c #A18E86",
"/  c #A28F8A",
"(  c #A88F8E",
")  c #A29087",
"_  c #A4918B",
"`  c #A9948E",
"'  c #A9988E",
"]  c #A38F91",
"[  c #A49392",
"{  c #AA9593",
"}  c #A69995",
"|  c #AD9B94",
" . c #AA9798",
".. c #AD9C9A",
"X. c #B19B96",
"o. c #B39E9A",
"O. c #B89E9B",
"+. c #AEA09C",
"@. c #B1A096",
"#. c #B3A29C",
"$. c #B9A49E",
"%. c #BAA99F",
"&. c #AE9FA0",
"*. c #B39FA2",
"=. c #9FB3A1",
"-. c #B5A5A2",
";. c #BAA5A2",
":. c #B7A9A1",
">. c #BDACA4",
",. c #B7ABAD",
"<. c #BDACAA",
"1. c #BFB1A7",
"2. c #BFB1AA",
"3. c #FF9581",
"4. c #C2A6A4",
"5. c #C3ACA6",
"6. c #C5ADAA",
"7. c #C8AFAB",
"8. c #C2B1A6",
"9. c #C4B2AC",
"0. c #CBB5AE",
"q. c #C7B8AF",
"w. c #C4AFB0",
"e. c #C5B5B1",
"r. c #C9B6B1",
"t. c #C7B8B2",
"y. c #CABAB3",
"u. c #FFCABE",
"i. c #DCD5C5",
"p. c white",
/* pixels */
"% % * % @ # # # % % % # % # % % % % # # # # # # % % & % # % % % % % % % % % % % % % % % + % % % % % % % % % % % % % % % % % % % ",
"# @ . . . O o o o o o o o o . o o . o # % % % # @ + + + O @ + + # % % = * = & % = * % & * % % = & & & & & & & = - & & - % % % % ",
"% % d H Z Z Z Z j j H U j H j j Z Z Z Z V Z V Z U U Z Z N 2 @ @ - j j j j N N j j j V j j j j j j j j j N N N N Z Z Z j j d 6 # ",
"# % H [ ~ ~ Q ] ~ ~ ~ ~ ~ ~ } ~ [ ~ } } [ [ [ [ } ..-.-.E s & @ 3 j W ~ [ ~ [ [ } ~ } ~ [ } } [ } } } [ [ [ [ [  . . .,.~ f 5 # ",
"# = j ! ! ~ ] ] [ ......} ~ [ ~ [ ~ [ _ [ ! ~ } [ [ #.-.E i @ . - j Y ~ ~ ! ! ! ! ~ _ ~ ! ~ _ ~ ~ ~ ~ Q ~ / _ [ } +.&.,.~ j - % ",
"# % H ~ ! [ ]  .&.-.<.,.&.} } ..} } } } } } _ } +.&.y.<._ v > & 7 A ! } } [ ! ' _ _ [ _ [ _ [ _ _ [ [ [ [ [ [  .+.,.,.2.&.j - % ",
"# = H [ Q _ [  .&.-.,.-...[ } } ' _ _ _ _ _ _ _ ..<.q.>._ B 4 1 a D ! } _ _ ! ! _ Q Q _ ! ! / ! Q _ Q ! / / ] [ ..&.2.2.+.V - & ",
"# = U [ [  .[  . ...#...#...[ [ ! ! _ _ ! ! ! _ | <.q.:.E n 4 2 p D _ } _ ) ) Q Q / ) Q ^ ) ^ ^ ! / / / / Q Q [ ..#.,.2.+.j - # ",
"% & A &. .*.*.*. .[ ] ]  .X. .[ _ _ _ ! _ ! _ _ ..>.q.>.E N 4 2 s D _ [ _ _ _ _ Q / / ! / / / ! _ / _ / / ( / [  .-.<.e...N - # ",
"% % A  . .*.*.*. .T B A ]  .o.| | ' _ _ _ _ _ [ X.5.q.>.E n 4 2 p K _ { _ _ ) ! ) _ / ^ / / / _ Q _ / _ / / / [  .#.,.w.#.N - # ",
"% & A  . .4.w.*.] N 9 i D [ o.O.@.| ' _ _ _ _ _ @.>.r.>.E n 4 2 p J _ _ _ _ ) _ ) / _ ^ _ _ ) _ _ _ / / / ( / ` X.*.5.w.+.N - # ",
"$ & A  .*.4.4.*.T v 4 9 B /  .#.X.{ ` _ Q _ ^ _ X.>.0.4.L n 8 , p J _ [ _ _ _ ) _ _ ) / _ E _ / / / / / / / ^ ( | O.<.e.#.V - # ",
"$ & A  . . .( T D n s c C T ^ _ ' ` _ / _ ^ _ _ | >.0.O O O 4 , O O O O _ _ _ Q ^ _ ^ / / ^ Q _ / Q _ ^ / / / ` | O.>.e.+.V - # ",
"# & Y ..] D v v v n B D D C B S J P ^ ^ ^ _ ) _ X.O O O O O O O O O O O O O ) _ ) / _ ) _ _ / _ _ _ _ _ _ ^ ( ` | o.<.9.-.N - # ",
"% & U ..A f 9 9 p v D T B v s c n C E ^ _ E _ O O O O X X X O O X X X X O O O O _ _ / _ ) _ / ^ _ / / _ _ _ ( ` | o.>.q.+.V - # ",
"# % U ] B v 9 9 v A T T B c s s v C L ^ ^ _ O O O X X z z z X X z z z z X X O O O / _ ^ _ ^ _ _ ^ _ _ ^ ^ ) ) ` X.#.>.9.-.V 1 # ",
"# & V D V v f v B T ^ ^ D v n n m S T ^ ^ O O X z z z F F F z z z F F F z z X X O O ` ) _ ) ` / _ _ ) _ ) ` ) ` X.O.8.9.#.V 5 # ",
"% & j j v B B A Y ^ / / T D B B D L ^ ^ ^ ^ O O O X X z z z z z F F F z z X X O O O O _ _ _ ^ _ _ _ ) _ ) ) ( ` X.$.8.8.#.V 1 # ",
"# % d a v D D T Q / [ [ ] ^ L T ^ ^ ^ ^ / O O O X X z F F F F z z z z X X z z z z X O O ) / ^ _ _ / _ _ ) ( ) ` X.$.8.0.#.V 1 # ",
"# = d d v D T ] ( [ ` _ [ ( ^ ^ / ( ` / O O X X z F F F F F z X F F F F F z X X O O O _ ^ ` ` ) _ _ ) _ ) ( ) ` X.@.5.7.-.N 1 # ",
"% & f N N T ( ] ] ( ( _ ( / / / _ ` / ` / O O O X z z F F F F z X z F F F F F z X O O ) _ _ _ ` ) ` _ _ ^ ) ^ ` | $.5.9.#.V - # ",
"% & j Z A W ] ( / / / / / / ^ ^ ^ ^ ^ ^ O O O X F F z z z X X z X X X z z F z F z X O O ) / ^ ^ ^ ^ ^ _ ^ ^ ^ ` X.-.5.q.-.j - # ",
"% & N W T T ] ] / / / / ^ ^ ^ ^ ^ ^ O O O X X F X z z X X z X z z z z X z F X z z z X O O ^ ^ ^ ^ ^ ^ ^ ^ ^ ^ ` X.%.2.e.&.V - # ",
"% & Z ] ] ] ( ] ( ] / / / / / _ / O O O X X X X z X z F F z X F F z F F z z z X X O O O ^ ) ^ ) ^ / / ^ ^ ) ^ ` X.;.9.e.-.Z - # ",
"% & A &. . . . .o... .{ ` ` ` ` ` O O X F F z X X z F F z F z F F z F F z X z 3.x O O ` ` ' ` ` ` ` ` ` ` ` ` { @.;.6.e.-.Z 5 # ",
"$ & U ,.*.*.-.;.*.;.4.O.$.O.O.O.O O X F z X   x 3.z z z X F z z F z F z z X z u.x O O @.O.o.O.#.O.O.O.O.$.O.O.4.%.5.r.r.&.N 1 # ",
"% = U w.,.6.6.w.6.7.6.6.7.6.9.5.O O X F X X k k x X z X X F z z F z z z X 3.X x O O >.8.4.5.5.5.5.5.5.5.5.5.4.4.5.9.y.r...j 1 # ",
"% = Y ,.-.;.6.6.6.6.6.6.6.6.6.O O X F z X k l k k x X X X z X z F X z X 3.x O O O >.8.>.5.5.5.6.5.5.4.7.7.4.6.4.5.6.r.e.} h 3 # ",
"% & Z [ Q [ | o.O.X.o.X.X.X.o.O O X F X X k l l l k X x X z X z z X z X x O O O O @.' @.| X.| X.X.X.X.X.X.X.X.X.X.X.-.o.W d 7 # ",
"# & N Z v N A A D B C D D D J O O X F X X k l l l k k   k X x X z X X   k y y O O O G G G G C G S S S S D D D D D D Y T Z q 6 # ",
"# & 1 9 6 4 4 3 4 2 2 3 4 3 3 O O X F X X k k l l k   k k k k X z X k k y =.i.y y O O 0 2 3 0 4 3 2 2 3 2 1 2 4 2 2 4 = $ # # # ",
"# & & & ; & & & & $ & & & * * O O X z X X   k k k     k l l l k X k l l y =.i.p.I y O O o # o # # # @ # @ @ $ $ % @ $ & $ # # # ",
"% % = - 3 7 e q q 0 q q e e e q O O   z X X           k l l l l k l l k O I =.i.p.I y O O 0 0 0 0 0 0 3 4 2 7 9 9 9 9 p i 1 - % ",
"@ & j v f h Z Z Z V G V G V C C O O O   z X X X X X   k l l l l l l l k   O I i.i.=.y O O m m N N j h h v v v B D C D T Z 7 5 & ",
"% & j U B T T Q W R R R P R E P P O O O   z X X X X X k l l l l l l l       O =.=.I y O O R R E E R R R L T L ^ / ]  . .T u 7 = ",
"& & N Q T / ] ] _ _ _ _ _ ! _ ^ _ _ O O O           X z k l l l l l l k   k k O O y O O } ' | | { | { | {  .{ X.X.O.<.;.W a u = ",
"# & Z [ ( [ ( ( [ ` ( ( ( ( ` ` ' ` ` O O O O O O O   X z k l l l l k X   k l l k O O X.X.X.X.X.X.O.X.O.O.O.4.O.O.o.O.o.W i q = ",
"# & j [ ] [ ( ( ( ( ( ( ` ( ) ` ` / / ^ _ O O O O O   k X z X k k k z k k l l l k O O X.X.O.$.$.O.4.4.4.4.4.4.4.o./ T Y B 6 - & ",
"% & V [ ] [ ] ( ( ` ` / ( / ( _ ) ( ( / ^ ^ / ' O O O   k k z z z z k   y k l l k O O ` X.$.4.4.4.5.7.0.7.0.0.7.{ D v i 6 & % # ",
"# = j [ ( [ [ ( ( ( / ( ` / _ _ ` ( ^ ` _ / ) ' X.O O   k k   k k k k   y k l k O O ` ` X.$.5.5.6.0.0.0.0.0.0.4.` S p 2 ; @ % + ",
"# = N [ ] [ ( ] ` ( / ( _ ( ( ( ^ ( ( ^ ^ ^ ) ' | O O   k k       k k O 3.u.3.k O O ` { { X.@.O.O.X.X.X.@.@.X.` T S n s 9 = & % ",
"# = Z [ [ [ ( ] ] _ ( _ _ _ ` _ ` _ ` ^ / ( / ' X.O O X k k     k k l k 3.3.u.O O | X.X.` ^ ^ L S S M M M M m m S L ^ D n 7 5 & ",
"# & j [ ( [ [ ( _ ] [ / / _ _ _ ^ _ _ / ^ _ ) ` X.O O X z X X   k l l k =.I u.O O X.@.@.` J v r c 8 c , c 8 8 r m ^ ` { R a 6 = ",
"# = j [ ] [ ( ( ( / ( _ _ _ _ _ ` / ` ^ _ ^ _ ` X.%.O X z z X   k l l k y O O O | X.$.#.( M 9 , : : , , : : , 8 b ^ O.%.[ h 6 = ",
"% & N ] ] [ ( ] [ ( ( ( / ` ` ^ ` / ` / ^ ^ _ _ | %.5.O X X O O k l l k O O O | | ' { ` L M r 8 , , 8 8 8 8 8 w m ^ ;.<...f 6 = ",
"% & N  .] [ [ ( _ / / _ / _ / ` ^ ` ^ / _ _ _ ` X.%.5.5._ m O O k k k X O O @.@.' _ L D M m n c c c c c c c c b L | 8.9...d 6 = ",
"# & N [ ( [ ] ( ( ( ( / ` / / / _ ` ` / _ / ) _ | %.9.>.` n O O X X z X O O %.$.' L n c b m B S S S D D J J S L ^ @.q.q...d 6 = ",
"% & N  .] [ [ ( [ _ _ _ ( ` ` / ` / _ / ) ) / ' X.%.8.5._ n < O X z z X O ;.;.#.) B t t c m S L ^ ^ ^ ^ ) ^ P ^ ' $.q.t...f - = ",
"$ & N [ [ [ ( [ ( _ ( _ _ _ ` _ _ ` ) _ ) ) _ ` | %.9.5._ n < , O X X O $.%.#.' L n t s b M P P ^ ( ` ) X.P X.P O.4.0.q.@.d - - ",
"# = N  .( [ [ ( [ _ [ _ _ _ ( ` _ _ _ _ ) _ ) ` | %.8.>.` m 4 , s L { #.X.' ^ L S n n m M G P E ^ ^ ^ ` P ` P X.P $.0.0.' g - = ",
"% & j [ [ { ] [ ( _ [ _ _ _ _ _ _ _ ) ' _ ) _ ` | %.8.4.) n < < c P @.%.| J b b c n C J L P E E ^ _ ^ ) P ' P ` @.4.0.0.+.d - - ",
"# - V [ [ [ [ _ ( _ _ _ _ _ _ _ ' ) _ ) ) ) _ _ | %.8.5.' m < < b ) >.8.' M w w r m J P ) ) ) ) ) ) ^ _ ` P ` ` P 5.7.0.+.d - - ",
"# & N [ _ | [ _ [ _ _ _ _ _ _ _ ' ) ) ) ' P ) ' @.%.8.>.' b < < b ) 8.8.' b < : e m J ) ) ' ) ) ) ) ) ) ) ) ` P ` #.q.t.+.d - - ",
"% & j } [ [ [ _ _ _ _ _ _ _ _ _ ) ) ) ) ) ! ) ) | %.8.1.' b < < s ) %.8.' b 0 : t M P ) ' ) ) _ _ ) ) ) ) ) P ` ` $.9.t.+.d - = ",
"# = j [ _ [ _ ( _ _ ) _ ) ) ' _ ' ' ) ) E ! ! ' | %.8.8.) m < : t ) %.%.) b < < t G P E ) ) ) ) ) ) ) ) ) ) P ) ' $.9.t.+.j - - ",
"# = N [ [ _ _ _ _ ! Q _ ) Q ! _ P ! ) ' P P E _ ' %.8.8.' b < : t ) %.%.) b < < t J P ) ) ) E ! ) ) ) ) ) ) ) ) ' @.9.t.+.d - - ",
"% = V  . . .[ ] [ _ [ _ _ _ _ _ _ _ _ ) _ _ ' ' @.%.8.1.` b 4 : e K ..| E n w e n P Q _ _ ) _ _ ) Q ) _ ) ) ) ) ' $.q.9...d - - ",
"% & Z ,.-.;.-.*.-.+.#.+.+.+.#.#.+.#.@.+.+.@.#.#.%.1.q.1.' n 4 > 0 b J R J V V C W } | @.+.@.@.| +.@.| | X.| @.| @.5.r.e.} f - - ",
"# & Z t.e.e.e.w.9.e.<.2.2.9.2.9.2.2.2.2.1.2.2.2.9.q.y.1.! b 2 > < r f n C P _ @.:.2.2.2.1.2.2.1.1.1.2.>.1.1.1.1.5.9.y.y.&.j - - ",
"& & Z 2.e.r.r.e.e.e.e.e.e.9.e.q.q.t.2.q.2.2.q.t.y.y.t.:.R g 2 ; , 4 e p V ! +.<.2.2.9.t.q.t.e.t.t.q.9.q.q.9.9.9.8.9.t.t.&.j 6 - ",
"# = j ..-.-.-.-.-.-.-.-.:.:.-.-.:.-.#.#.+.+.#.1.1.1.#._ Z e > $ & 2 3 q h R ' } } ..+.} +.+.+.#.+.+.+.+.+.@.#.%.#.%.#.&.! d 6 - ",
"# & f A A R T Y Y Y Y Y U R R W Y K K U U H R W ! ! P G s 4 = $ # = 1 2 e j G G G G H G H H K U H H G K K K K E ! W K U j 6 - - ",
"% & q 7 7 7 q 7 q q q q q q q q q 7 q q q 0 q e a a q = & @ @ & @ # = = - u a a d h h h h h h h h h h h h g g V V g a a u - 6 - ",
"# & - 6 5 3 5 5 6 - 1 1 5 - - - 1 1 1 - - 1 - - - - - % & & & % @ # # % = = - = = = * = - = - > = = 1 = = - 3 - - - - - - - & & "
};
