/* XPM */
static char *Character_SpriteSheet_121636046540[] = {
/* columns rows colors chars-per-pixel */
"64 64 128 2 ",
"   c #5F002A",
".  c #4C3E3C",
"X  c #772A2A",
"o  c #4F413F",
"O  c #5B3356",
"+  c #4F4240",
"@  c #524543",
"#  c #564C45",
"$  c #584C46",
"%  c #554C4B",
"&  c #5A4E4B",
"*  c #5D514E",
"=  c #5F5452",
"-  c #604F4D",
";  c #625247",
":  c #64534C",
">  c #68554D",
",  c #69594E",
"<  c #615653",
"1  c #695751",
"2  c #655A55",
"3  c #6C5B54",
"4  c #615758",
"5  c #645B5B",
"6  c #6B5E5B",
"7  c #725D54",
"8  c #725E5D",
"9  c #6A6156",
"0  c #6D615C",
"q  c #716056",
"w  c #74625B",
"e  c #79655D",
"r  c #79685E",
"t  c #545778",
"y  c #6C6361",
"u  c #746462",
"i  c #796662",
"p  c #756A66",
"a  c #7C6A63",
"s  c #776C6A",
"d  c #7A6D6B",
"f  c #7F7065",
"g  c #7E716D",
"h  c #7E7372",
"j  c #9D0701",
"k  c #D5062A",
"l  c #A0592A",
"z  c #D04A01",
"x  c #816E66",
"c  c #816E6A",
"v  c #827067",
"b  c #84726C",
"n  c #89756D",
"m  c #8B796F",
"M  c #817573",
"N  c #8A7674",
"B  c #847975",
"V  c #8C7A74",
"C  c #867B79",
"Z  c #8C7D7A",
"A  c #917D75",
"S  c #927E7B",
"D  c #B38449",
"F  c #8E817C",
"G  c #938177",
"H  c #93827C",
"J  c #99857E",
"K  c #99887E",
"L  c #6A8580",
"P  c #8E8381",
"I  c #948582",
"U  c #998683",
"Y  c #968882",
"T  c #9C8A83",
"R  c #958989",
"E  c #9E8C8B",
"W  c #9F908E",
"Q  c #9E9392",
"!  c #A18E86",
"~  c #A28F8A",
"^  c #A88F8E",
"/  c #A29087",
"(  c #A4918B",
")  c #A9958E",
"_  c #A9988E",
"`  c #A38F91",
"'  c #A49392",
"]  c #AA9593",
"[  c #A69995",
"{  c #AC9A94",
"}  c #AA9798",
"|  c #AD9C9A",
" . c #B19C96",
".. c #B39E9A",
"X. c #B89E9B",
"o. c #AEA09C",
"O. c #B1A096",
"+. c #B4A29C",
"@. c #B9A49E",
"#. c #BAA99F",
"$. c #AE9FA0",
"%. c #B39FA2",
"&. c #9FB3A1",
"*. c #B5A5A2",
"=. c #BAA5A2",
"-. c #B7A9A1",
";. c #BDACA4",
":. c #B7ABAD",
">. c #BDACAA",
",. c #BFB1A7",
"<. c #BFB1AA",
"1. c #FF9581",
"2. c #C2A6A4",
"3. c #C3ABA6",
"4. c #C5ADA9",
"5. c #C8AFAB",
"6. c #C2B1A6",
"7. c #C4B3AC",
"8. c #CBB5AE",
"9. c #C7B8AF",
"0. c #C4AFB0",
"q. c #C5B5B1",
"w. c #C9B6B1",
"e. c #C7B8B2",
"r. c #CABAB3",
"t. c #FFCABE",
"y. c #DCD5C5",
"u. c white",
/* pixels */
"% % $ % @ # # # # % % % % # # % # % # # # # # % % % % % # % % % % % % % % % % % % % % % + @ # % % % % % % % % % % % % % % % % % ",
"# @ o o o O o o . o o + o o . o o o + # % % % # @ o @ + o O o o @ * % * * $ * $ * * $ * * % & * & & & % & & * - * * & % % & % % ",
"% % p F C C C C h C C P h F h h C C C C B C B B F P C C M 2 @ # < h h h h h h M h h h h h h B h h h h M h M M M C C C C h s 4 # ",
"# % F ' Q Q ` E Q Q Q Q Q Q [ Q ' ' ' [ ' ' Q [ [ | *.*.E i $ @ 2 h R Q ' Q ' ' Q [ [ ' [ Q [ Q [ ' ' ' ' ' ' ' } } } :.Q d 4 % ",
"# * B W W Q E ` ' | | | [ Q ' Q ' ' Q ( ( ( ' ' [ ' +.*.T u @ . = h Y Q Q W W W W W W Q W Q W Q Q Q W W W ` ~ ' [ o.o.:.Q h = % ",
"# % F Q W ' ` } $.*.>.:.$.[ [ | [ [ [ [ [ [ Q _ | o.r.>.( b : % 6 C W [ [ ' ( _ ( ' ' ( ( ( ' ' ' ' ' ' ' ' ' } o.:.:.<.$.h = % ",
"# % F ' E ~ ` } $.*.:.*.| [ [ [ ( ' ( ' ( W W ( | >.e.;./ b 3 1 p S ( [ _ ( W W W ( E ( ( W E ( ( ( ( W E ~ ' ' | $.<.<.o.B = % ",
"# * P [ ' ] } } } | ....| } [ ' ( W W ( / W W ) | ;.9.=.E b 6 1 a S W ' ( / E E E ~ ! / E / ! ~ W E E ~ ! ~ E ' { *.:.<.o.h < # ",
"% & C $.} %.%.%.} ' ` ` } ..} ' ( / ( ( W / ( ' O.;.9.;.T M 3 1 a S ~ [ ' / E ~ / ~ ( E ~ ~ ~ W ( ~ ( ~ ~ ~ ^ ' | *.>.q.| M = # ",
"% & Z } } %.%.%.] R N S E } ..| { ) ' ( ( ( / ' ..;.e.;.T b 3 1 i H ( ' ) ( / ~ ~ ~ E ( ~ ~ ~ ( E ( W ~ ~ ~ ! ^ | ..>.0.$.M = # ",
"$ & Z } } 2.0.%.` N 8 8 A ' ....| { ) ( W ( ( ' | ;.8.;.T v 7 > i H / ] ' / ~ / ( ( / ( ~ / ( ( ( / ~ ( ~ ~ ~ ) } X.>.0.o.M = # ",
"% & S } %.2.2.%.R c 3 8 N ~ | +...{ ) ( / ! ~ ( | 3.8.2.U b 3 > i S ! ) ( ( / ( ! ! ( ! ! ( / E ( ~ ~ ~ ^ ~ ! ^ { X.>.q.+.B = # ",
"# & Z } } } ^ U S c a c A U ~ ^ ) / ( / / / / (  .#.8.O O O 3 > O O O O ( / ( / ~ ( ( ! ~ ! ~ ( ~ ~ ~ ~ ~ ~ ~ ) { +.>.7.o.B = # ",
"# & I | E S c c c N N A Z N N A H T ! / / / / ) { O O O O O O O O O O O O O / / ~ / ( ! ( ( ! ( ( ! ( ( ) ~ ^ )  .X.;.q.*.M = # ",
"% * P | S d 8 8 u b S J V c a x v A T ! ! ! ( O O O O X X X O O X X X X O O O O / ~ ( ( ! ( ( ~ ( ~ ~ ( ~ / ! ) { X.,.7.+.B = # ",
"% % P E N d 8 8 c S U U N x i a c V U ! ! ~ O O O X X l l l X X l l l l X X O O O ( ~ / ( ! ~ ( ! ( ( ! / ~ / )  .+.;.7.o.B 4 # ",
"# & B S B c d c N J ~ E S c c v n S U ! ! O O X l l l D D D l l l D D D l l X X O O ) / ~ ) ~ ) ( / ( ( / ) / )  .X.3.7.+.B 4 # ",
"% & h h c N N Z I ! ~ ~ U S V V S J ! ! ! ! O O O X X l l l l l D D D l l X X O O O O ( / / / / ( ( / ( / ) / )  .X.6.7.+.B < # ",
"# & s p c S S U E ~ ' ' ^ U U U ! ! ! ! ! O O O X X l D D D D l l l l X X l l l l X O O ~ ) ! ~ / ^ ( ( / / / )  .@.3.8.+.B < # ",
"# & s s c S U ` ^ ' ) ( ) ^ ! ! ~ ) ) ~ O O X X l D D D D D l X D D D D D l X X O O O / / ~ ) ! / ( / ( / ) / )  .@.3.6.o.B = # ",
"% & d M M U ` ^ ^ ~ ' ^ ( ~ ~ ~ / ) / ^ ~ O O O X l l D D D D l X l D D D D D l X O O ~ ) ! ) ) ( ( / / ) ~ ) ) O.+.4.q.*.B = # ",
"% & h C Z R ` ` ~ ~ ~ ~ ~ ! ! ! ~ ~ ! ~ ~ O O X D D l l l X X l X X X l l D l D l X O O / ! ! ! ~ ~ ~ / ! ! K ^  .+.4.q.+.B = # ",
"% & M R U U ` ` ~ ~ ~ ! ~ ! ! ! ! ! ! ! O O X D X l l X X l X l l l l X l D X l l l X O O ! ! ! ! ! ! ! ! ! ! ^  .#.<.q.*.h = # ",
"% & C ` ` ` ^ ^ ^ ` ~ ^ ~ ~ ! ^ ^ ~ ~ O O X X X l X l D D l X D D l D D l l l X X O O O ! / ! ! / ~ ~ ! ! ! ! )  .#.<.q.*.C = # ",
"$ & C %.} } } } } X.} ] ) ) ) ) ) ) ) { O O O X X l D D l D l D D l D D l X l 1.z O O ) ) ) ) ) ) ) ) ) ) ) {  . .=.4.q.*.C < # ",
"$ & P :.%.%.=.=.=.%.X.X.@.X.X.X.X.O.X.@.@.O O z 1.l l l X D l l D l D l l X l t.z O O +.....+.X.X.X.X.X.X.X.X.X.#.4.w.w.o.M 4 # ",
"% & P 0.:.>.0.4.4.4.5.5.4.4.4.4.3.3.O O O O O O z X l X X D l l D l l l X 1.X z t t O O 3.3.3.3.3.2.2.3.3.3.2.2.2.7.r.w.| h 4 # ",
"% & R :.*.=.4.4.4.5.5.5.4.4.7.4.6.O O O O O O O O z X X X l X l D X l X 1.z &.u.u.L t O O 3.3.3.3.3.5.3.3.3.5.2.2.7.r.q.[ g 2 # ",
"$ & C ' E ' | ..X.}  . ....... .O O X X X X X X O O X z X l X l l X l X z t &.y.y.y.L t O O { {  . . . . . .}  . ...*...R s 0 # ",
"% * M C b M Z Z S A A Z A Z Z O O X D D l l X X   j j j j X z X l X X     O L &.&.&.L t O O Z G A A A A S Z S S S A I I N 0 4 # ",
"# & = 8 2 6 2 3 1 1 2 3 6 3 O O X D D l X X j j j   j k k j j X l X   j     O L &.L L t O O 9 3 2 1 3 2 3 1 1 3 1 1 3 * $ # # # ",
"# & & & - & & $ & $ & $ $ O O X D D l X X j k k j j k k k k k j X j k j       O O O t O O o o # # @ # # @ @ # $ @ % $ $ * # # # ",
"% & & = 2 6 y 0 0 0 0 0 0 O O X D l X X j k k k k j k k k k k k k k k j   t   j j j j O O 9 9 9 9 9 9 2 3 3 6 8 w 7 8 i u = = % ",
"% & d d s b C N V B B B N O O X D l X X j k k k k j k k k k k k k k k j   O j j j j j O O B m B h h g g c c c M N Z S I N 6 4 = ",
"$ & M S Z I U E Y T R T T O O X D l X X j k k k k j j k k k k k k k k j   O z z j j O O K K T T T Y K K U U J ! ^ ' | | R y 6 & ",
"# & M ~ R ~ ` ` ( ( ( ( ( O O X D l X X j k k k j j   j k k k k k k j j l t z 1.1.O O _ _ [ [ [ ] { { [ ] } ] X. .X.=.=.R p y * ",
"# & B ' ^ ' ^ ^ ' ^ ^ ) ) O O X D l X X j j j j   j   l j j k k k j X l X O &.L 1.O O  . . ... ... .X.X.X.X.X.X.X...%...R u 6 & ",
"% & M ' ^ ] ^ ` ` ^ ^ ^ / O O X D l X X X               l l j j j l l X j O t O O O _ {  .X.X.@.X.2.2.2.2.2.2.2...~ U S M 6 = & ",
"% * M ' ` ' ' ` ^ ^ ^ ~ ^ ~ O O l D X X X X   j j       j X l l l X j j j O O O O ) ) )  .@.2.2.3.4.5.5.5.8.8.5.] S c u 6 & % % ",
"# & M ' ` ' ^ ~ ^ ^ ) ^ ^ ^ O O   D l X X X X X j O   j j j j j j   j j   O O O ) )  .) ) @.3.4.5.5.8.8.8.8.8.2.^ A i 3 & @ # @ ",
"# * M ' ` ' ^ ^ ( ^ ( ^ ( ^ ) O O   D X X X X X X O O   j j j       j j X O ( _ _ _ { ) )  .X.@. . . . . . .X.K ! A b i 8 & & $ ",
"% & M ' ` ' ` ' ` ( ` ( ( ( ( / O O   D X X X     O O   j k k j   X X l X O ( _ _ {  . .) ! K J A A m m m A m n A J ! S b 6 4 * ",
"# * h ' ^ ' ^ ^ ( ^ ( ` ^ ( ( ~ ) O O         O O O O O j k k j   X l l X _ ) ) _  .+. .) H c e x 7 x > x 7 7 x n J  .{ Y p 5 * ",
"# * h [ ^ ' ^ ' ` ( ^ ( / ( ) ^ ~ ) O O O O O O O #.O O j k k j   O X X O ( _ _ {  .+.+.) n w > ; ; > > ; ; ; 7 x ! X.@.' g 5 * ",
"% & M } ` ' ` ^ ' ^ ^ ^ ( / / ~ ( ( / O O O O ) ) #.O O j k k j O O ( { { _ _ { { { { ) J n e 7 > 7 7 7 7 7 7 q n / =.;.{ h 6 % ",
"% & M ` ` ' ^ ` ~ ( ~ ( ( ^ ) ) ( ( ( ^ / / / / { #.O O X j j j O O (  .O.+... .{ / J A V n c x x x x x v x x v J { 6.7.[ d 5 = ",
"# & M ' ` ] ' ^ ^ ^ ^ / ( ( / ( ( ) ( ( ! ( ( )  .#.O O X l X X O O ) | +.@.#.+.) H n c x n N A S A A A J G A J / +.7.e.| s 5 * ",
"% & M } ` ' ` ^ ' ( ( ^ ^ ' ^ ~ ) ~ / ^ ( / ! )  .#.7.O X l l X O H )  .@.#.;.+./ m r r x n A J ! ! ! ! K ! K ! _ @.e.e.| d = * ",
"# & M [ ` ] ` ' ^ ( ( ( ^ ( ) ( ) ( ( ( / / ( ) | #.7.3.O X X O r H )  .+.@.+._ J b r a v m K K ! ~ ) ^ K  .K  . .2.8.8.O.p = * ",
"# * M ' ^ ] ' ^ ' ( ' ( ( ( ^ ) ( ( ( ( / / / ) { #.6.;._ v , , x J _ ..O.) ! K V v b n m G K K ! ~ / / ) )  .K K X.8.8.O.f = * ",
"% * M ' ' ' ' ( ^ ^ ( ( ( ( / ( ( ( / / / / / ( _ #.4.;.( v 7 , x K +.#. .G n f v n m G J J K T ! / / / ) K K ) O.@.5.8.o.s = = ",
"# - h } ' ' ' ( ( ' ( ( ' ( ( ( / _ ( _ / / ) ) { #.6.3._ n , , x / ,.6._ m 9 , r b G T ! / / / / / ~ / ) K ) K O.X.6.8.o.g = * ",
"# & B ' ' { ' ^ ' ( Q ( ( ( ) ( / _ T / T / T _ O.#.6.3._ v , , v ( 6.6._ v , , w n J T _ ( / / ( ( ( / / / _ ) ) @.9.e.o.s = = ",
"% * h ' ( ) ' ( ( ( ( ( ( ( ) / / _ _ T / / / _ { #.6.6._ v , , r ( 6.#._ v , , r m K / / _ / _ ( / / / ) K K K ) +.7.e.o.p = * ",
"# & h [ Q ' ( ^ ~ ( / ( ( / / ( _ T / W / T T _ O.#.6.#._ n , ; f ( #.#./ v , , r G K / / T / / / / / / / / / ) ) @.7.e.o.s = = ",
"# * h ' ( ' ( ~ ~ ~ / / W / / W _ T / K _ T W ( { #.6.6./ v , $ r K #.#.E v , , r G K T / / W / / / / / K / K _ ) @.7.e.o.h = = ",
"% & M | } } ] ' ' ' ' ) ( ( ( _ ( ( ( W / ( ( _ O.#.6.,.( n , ; q J { [ T b q w b Y W / / ( ( ( / E / / ( ( ( ( _ @.q.q.[ s = = ",
"% * C :.*.=.*.%.*.| | o.o.o.O.O.+.o.O.O.O.o.o.#.#.,.9.,.) v 3 : 9 v H U G V b V T ' O.o.O.{ | | O.O.| [ O._  .{ @.#.q.q.| s = = ",
"# & C q.q.q.0.0.0.q.>.7.<.6.7.<.<.<.<.<.,.<.<.<.9.9.r.,.( g 3 - , w a b F K ( o.-.<.,.,.<.,.,.,.,.,.,.,.,.#.,.;.3.6.r.r.$.h = = ",
"$ & C <.q.w.w.q.q.q.q.q.q.e.q.q.e.9.e.<.<.<.9.e.e.e.e.-.T f 1 - : 3 u a m Q o.;.<.<.<.9.e.e.e.e.e.q.9.9.7.9.9.6.6.6.e.e.$.h 5 = ",
"% & h | *.*.*.*.*.-.*.*.*.*.*.*.*.+.*.o.o.o.+.:.,.,.+._ Z w : & & 2 9 0 g K Q O.[ o.o.[ o.o.o.+.o.+.o.o.O.+.+.#.*.-.o.*.Q s = = ",
"# * s F Z R I I I P Y U I Y R Y I I F K P F Y T W E K B i 1 & $ # * : 2 0 h h F C F F F F F P F F F F F F G H T W Y F P h 6 = = ",
"% * 0 6 6 0 0 0 0 0 0 0 0 0 0 0 0 0 0 0 0 0 0 w p p y * & % % & @ # * % = r p p f f g g g g b h g g g g f g g m B f s s y = y * ",
"# $ 4 4 < 2 < 4 4 = 4 4 = = = = = : < = = = < < * * * * & $ # @ # # # # & = = = * * * * * = * * = * : * = = = = = = * = = * * % "
};
