/* XPM */
static char *Character_SpriteSheet_111636046540[] = {
/* columns rows colors chars-per-pixel */
"64 64 128 2 ",
"   c #5F002A",
".  c #4C3E3C",
"X  c #772A2A",
"o  c #4F413F",
"O  c #5B3356",
"+  c #4F4240",
"@  c #524543",
"#  c #564C46",
"$  c #584C46",
"%  c #554C4B",
"&  c #5A4E4B",
"*  c #5D514D",
"=  c #5F5452",
"-  c #604F4D",
";  c #625247",
":  c #64534C",
">  c #68554D",
",  c #69594E",
"<  c #615653",
"1  c #695751",
"2  c #655A55",
"3  c #6B5A54",
"4  c #615758",
"5  c #645B5B",
"6  c #6B5E5B",
"7  c #725D54",
"8  c #725E5D",
"9  c #6A6156",
"0  c #6D615C",
"q  c #716056",
"w  c #74625B",
"e  c #79655D",
"r  c #79685E",
"t  c #545778",
"y  c #6C6361",
"u  c #746462",
"i  c #7A6662",
"p  c #756A66",
"a  c #7C6A63",
"s  c #776C6A",
"d  c #7A6D6B",
"f  c #7F7065",
"g  c #7E716D",
"h  c #7E7372",
"j  c #9D0701",
"k  c #D5062A",
"l  c #A0592A",
"z  c #D04A01",
"x  c #816E66",
"c  c #816E6A",
"v  c #827067",
"b  c #84726C",
"n  c #89756D",
"m  c #8B796F",
"M  c #817573",
"N  c #8A7674",
"B  c #847975",
"V  c #8C7A74",
"C  c #867B79",
"Z  c #8C7D7A",
"A  c #917D75",
"S  c #927E7B",
"D  c #B38449",
"F  c #8E817C",
"G  c #938177",
"H  c #93827C",
"J  c #99857E",
"K  c #99887E",
"L  c #6A8580",
"P  c #8E8381",
"I  c #948582",
"U  c #998683",
"Y  c #968882",
"T  c #9C8A83",
"R  c #958989",
"E  c #9E8C8B",
"W  c #9F908E",
"Q  c #9E9392",
"!  c #A18E86",
"~  c #A28F8A",
"^  c #A88F8E",
"/  c #A29087",
"(  c #A4918B",
")  c #A9948E",
"_  c #A9988E",
"`  c #A38F91",
"'  c #A49392",
"]  c #AA9593",
"[  c #A69995",
"{  c #AC9A94",
"}  c #AA9798",
"|  c #AD9C9A",
" . c #B19B96",
".. c #B39E9A",
"X. c #B89E9B",
"o. c #AEA09C",
"O. c #B1A096",
"+. c #B4A29C",
"@. c #B9A49E",
"#. c #BAA99F",
"$. c #AE9FA0",
"%. c #B39FA2",
"&. c #9FB3A1",
"*. c #B5A5A2",
"=. c #BAA5A2",
"-. c #B7A9A1",
";. c #BDACA4",
":. c #B7ABAD",
">. c #BDACAA",
",. c #BFB1A7",
"<. c #BFB1AA",
"1. c #FF9581",
"2. c #C2A6A4",
"3. c #C3ABA6",
"4. c #C5ADAA",
"5. c #C8AFAB",
"6. c #C2B1A6",
"7. c #C4B2AC",
"8. c #CBB4AE",
"9. c #C7B8AF",
"0. c #C4AFB0",
"q. c #C5B5B1",
"w. c #C9B6B1",
"e. c #C7B8B2",
"r. c #CABAB3",
"t. c #FFCABE",
"y. c #DCD5C5",
"u. c white",
/* pixels */
"% % $ % @ # # # # % % % % # # % % % # # # # # % % % % % # # % % % % % % % % # % % % % % + @ @ % % % % % % % % % % % % % % % % % ",
"# @ o o . O o o . o o o o o . o o o o $ % # % $ @ o + + O @ o o # % * % * % & * * * & & * % * * & & & % & & & * = & & & % % % % ",
"% % p F C C C C h C C P C F h h C B C C B C B C F P C C M 3 @ @ = h h h B h h h h h h h h h B h h h B h M M M M C C C C h s 2 % ",
"# % F ' Q Q Q E Q Q Q Q Q Q Q [ ' Q [ [ ' ' Q ' [ | -.*.E a $ @ 2 h R Q Q Q ' ' Q [ [ [ [ Q [ Q [ ' ' ' ' ` ' [ } } [ :.Q h < $ ",
"# * h W W Q ` ` ' | | | Q Q ' ' [ W ( ' ( W ' ' [ ' +.*.T u @ . < h I Q W W W W W W W W ( W Q Q Q Q Q W W W ` ' [ | $.:.Q h = % ",
"# % F ' W ' ` } $.=.:.:.o.[ | [ [ [ [ [ [ [ ' [ | $.r.>.( b - & 6 C W [ [ [ ( ( ' ( ' ( ' ' ( ( ' ' ' ' ' ` ' ] $.:.<.<.$.h = # ",
"# % F ' E ' ` } $.*.:.=.| [ [ ' ' ( ( ' ( W W / | >.e.=./ b 3 1 u S W [ ) W W W ( W ( / W W ( W W / ~ ( ~ W ` ' | $.<.<.o.h = % ",
"# * P [ ' ] ] ] } | | +.| | ' ' ( W W ( / W W ( | ;.9.;.E b 6 1 a H ( [ ( / / E E ! E E ! ! ! E / W E ~ ~ ~ E ' | *.:.<.o.h = # ",
"% & Z } } %.} %.} ' ` ` } | } ' / ( ( ( W ( W ) | ;.9.;.T b 3 1 a S ( [ ) / ! ( E ~ ~ W ~ ~ ( ( ( ( ~ ~ ~ ~ ^ ' | %.>.0.$.B = # ",
"% & Z } %.%.=.%.} U N Z ~ }  . .{ [ ( ( ( W ( )  .;.w.;.T b 3 1 i S ! ] ' ( ~ ~ ( ! ( ! ~ ~ E ( W E ( ( ~ ~ ! ^ | ..>.<.$.B = # ",
"% & Z } } 2.0.%.` N 8 u A ' ..*. .{ ) ( / W / ]  .;.w.;.T b 3 1 i G ( ' ' / ~ / ~ ( ~ ! ~ ( ( ( / ( ( ~ ~ ~ ^ ) { %.4.q.| M = # ",
"% & Z } %.2.2.%.U d 3 8 N ~ | .. .{ ) ( / ( ~ ( | 3.w.O O O 7 > O O O O ( ( / ( / / ( ~ / / E ~ ~ ~ ~ ~ ~ ^ ~ ^ { X.>.0.*.B * # ",
"$ % P } } } ` U S c a c A U ~ ^ ) ) ( / / / / ) | O O O O O O O O O O O O O / / ~ ( / ~ ~ ! ~ ~ ~ ~ ( ~ ! ~ ~ )  ...>.4.o.B = # ",
"$ & I | ` S c c c n N A Z N N A H K ! ! ! ! / O O O O X X X O O X X X X O O O O / ~ ~ / ( ( ( ! ( ! ~ ( ) ~ ! ) { +.>.7.+.B = # ",
"% & P | Z d 8 8 u N S J V c a x b V T ! ! ! O O O X X l l l X X l l l l X X O O O ( ~ ( / ! ( ( ! ( ( ! ~ / ! )  ...>.9.*.B = # ",
"# % P E N c 8 8 c N U U N x a i c V U ! / O O X l l l D D D l l l D D D l l X X O O ( ! ~ ( ( ~ ( ~ ( ( ( / ( )  .+.;.7.o.B = # ",
"# & B S B c d c N I ! U S n c b n S U ! ! ~ O O O X X l l l l l D D D l l X X O O O O ( ( ( / ( ( ( ( ( / ) / )  .X.6.7.+.B < # ",
"% & h h c N N Z I T ^ ~ U S V N S J ! ! ! O O O X X l D D D D l l l l X X l l l l X O O / ! ) ( ( / ( / / / ^ )  .@.6.6.+.B < $ ",
"# & s p c N S U ~ ^ ' ' ^ T U J ! ! ~ ! O O X X l D D D D D l X D D D D D l X X O O O ! ~ ) ! ( ( ( ( ~ / ^ / )  .@.6.8.*.B < # ",
"# * s p c S ~ ` ^ ' ) ' ' ^ ! ! ! ) ( ~ ( O O O X l l D D D D l X l D D D D D l X O O ( ( ! ) / ( ( ( ( / ^ / )  .O.3.5.o.B = # ",
"% & d M M U ` ` ' ^ ( ( ^ ~ ~ ~ ( ) ( ^ ( O O X D D l l l X X l X X X l l D l D l X O O ( ( ) ( ( / ( ( ! ! / ) | @.3.7.*.h = % ",
"% & h C Z R ^ ` ~ ! ~ ! ! ~ ! ! ! ! ! ! ! O X D X l l X X l X l l l l X l D X l l l X O O ~ ! ! ~ ! ! ~ ! ! ! )  .*.3.q.+.B = # ",
"% & M R U U ` ` ~ E E ~ ! ~ ! ! ! ! ! O O O X X l X l D D l X D D l D D l l l X X O O O ! ! ! ! ! ! ! ! ! ! ! )  .#.7.q.+.B = # ",
"% & C ` ` ` ^ ^ ^ ^ ~ ^ ! ~ ! ^ ~ ~ O O O O X X X l D D l D l D D l D D l X l 1.z O O ! / ! / / ! ~ ~ / ! ! / )  .#.<.q.*.C = # ",
"% & Z %.} } } $.} ..} } ) ) ) ) ) O O O X X D z 1.l l l X D l l D l D l l X l t.z O O ) ) ) ) ) ) ) ) ) ) ) )  . .=.4.q.*.B = $ ",
"% & P :.%.%.=.=.=.%.%.X.X.X.@.X.O O O X D D D l z X l X X D l l D l l l X 1.X z O O O.+.......X. .X.X.X.X.X.X.X.#.3.w.r.$.B = $ ",
"% & P 0.:.2.0.0.5.5.5.5.4.4.5.3.O O X D D l X X X z X X X l X l D X l X 1.z O O O O O 3.3.3.3.3.3.3.2.3.3.2.4.2.3.7.r.r.| h 4 # ",
"% & I :.*.=.4.4.4.2.5.5.5.3.7.O O X D l X X j j j   X z X l X l l X l X z O t t t t O O 3.3.3.3.3.3.5.2.5.5.4.2.3.3.r.0.[ g 2 # ",
"& & C [ E ~  . . . . . . . . .O O X D X X j k k j j j j   X z X l X X j j t &.y.u.L t O O  . . . . . . . . . . . . .*...R p y $ ",
"$ & M C c B Z Z S A Z Z S S O O X D l X j k k k k j k k j j   X l X j k k t &.y.y.u.L t O O V G A A A A Z Z S S S S S I C 0 4 # ",
"# & = 6 5 6 3 2 1 1 1 3 3 2 O O X D X X j k k k k j k k k k j j X j k k k O L &.y.y.&.t O O 9 9 2 2 3 2 3 1 3 1 3 3 3 * # # # $ ",
"# & & * - & & $ & $ & & & * O O X D X X j k k k k j k k k k k k j k k k k   O L &.&.L t O O o o # @ # $ @ $ @ $ % @ $ & % # $ # ",
"@ % & = 2 6 u y 0 0 0 0 0 w O O X D X X j k k k j   j k k k k k k k k k j     O O O t O O 9 9 9 9 9 2 9 3 3 3 8 w 6 8 i u < = & ",
"% & h c p b B C C C C C F N O O X l X X j j j j     j k k k k k k k k k j     j j j j O O B b B B h g g c c c N A N S I C 6 4 & ",
"& & M P Z I I U T Y Y Y K K T O O   l X X             k k k k k k k k k   t   j k k j O O Y Y T T Y K Y J U I ! ~ ` | | R y 6 & ",
"% & M E U ~ ^ ^ ^ / ( ( / / ! O O O   X X X       X   j k k k k k k k j j t j k k k j O O _ { { ] ] ] { ] } ]  ...X.=.=.E s y & ",
"$ & C ' ` ' ^ ] ' ^ ^ ) ) ^ ) ) O O O   l X X X X   X j j k k k k k j j X t j k k j O O  . . ..... .X.X.X.X.X.2.X. .%...U u y & ",
"$ % B ` ` ] ^ ^ ^ ^ ^ ^ ^ ^ ! ) ( O O O         O O j l l j j j j j l X j t 1.t.1.j O O  .X.X.@.@.2.2.2.2.2.2.2. .~ U S h 5 = & ",
"% & h ' ^ ' ' ^ ^ ( ~ ^ ) ! ^ ^ / ^ O O O O O O O O j j X l l l l l X j j O 1.1.t.O O )  .@.2.2.2.3.5.5.5.8.8.5. .S c i 5 & % % ",
"# * h ' ` ' ^ ` ( ^ ^ ( ^ ~ ( ) ) ~ ) ( O O O O  .O j j j j j j j j j j j O O L t.) O O  .@.3.3.5.8.8.8.8.8.8.2.^ A i 1 - @ % @ ",
"# * M ` ` ' ^ ` ^ ~ ^ ' ^ ~ ) ~ ~ ^ ! ^ ! ! ) )  .O O j j j   j   j j j O O O O _ _ O O ) ..X.@. . . . . . .X.K ! A n a 8 & & & ",
"# * B ' ' ' ` ^ ^ ) ( ~ ( ( ( ( ) / ) ( ! ~ / )  .O O j k j j   j j k j O O ( O O O O | ) ! K J A A m n m A m v A J U H M 6 < * ",
"# * h ' ^ ' ' ^ ( ` ^ ' ^ ( ( ( ~ ^ ( ( ( ! / )  .O O j k k j   j k k j O O ) ) O O O.O.) J c e x 7 x 7 x 7 7 x n ! ) ] Y p 5 * ",
"# * h [ ` ' ` ^ ` ( ~ ~ ^ ( ( ( ) ! ( ! ! / / ) { O O X j j j   j j j X O O _ ) {  .+.+.! N w > ; ; > > ; ; ; 7 x ! X.@.' g 2 * ",
"% & M ' ` ' ^ ^ ' ^ ^ ( ~ ~ ) ~ ^ ~ ) ~ ( ! ( '  .O O X l X X O X X l X O O { { { _ { ) J n e 7 > > 7 7 7 7 , e n / ;.<.| h 5 * ",
"% & M ' ^ ' ' ` ~ ^ / ^ ) ) ! ) ( ) ~ ( / ( / ) { #.O X l l X O X l l X O O.+. .{ ( J A V n c x x x x x x x x n J { ;.7.[ d 5 * ",
"& & M ` ` ^ ^ ` ^ ~ ) ~ ~ ) ~ ~ ( ( ( ~ ( ! / (  .#.6.O X X O : O X X O +.@.#.+.) H n x v n N A A A S S G G A J ! O.7.e.| s = = ",
"% & M } ] ' ' ^ ' ( ^ ( ^ ~ ) ) / ( ( ( ! ( ( ) { ;.6.3.( b , : r H )  .@.;.;. ./ m r i x n A J ! ! ! ! / ! K ! _ @.7.e.| h = * ",
"# & B ' ] ] ` ' ) ^ ( ( ( ) ^ ( ( _ / ( / ( / ) { #.5.;.( n , > r H )  .@.#.O._ J b r a v m K T ! ^ ) /  .K  .K X.2.8.8.O.f = * ",
"# * h } ^ ' ` ` ( ^ ( ^ ( ( ( ( _ ( ( / ( / ( ) O.#.7.;.( n 3 , x J _ +. ._ / K V n b n m G K K ! ! / ) K ) K _ K @.6.8.O.p = * ",
"% & M ' ' ' ' ^ ( ( ' ' ( ( ( ) ( ( ( ( / ( / ) { #.3.;._ v , , x T O.#.{ H v x x n V G H K K T ! / ! / K ) ) K X.2.8.8.o.s = = ",
"% & B ' ' ] ( ' ' ~ ( ( ( ( ( ( ( ( / / / / ( ( { #.6.;.( v 7 , x ! 3.6._ m q 9 e n G K / / / / / / ( ! ) _ K ) K 6.8.8.o.s = = ",
"# * B ' ) [ ' ( ( ( ( ( ( ( ( ) _ T _ / / / / _  .#.6.6.) v , , v ( 6.6._ b , ; w n G T _ / / / ( / ( / / / ) K ) @.9.e.o.s = = ",
"% & h ' ' ) ( ( ( ( W ( ( ) ( / / _ / / / T / / { #.6.#._ v , , r / ;.;._ b , , r m K / / _ / _ / / / / / / K ) ) +.7.e.o.s = * ",
"# * h ' ( ' ( ^ ' ( / ( / ( ( ( _ T / W T / / _ O.#.6.6.( n , ; f / #.#./ f , ; r G K / / T / / / / / / / K / / ) @.7.e.$.s = = ",
"# * M ' Q ' ( ~ / W W ( / E / W / / / / T T W ( _ #.6.6._ v , ; r T #.#./ v , , f G K T / / W W / / / / / / / / _ @.e.r.o.s = = ",
"% & C } ] ] ' ' ' ( ' ( ( ( ) ( ) ( ( W / ( ' _ O.#.6.,.( b 3 ; q G { | T v w w b K W W ( ( ( ( / W / / / / / / _ @.9.7.| s = = ",
"% & C :.=.=.*.%.%.+.$.+.o.O.O.o.O.o.o.O.O.O.o.-.-.,.9.,.( b 3 : 9 b G U G N b Z T [ { O.O.O.{ | O.O.{ { O.{  .| O.2.q.q.| p = = ",
"$ & C q.q.q.q.0.7.q.>.<.7.<.7.<.<.<.<.<.,.,.<.<.9.9.r.,.W b 3 : , r a b F K ( o.-.,.,.<.,.,.<.,.,.,.<.,.,.;.,.;.6.7.e.r.$.h = = ",
"% & C <.q.r.q.q.q.q.q.q.q.q.e.e.q.9.9.<.<.<.q.q.9.r.9.-.Y f 1 ; : 3 w p m Q +.-.<.<.7.7.e.q.q.e.e.q.7.9.9.7.7.7.6.7.e.e.$.h 5 = ",
"# * h | | :.=.*.*.*.*.*.*.-.-.*.*.+.-.-.o.o.-.-.,.,.#.W N w : & & , 3 0 g Y [ [ [ O.[ o.o.o.+.o.o.o.o.o.O.O.+.#.-.-.+.*.Q s 5 = ",
"# * g C P U U I I I I I P Y P Y I I F F P P Y T W W K m u 3 * # $ * < 2 9 h F F F C F F F F F P F F F H F H K T E Y F P h 5 = * ",
"% & 0 6 6 6 6 0 y 0 y 0 0 0 0 0 0 0 0 0 0 0 0 w p p y * & $ % & @ $ * % * p r p f g g g g g g b g g g g v g v B B f p p y = 5 = ",
"# % < 4 < 5 4 < < < < < < < = < : < < * = = < < * = = % & % $ @ % @ % # * * * * * * * * * * < * * = * * * = < < = * = = = * = % "
};
