/* XPM */
static char *result[] = {
/* columns rows colors chars-per-pixel */
"32 32 7 1 ",
"  c #5F002A",
". c #9D0701",
"X c #D04A01",
"o c #EC8300",
"O c #FFD980",
"+ c white",
"@ c None",
/* pixels */
"@@@@@@@@@@@@@@@@@@@@@@@@@@@@@@@@",
"@@@@@@@@@@@@@@@@@@@@@@@@@@@@@@@@",
"@@@@@@@@@@@@@@@@@@@@@@@@@@@@@@@@",
"@@@@@@@@@@@@@@@@@@@@@@@@@@@@@@@@",
"@@@@@@@@@@@@@@@@@@@@@@@@@@@@@@@@",
"@@@@@@@@@@@@@@@@@@@@@@@@@@@@@@@@",
"@@@@@@@@@@@@@......@@@@@@@@@@@@@",
"@@@@@@@@@@@@.+++++OX @@@@@@@@@@@",
"@@@@@@@@@@@.++OOOOOOO @@@@@@@@@@",
"@@@@@@@@@@.+OoXXXXoOOO @@@@@@@@@",
"@@@@@@@@@.+OXoooooX.OOO @@@@@@@@",
"@@@@@@@@.O+XXooOXOXo.OOo @@@@@@@",
"@@@@@@@@X+OooO++OOoXX.OO @@@@@@@",
"@@@@@@@.O+XooXOO.+O.X.oOo @@@@@@",
"@@@@@@@.+OXooo+O.+O.oX.OO @@@@@@",
"@@@@@@@.+OXooo+OX+O.oX.OO @@@@@@",
"@@@@@@@.OOXooo+O+OX.oXXOO @@@@@@",
"@@@@@@@.OOXoooOO.+O.oXXOO @@@@@@",
"@@@@@@@.oOoXooOOX+O.oXoOo @@@@@@",
"@@@@@@@@.OOXoO+O+OO.oXOOX@@@@@@@",
"@@@@@@@@.oOXoXXO.O.XXOOo @@@@@@@",
"@@@@@@@@@.OOooo.o.XXO+O @@@@@@@@",
"@@@@@@@@@@.OOXXoooXO+O @@@@@@@@@",
"@@@@@@@@@@@.OOOOO+++O @@@@@@@@@@",
"@@@@@@@@@@@@.OOOOOO  @@@@@@@@@@@",
"@@@@@@@@@@@@@.     @@@@@@@@@@@@@",
"@@@@@@@@@@@@@@@@@@@@@@@@@@@@@@@@",
"@@@@@@@@@@@@@@@@@@@@@@@@@@@@@@@@",
"@@@@@@@@@@@@@@@@@@@@@@@@@@@@@@@@",
"@@@@@@@@@@@@@@@@@@@@@@@@@@@@@@@@",
"@@@@@@@@@@@@@@@@@@@@@@@@@@@@@@@@",
"@@@@@@@@@@@@@@@@@@@@@@@@@@@@@@@@"
};
