/* XPM */
static char *result[] = {
/* columns rows colors chars-per-pixel */
"32 32 7 1 ",
"  c #5F002A",
". c #9D0701",
"X c #D04A01",
"o c #EC8300",
"O c #FFD980",
"+ c white",
"@ c None",
/* pixels */
"@@@@@@@@@@@@@@@@@@@@@@@@@@@@@@@@",
"@@@@@@@@@@@@@@@@@@@@@@@@@@@@@@@@",
"@@@@@@@@@@@@@@@@@@@@@@@@@@@@@@@@",
"@@@@@@@@@@@@@@@@@@@@@@@@@@@@@@@@",
"@@@@@@@@@@@@@@@@@@@@@@@@@@@@@@@@",
"@@@@@@@@@@@@@@@@@@@@@@@@@@@@@@@@",
"@@@@@@@@@@@@@@@. @@@@@@@@@@@@@@@",
"@@@@@@@@@@@@@@.oX @@@@@@@@@@@@@@",
"@@@@@@@@@@@@@.X+OX @@@@@@@@@@@@@",
"@@@@@@@@@@@@@.+o+O @@@@@@@@@@@@@",
"@@@@@@@@@@@@.XOX+OX @@@@@@@@@@@@",
"@@@@@@@@@@@@.Oo.oOo @@@@@@@@@@@@",
"@@@@@@@@@@@@.+.o.+O @@@@@@@@@@@@",
"@@@@@@@@@@@.X+.o.+OX @@@@@@@@@@@",
"@@@@@@@@@@@.X+.o.+OX @@@@@@@@@@@",
"@@@@@@@@@@@.XO.o.OOX @@@@@@@@@@@",
"@@@@@@@@@@@.XO..XOOX @@@@@@@@@@@",
"@@@@@@@@@@@.XO.o.OOX @@@@@@@@@@@",
"@@@@@@@@@@@.XO.o.OOX @@@@@@@@@@@",
"@@@@@@@@@@@@.O.oXOO @@@@@@@@@@@@",
"@@@@@@@@@@@@.Xo.oOo @@@@@@@@@@@@",
"@@@@@@@@@@@@.XOXOOX @@@@@@@@@@@@",
"@@@@@@@@@@@@@.XOOo @@@@@@@@@@@@@",
"@@@@@@@@@@@@@.XooX @@@@@@@@@@@@@",
"@@@@@@@@@@@@@@... @@@@@@@@@@@@@@",
"@@@@@@@@@@@@@@@  @@@@@@@@@@@@@@@",
"@@@@@@@@@@@@@@@@@@@@@@@@@@@@@@@@",
"@@@@@@@@@@@@@@@@@@@@@@@@@@@@@@@@",
"@@@@@@@@@@@@@@@@@@@@@@@@@@@@@@@@",
"@@@@@@@@@@@@@@@@@@@@@@@@@@@@@@@@",
"@@@@@@@@@@@@@@@@@@@@@@@@@@@@@@@@",
"@@@@@@@@@@@@@@@@@@@@@@@@@@@@@@@@"
};
