/* XPM */
static char *result[] = {
/* columns rows colors chars-per-pixel */
"32 32 7 1 ",
"  c #5F002A",
". c #9D0701",
"X c #D04A01",
"o c #EC8300",
"O c #FFD980",
"+ c white",
"@ c None",
/* pixels */
"@@@@@@@@@@@@@@@@@@@@@@@@@@@@@@@@",
"@@@@@@@@@@@@@@@@@@@@@@@@@@@@@@@@",
"@@@@@@@@@@@@@@@@@@@@@@@@@@@@@@@@",
"@@@@@@@@@@@@@@@@@@@@@@@@@@@@@@@@",
"@@@@@@@@@@@@@@@@@@@@@@@@@@@@@@@@",
"@@@@@@@@@@@@@@@@@@@@@@@@@@@@@@@@",
"@@@@@@@@@@@@@@...  @@@@@@@@@@@@@",
"@@@@@@@@@@@@@.++++o @@@@@@@@@@@@",
"@@@@@@@@@@@@.+OOOOOo @@@@@@@@@@@",
"@@@@@@@@@@@.+O.XXXOOo @@@@@@@@@@",
"@@@@@@@@@@.+O.XXoXXOOo @@@@@@@@@",
"@@@@@@@@@.OO.Xo++XoXOOo @@@@@@@@",
"@@@@@@@@@.+oXO+OOOXoXO+ @@@@@@@@",
"@@@@@@@@.O+XXo+OX+.oXoOo @@@@@@@",
"@@@@@@@@.+O.Xo+OX+.oXXOo @@@@@@@",
"@@@@@@@@.+O.Xo+O+O.oXXOo @@@@@@@",
"@@@@@@@@.OO.Xo+OOX.oXXOo @@@@@@@",
"@@@@@@@@.OO.Xo+OOO.oXXOo @@@@@@@",
"@@@@@@@@.XO.XoOOX+.oXoOo @@@@@@@",
"@@@@@@@@@.Oo.O+OX+.oXOOX@@@@@@@@",
"@@@@@@@@@.XO.oXO+.XXOOo @@@@@@@@",
"@@@@@@@@@@.oO.X..oXO+O @@@@@@@@@",
"@@@@@@@@@@@.oOXXoX++O @@@@@@@@@@",
"@@@@@@@@@@@@.oOO++OO @@@@@@@@@@@",
"@@@@@@@@@@@@@ XoooX @@@@@@@@@@@@",
"@@@@@@@@@@@@@@     @@@@@@@@@@@@@",
"@@@@@@@@@@@@@@@@@@@@@@@@@@@@@@@@",
"@@@@@@@@@@@@@@@@@@@@@@@@@@@@@@@@",
"@@@@@@@@@@@@@@@@@@@@@@@@@@@@@@@@",
"@@@@@@@@@@@@@@@@@@@@@@@@@@@@@@@@",
"@@@@@@@@@@@@@@@@@@@@@@@@@@@@@@@@",
"@@@@@@@@@@@@@@@@@@@@@@@@@@@@@@@@"
};
