/* XPM */
static char *result[] = {
/* columns rows colors chars-per-pixel */
"64 64 250 2 ",
"   c #0D091E",
".  c #0D0B25",
"X  c #130E28",
"o  c #15122B",
"O  c #1A152A",
"+  c #1A1634",
"@  c #1D1B3C",
"#  c #171438",
"$  c #0B0B39",
"%  c #28172D",
"&  c #36182E",
"*  c #251D34",
"=  c #2C1C34",
"-  c #241D3C",
";  c #2C1D3B",
":  c #281536",
">  c #331D35",
",  c #3A1C34",
"<  c #341C3B",
"1  c #3A1B3B",
"2  c #381538",
"3  c #2C0D33",
"4  c #1D213A",
"5  c #222235",
"6  c #25213C",
"7  c #2B223C",
"8  c #2C2337",
"9  c #34243C",
"0  c #3A233C",
"q  c #362538",
"w  c #37212D",
"e  c #5C293E",
"r  c #55303D",
"t  c #642C3E",
"y  c #461A3A",
"u  c #130E4B",
"i  c #140E42",
"p  c #1C1A44",
"a  c #15124C",
"s  c #1A164B",
"d  c #1C1A4C",
"f  c #171644",
"g  c #1C1953",
"h  c #0C0A42",
"j  c #231D43",
"k  c #2C1C44",
"l  c #231C4C",
"z  c #2C1D4B",
"x  c #291543",
"c  c #331C43",
"v  c #3A1B44",
"b  c #331D4B",
"n  c #381745",
"m  c #221C53",
"M  c #291E55",
"N  c #381D51",
"B  c #1D224F",
"V  c #252244",
"C  c #2C2344",
"Z  c #25224C",
"A  c #2B254C",
"S  c #2C294C",
"D  c #282849",
"F  c #332443",
"G  c #3C2344",
"H  c #32244B",
"J  c #332A4C",
"K  c #3B2A4B",
"L  c #372847",
"P  c #242352",
"I  c #2B2453",
"U  c #2C2A53",
"Y  c #25245B",
"T  c #2B255C",
"R  c #2B2A5B",
"E  c #25285A",
"W  c #342453",
"Q  c #332B54",
"!  c #3B2D54",
"~  c #332C5D",
"^  c #3A2C5C",
"/  c #372457",
"(  c #35325B",
")  c #3C325B",
"_  c #3A3255",
"`  c #3A304E",
"'  c #252362",
"]  c #2D2B63",
"[  c #2C2966",
"{  c #332C63",
"}  c #332D6C",
"|  c #3B2D64",
" . c #353264",
".. c #3C3363",
"X. c #35336C",
"o. c #3B346B",
"O. c #3B3B68",
"+. c #332E75",
"@. c #363473",
"#. c #3B3575",
"$. c #3D3B74",
"%. c #3B357C",
"&. c #3D3A7C",
"*. c #36367C",
"=. c #2E316B",
"-. c #201962",
";. c #481E41",
":. c #462948",
">. c #5C2B45",
",. c #5C2B4B",
"<. c #552A48",
"1. c #55324C",
"2. c #5C324C",
"3. c #573447",
"4. c #432955",
"5. c #572C54",
"6. c #42345C",
"7. c #45395E",
"8. c #473559",
"9. c #5B3453",
"0. c #593856",
"q. c #4C344B",
"w. c #652C48",
"e. c #66354B",
"r. c #643254",
"t. c #6B3253",
"y. c #663B5A",
"u. c #703053",
"i. c #433464",
"p. c #43346B",
"a. c #463A67",
"s. c #433574",
"d. c #433C75",
"f. c #4B3973",
"g. c #43367B",
"h. c #433D7C",
"j. c #4B3B7B",
"k. c #4C3772",
"l. c #4B346B",
"z. c #3D4173",
"x. c #3B427B",
"c. c #3C416E",
"v. c #7A485A",
"b. c #48416B",
"n. c #44427C",
"m. c #4A447C",
"M. c #464275",
"N. c #55497C",
"B. c #524A6F",
"V. c #7B5774",
"C. c #794E68",
"Z. c #863C60",
"A. c #8A495A",
"S. c #944D5D",
"D. c #9A4C5A",
"F. c #8C535B",
"G. c #8E5655",
"H. c #95525D",
"J. c #884C67",
"K. c #934E62",
"L. c #984D67",
"P. c #8B5263",
"I. c #8A546A",
"U. c #915262",
"Y. c #94536B",
"T. c #985666",
"R. c #875876",
"E. c #955775",
"W. c #864670",
"Q. c #A4577C",
"!. c #3B3582",
"~. c #3D3983",
"^. c #3C3B8A",
"/. c #323484",
"(. c #413783",
"). c #413B84",
"_. c #433C8A",
"`. c #4A3D86",
"'. c #453F96",
"]. c #3E4087",
"[. c #444184",
"{. c #4A4484",
"}. c #4C4A85",
"|. c #44428B",
" X c #4B458B",
".X c #4D4A8B",
"XX c #454987",
"oX c #544B84",
"OX c #524B8A",
"+X c #554A86",
"@X c #57538A",
"#X c #4A4593",
"$X c #4D4A95",
"%X c #4F4D98",
"&X c #464394",
"*X c #524D9B",
"=X c #554C93",
"-X c #53519C",
";X c #5D5A9B",
":X c #585696",
">X c #4F5092",
",X c #63589A",
"<X c #645384",
"1X c #5B6399",
"2X c #69669A",
"3X c #5A5BA3",
"4X c #625DA5",
"5X c #5C65AC",
"6X c #5E68B1",
"7X c #6562A3",
"8X c #6A66A5",
"9X c #6464AD",
"0X c #6A66AB",
"qX c #656BAC",
"wX c #6C6CAC",
"eX c #696CA4",
"rX c #726DAB",
"tX c #736AA4",
"yX c #6C71AC",
"uX c #6A73A7",
"iX c #656BB2",
"pX c #6C6DB4",
"aX c #6A69B5",
"sX c #716DB4",
"dX c #736DBB",
"fX c #6771B5",
"gX c #6A72B5",
"hX c #6B72BA",
"jX c #6F7DB7",
"kX c #7572BC",
"lX c #7875BA",
"zX c #7772AF",
"xX c #7977C6",
"cX c #746EC1",
"vX c #817DB9",
"bX c #807AC0",
"nX c #7982BB",
"mX c #7D82C8",
"MX c #8E88BD",
"NX c #8786C5",
"BX c #978DC6",
"VX c #9892CB",
"CX c #958ED5",
"ZX c #A395CE",
"AX c #9AA4D9",
"SX c #ABA8D7",
"DX c #AAA6D8",
"FX c #B1A9D6",
"GX c #A7AAD5",
"HX c #99A4E0",
/* pixels */
"{.|.#X&X&X|._.&X#X&X%X%X-X-X%X&X].-XE o B ~.~.-X-X$X$X$X%X%X%X%X-X-X-X-X%X#X#X#X X&X|. Xu $ D -X$X$X%X%X%X-X-X-X-X%X$X#X#X&X|.{.",
".X9X9XpXhXpXhXpXiXiX6X6X6X6X6XfXmXcX%Xd &.).hXxXhXiXiXiXiXiX6XiXiXiXpXfXfXfXaXhXaX9X9X3X' a 5XxXpXiXiX6XiX6XiXiXiXfXfXaXaX9X9X.X",
".XpX9X9X9XpXiXiXhXfXfXhXfXfXfX6XfXhX%Xf @.;XhXpX6X6XfXfXfXfXgXhXhXhXfX6XiXaXpX5X9X9XaX9X.XE qXpX5XhXfXfXfXfXhXhXiXiXaX9X9X9XaX.X",
"{.dXkXpXiXpXiXaXpXpXfXfXfXfXfXfXhXfX-XB =.iXhXhXfXfXfXfXpXfXgXpXpXiXfXaXpXfXpXaXaXlXxX4X{.E 5XgXfXpXfXfXfXpXpXpXfXiXhXiXaXkXdX{.",
".XcXpXkXgXpXpXhXpXhXpXgXhXhXhX6XxX5X%Xd @.iXcXxXhXiXpXpXpXhXpXpXpXhXgXpXaXhXpXhXkXaXkX0X.XE iXmX6XhXhXpXpXaXpXpXsXhXpXaXkXaXkXOX",
"&.*XcXaXhXdXsXpXsXpXpXpXaXaXfXcX6X&X].B =.6XfX6XfXcXpXpXpXpXgXgXpXpXpXpXfXaXaXaXaXhXiX*X*.E 3X5XcXaXpXgXpXgXsXpXaXaXhXhXhXkX*X~.",
").!.$X_._.|.&X|.|.|.[.|.|.[.|.]././.].B ] 3X5XiX5X5X3X5X;X-X:X-X:X>X-X>X>X.X$X-X-X-X#X^.].] +./.].].|.XX|.XX|.|.|.|.|.|._.$X!.).",
"&.~.~.^.~.~.!.~.~.~.~.~.~.~.^.^.^.].$.B E ].&X^.+.] R C C S V C k j A j D A D + Z =.!.!.&.E *.^.^.^.~.~.(.~.~.~.~.(.~.!.^.~.~.%.",
"$X~.!._._.(.(.~.).~.~.(._.(.~._.^.[.XXP O.X.D o C _ 4.l.| { ..o.M / M } p.T p.z C + L ~ .X] @._._._.(.(.(.~.~.~.(.(.~.(.|.!.~.$X",
"n.~.~._.(.~._.(.(.(.(._.(._._._._.[.n.@ D @ A l ^ ) ZXBXVXNXVX| { ] NXNXbXCXVX{ I p 6.C j B =._._.!._._._.~._._.~._._.(._.~.~.[.",
"a (.).%._.~.(.(.~._.~.(.(.(.^.!.|.o.F J  .E R l ..i.<X+X_.&.j.T / s.h.).=X:X+X .P s R R Y p B x.!.!._.(.(.(.(.(.(.(.(.~.*._.h.a ",
"g  X).&.h.&.h.).%.%.(.(.(.(.(.+.I A ) ( MXmXO.g m k.B.,X{.{.oX{ m ..{.+X,X,X{.{ s E ] NXNX$.P p M _.(.(.(.(.%.*.).).&.h.h.)._.m ",
"g h.$.&.h.h.h.&.h.).h.).).`.h.A ..I BXNX*.}.BX{ M a.a.N.+X@X<Xi.M i.j.m.+X+Xp.E B E nXx.XXNXNXU f ~ ).`.~.~.[.h.&.h.h.h.&.#.h.d ",
"s s h s u u a a a u a u u u : ; { NXx.|.XX[.OX/ i.! l.6.6.) ! ^ ^ p.a.^ i.l.) j D Z x.x.x.].x.MXO.; # u a a u a a u u i s h a a ",
"m.{.n.d.n.d.M.m.] a $.#.| F _ ) MX.X*.~..X).oXa.c H L q.8.7._ W H H ! 8.4.8.4.6 Q ( n.XX~.x.&.x.MXb.! W #.$.a ] m.d.h.n.h.m.m.m.",
",X;X8X7XwX7Xn.}. .g n.m.7 J j ~ ' .X!.(..X+X..6.L 9 > 9 L L S D J ! ! b c K 9 O D ) R }.XXXX].m...W H 4.) n.g  .oXn.2XwX7X8X}.;X",
"pXsX0X0XsXsX,Xd.{ m d.+ A { Y s ' [ OXOX{.| | H F F q q L H V V D A H H ` ` 8 5 7 j O.p.d.$.d.$.{ T s.a.7 M.Y ] $.;XsXrX0XsX0X8X",
"pXlXdXsX0XbX2XX.E d * : ..NXNX' g [ T ^ i.i.W A k < :.3.0.q.F V V C :.:.q.0.q.q + Z A ) ^ ^ { ] P } NXVX_ * g E X.7XlXsXsXsXsX4X",
"0XsX0X0X0XsX:X$.E o ; W o.{.|.NX' d ^ i.J A I I c 3 >.t.>.>.5.; ; 9 e t e.t r w V @ C 5 8.8.U l ' NXh.{.U - $ E $.:XsX0X0XsX0X4X",
"0XdX0XaXsX0X:X&.Z % c / BX`.[.~.NXp.H c k A A z x 9.e I.A.w.y.1 8 9 t u.A.F.e.q.C 4 L < n :.! P lX&.XX[.BX_ J V n.:X0XpXsX0X0X8X",
";X4XdX4X4X3X%.h.5 * L 6.+X@XOX}.M.^ c H < _ ! k v 1.J.T.F.E.<.:.7 > e A.T.I.E.0.C j q.:.2 x J Q z.XX>X@XoX) 6 O m.%.3X0X4XdX4X4X",
"[._.~.!.!.!.).$.O 8 K i.i.+X:X@X^ 7.c H v 0.a.H > 1.I.T.P.P.,.1 = & t L.U.T.v.v.k b 1.9.y < F Q B }.m.n.( ( _ C h.).+.!.!.~._.`.",
"{._._. X_.*.h.o.O 9 8.6.8.i.| ( 7.k c :.9.0.:.1 2 y.P.F.F.J.9., * & t S.F.U.I.<.n n 9.e.r.3 7 ` U E R ~ ..) Q 6 n.).*._. X(.).{.",
"h.(.~.&.%.&.).(   = W / ! ^ Q S J F ; 5.r.e.r.3 , e.F.F.F.P.e., = & w.K.P.P.T.,.n n r.t.r.9.9 5 C U S Q P j @ O o.).*.&.~.&.~.h.",
"o.} X.} [ #.Y $ O L 7.i.^ ! H H 7 L G r.I.w.<.y & e.G.G.F.I.2.1 = , w.H.F.P.T.<.3 ;.u.u.W.r.= ` C D A U ~ Q S 5 $ g @.=.} X.X.o.",
"p s s s s a g p X 8 _ Q | o.~ Q L ; 5.y.J.Y.<.2 y w.G.G.F.I.2.1 = , t H.U.U.Y.w.3 n u.Z.Y.w.3.9 V A d B { U J 6 p g a s s s s s ",
"m.m.n.[.h.h.n.X.O C ) MXNXNX'  .A n <.Z.S.A.r.2 2 e.F.G.F.P.1.v < 1 e F.D.T.P.e.3 & w.D.L.H.r > J U ' xXNXNXS 7 X.h.h.h.n.n.m.m.",
"h._.*.~.!.!.^.}   C ! @X].^.NX] b n u.E.L.T.y.2 2 y.T.H.U.R.0.c k G e.T.S.L.L.v.& 3 u.vXL.T.e.G J B NX^./.x._ F @.^.~.!.!.*._.h.",
"h.*..X$X*X*X-Xj.  F ) d.*.^.).~ H n 5.W.L.J.9.2 2 y.J.U.I.V.8.H b F <.I.K.T.P.w.w & w.L.Y.J.<.L @ ~ ~.~.|.n.i.; `.-X*X*X$X.X%.h.",
"h.,XbXsXlXlXkX,XO 4 i.@X{.).@Xi.W x n 5.W.r.c k k v r.R.V.0.c I I k v 0.R.J.r.& 9 % y ,.C.9.1 F U ) $.XX{.{._ 8 ,XlXkXkXsXbX;Xh.",
"}.bXsXsXsX0XdX@XO V  .M.m.@XoX8.b / N b z k A z M z C C W z I P I I A z N I z z Z A W n 4.x H x Q 7.M.N.@XN.7.= ,XdXsXsXsXsXbX}.",
".X4XsX0XsX0XdX@XO 4 Q O.I i.l.8.x N  .O.c.z.$.M.d.$.c.M.M.M.h.n.n.h.h.n.x.x.XXn.x.M.B.f.k.p.f.I E _ 7.b.| p.! = ,XdX0XsX0XsX4X.X",
"%.`.kXpXsXsXsX:X+ @ I ~ i.i.4.:.N s.1XeXuXuXrXuXuXyXyXyXyXwXwXrXwXyXgXyXqXHXeXAXSXFXFXFXtXrXrXm.I K K ! | l.8.G ,XsX0XdX0XkX`.%.",
"[.`.-X-X-X-X-Xn.+ # l d s l b N / d.eX1XwXuXuXwXyXyXyXyXgXgXgXgXgXyXyXfX5XAXuXAXSXZXFXGXzXlXpXg.T W C k / / C O {.-X*X:X*X3X_.`.",
"{.!.!.!.g.!.~.} o @ ( =.' ' R ^ / g.yXwXgXgXgXgXgXgXgXgXgXgXyXyXyXuXfXyX2XAXuXGXSXFXFXSXyXqXpX%.M ^ Y [ { { ) 8 #.!.!.!.!.%.~.{.",
"{.(.~.(.(.(.(.X.. D E NXmXjXCXa.N s.[.8XpXwXpXpXpXwXpXpXsXyXgXgXwXwXeXeXtXAXnXAXGXSXFXDXqXgX%.h.' T xXNXCXVX6.9 #.(._.).(.~.).).",
").(._.~.~._.~.X.+ V R n.XXXX.XO./ j.s.#.%.g.*.%.&.%.%.g.(.g.!.&.%.#.#.+.p.o.&.x.x.$.x.d.h.h.j.h.T { ).{.|.oXi.L %.~.].~._.(.~.).",
"{.).|.[.[.[.|.$.. @  .OX&.x.n. .z M a.l.k.g.d.d.d.h.j.j.j.j.j.d.d.s.k.k.f.d.x.c.z.$.M.d.i.k.d.m M { &.|.OX@X6.9 $.[.|.[.[.[.|.{.",
"d g m E g E E V + @ ..@X.X[.d.) A k n v 2 :.: C H ; 4.v v v c C - K 2 4.x k V D D D x n n 4.x P M { ~..X{.m.6.9 Z P P g R g d l ",
"U U V Q B ( D . o @ ( m.+XoXm...C ; y :.5.<.> * = 1 <.r.,.9.= = = 1 y >.B.0.:.J 7 7 ;.;.r.5.< p P T #.[.`.oXb.L . D ( U R V U U ",
"c.M.,X@X2X@XO.S o p ~ o.| |  .Z 7 8 :.w.t.,.1.:.:.q.>.u.w.r.:.:.= , <.w.w.,.,.<.> 0 >.w.u.,.q.J Z T } @.} o.) 7 U O.@X2X@X2X{.p.",
"8X0XsXsXsX8X>XO.. V R R | i.O.U 6 9 <.t.I.t.0.q q 3.e.W.W.w.0.< > 1 t.u.E.J.u.r., 1 w.u.Y.t.0.; D P Y [ } #.6.L O.@X8XaXsXpXkXcX",
"7XcXxXaXsXdX;X~ . # z l N n W f - ; 2.I.K.I.3.q , 3.I.T.U.I.5.n c < w.Y.E.L.L.w., 1 w.A.Y.E.9.< V Z $ a g m J % } ;XdXsXdXcXxXxX",
"0XbXcXcXdXsX4X] . # P p.l.4...# 5 8 2.J.S.T.3.w , 3.U.D.K.J.5.b k c w.L.L.L.L.u.2 > >.S.Y.E.,.< C Z Y [ ' | ) 9 { 4XdXdXcXdXxXcX",
"0XdX0XdXdX8X;X{ X D z BXBXZXNXo.8 > w.K.D.D.r y w r D.D.S.P.1.< ; > t D.L.L.L.t 2 & t G.D.T.>.< A P MXxXCXVX6.F X.,X4XdXcX9XcXcX",
"0X4XdXdXdX7Xh. .. p  .@X=X#X.XE C 8 r P.S.S.r w w r G.D.S.A.3.> 8 w t T.T.D.L.w.& , t A.U.T.>.2 ! R ~.^.h.oX6.K ..`.4XcXsXkXcX4X",
"{.-X#X'.*X(.%.o.X V { OX'.'._.} S = 3.T.P.P.v.5 0 0.J.Y.E.P.3.% 5 % w.T.S.E.W.r.y 3 >.F.T.v.3.< U { ~.]. XoX6.F d.%.(.*X&X$X*X`.",
"_._.^.^._.!._.d.o j ~ +X#X'.~.} ! j 0 1.R.1.= 8 ; F 1.I.V.q.3 < 7 ; y y.E.W.y.n x x 2 1.C.3.< C A } ~.]..XoX7.F h._.!._._.^._._.",
").^.~._._.|.~.X.o V { .X{.`._.o.A l A J A H E Z d R A C z c n b z x x n ;.N A B } ' p H C ; C R I { {.{..X+X6.F d.)._._.^.^.^.[.",
"[.[.[.[.XX].[ p X V ~ OX.X.X{.o.M E =. .z.x.x.*.*.&.X.z.$.d.s.k.o.d.d.f.g.s.d.m.~..XX.O.O.z.O.R P ..m.oX{.+X6.F s ] [..X[.[.].n.",
"p p $ f # f # o . @ P P { { ^ ^ z x.6XhXjXhXfXfXfXfXfXyXfXgXgXpXgXpXsXsXtXDXeXSXGXDXSXSXrXjXwX[.Z D ! ^ [ { ^ 9 # # # # f $ p p ",
"V ( ( c.O.O.O.Q o V { { { ( ) 6.J $.jXhXfXfXfXfXfXfXfXfXfXpXgXgXgXpXpXyXeXSX2XSXDXDXSXSX2XzXkX+.V C ! Q { X.) F ) O.O.$.O. .E V ",
"# @.z.n.n.n.n.O.  + A m j C C F L a.2XwXwXgXpXwXfXgXyXgXwXyXwXrXrXwXrXrXtXDXeXFXSXFXDXFX,XtX8Xs.Z C ! ^ / ~ K : X.O.O.{.O.%.#.Z ",
"g XX].~.].[.[.X.X C T R [ ~ _ K L B.s.rXrXpXrXsXpXwXsXsXsXsXsXrXrXrXrXtXtXDXtXDXDXFXDXFXtXtXk.`.z J | / { i.! F %.].n.[.$.} &.R ",
"XX#XpXpXqXqX0X@Xo @ T NXCXCXNXQ H $.@.h. X).).(.).).`.`.`.).).(.{.).&.%.g.h.j.h.g.g.`.`.k.`.`.(.M T ZXCXCXbX) 8 ;XqXpX9X7Xz.] E ",
"h.-X0X0XpXpXpX:X. Q ] &X^./.{.R H T m.g.s.g.g.j.j.`.g.g.g.g.g.j.j.j.s.s.j.j.j.j.k.p.p.l.k.k.g.-.M ~ OX#X_.{.Q F ;XqXqXqX5X@XT R ",
"[.0XgXpXpXpXgX:X  + U {.&X].n.) K : b l N b b z z b b H W b z z k z b A k k k k j k A c 1 v N f V Q #.).{.m.) 9 ;XqXgXaX;X}.E E ",
"n.lXpXpXpXpXyX@XO + I [ -.+.~ C < c c 0.0.q.9 * % v :.0.0.q.< % = c G :.:.4.:.:.% < :.:.1.<.G x F C ..M | | ) F ;XqXpX9XqX:XE E ",
">XpXpXkXqXqXwX:Xo o C J m ] A k 9 = 0.1.t.>.<.y , <.>.t.t.<.q.q < , <.,.,.r.r.<.% w t.u.e.>.1.v v K W i.N / H c ;XaXgXwX5XOX[ Y ",
"#._.aXpXgXpXgX:X* 8 K ) { { ..; 9 * q.1.W.w.9.w & 1.t.W.J.2.0.w 0 & ,.,.E.E.t.,.& % u.w.J.>.9.< G c l.l.l.i.W C ;XiXgXkXgXXXX.Y ",
"h.|.0X9XpXpXpX:XO 5 7.B.MXvXd.Q J J * V.V.C.< * = F V.R.V.V.8 O 8 8 q R.V.R.V.0 5 8 y R.R.V.9 8 H _ N.MXMXV.) L :X4XaXpXsX|.#.Y ",
"n._.+.~.~.~.~.X.8 8 K J T R ~ j C V - : c G - V 6 * G G 1 9 O 5 O 6 = > F 0 > F 5 8 q & q q * 6 - V _ J ) i.6.C @.&.~.[.@.!.@.R ",
"{.!.~._.(.(.(.X.6 6 7 j j p p j j 4 @ 6 j - 4 4 4 4 5 = * * 5 4 5 5 * ; * * * 4 4 5 5 5 4 5 4 4 4 @ - @ 7 7 7 8 #.~.(._.`.%.[ m ",
"d.#.h.{.h.h.h.d.A A A I I A I A A S E # l U U Z I P D I A A A A A A S A A A S S S V O 4 S D U D S Z A U I A Q U $.h.h.n.).$.Y a "
};
