/* XPM */
static char *result[] = {
/* columns rows colors chars-per-pixel */
"64 64 238 2 ",
"   c #0D091E",
".  c #0D0B25",
"X  c #130E28",
"o  c #15122B",
"O  c #19152D",
"+  c #191527",
"@  c #0A0A38",
"#  c #151234",
"$  c #1B1634",
"%  c #1D1C3C",
"&  c #1A1837",
"*  c #0F103E",
"=  c #22172D",
"-  c #241D3B",
";  c #2C1D3D",
":  c #271A36",
">  c #321C36",
",  c #331B3C",
"<  c #381A3A",
"1  c #2C1331",
"2  c #1E213B",
"3  c #24223F",
"4  c #2A223E",
"5  c #282337",
"6  c #33213C",
"7  c #5F1F3E",
"8  c #56293E",
"9  c #0C0A42",
"0  c #130E4B",
"q  c #140E42",
"w  c #151442",
"e  c #1C1A44",
"r  c #15124C",
"t  c #1A164B",
"y  c #1C1A4C",
"u  c #171946",
"i  c #1E1C53",
"p  c #191453",
"a  c #231E43",
"s  c #2B1E42",
"d  c #231C4C",
"f  c #2A1B4B",
"g  c #341C42",
"h  c #391D41",
"j  c #331C4B",
"k  c #3A1743",
"l  c #221C53",
"z  c #2A1E52",
"x  c #1E2342",
"c  c #1D204B",
"v  c #1D265F",
"b  c #242343",
"n  c #2A2343",
"m  c #2C2944",
"M  c #25234B",
"N  c #2B244C",
"B  c #2C294D",
"V  c #322442",
"C  c #33254B",
"Z  c #3B264B",
"A  c #332C4B",
"S  c #3A2A4B",
"D  c #382845",
"F  c #252352",
"G  c #2B2453",
"H  c #2C2A53",
"J  c #25245B",
"K  c #2B255C",
"L  c #2C2A5C",
"P  c #25295A",
"I  c #332C55",
"U  c #3B2C54",
"Y  c #332C5D",
"T  c #3A2C5C",
"R  c #352555",
"E  c #3C3254",
"W  c #35325B",
"Q  c #3C325B",
"!  c #373357",
"~  c #3C314E",
"^  c #252462",
"/  c #2D2B63",
"(  c #2C2966",
")  c #332C63",
"_  c #3B2E63",
"`  c #332D6C",
"'  c #362B65",
"]  c #363263",
"[  c #3C3363",
"{  c #3C3B66",
"}  c #35336D",
"|  c #3B346B",
" . c #3B3A6B",
".. c #332E75",
"X. c #363473",
"o. c #3B3575",
"O. c #3D3A74",
"+. c #35327D",
"@. c #3A357C",
"#. c #3D3A7C",
"$. c #373E7F",
"%. c #2E316B",
"&. c #1B1A62",
"*. c #452848",
"=. c #592B4A",
"-. c #4E304F",
";. c #4E2F55",
":. c #422B57",
">. c #582C53",
",. c #4D3052",
"<. c #43355C",
"1. c #45395D",
"2. c #453559",
"3. c #553454",
"4. c #58375A",
"5. c #58344E",
"6. c #672B48",
"7. c #683546",
"8. c #733047",
"9. c #673259",
"0. c #6E2A4F",
"q. c #452E62",
"w. c #433464",
"e. c #423963",
"r. c #4A3A63",
"t. c #43356A",
"y. c #433B6C",
"u. c #4A376A",
"i. c #413C75",
"p. c #433D7D",
"a. c #453874",
"s. c #523D6A",
"d. c #3D417C",
"f. c #48426A",
"g. c #52456B",
"h. c #4A4175",
"j. c #44427D",
"k. c #4A447C",
"l. c #444276",
"z. c #54477B",
"x. c #7B586E",
"c. c #795979",
"v. c #715069",
"b. c #7F6172",
"n. c #89545E",
"m. c #8A4C68",
"M. c #885568",
"N. c #865779",
"B. c #945166",
"V. c #886179",
"C. c #3B3582",
"Z. c #3D3983",
"A. c #3C3B8A",
"S. c #323484",
"D. c #423784",
"F. c #413B84",
"G. c #423C8A",
"H. c #453F96",
"J. c #3E4087",
"K. c #444184",
"L. c #4A4484",
"P. c #4C4A84",
"I. c #44428B",
"U. c #4B458C",
"Y. c #4D4A8B",
"T. c #444987",
"R. c #544B84",
"E. c #524B8A",
"W. c #554A86",
"Q. c #55528B",
"!. c #5A558C",
"~. c #5A5185",
"^. c #4A4593",
"/. c #4D4A95",
"(. c #4F4D98",
"). c #464394",
"_. c #524D9B",
"`. c #554C93",
"'. c #545494",
"]. c #5A5493",
"[. c #565891",
"{. c #53519C",
"}. c #5A549C",
"|. c #5D5A9B",
" X c #5A5997",
".X c #4F5092",
"XX c #63589A",
"oX c #645384",
"OX c #646299",
"+X c #7B6583",
"@X c #5B5CA3",
"#X c #5658A3",
"$X c #625DA5",
"%X c #5B64AC",
"&X c #5E68B1",
"*X c #6562A3",
"=X c #6965A6",
"-X c #6464AD",
";X c #6A66AC",
":X c #6569AE",
">X c #6C69AE",
",X c #6B6CA6",
"<X c #6E70A6",
"1X c #6C67B2",
"2X c #656BB2",
"3X c #6B6DB4",
"4X c #6D6DB9",
"5X c #6467B3",
"6X c #716DB4",
"7X c #736DBB",
"8X c #6971B7",
"9X c #6C72BA",
"0X c #6F7DB7",
"qX c #7572BC",
"wX c #7974BC",
"eX c #7975B5",
"rX c #706FAD",
"tX c #746EC1",
"yX c #7571C2",
"uX c #7A7BC9",
"iX c #6F74C4",
"pX c #81709E",
"aX c #807AC0",
"sX c #7982BB",
"dX c #7D82C8",
"fX c #8885BD",
"gX c #978BBC",
"hX c #9791BF",
"jX c #8383C3",
"kX c #8984C4",
"lX c #8988C8",
"zX c #978DC6",
"xX c #9892CB",
"cX c #958ED5",
"vX c #A395CE",
"bX c #A6A7D6",
"nX c #ADAAE8",
"mX c #A29DE5",
/* pixels */
"L.I.^.).).G.).^.^.^./.(.{.{.(.).I.#XH o M Z.Z.{.{././.(./.(.(.{.{.{.{.{.(././.^.).).I.G.q q M #X(./.(././.{.{.{.{.(./.^.^.).I.L.",
"Y.-X:X3X9X3X8X2X2X2X&X&X&X&X%X8XdXiX^.u #.F.8XuX9X2X2X2X:X2X2X&X2X2X2X8X8X2X8X4X1X-X5X@X^ u |.uX2X2X2X2X&X:X2X2X2X8X2X4X3X-X-XY.",
"Y.3X-X-X-X8X2X2X8X9X8X8X8X8X8X&X8X9X{.u X.@X8X3X&X2X8X8X8X8X8X8X8X9X9X2X2X3X2X-X-X-X4X-XY.P %X8X%X8X8X8X8X8X8X9X2X2X8X-X-X1X3XY.",
"L.7XqX3X2X3X2X3X3X2X8X3X8X8X2X8X9X&X{.c %.2X8X9X8X2X2X8X2X8X8X3X2X2X2X2X2X3X3X2X3XqXqX*XL.P -X8X8X8X2X8X8X8X3X3X2X2X3X2X3XqX3XL.",
"Y.qX3X7X3X3X3X3X8X3X9X3X8X8X2X&XuX%X(.u X.5X9XdX8X&X8X4X3X8X8X3X8X3X3X3X3X3X3X9XqX3XyX;XY.P 2XdX&X8X8X3X3X8X8X3X3X8X3X4X7X3XqXE.",
"#._.yX4X4X7X4X3X3X6X3X3X8X3X8XiX&X^.I.y %.&X5X5X2XiX3X3X6X3X3X3X3X3X3X3X3X4X4X3X2X4X5X(.#.v #X&XiX8X3X3X3X3X6X3X3X4X4X4X3XyX_.#.",
"F.C./.G.I.I.I.I.I.I.I.K.I.I.I.J.S.S.T.c %.{.&X2X%X@X%X@X|.'.'.'.'.'.'..X(.Y.Y.(.{.#X/.Z.K.P ..S.J.I.I.K.I.K.I.I.I.I.I.I.G./.C.F.",
"#.C.C.A.Z.Z.Z.Z.#.F.Z.Z.#.Z.Z.A.A.J.$.c P J.I.A.X./ Y n m N N N s a B N b N B # d ` C.Z.#.P @.A.A.Z.Z.Z.F.Z.Z.Z.Z.D.Z.C.A.Z.C.@.",
"Y.A.Z.G.D.Z.Z.D.D.Z.Z.D.D.D.G.G.A.J.Y.F { } M # V Q U u.' Y | _ z R z ` t.K t.f M $ Z Y Y./ X.A.G.D.D.D.D.A.Z.Z.D.Z.C.F.G.C.Z.`.",
"F.A.Z.D.G.D.D.D.D.D.D.A.D.D.A.G.G.K.d.% m % N f T T vXzXcXlXxX' / / kXkXaXcXzX_ G % <.n M c ( I.G.A.G.D.D.D.D.D.D.D.F.D.G.Z.Z.F.",
"p Z.F.@.F.F.D.F.Z.D.D.D.D.D.D.C.K.| C A ] P P y [ t.oX~.F.p.j.) K t.F.F.`.}.E.] G u / L G u c o.C.G.D.D.D.D.D.F.A.F.F.F.@.G.Z.p ",
"l L.F.p.#.#.F.F.C.@.D.F.D.Z.D...G N <.W jXlX| l l a.s.XXW.j.z._ l | R.W.XXXXL.) u P / jXkXo.P x J C.Z.D.D.F.+.@.G.p.@.p.#.F.K.l ",
"t p.#.O.p.p.p.#.p.F.p.F.G.G.p.C { G fXkX#.T.zX' z u.w.z.~.~.~.t.z q.h.k.W.W.y.G y P sXd.T.dXfXL e L G.F.D.Z.K.p.p.p.p.p.O.o.p.i ",
"t r 9 r 0 0 q r 0 0 r 0 0 q = s ] kXK.K.L.L.R.G w.U r.<.Q ! U T _ u.e.T q.u.U a M F l.$.$.T.d.fXe.4 : r r r 0 r r 0 0 q t 9 r w ",
"k.k.k.p.j.j.i.P.) r O.o._ 6 2.W fXY.+.Z.U.K.R.u.V V S ,.1.1.Q H N R U w.:.w.U 4 ! W j.T.$.d.$.d.hXr.Z R o.O.r / k.i.j.p.i.k.L.k.",
"XX$X=XOX,X*Xl.R./ i j.k.4 A M Y ^ Y.Z.C.Y.E._ <.Z 4 n c B H H F M M M M N C 4 + m Q L P.L.T.T.k.] R j <.Q j.i ) R.j.*X,X*X=XP.|.",
"3X6X6X;X>XeX Xi./ J y.$ G ) K i ^ ( E.E.L.' w.j N a a e M M M M N M N M N b M x b e [ O.i.O.O.i./ / t.t.4 h.F / d. XeX;X;X>X>X;X",
">XwX6X1X>XwX*X} J d = = | kXaX^ p ( K Y t.w.G b a b M x x 2 b b b b b M b b B M N F M Q Q T Y / l ` kXxXI - i J | *XwX1X>X6X6X=X",
"1X6X1X1X3X7X].i.J O ; C | L.Y.jX^ t [ 1.A m 4 n a n b x x x x x b b b n b N b B b M M M :.;.B y ^ jXp.L.G n X J O.].6X3X>X>X;X$X",
";X6X;X1X;X;X].O.z O g U zXG.G.p.zX[ j g n D 6 n - a b x x x x b b b b m b b B b b N b M N Z ! M eX#.I.K.zXW A b d.].>X>X1X;X=X=X",
"|.$X7X$X;X}.@.j.5 = A <.z.]./.P.h.T g N 4 D *.D s s n b x x x b b b M b b b b b b b M B m x ! L d.T.Y.Q.R.Q 3 o j.o.@X;X$X7X*X$X",
"K.D.Z.Z.C.+.F.i.= 5 S w.w.~.!.~.I 1.s & > 8 5.*.C N n x b x x x b b b b m b B b B b b b x x m ! c z.P.l.W W E m j.F.+.+.D.D.F.K.",
"U.G.A.U.F.@.p.| + 6 :.<.w.w.] T e.n m V x.7.=.3.g ;.; 4 b b x b b M b m M b b b b b b b b B m m L P W Y [ W A 3 F.p.@.F.U.F.G.L.",
"p.D.#.Z.#.@.K.Y   - U R U U I N C m : v.N.6.8 5.g ,.s n 3 b 3 b b x b b b b m b B b b B b m 2 5 B B H H F d - o | F.@.@.F.C.D.p.",
"| ` } ` ( X.J @ + A 1.r.U U C C n E < m.m.8.7.5.< ;.s s - n b b b x b b b b b b b b B b B b 3 2 B b N G T I m 5 @ l X.( ` } X.} ",
"e t t t t r i e X 5 U U _ | Y Y C g c.m.B.8.8 5.k ,.< s n 4 a b b b x b b b b b b B b b m b 2 2 b N y i / G B 4 u i t t t t t e ",
"k.k.j.j.j.p.F.[ + m W gXlXlX^ ] 6 > x.n.n.8.6.4.k ;., s a n a b b b b b x B b b b b b b b b b m A G v uXlXjXA m | j.p.p.j.j.j.k.",
"F.G.@.Z.C.C.D.`   m U E.J.A.dXL V > x.n.m.8.0.>.g ;., s 3 b 4 4 b 2 b b x b b b x b b b b b B & B F lXJ.+.d.! 6 ..A.C.C.C.@.G.p.",
"p.@.U./._._._.F.. m Q O.C.Z.L.Y V < N.M.M.0.0.4.< ;., n b n a 3 x 3 3 b b b b b M b b m b b b m % Y Z.Z.I.K.e.- G.}._._./.Y.@.p.",
"i.|.aX6XqXeXwX XX - e.~.K.K.`.[ Z 6 c.c.N.9.>.4.g ;., a b 3 b 3 3 b 2 x b x x b x b b b b b b 5 B Q O.T.L.R.E 5 XXyXeXeX6XaX|.i.",
"P.aX6X6X6X6X6X!.+ 3 ] h.P.!.z.q.f H f G T j : r.< 3.g n 2 3 3 3 3 2 3 b b x b b b b b m b b 3 5 I Q h.z.E.z.1.> XX6X1X6X6X6XaXE.",
"Y.$X6X1X6X;X6X!.+ a I | G _ r.4.N M } l.j.O.f g g 4.; ; 3 n 4 3 3 b x b b b b b b b b b b B m 5 B E 1.f.' t.U ; XX6X1X6X;X6X$XY.",
"a.G.eX1X6X3X6X].$ % J I t.:.:.:.f l.mXmXnXnXh.j g 4., n 3 3 b - 2 b x b b b b b b b b B b b 4 5 B A S U _ u.<.D XX6X6X6X;XqXG.a.",
"G.G.#X{._._.}.j.$ & d i d d j j j P.>XyX5XqXi.r.V 3., ; 3 3 4 3 2 3 3 b b x b b b b b b b b 3 5 B U n s z T g O L.}._.{._.}.G.K.",
"L.C.@.C.D.C.Z.` o % ] / &.( K Q G d.2XyXiX4Xj.g.*.;.V 4 b 3 3 3 b 2 b x b x x b b x b b B b b 2 l T J ( ) ' 2.; ..D.C.C.C.@.D.L.",
"F.D.Z.F.D.F.D.} . b L lXsX0XxXy.H J.+.5XiX8Xa.r.h 3.6 3 3 3 n 3 3 3 3 b b b b b b b B b b b m 2 l ) jXjXcXxX<.4 o.F.F.D.D.C.F.G.",
"L.D.Z.F.A.F.Z.X.& b Y j.T.T.Y.| P l.O.K.a.D.a.j < 4., n 3 3 4 - 2 3 2 M b b b b x b M b m b b b J ' F.I.L.R.1.D @.D.F.A.F.D.Z.G.",
"L.G.K.G.I.K.K. .. % ] Y.#.J.k.W M H h.k.a.u.j , < 4.; n 3 3 b 3 b 3 3 x x b x b b b b b b m b 4 l Y #.U.`.~.1.6 O.K.K.F.I.K.G.P.",
"y y l P i P F M $ % ] Q.Y.K.l.T B f = 1 k 1 h 3., -.1 n 3 b n 3 b 2 3 b b b b b b b b b b b b - F / p.E.F.k.w.6 b F P i P i y d ",
"H B M W c W B . o % T k.R.P.k.w.b S v.c.x.9.4.3.< ;., 4 3 b 3 a b 3 3 x b x b b B b b b b m b - M / o.G.L.z.f.D . M W M W M H B ",
"{ j.OX!.OX!. .B o e Y | ' ' ] F n , b.V.M.7.6.4.< ,., 4 4 b b 3 e 3 3 b b b b b M b b b B b m n b J ` X.` | E 4 H { !.OX!.OXP.y.",
"=X;X1X1X6X=XQ.{ . a Y K q.w.[ G 3 > V.M.n.8.9.5.> ;., - 3 b a b 3 3 3 x b x x b b b b b b b b 5 b J J ( ` t.e.S y.[.=X6X3X6XtXqX",
"=XtXyX7X1X7X|.) X # d d Z j R % 3 > x.M.M.6.6.3.< -., n b b a - b b b x b b b b b b b b m b m 5 s d * 0 p l C = ) |.7X1X7XtXuXtX",
";XaX7XtX7X6X$X/ . & F w.q.:.[ w 3 > x.M.B.6.=.5.> -.; - 3 b n b % % b b b x b b b b b b b b 3 5 m M K ^ ^ | E V ` @X7X7XtXtXaXtX",
";X6X1XtX7X;X}.W X B d zXzXvXzX} 2 > n.B.B.8.7 =.> -., 4 2 n a b b b x b b b x b b b b b b B b 2 b F fXdXcXxX2.V | XX$X7XtX$XyXyX",
";X$X7X1X7X=Xp.] . % ] ].^.^.Y.L 5 > M.B.B.8.6.5.> 3., ; b b n b b % - x x b 3 b b b b b b b b b H Y Z.Z.p.W.<.S [ F.;X7X1XtXyX$X",
"L.}._.H._.D.+. .. M Y W.^.H.G.( b 6 v.n.B.7 6.=.< 3.: ; b b a a M x a b b x b b b b b b b b B x N ) S.J.U.R.<.D i.+.D._.H.^._.U.",
"G.D.A.D.G.C.G.i.o a Y `.^.H.F.} H *.N.pXN.=.=.-.< 3., 4 3 a b M x - b b b b a M b b x B B b b x F ) A.I.Y.W.<.V p.F.C.G.G.A.G.G.",
"G.A.A.Z.J.I.F.} o M ) E.U.^.G.| K j j g g - 4 S 6 3.6 4 b b x 2 3 e 2 b b b 2 b b M b b m b b - F _ j.L.Y.W.2.D O.F.G.G.G.Z.A.K.",
"K.K.K.K.Y.k.( e X a L R.Y.L.L.[ l R w.g.{ ] B D > 3.*.4 b b b b b b b 3 x 3 M b b b b N b m b 4 M ] k.W.L.R.<.V r / K.Y.K.K.J.K.",
"% u @ u # * * #   % G J / ) T T d l.bXbXnXbXf.A 1 3.*.; b 2 b 2 3 2 2 M b b b M b b b b b m b ; a N U T ( ` ! V # # * w u @ e % ",
"x ! ! d.d.Q { ! o b / ) ) Q W 2.G i.<X<X<X<X{ E > 3.Z s 3 3 b b b b 3 b x b x b b b b b b b b : n m U I ) | Q 6 [ f.{  .| ] P b ",
"* O.O.j.j.l.l.]   & G l d N V 6 C L.>XrX,XrXP.1., 3.< g a 3 x 3 % 3 2 b x b b b b b b b m b n > s N U T K T C 1 |  .y.P. .o.#.M ",
"i U.K.Z.I.J.K.} . n Y L K Y U E Z p.` aXeXrXi.r.; -.< ; 4 3 3 b 3 3 b b 3 b b b b b b b b b n : n C T T ' q.U 6 o.F.#.j.O.` #.P ",
"K.^.3X:X:X:X>X[.o % P kXcXcXkXI z F.a.a.u.a.h.; , 4.< s 3 2 b 2 - 3 3 b b b b b b m b B m m 3 2 F T xXcXcXaXQ 4 |.&X8X:XOXd./ G ",
"p.'.;X>X3X3X3X[.. I / ^.S.S.Y.G z f u.z.q.s.R Z ; 4.< g 4 b 3 3 b b - b b n b 3 b b b b b b b 2 F Y `.U.D.U.Y D  X:X:X:X%XQ.K / ",
"j.>X8X3X3X3X3X[.  $ L L.).A.i.Q S V V C N Z V 2.g 4.h ; 4 3 b - 3 - b b a b b b b b b m m b 3 4 b Y o.D.L.k.W 6 |.:X8X:X|.P.P / ",
"j.qX6X8X3X3X3X[.+ $ N / &.X._ n , 1 c.c.pX;.4.s.V 3.h s b 3 3 3 3 b - b n b a 4 4 b 4 b n b 3 5 - n _ z ' _ <.g |.2X3X:X:X[.J P ",
"'.1X:XeX:X:X3X[.o o n N l ) N ; 6 > v.pXm.9.>.*.V ; = n 4 b 3 3 - - b 3 n 3 3 n b b 3 b b b b A n Z :.q.R R C s |.:X0X3X@XQ.P P ",
"X.G.3X3X6X8X3X[.: 4 ~ 2.) ' T a , > c.N.N.0.9.Z m b 3 4 3 3 x b b 3 3 b 3 3 3 b 3 b b m b b m m N h u.u.u.q.U n |.3X6X6X9XI.} J ",
"p.I.;X;X6X3X3X[.X 5 1.g.fXaXl.I m - +X+Xc.>.*.V 4 m 4 4 3 b 3 - 3 3 3 3 3 3 3 b b b 4 m 3 m b c M U z.gXgXoX:.S '.*X>X6X8XI.X.J ",
"j.G...Z.Z.C.#.} 5 4 ~ A L Y Y a m $ 4 = , 1 , ; 4 m A b 3 n n 3 3 3 3 3 3 3 3 b 3 b 3 4 4 4 b c e m ! B Q 1.2.6 X.Z.Z.F.X.D.@.L ",
"L.C.Z.G.D.D.F.` 5 4 4 a a e e - 2 2 - - : ; 4 2 3 3 5 - 5 - 5 5 - - : 5 5 : 5 - 5 & 2 5 5 5 2 2 2 % - % n 4 4 4 o.Z.D.G.F.D./ i ",
"i.o.p.F.p.p.p.i.N N N G G N N G % x % # & e 2 & & % % - % - & % % % % - % % % 2 2 2 o O 2 & % 2 b b N G B B C H O.p.p.j.F.o.F t "
};
